<?xml version="1.0" encoding="UTF-8" standalone="no"?>
<!-- This is a Stata 16.1 generated SVG file (http://www.stata.com) -->

<svg version="1.1" width="5.50in" height="4.00in" viewBox="0 0 3960 2880" xmlns="http://www.w3.org/2000/svg" xmlns:xlink="http://www.w3.org/1999/xlink">
	<desc>Stata Graph - Graph</desc>
	<rect x="0" y="0" width="3960" height="2880" style="fill:#EAF2F3;stroke:none"/>
	<rect x="0.00" y="0.00" width="3959.88" height="2880.00" style="fill:#EAF2F3"/>
	<rect x="2.88" y="2.88" width="3954.12" height="2874.24" style="fill:none;stroke:#EAF2F3;stroke-width:5.76"/>
	<rect x="521.73" y="100.86" width="3337.29" height="2388.33" style="fill:#FFFFFF"/>
	<rect x="524.61" y="103.74" width="3331.53" height="2382.57" style="fill:none;stroke:#FFFFFF;stroke-width:5.76"/>
	<line x1="521.73" y1="2425.82" x2="3859.02" y2="2425.82" style="stroke:#EAF2F3;stroke-width:8.64"/>
	<line x1="521.73" y1="1973.50" x2="3859.02" y2="1973.50" style="stroke:#EAF2F3;stroke-width:8.64"/>
	<line x1="521.73" y1="1521.18" x2="3859.02" y2="1521.18" style="stroke:#EAF2F3;stroke-width:8.64"/>
	<line x1="521.73" y1="1068.86" x2="3859.02" y2="1068.86" style="stroke:#EAF2F3;stroke-width:8.64"/>
	<line x1="521.73" y1="616.54" x2="3859.02" y2="616.54" style="stroke:#EAF2F3;stroke-width:8.64"/>
	<line x1="521.73" y1="164.22" x2="3859.02" y2="164.22" style="stroke:#EAF2F3;stroke-width:8.64"/>
	<defs>
		<path id="path_sgWLJKkY" d="M615.53 2425.82 L615.53 2425.82 L630.75 2425.82 L645.98 2425.82 L661.20 2425.82 L676.42 2425.82 L691.64 2425.82 L706.86 2425.82 L722.08 2425.82 L737.30 2425.82 L752.52 2425.82 L767.75 2425.70 L782.97 2425.58 L798.19 2425.45 L813.41 2425.20 L828.63 2424.71 L843.85 2424.09 L859.07 2422.98 L874.29 2421.49 L889.51 2419.39 L904.61 2416.54 L919.83 2412.71 L935.05 2407.63 L950.28 2401.32 L965.50 2393.40 L980.72 2383.62 L995.94 2372.11 L1011.16 2358.62 L1026.38 2343.03 L1041.60 2325.58 L1056.83 2306.15 L1072.05 2284.99 L1087.27 2262.34 L1102.49 2238.21 L1117.71 2213.09 L1132.93 2187.23 L1148.15 2160.74 L1163.37 2134.01 L1178.60 2107.28 L1193.82 2080.92 L1209.04 2054.93 L1224.26 2029.56 L1239.48 2004.94 L1254.70 1980.93 L1269.80 1957.79 L1285.02 1935.51 L1300.24 1913.98 L1315.46 1893.19 L1330.68 1873.26 L1345.90 1854.20 L1361.13 1835.76 L1376.35 1818.19 L1391.57 1801.24 L1406.79 1785.03 L1422.01 1769.43 L1437.23 1754.46 L1452.45 1740.10 L1467.67 1726.12 L1482.90 1712.63 L1498.12 1699.51 L1513.34 1686.77 L1528.56 1674.51 L1543.78 1662.39 L1559.00 1650.75 L1574.22 1639.37 L1589.44 1628.35 L1604.67 1617.59 L1619.76 1607.19 L1634.98 1597.17 L1650.21 1587.27 L1665.43 1577.86 L1680.65 1568.58 L1695.87 1559.55 L1711.09 1550.88 L1726.31 1542.47 L1741.53 1534.30 L1756.76 1526.26 L1771.98 1518.58 L1787.20 1511.16 L1802.42 1503.86 L1817.64 1496.80 L1832.86 1490.00 L1848.08 1483.31 L1863.30 1476.88 L1878.53 1470.69 L1893.75 1464.63 L1908.97 1458.81 L1924.19 1453.12 L1939.41 1447.67 L1954.63 1442.23 L1969.85 1437.15 L1984.95 1432.08 L2000.17 1427.25 L2015.39 1422.55 L2030.61 1417.97 L2045.84 1413.52 L2061.06 1409.19 L2076.28 1404.98 L2091.50 1400.89 L2106.72 1397.06 L2121.94 1393.22 L2137.16 1389.51 L2152.38 1385.92 L2167.61 1382.45 L2182.83 1379.11 L2198.05 1375.90 L2213.27 1372.68 L2228.49 1369.71 L2243.71 1366.61 L2258.93 1363.77 L2274.15 1361.05 L2289.38 1358.32 L2304.60 1355.60 L2319.82 1353.12 L2335.04 1350.65 L2350.14 1348.30 L2365.36 1345.95 L2380.58 1343.72 L2395.80 1341.49 L2411.02 1339.39 L2426.24 1337.28 L2441.46 1335.30 L2456.68 1333.32 L2471.91 1331.47 L2487.13 1329.61 L2502.35 1327.88 L2517.57 1326.15 L2532.79 1324.54 L2548.01 1322.93 L2563.23 1321.32 L2578.45 1319.83 L2593.68 1318.35 L2608.90 1316.86 L2624.12 1315.50 L2639.34 1314.14 L2654.56 1312.90 L2669.78 1311.54 L2685.00 1310.31 L2700.22 1309.19 L2715.32 1307.95 L2730.54 1306.84 L2745.76 1305.73 L2760.99 1304.61 L2776.21 1303.62 L2791.43 1302.63 L2806.65 1301.64 L2821.87 1300.65 L2837.09 1299.79 L2852.31 1298.80 L2867.53 1297.93 L2882.76 1297.06 L2897.98 1296.32 L2913.20 1295.46 L2928.42 1294.71 L2943.64 1293.85 L2958.86 1293.10 L2974.08 1292.49 L2989.30 1291.74 L3004.53 1291.00 L3019.75 1290.38 L3034.97 1289.64 L3050.19 1289.02 L3065.41 1288.40 L3080.51 1287.78 L3095.73 1287.16 L3110.95 1286.55 L3126.17 1286.05 L3141.39 1285.43 L3156.61 1284.94 L3171.84 1284.32 L3187.06 1283.82 L3202.28 1283.33 L3217.50 1282.83 L3232.72 1282.34 L3247.94 1281.84 L3263.16 1281.35 L3278.39 1280.85 L3293.61 1280.48 L3308.83 1279.99 L3324.05 1279.49 L3339.27 1279.12 L3354.49 1278.62 L3369.71 1278.25 L3384.93 1277.76 L3400.16 1277.39 L3415.38 1277.02 L3430.47 1276.52 L3445.70 1276.15 L3460.92 1275.78 L3476.14 1275.41 L3491.36 1275.04 L3506.58 1274.54 L3521.80 1274.17 L3537.02 1273.80 L3552.24 1273.43 L3567.47 1273.06 L3582.69 1272.68 L3597.91 1272.31 L3613.13 1271.94 L3628.35 1271.57 L3643.57 1271.20 L3658.79 1270.83 L3674.01 1270.46 L3689.24 1270.21 L3704.46 1269.84 L3719.68 1269.47 L3734.90 1269.10 L3750.12 1268.72 L3765.34 1268.35 L3780.56 1267.98 L3795.66 1267.73 L3795.66 424.23 L3780.56 424.85 L3765.34 425.47 L3750.12 426.08 L3734.90 426.70 L3719.68 427.20 L3704.46 427.82 L3689.24 428.44 L3674.01 429.05 L3658.79 429.67 L3643.57 430.29 L3628.35 430.91 L3613.13 431.53 L3597.91 432.27 L3582.69 432.89 L3567.47 433.51 L3552.24 434.13 L3537.02 434.75 L3521.80 435.37 L3506.58 435.98 L3491.36 436.73 L3476.14 437.35 L3460.92 437.96 L3445.70 438.71 L3430.47 439.33 L3415.38 440.07 L3400.16 440.69 L3384.93 441.43 L3369.71 442.05 L3354.49 442.79 L3339.27 443.53 L3324.05 444.28 L3308.83 445.02 L3293.61 445.76 L3278.39 446.50 L3263.16 447.25 L3247.94 448.11 L3232.72 448.86 L3217.50 449.72 L3202.28 450.59 L3187.06 451.45 L3171.84 452.32 L3156.61 453.19 L3141.39 454.05 L3126.17 454.92 L3110.95 455.91 L3095.73 456.90 L3080.51 457.89 L3065.41 458.88 L3050.19 459.87 L3034.97 460.98 L3019.75 461.97 L3004.53 463.09 L2989.30 464.32 L2974.08 465.44 L2958.86 466.68 L2943.64 467.91 L2928.42 469.15 L2913.20 470.39 L2897.98 471.75 L2882.76 473.11 L2867.53 474.47 L2852.31 475.96 L2837.09 477.44 L2821.87 478.93 L2806.65 480.54 L2791.43 482.15 L2776.21 483.75 L2760.99 485.49 L2745.76 487.22 L2730.54 489.08 L2715.32 490.93 L2700.22 492.79 L2685.00 494.77 L2669.78 496.87 L2654.56 498.98 L2639.34 501.08 L2624.12 503.31 L2608.90 505.66 L2593.68 508.01 L2578.45 510.48 L2563.23 512.96 L2548.01 515.56 L2532.79 518.16 L2517.57 521.00 L2502.35 523.85 L2487.13 526.70 L2471.91 529.79 L2456.68 532.88 L2441.46 536.10 L2426.24 539.44 L2411.02 542.78 L2395.80 546.37 L2380.58 549.96 L2365.36 553.80 L2350.14 557.63 L2335.04 561.60 L2319.82 565.80 L2304.60 570.01 L2289.38 574.34 L2274.15 578.92 L2258.93 583.62 L2243.71 588.45 L2228.49 593.40 L2213.27 598.47 L2198.05 603.80 L2182.83 609.24 L2167.61 614.81 L2152.38 620.63 L2137.16 626.57 L2121.94 632.75 L2106.72 639.06 L2091.50 645.62 L2076.28 652.43 L2061.06 659.36 L2045.84 666.54 L2030.61 673.96 L2015.39 681.64 L2000.17 689.56 L1984.95 697.60 L1969.85 706.02 L1954.63 714.68 L1939.41 723.59 L1924.19 732.75 L1908.97 742.15 L1893.75 751.80 L1878.53 761.83 L1863.30 772.22 L1848.08 782.87 L1832.86 793.76 L1817.64 805.14 L1802.42 816.65 L1787.20 828.66 L1771.98 841.03 L1756.76 853.65 L1741.53 866.65 L1726.31 880.14 L1711.09 894.00 L1695.87 908.11 L1680.65 922.71 L1665.43 937.81 L1650.21 953.28 L1634.98 969.12 L1619.76 985.45 L1604.67 1002.16 L1589.44 1019.36 L1574.22 1037.06 L1559.00 1055.25 L1543.78 1073.94 L1528.56 1092.99 L1513.34 1112.67 L1498.12 1132.72 L1482.90 1153.39 L1467.67 1174.55 L1452.45 1196.45 L1437.23 1219.22 L1422.01 1242.86 L1406.79 1267.49 L1391.57 1293.23 L1376.35 1320.08 L1361.13 1348.42 L1345.90 1378.12 L1330.68 1409.31 L1315.46 1442.10 L1300.24 1476.51 L1285.02 1512.64 L1269.80 1550.39 L1254.70 1589.87 L1239.48 1630.95 L1224.26 1673.40 L1209.04 1717.33 L1193.82 1762.26 L1178.60 1808.17 L1163.37 1854.33 L1148.15 1900.24 L1132.93 1945.53 L1117.71 1989.59 L1102.49 2032.16 L1087.27 2072.88 L1072.05 2111.36 L1056.83 2147.50 L1041.60 2181.04 L1026.38 2212.10 L1011.16 2240.69 L995.94 2266.55 L980.72 2289.94 L965.50 2310.98 L950.28 2329.54 L935.05 2346.00 L919.83 2360.23 L904.61 2372.61 L889.51 2383.13 L874.29 2392.04 L859.07 2399.46 L843.85 2405.53 L828.63 2410.48 L813.41 2414.31 L798.19 2417.41 L782.97 2419.88 L767.75 2421.62 L752.52 2422.98 L737.30 2423.97 L722.08 2424.71 L706.86 2425.20 L691.64 2425.45 L676.42 2425.70 L661.20 2425.82 L645.98 2425.82 L630.75 2425.82 L615.53 2425.82 L615.53 2425.82 Z" stroke-linejoin="round"/>
	</defs>
	<defs>
		<clipPath id="clipPath_mKPaaplp">
			<use xlink:href="#path_sgWLJKkY"/>
		</clipPath>
	</defs>
	<use xlink:href="#path_sgWLJKkY" style="stroke:none;fill:#3333FF;fill-opacity:0.25"/>
	<use xlink:href="#path_sgWLJKkY" style="fill:none;stroke:#0000FF;stroke-opacity:0.25;stroke-width:17.28" clip-path="url(#clipPath_mKPaaplp)"/>
	<defs>
		<path id="path_qmAuJApO" d="M615.53 2425.82 L615.53 2425.82 L630.75 2425.82 L645.98 2425.82 L661.20 2425.82 L676.42 2425.82 L691.64 2425.82 L706.86 2425.82 L722.08 2425.82 L737.30 2425.82 L752.52 2425.82 L767.75 2425.70 L782.97 2425.70 L798.19 2425.58 L813.41 2425.33 L828.63 2424.96 L843.85 2424.46 L859.07 2423.72 L874.29 2422.61 L889.51 2421.00 L904.61 2418.89 L919.83 2415.92 L935.05 2412.21 L950.28 2407.26 L965.50 2401.20 L980.72 2393.77 L995.94 2384.86 L1011.16 2374.34 L1026.38 2362.21 L1041.60 2348.48 L1056.83 2333.13 L1072.05 2316.30 L1087.27 2298.23 L1102.49 2279.05 L1117.71 2258.88 L1132.93 2238.09 L1148.15 2216.93 L1163.37 2195.39 L1178.60 2173.98 L1193.82 2152.70 L1209.04 2131.78 L1224.26 2111.36 L1239.48 2091.44 L1254.70 2072.13 L1269.80 2053.32 L1285.02 2035.26 L1300.24 2017.68 L1315.46 2000.85 L1330.68 1984.64 L1345.90 1968.92 L1361.13 1953.95 L1376.35 1939.47 L1391.57 1925.61 L1406.79 1912.24 L1422.01 1899.37 L1437.23 1887.00 L1452.45 1874.99 L1467.67 1863.49 L1482.90 1852.35 L1498.12 1841.46 L1513.34 1830.94 L1528.56 1820.67 L1543.78 1810.77 L1559.00 1801.11 L1574.22 1791.71 L1589.44 1782.55 L1604.67 1773.76 L1619.76 1765.10 L1634.98 1756.81 L1650.21 1748.77 L1665.43 1740.85 L1680.65 1733.30 L1695.87 1725.87 L1711.09 1718.69 L1726.31 1711.76 L1741.53 1704.96 L1756.76 1698.40 L1771.98 1692.09 L1787.20 1685.90 L1802.42 1679.96 L1817.64 1674.14 L1832.86 1668.57 L1848.08 1663.13 L1863.30 1657.81 L1878.53 1652.73 L1893.75 1647.78 L1908.97 1642.96 L1924.19 1638.25 L1939.41 1633.80 L1954.63 1629.34 L1969.85 1625.14 L1984.95 1621.05 L2000.17 1616.97 L2015.39 1613.13 L2030.61 1609.42 L2045.84 1605.71 L2061.06 1602.24 L2076.28 1598.78 L2091.50 1595.43 L2106.72 1592.22 L2121.94 1589.12 L2137.16 1586.15 L2152.38 1583.18 L2167.61 1580.34 L2182.83 1577.61 L2198.05 1574.89 L2213.27 1572.29 L2228.49 1569.82 L2243.71 1567.34 L2258.93 1564.99 L2274.15 1562.64 L2289.38 1560.41 L2304.60 1558.31 L2319.82 1556.20 L2335.04 1554.22 L2350.14 1552.24 L2365.36 1550.26 L2380.58 1548.41 L2395.80 1546.68 L2411.02 1544.94 L2426.24 1543.21 L2441.46 1541.60 L2456.68 1539.99 L2471.91 1538.38 L2487.13 1536.90 L2502.35 1535.54 L2517.57 1534.05 L2532.79 1532.69 L2548.01 1531.33 L2563.23 1530.09 L2578.45 1528.86 L2593.68 1527.62 L2608.90 1526.38 L2624.12 1525.27 L2639.34 1524.15 L2654.56 1523.16 L2669.78 1522.05 L2685.00 1521.06 L2700.22 1520.07 L2715.32 1519.08 L2730.54 1518.09 L2745.76 1517.22 L2760.99 1516.36 L2776.21 1515.49 L2791.43 1514.62 L2806.65 1513.88 L2821.87 1513.01 L2837.09 1512.27 L2852.31 1511.53 L2867.53 1510.79 L2882.76 1510.17 L2897.98 1509.43 L2913.20 1508.81 L2928.42 1508.06 L2943.64 1507.45 L2958.86 1506.83 L2974.08 1506.21 L2989.30 1505.71 L3004.53 1505.09 L3019.75 1504.48 L3034.97 1503.98 L3050.19 1503.49 L3065.41 1502.87 L3080.51 1502.37 L3095.73 1501.88 L3110.95 1501.38 L3126.17 1501.01 L3141.39 1500.52 L3156.61 1500.02 L3171.84 1499.65 L3187.06 1499.15 L3202.28 1498.78 L3217.50 1498.29 L3232.72 1497.92 L3247.94 1497.55 L3263.16 1497.05 L3278.39 1496.68 L3293.61 1496.31 L3308.83 1495.94 L3324.05 1495.57 L3339.27 1495.19 L3354.49 1494.82 L3369.71 1494.58 L3384.93 1494.20 L3400.16 1493.83 L3415.38 1493.46 L3430.47 1493.21 L3445.70 1492.84 L3460.92 1492.47 L3476.14 1492.22 L3491.36 1491.85 L3506.58 1491.48 L3521.80 1491.23 L3537.02 1490.86 L3552.24 1490.62 L3567.47 1490.24 L3582.69 1490.00 L3597.91 1489.63 L3613.13 1489.38 L3628.35 1489.13 L3643.57 1488.76 L3658.79 1488.51 L3674.01 1488.14 L3689.24 1487.89 L3704.46 1487.65 L3719.68 1487.27 L3734.90 1487.03 L3750.12 1486.78 L3765.34 1486.41 L3780.56 1486.16 L3795.66 1485.91 L3795.66 1098.69 L3780.56 1099.06 L3765.34 1099.43 L3750.12 1099.80 L3734.90 1100.30 L3719.68 1100.67 L3704.46 1101.04 L3689.24 1101.53 L3674.01 1101.90 L3658.79 1102.28 L3643.57 1102.77 L3628.35 1103.14 L3613.13 1103.51 L3597.91 1104.01 L3582.69 1104.38 L3567.47 1104.75 L3552.24 1105.25 L3537.02 1105.62 L3521.80 1106.11 L3506.58 1106.48 L3491.36 1106.85 L3476.14 1107.35 L3460.92 1107.84 L3445.70 1108.22 L3430.47 1108.71 L3415.38 1109.08 L3400.16 1109.58 L3384.93 1110.07 L3369.71 1110.44 L3354.49 1110.94 L3339.27 1111.43 L3324.05 1111.93 L3308.83 1112.42 L3293.61 1112.92 L3278.39 1113.41 L3263.16 1113.91 L3247.94 1114.40 L3232.72 1114.90 L3217.50 1115.52 L3202.28 1116.01 L3187.06 1116.63 L3171.84 1117.13 L3156.61 1117.74 L3141.39 1118.36 L3126.17 1118.98 L3110.95 1119.60 L3095.73 1120.22 L3080.51 1120.84 L3065.41 1121.46 L3050.19 1122.20 L3034.97 1122.82 L3019.75 1123.56 L3004.53 1124.30 L2989.30 1125.05 L2974.08 1125.79 L2958.86 1126.53 L2943.64 1127.40 L2928.42 1128.14 L2913.20 1129.01 L2897.98 1129.87 L2882.76 1130.74 L2867.53 1131.73 L2852.31 1132.60 L2837.09 1133.59 L2821.87 1134.58 L2806.65 1135.69 L2791.43 1136.68 L2776.21 1137.79 L2760.99 1138.91 L2745.76 1140.02 L2730.54 1141.26 L2715.32 1142.50 L2700.22 1143.73 L2685.00 1144.97 L2669.78 1146.33 L2654.56 1147.69 L2639.34 1149.18 L2624.12 1150.66 L2608.90 1152.15 L2593.68 1153.63 L2578.45 1155.24 L2563.23 1156.97 L2548.01 1158.58 L2532.79 1160.44 L2517.57 1162.17 L2502.35 1164.03 L2487.13 1166.01 L2471.91 1167.99 L2456.68 1170.09 L2441.46 1172.20 L2426.24 1174.30 L2411.02 1176.65 L2395.80 1178.88 L2380.58 1181.35 L2365.36 1183.83 L2350.14 1186.30 L2335.04 1189.03 L2319.82 1191.63 L2304.60 1194.47 L2289.38 1197.32 L2274.15 1200.41 L2258.93 1203.38 L2243.71 1206.60 L2228.49 1209.82 L2213.27 1213.28 L2198.05 1216.75 L2182.83 1220.34 L2167.61 1224.05 L2152.38 1227.89 L2137.16 1231.85 L2121.94 1235.81 L2106.72 1240.01 L2091.50 1244.35 L2076.28 1248.80 L2061.06 1253.38 L2045.84 1258.21 L2030.61 1263.03 L2015.39 1268.11 L2000.17 1273.30 L1984.95 1278.62 L1969.85 1284.07 L1954.63 1289.76 L1939.41 1295.70 L1924.19 1301.64 L1908.97 1307.83 L1893.75 1314.27 L1878.53 1320.83 L1863.30 1327.63 L1848.08 1334.69 L1832.86 1341.86 L1817.64 1349.29 L1802.42 1356.84 L1787.20 1364.76 L1771.98 1372.80 L1756.76 1381.09 L1741.53 1389.63 L1726.31 1398.42 L1711.09 1407.45 L1695.87 1416.86 L1680.65 1426.39 L1665.43 1436.16 L1650.21 1446.31 L1634.98 1456.58 L1619.76 1467.23 L1604.67 1478.24 L1589.44 1489.38 L1574.22 1500.89 L1559.00 1512.77 L1543.78 1524.90 L1528.56 1537.27 L1513.34 1550.02 L1498.12 1563.01 L1482.90 1576.38 L1467.67 1590.11 L1452.45 1604.35 L1437.23 1619.07 L1422.01 1634.42 L1406.79 1650.38 L1391.57 1667.21 L1376.35 1684.79 L1361.13 1703.22 L1345.90 1722.65 L1330.68 1743.20 L1315.46 1764.73 L1300.24 1787.38 L1285.02 1811.26 L1269.80 1836.26 L1254.70 1862.37 L1239.48 1889.60 L1224.26 1917.94 L1209.04 1947.14 L1193.82 1977.09 L1178.60 2007.54 L1163.37 2038.23 L1148.15 2068.92 L1132.93 2098.99 L1117.71 2128.32 L1102.49 2156.66 L1087.27 2183.76 L1072.05 2209.50 L1056.83 2233.63 L1041.60 2256.28 L1026.38 2277.32 L1011.16 2296.62 L995.94 2314.32 L980.72 2330.41 L965.50 2344.89 L950.28 2357.88 L935.05 2369.27 L919.83 2379.29 L904.61 2387.95 L889.51 2395.38 L874.29 2401.69 L859.07 2406.89 L843.85 2411.22 L828.63 2414.81 L813.41 2417.53 L798.19 2419.76 L782.97 2421.49 L767.75 2422.85 L752.52 2423.84 L737.30 2424.46 L722.08 2425.08 L706.86 2425.33 L691.64 2425.58 L676.42 2425.70 L661.20 2425.82 L645.98 2425.82 L630.75 2425.82 L615.53 2425.82 L615.53 2425.82 Z" stroke-linejoin="round"/>
	</defs>
	<defs>
		<clipPath id="clipPath_heHiGYXA">
			<use xlink:href="#path_qmAuJApO"/>
		</clipPath>
	</defs>
	<use xlink:href="#path_qmAuJApO" style="stroke:none;fill:#FF3333;fill-opacity:0.25"/>
	<use xlink:href="#path_qmAuJApO" style="fill:none;stroke:#FF0000;stroke-opacity:0.25;stroke-width:17.28" clip-path="url(#clipPath_heHiGYXA)"/>
	<path d=" M585.09 2425.95 L615.53 2425.95 L630.75 2425.95 L645.98 2425.95 L661.20 2425.95 L676.42 2425.95 L691.64 2425.82 L706.86 2425.82 L721.96 2425.82 L737.18 2425.70 L752.40 2425.45 L767.62 2425.20 L782.84 2424.71 L798.06 2424.09 L813.28 2423.10 L828.51 2421.74 L843.73 2419.88 L858.95 2417.28 L874.17 2413.82 L889.39 2409.36 L904.61 2403.67 L919.83 2396.49 L935.05 2387.83 L950.28 2377.31 L965.50 2364.81 L980.72 2350.21 L995.94 2333.38 L1011.16 2314.32 L1026.38 2292.91 L1041.60 2269.27 L1056.83 2243.41 L1072.05 2215.44 L1087.14 2185.62 L1102.37 2154.18 L1117.59 2121.27 L1132.81 2087.36 L1148.03 2052.58 L1163.25 2017.56 L1178.47 1982.29 L1193.69 1947.51 L1208.91 1913.23 L1224.13 1879.82 L1239.36 1847.40 L1254.58 1816.09 L1269.80 1785.77 L1285.02 1756.69 L1300.24 1728.84 L1315.46 1701.99 L1330.68 1676.49 L1345.90 1651.99 L1361.13 1628.60 L1376.35 1606.20 L1391.57 1584.79 L1406.79 1564.37 L1422.01 1544.70 L1437.23 1525.89 L1452.33 1507.69 L1467.55 1490.24 L1482.77 1473.29 L1497.99 1456.83 L1513.21 1440.74 L1528.44 1425.15 L1543.66 1409.93 L1558.88 1395.20 L1574.10 1380.85 L1589.32 1366.86 L1604.54 1353.25 L1619.76 1340.01 L1634.98 1327.14 L1650.21 1314.64 L1665.43 1302.51 L1680.65 1290.75 L1695.87 1279.24 L1711.09 1268.11 L1726.31 1257.34 L1741.53 1246.82 L1756.76 1236.67 L1771.98 1226.77 L1787.20 1217.12 L1802.30 1207.84 L1817.52 1198.80 L1832.74 1190.02 L1847.96 1181.48 L1863.18 1173.19 L1878.40 1165.27 L1893.62 1157.47 L1908.84 1149.92 L1924.07 1142.62 L1939.29 1135.44 L1954.51 1128.51 L1969.73 1121.83 L1984.95 1115.39 L2000.17 1109.08 L2015.39 1103.02 L2030.61 1097.08 L2045.84 1091.39 L2061.06 1085.82 L2076.28 1080.37 L2091.50 1075.17 L2106.72 1070.10 L2121.94 1065.15 L2137.16 1060.45 L2152.38 1055.74 L2167.48 1051.29 L2182.70 1046.96 L2197.92 1042.75 L2213.14 1038.67 L2228.37 1034.71 L2243.59 1030.87 L2258.81 1027.16 L2274.03 1023.57 L2289.25 1019.98 L2304.47 1016.64 L2319.69 1013.30 L2334.91 1010.08 L2350.14 1006.99 L2365.36 1004.02 L2380.58 1001.17 L2395.80 998.32 L2411.02 995.60 L2426.24 992.88 L2441.46 990.28 L2456.68 987.80 L2471.91 985.45 L2487.13 983.10 L2502.35 980.75 L2517.57 978.65 L2532.67 976.42 L2547.89 974.31 L2563.11 972.33 L2578.33 970.35 L2593.55 968.50 L2608.77 966.64 L2623.99 964.91 L2639.22 963.18 L2654.44 961.44 L2669.66 959.83 L2684.88 958.23 L2700.10 956.74 L2715.32 955.13 L2730.54 953.77 L2745.76 952.29 L2760.99 950.92 L2776.21 949.56 L2791.43 948.33 L2806.65 947.09 L2821.87 945.85 L2837.09 944.61 L2852.31 943.50 L2867.53 942.39 L2882.76 941.27 L2897.85 940.16 L2913.07 939.17 L2928.30 938.18 L2943.52 937.19 L2958.74 936.20 L2973.96 935.33 L2989.18 934.34 L3004.40 933.48 L3019.62 932.61 L3034.84 931.74 L3050.07 931.00 L3065.29 930.13 L3080.51 929.39 L3095.73 928.53 L3110.95 927.78 L3126.17 927.04 L3141.39 926.42 L3156.61 925.68 L3171.84 924.94 L3187.06 924.32 L3202.28 923.70 L3217.50 922.96 L3232.72 922.34 L3247.94 921.72 L3263.04 921.10 L3278.26 920.48 L3293.48 919.86 L3308.70 919.37 L3323.93 918.75 L3339.15 918.13 L3354.37 917.63 L3369.59 917.02 L3384.81 916.52 L3400.03 916.03 L3415.25 915.41 L3430.47 914.91 L3445.70 914.42 L3460.92 913.92 L3476.14 913.43 L3491.36 912.93 L3506.58 912.31 L3521.80 911.82 L3537.02 911.32 L3552.24 910.95 L3567.47 910.46 L3582.69 909.96 L3597.91 909.47 L3613.01 908.97 L3628.23 908.48 L3643.45 907.98 L3658.67 907.49 L3673.89 906.99 L3689.11 906.62 L3704.33 906.13 L3719.55 905.63 L3734.78 905.14 L3750.00 904.76 L3765.22 904.27 L3780.44 903.77 L3795.66 903.40" stroke-linejoin="round" style="fill:none;stroke:#0000FF;stroke-width:8.64"/>
	<path d=" M585.09 2425.95 L615.53 2425.95 L630.75 2425.95 L645.98 2425.95 L661.20 2425.95 L676.42 2425.95 L691.64 2425.95 L706.86 2425.82 L721.96 2425.82 L737.18 2425.70 L752.40 2425.58 L767.62 2425.45 L782.84 2425.08 L798.06 2424.59 L813.28 2423.84 L828.51 2422.85 L843.73 2421.49 L858.95 2419.64 L874.17 2417.04 L889.39 2413.82 L904.61 2409.61 L919.83 2404.41 L935.05 2398.10 L950.28 2390.43 L965.50 2381.27 L980.72 2370.51 L995.94 2358.25 L1011.16 2344.27 L1026.38 2328.68 L1041.60 2311.35 L1056.83 2292.42 L1072.05 2272.00 L1087.14 2250.09 L1102.37 2227.07 L1117.59 2203.07 L1132.81 2178.19 L1148.03 2152.82 L1163.25 2127.08 L1178.47 2101.34 L1193.69 2075.72 L1208.91 2050.73 L1224.13 2026.22 L1239.36 2002.46 L1254.58 1979.44 L1269.80 1957.29 L1285.02 1935.88 L1300.24 1915.46 L1315.46 1895.79 L1330.68 1877.10 L1345.90 1859.15 L1361.13 1841.95 L1376.35 1825.49 L1391.57 1809.90 L1406.79 1794.80 L1422.01 1780.45 L1437.23 1766.59 L1452.33 1753.22 L1467.55 1740.35 L1482.77 1727.98 L1497.99 1715.85 L1513.21 1704.09 L1528.44 1692.58 L1543.66 1681.44 L1558.88 1670.68 L1574.10 1660.03 L1589.32 1649.76 L1604.54 1639.86 L1619.76 1630.09 L1634.98 1620.68 L1650.21 1611.52 L1665.43 1602.61 L1680.65 1593.95 L1695.87 1585.53 L1711.09 1577.24 L1726.31 1569.32 L1741.53 1561.65 L1756.76 1554.10 L1771.98 1546.92 L1787.20 1539.87 L1802.30 1532.94 L1817.52 1526.38 L1832.74 1519.82 L1847.96 1513.63 L1863.18 1507.57 L1878.40 1501.63 L1893.62 1495.94 L1908.84 1490.37 L1924.07 1484.92 L1939.29 1479.72 L1954.51 1474.65 L1969.73 1469.82 L1984.95 1465.00 L2000.17 1460.42 L2015.39 1455.84 L2030.61 1451.51 L2045.84 1447.30 L2061.06 1443.22 L2076.28 1439.26 L2091.50 1435.42 L2106.72 1431.71 L2121.94 1428.12 L2137.16 1424.53 L2152.38 1421.19 L2167.48 1417.85 L2182.70 1414.63 L2197.92 1411.54 L2213.14 1408.57 L2228.37 1405.60 L2243.59 1402.87 L2258.81 1400.03 L2274.03 1397.43 L2289.25 1394.83 L2304.47 1392.35 L2319.69 1389.88 L2334.91 1387.53 L2350.14 1385.30 L2365.36 1383.07 L2380.58 1380.97 L2395.80 1378.87 L2411.02 1376.89 L2426.24 1374.91 L2441.46 1373.05 L2456.68 1371.19 L2471.91 1369.34 L2487.13 1367.60 L2502.35 1366.00 L2517.57 1364.39 L2532.67 1362.78 L2547.89 1361.29 L2563.11 1359.81 L2578.33 1358.32 L2593.55 1356.96 L2608.77 1355.60 L2623.99 1354.24 L2639.22 1353.00 L2654.44 1351.76 L2669.66 1350.53 L2684.88 1349.41 L2700.10 1348.30 L2715.32 1347.18 L2730.54 1346.07 L2745.76 1345.08 L2760.99 1343.97 L2776.21 1343.10 L2791.43 1342.11 L2806.65 1341.12 L2821.87 1340.25 L2837.09 1339.39 L2852.31 1338.52 L2867.53 1337.66 L2882.76 1336.91 L2897.85 1336.17 L2913.07 1335.30 L2928.30 1334.56 L2943.52 1333.94 L2958.74 1333.20 L2973.96 1332.46 L2989.18 1331.84 L3004.40 1331.22 L3019.62 1330.48 L3034.84 1329.86 L3050.07 1329.36 L3065.29 1328.75 L3080.51 1328.13 L3095.73 1327.63 L3110.95 1327.01 L3126.17 1326.52 L3141.39 1325.90 L3156.61 1325.40 L3171.84 1324.91 L3187.06 1324.41 L3202.28 1323.92 L3217.50 1323.42 L3232.72 1322.93 L3247.94 1322.56 L3263.04 1322.06 L3278.26 1321.57 L3293.48 1321.20 L3308.70 1320.70 L3323.93 1320.33 L3339.15 1319.96 L3354.37 1319.46 L3369.59 1319.09 L3384.81 1318.72 L3400.03 1318.35 L3415.25 1317.85 L3430.47 1317.48 L3445.70 1317.11 L3460.92 1316.74 L3476.14 1316.37 L3491.36 1316.00 L3506.58 1315.63 L3521.80 1315.26 L3537.02 1314.88 L3552.24 1314.51 L3567.47 1314.14 L3582.69 1313.89 L3597.91 1313.52 L3613.01 1313.15 L3628.23 1312.78 L3643.45 1312.41 L3658.67 1312.04 L3673.89 1311.67 L3689.11 1311.42 L3704.33 1311.05 L3719.55 1310.68 L3734.78 1310.31 L3750.00 1310.06 L3765.22 1309.69 L3780.44 1309.32 L3795.66 1308.94" stroke-linejoin="round" style="fill:none;stroke:#FF0000;stroke-width:8.64"/>
	<line x1="521.73" y1="2489.19" x2="521.73" y2="100.86" style="stroke:#000000;stroke-width:5.76"/>
	<line x1="521.73" y1="2425.82" x2="481.76" y2="2425.82" style="stroke:#000000;stroke-width:5.76"/>
	<text x="461.83" y="2460.85" style="font-family:'Helvetica';font-size:99.99px;fill:#000000" text-anchor="end">0.00</text>
	<line x1="521.73" y1="1973.50" x2="481.76" y2="1973.50" style="stroke:#000000;stroke-width:5.76"/>
	<text x="461.83" y="2008.53" style="font-family:'Helvetica';font-size:99.99px;fill:#000000" text-anchor="end">0.10</text>
	<line x1="521.73" y1="1521.18" x2="481.76" y2="1521.18" style="stroke:#000000;stroke-width:5.76"/>
	<text x="461.83" y="1556.21" style="font-family:'Helvetica';font-size:99.99px;fill:#000000" text-anchor="end">0.20</text>
	<line x1="521.73" y1="1068.86" x2="481.76" y2="1068.86" style="stroke:#000000;stroke-width:5.76"/>
	<text x="461.83" y="1103.89" style="font-family:'Helvetica';font-size:99.99px;fill:#000000" text-anchor="end">0.30</text>
	<line x1="521.73" y1="616.54" x2="481.76" y2="616.54" style="stroke:#000000;stroke-width:5.76"/>
	<text x="461.83" y="651.57" style="font-family:'Helvetica';font-size:99.99px;fill:#000000" text-anchor="end">0.40</text>
	<line x1="521.73" y1="164.22" x2="481.76" y2="164.22" style="stroke:#000000;stroke-width:5.76"/>
	<text x="461.83" y="199.25" style="font-family:'Helvetica';font-size:99.99px;fill:#000000" text-anchor="end">0.50</text>
	<text x="190.71" y="1294.96" style="font-family:'Helvetica';font-size:99.99px;fill:#000000" transform="rotate(-90 190.71,1294.96)" text-anchor="middle">Cumulative incidence (%)</text>
	<line x1="521.73" y1="2489.19" x2="3859.02" y2="2489.19" style="stroke:#000000;stroke-width:5.76"/>
	<line x1="585.09" y1="2489.19" x2="585.09" y2="2529.16" style="stroke:#000000;stroke-width:5.76"/>
	<text x="585.09" y="2619.14" style="font-family:'Helvetica';font-size:99.99px;fill:#000000" text-anchor="middle">0</text>
	<line x1="1345.90" y1="2489.19" x2="1345.90" y2="2529.16" style="stroke:#000000;stroke-width:5.76"/>
	<text x="1345.90" y="2619.14" style="font-family:'Helvetica';font-size:99.99px;fill:#000000" text-anchor="middle">50</text>
	<line x1="2106.72" y1="2489.19" x2="2106.72" y2="2529.16" style="stroke:#000000;stroke-width:5.76"/>
	<text x="2106.72" y="2619.14" style="font-family:'Helvetica';font-size:99.99px;fill:#000000" text-anchor="middle">100</text>
	<line x1="2867.53" y1="2489.19" x2="2867.53" y2="2529.16" style="stroke:#000000;stroke-width:5.76"/>
	<text x="2867.53" y="2619.14" style="font-family:'Helvetica';font-size:99.99px;fill:#000000" text-anchor="middle">150</text>
	<line x1="3628.35" y1="2489.19" x2="3628.35" y2="2529.16" style="stroke:#000000;stroke-width:5.76"/>
	<text x="3628.35" y="2619.14" style="font-family:'Helvetica';font-size:99.99px;fill:#000000" text-anchor="middle">200</text>
	<text x="2190.38" y="2729.16" style="font-family:'Helvetica';font-size:99.99px;fill:#000000" text-anchor="middle">Days from 1 March 2020</text>
	<rect x="1933.59" y="2128.20" width="1890.90" height="326.46" style="fill:#FFFFFF"/>
	<rect x="1936.47" y="2131.08" width="1885.14" height="320.70" style="fill:none;stroke:#000000;stroke-width:5.76"/>
	<rect x="1976.78" y="2171.51" width="374.34" height="99.99" style="fill:#3333FF;fill-opacity:0.25"/>
	<rect x="1981.10" y="2175.83" width="365.70" height="91.35" style="fill:none;stroke:#0000FF;stroke-opacity:0.25;stroke-width:8.64"/>
	<rect x="1976.78" y="2311.47" width="374.34" height="99.99" style="fill:#FF3333;fill-opacity:0.25"/>
	<rect x="1981.10" y="2315.79" width="365.70" height="91.35" style="fill:none;stroke:#FF0000;stroke-opacity:0.25;stroke-width:8.64"/>
	<text x="2411.14" y="2256.53" style="font-family:'Helvetica';font-size:99.99px;fill:#000000">Non-current anticoagulant use</text>
	<text x="2411.14" y="2396.50" style="font-family:'Helvetica';font-size:99.99px;fill:#000000">Current anticoagulant use</text>
</svg>
