<?xml version="1.0" encoding="UTF-8" standalone="no"?>
<!-- This is a Stata 16.1 generated SVG file (http://www.stata.com) -->

<svg version="1.1" width="5.50in" height="4.00in" viewBox="0 0 3960 2880" xmlns="http://www.w3.org/2000/svg" xmlns:xlink="http://www.w3.org/1999/xlink">
	<desc>Stata Graph - Graph</desc>
	<rect x="0" y="0" width="3960" height="2880" style="fill:#EAF2F3;stroke:none"/>
	<rect x="0.00" y="0.00" width="3959.88" height="2880.00" style="fill:#EAF2F3"/>
	<rect x="2.88" y="2.88" width="3954.12" height="2874.24" style="fill:none;stroke:#EAF2F3;stroke-width:5.76"/>
	<rect x="578.53" y="100.86" width="3280.49" height="2388.33" style="fill:#FFFFFF"/>
	<rect x="581.41" y="103.74" width="3274.73" height="2382.57" style="fill:none;stroke:#FFFFFF;stroke-width:5.76"/>
	<line x1="578.53" y1="2425.82" x2="3859.02" y2="2425.82" style="stroke:#EAF2F3;stroke-width:8.64"/>
	<line x1="578.53" y1="2312.71" x2="3859.02" y2="2312.71" style="stroke:#EAF2F3;stroke-width:8.64"/>
	<line x1="578.53" y1="2199.72" x2="3859.02" y2="2199.72" style="stroke:#EAF2F3;stroke-width:8.64"/>
	<line x1="578.53" y1="2086.61" x2="3859.02" y2="2086.61" style="stroke:#EAF2F3;stroke-width:8.64"/>
	<line x1="578.53" y1="1973.50" x2="3859.02" y2="1973.50" style="stroke:#EAF2F3;stroke-width:8.64"/>
	<line x1="578.53" y1="1860.39" x2="3859.02" y2="1860.39" style="stroke:#EAF2F3;stroke-width:8.64"/>
	<line x1="578.53" y1="1747.28" x2="3859.02" y2="1747.28" style="stroke:#EAF2F3;stroke-width:8.64"/>
	<line x1="578.53" y1="1634.29" x2="3859.02" y2="1634.29" style="stroke:#EAF2F3;stroke-width:8.64"/>
	<line x1="578.53" y1="1521.18" x2="3859.02" y2="1521.18" style="stroke:#EAF2F3;stroke-width:8.64"/>
	<line x1="578.53" y1="1408.07" x2="3859.02" y2="1408.07" style="stroke:#EAF2F3;stroke-width:8.64"/>
	<line x1="578.53" y1="1294.96" x2="3859.02" y2="1294.96" style="stroke:#EAF2F3;stroke-width:8.64"/>
	<line x1="578.53" y1="1181.97" x2="3859.02" y2="1181.97" style="stroke:#EAF2F3;stroke-width:8.64"/>
	<line x1="578.53" y1="1068.86" x2="3859.02" y2="1068.86" style="stroke:#EAF2F3;stroke-width:8.64"/>
	<line x1="578.53" y1="955.75" x2="3859.02" y2="955.75" style="stroke:#EAF2F3;stroke-width:8.64"/>
	<line x1="578.53" y1="842.64" x2="3859.02" y2="842.64" style="stroke:#EAF2F3;stroke-width:8.64"/>
	<line x1="578.53" y1="729.53" x2="3859.02" y2="729.53" style="stroke:#EAF2F3;stroke-width:8.64"/>
	<line x1="578.53" y1="616.54" x2="3859.02" y2="616.54" style="stroke:#EAF2F3;stroke-width:8.64"/>
	<line x1="578.53" y1="503.43" x2="3859.02" y2="503.43" style="stroke:#EAF2F3;stroke-width:8.64"/>
	<line x1="578.53" y1="390.32" x2="3859.02" y2="390.32" style="stroke:#EAF2F3;stroke-width:8.64"/>
	<line x1="578.53" y1="277.21" x2="3859.02" y2="277.21" style="stroke:#EAF2F3;stroke-width:8.64"/>
	<defs>
		<path id="path_ZhRjQepS" d="M656.74 2425.82 L656.74 2425.82 L671.72 2425.82 L686.69 2425.82 L701.66 2425.82 L716.51 2425.70 L731.49 2425.58 L746.46 2425.33 L761.43 2425.08 L776.41 2424.71 L791.26 2424.34 L806.23 2423.84 L821.21 2423.22 L836.18 2422.48 L851.15 2421.62 L866.00 2420.75 L880.98 2419.64 L895.95 2418.52 L910.92 2417.16 L925.77 2415.80 L940.75 2414.19 L955.72 2412.58 L970.70 2410.73 L985.67 2408.87 L1000.52 2406.77 L1015.49 2404.54 L1030.47 2402.19 L1045.44 2399.71 L1060.41 2397.11 L1075.26 2394.39 L1090.24 2391.42 L1105.21 2388.45 L1120.18 2385.23 L1135.04 2381.89 L1150.01 2378.55 L1164.98 2374.96 L1179.96 2371.25 L1194.93 2367.41 L1209.78 2363.33 L1224.75 2359.24 L1239.73 2355.04 L1254.70 2350.58 L1269.67 2346.13 L1284.53 2341.55 L1299.50 2336.72 L1314.47 2331.89 L1329.45 2326.82 L1344.30 2321.75 L1359.27 2316.42 L1374.24 2310.98 L1389.22 2305.53 L1404.19 2299.84 L1419.04 2294.15 L1434.02 2288.33 L1448.99 2282.27 L1463.96 2276.20 L1478.94 2270.02 L1493.79 2263.58 L1508.76 2257.15 L1523.73 2250.59 L1538.71 2243.91 L1553.68 2237.22 L1568.53 2230.29 L1583.51 2223.36 L1598.48 2216.18 L1613.45 2209.01 L1628.30 2201.71 L1643.28 2194.28 L1658.25 2186.73 L1673.22 2179.18 L1688.20 2171.39 L1703.05 2163.59 L1718.02 2155.67 L1732.99 2147.62 L1747.97 2139.58 L1762.94 2131.29 L1777.79 2123.00 L1792.77 2114.58 L1807.74 2106.17 L1822.71 2097.50 L1837.56 2088.84 L1852.54 2080.18 L1867.51 2071.27 L1882.48 2062.36 L1897.46 2053.32 L1912.31 2044.17 L1927.28 2035.01 L1942.26 2025.73 L1957.23 2016.45 L1972.20 2006.92 L1987.05 1997.39 L2002.03 1987.86 L2017.00 1978.21 L2031.97 1968.43 L2046.83 1958.65 L2061.80 1948.75 L2076.77 1938.73 L2091.75 1928.70 L2106.72 1918.56 L2121.57 1908.41 L2136.54 1898.14 L2151.52 1887.87 L2166.49 1877.47 L2181.47 1866.95 L2196.32 1856.43 L2211.29 1845.91 L2226.26 1835.27 L2241.24 1824.63 L2256.09 1813.86 L2271.06 1802.97 L2286.03 1792.20 L2301.01 1781.19 L2315.98 1770.30 L2330.83 1759.28 L2345.80 1748.27 L2360.78 1737.13 L2375.75 1726.00 L2390.73 1714.86 L2405.58 1703.60 L2420.55 1692.33 L2435.52 1681.07 L2450.50 1669.69 L2465.35 1658.43 L2480.32 1647.04 L2495.30 1635.53 L2510.27 1624.15 L2525.24 1612.64 L2540.09 1601.13 L2555.07 1589.62 L2570.04 1578.11 L2585.01 1566.48 L2599.99 1554.97 L2614.84 1543.33 L2629.81 1531.70 L2644.78 1520.07 L2659.76 1508.44 L2674.73 1496.80 L2689.58 1485.05 L2704.56 1473.41 L2719.53 1461.66 L2734.50 1450.02 L2749.35 1438.27 L2764.33 1426.51 L2779.30 1414.88 L2794.28 1403.12 L2809.25 1391.36 L2824.10 1379.61 L2839.07 1367.85 L2854.05 1356.22 L2869.02 1344.46 L2883.99 1332.71 L2898.84 1320.95 L2913.82 1309.32 L2928.79 1297.56 L2943.76 1285.80 L2958.61 1274.17 L2973.59 1262.41 L2988.56 1250.78 L3003.54 1239.15 L3018.51 1227.39 L3033.36 1215.76 L3048.33 1204.13 L3063.31 1192.49 L3078.28 1180.98 L3093.26 1169.35 L3108.11 1157.72 L3123.08 1146.21 L3138.05 1134.58 L3153.03 1123.07 L3167.88 1111.43 L3182.85 1099.92 L3197.82 1088.42 L3212.80 1076.91 L3227.77 1065.40 L3242.62 1053.89 L3257.59 1042.38 L3272.57 1030.87 L3287.54 1019.36 L3302.52 1007.85 L3317.37 996.47 L3332.34 984.96 L3347.31 973.45 L3362.29 962.06 L3377.14 950.55 L3392.11 939.17 L3407.09 927.66 L3422.06 916.27 L3437.03 904.76 L3451.88 893.38 L3466.86 881.99 L3481.83 870.48 L3496.80 859.10 L3511.78 847.71 L3526.63 836.20 L3541.60 824.82 L3556.57 813.31 L3571.55 801.93 L3586.40 790.54 L3601.37 779.03 L3616.35 767.65 L3631.32 756.26 L3646.29 744.75 L3661.14 733.37 L3676.12 721.86 L3691.09 710.47 L3706.07 698.96 L3721.04 687.45 L3735.89 676.07 L3750.86 664.56 L3765.84 653.05 L3780.81 641.66 L3795.78 630.15 L3795.78 502.56 L3780.81 514.82 L3765.84 527.07 L3750.86 539.20 L3735.89 551.45 L3721.04 563.58 L3706.07 575.70 L3691.09 587.95 L3676.12 600.08 L3661.14 612.21 L3646.29 624.34 L3631.32 636.47 L3616.35 648.59 L3601.37 660.72 L3586.40 672.85 L3571.55 684.85 L3556.57 696.98 L3541.60 709.11 L3526.63 721.24 L3511.78 733.24 L3496.80 745.37 L3481.83 757.37 L3466.86 769.50 L3451.88 781.63 L3437.03 793.63 L3422.06 805.76 L3407.09 817.77 L3392.11 829.89 L3377.14 842.02 L3362.29 854.03 L3347.31 866.15 L3332.34 878.28 L3317.37 890.41 L3302.52 902.54 L3287.54 914.54 L3272.57 926.67 L3257.59 938.80 L3242.62 951.05 L3227.77 963.18 L3212.80 975.30 L3197.82 987.43 L3182.85 999.68 L3167.88 1011.81 L3153.03 1024.06 L3138.05 1036.31 L3123.08 1048.57 L3108.11 1060.82 L3093.26 1073.07 L3078.28 1085.32 L3063.31 1097.57 L3048.33 1109.95 L3033.36 1122.32 L3018.51 1134.58 L3003.54 1146.95 L2988.56 1159.45 L2973.59 1171.83 L2958.61 1184.20 L2943.76 1196.70 L2928.79 1209.08 L2913.82 1221.57 L2898.84 1234.07 L2883.99 1246.45 L2869.02 1258.95 L2854.05 1271.45 L2839.07 1283.95 L2824.10 1296.45 L2809.25 1308.94 L2794.28 1321.44 L2779.30 1333.94 L2764.33 1346.44 L2749.35 1358.94 L2734.50 1371.44 L2719.53 1383.94 L2704.56 1396.44 L2689.58 1408.94 L2674.73 1421.31 L2659.76 1433.81 L2644.78 1446.19 L2629.81 1458.56 L2614.84 1471.06 L2599.99 1483.44 L2585.01 1495.69 L2570.04 1508.06 L2555.07 1520.44 L2540.09 1532.69 L2525.24 1544.94 L2510.27 1557.19 L2495.30 1569.32 L2480.32 1581.45 L2465.35 1593.58 L2450.50 1605.71 L2435.52 1617.83 L2420.55 1629.84 L2405.58 1641.84 L2390.73 1653.72 L2375.75 1665.60 L2360.78 1677.48 L2345.80 1689.24 L2330.83 1701.00 L2315.98 1712.75 L2301.01 1724.39 L2286.03 1736.02 L2271.06 1747.53 L2256.09 1759.04 L2241.24 1770.55 L2226.26 1781.93 L2211.29 1793.19 L2196.32 1804.46 L2181.47 1815.72 L2166.49 1826.85 L2151.52 1837.87 L2136.54 1848.88 L2121.57 1859.90 L2106.72 1870.66 L2091.75 1881.55 L2076.77 1892.20 L2061.80 1902.84 L2046.83 1913.48 L2031.97 1924.00 L2017.00 1934.40 L2002.03 1944.79 L1987.05 1955.06 L1972.20 1965.21 L1957.23 1975.36 L1942.26 1985.38 L1927.28 1995.41 L1912.31 2005.31 L1897.46 2015.08 L1882.48 2024.74 L1867.51 2034.39 L1852.54 2043.92 L1837.56 2053.32 L1822.71 2062.73 L1807.74 2072.01 L1792.77 2081.17 L1777.79 2090.20 L1762.94 2099.24 L1747.97 2108.15 L1732.99 2116.93 L1718.02 2125.60 L1703.05 2134.14 L1688.20 2142.67 L1673.22 2150.97 L1658.25 2159.26 L1643.28 2167.43 L1628.30 2175.47 L1613.45 2183.39 L1598.48 2191.31 L1583.51 2198.98 L1568.53 2206.53 L1553.68 2214.08 L1538.71 2221.51 L1523.73 2228.68 L1508.76 2235.86 L1493.79 2242.92 L1478.94 2249.72 L1463.96 2256.53 L1448.99 2263.21 L1434.02 2269.65 L1419.04 2276.08 L1404.19 2282.39 L1389.22 2288.46 L1374.24 2294.52 L1359.27 2300.34 L1344.30 2306.15 L1329.45 2311.72 L1314.47 2317.29 L1299.50 2322.61 L1284.53 2327.81 L1269.67 2332.88 L1254.70 2337.83 L1239.73 2342.66 L1224.75 2347.24 L1209.78 2351.82 L1194.93 2356.15 L1179.96 2360.48 L1164.98 2364.57 L1150.01 2368.53 L1135.04 2372.36 L1120.18 2376.07 L1105.21 2379.66 L1090.24 2383.00 L1075.26 2386.35 L1060.41 2389.44 L1045.44 2392.41 L1030.47 2395.26 L1015.49 2397.98 L1000.52 2400.58 L985.67 2403.05 L970.70 2405.40 L955.72 2407.51 L940.75 2409.61 L925.77 2411.47 L910.92 2413.32 L895.95 2414.93 L880.98 2416.42 L866.00 2417.78 L851.15 2419.14 L836.18 2420.25 L821.21 2421.24 L806.23 2422.11 L791.26 2422.98 L776.41 2423.60 L761.43 2424.21 L746.46 2424.71 L731.49 2425.08 L716.51 2425.33 L701.66 2425.58 L686.69 2425.70 L671.72 2425.82 L656.74 2425.82 L656.74 2425.82 Z" stroke-linejoin="round"/>
	</defs>
	<defs>
		<clipPath id="clipPath_SthUxAUD">
			<use xlink:href="#path_ZhRjQepS"/>
		</clipPath>
	</defs>
	<use xlink:href="#path_ZhRjQepS" style="stroke:none;fill:#3333FF;fill-opacity:0.25"/>
	<use xlink:href="#path_ZhRjQepS" style="fill:none;stroke:#0000FF;stroke-opacity:0.25;stroke-width:17.28" clip-path="url(#clipPath_SthUxAUD)"/>
	<defs>
		<path id="path_YBaTEeWg" d="M656.74 2425.82 L656.74 2425.82 L671.72 2425.82 L686.69 2425.82 L701.66 2425.82 L716.51 2425.70 L731.49 2425.58 L746.46 2425.33 L761.43 2425.08 L776.41 2424.83 L791.26 2424.34 L806.23 2423.84 L821.21 2423.22 L836.18 2422.61 L851.15 2421.74 L866.00 2420.87 L880.98 2419.88 L895.95 2418.77 L910.92 2417.53 L925.77 2416.17 L940.75 2414.69 L955.72 2413.08 L970.70 2411.22 L985.67 2409.36 L1000.52 2407.38 L1015.49 2405.28 L1030.47 2402.93 L1045.44 2400.58 L1060.41 2397.98 L1075.26 2395.38 L1090.24 2392.53 L1105.21 2389.56 L1120.18 2386.47 L1135.04 2383.38 L1150.01 2380.03 L1164.98 2376.45 L1179.96 2372.86 L1194.93 2369.14 L1209.78 2365.31 L1224.75 2361.22 L1239.73 2357.14 L1254.70 2352.93 L1269.67 2348.48 L1284.53 2344.02 L1299.50 2339.32 L1314.47 2334.62 L1329.45 2329.67 L1344.30 2324.72 L1359.27 2319.64 L1374.24 2314.32 L1389.22 2309.00 L1404.19 2303.43 L1419.04 2297.86 L1434.02 2292.17 L1448.99 2286.35 L1463.96 2280.41 L1478.94 2274.35 L1493.79 2268.16 L1508.76 2261.85 L1523.73 2255.41 L1538.71 2248.98 L1553.68 2242.30 L1568.53 2235.61 L1583.51 2228.81 L1598.48 2221.88 L1613.45 2214.82 L1628.30 2207.65 L1643.28 2200.47 L1658.25 2193.17 L1673.22 2185.62 L1688.20 2178.07 L1703.05 2170.52 L1718.02 2162.72 L1732.99 2154.93 L1747.97 2147.01 L1762.94 2138.96 L1777.79 2130.92 L1792.77 2122.63 L1807.74 2114.33 L1822.71 2105.92 L1837.56 2097.50 L1852.54 2088.97 L1867.51 2080.30 L1882.48 2071.52 L1897.46 2062.73 L1912.31 2053.82 L1927.28 2044.79 L1942.26 2035.75 L1957.23 2026.59 L1972.20 2017.31 L1987.05 2008.03 L2002.03 1998.62 L2017.00 1989.10 L2031.97 1979.57 L2046.83 1969.91 L2061.80 1960.26 L2076.77 1950.48 L2091.75 1940.71 L2106.72 1930.68 L2121.57 1920.78 L2136.54 1910.64 L2151.52 1900.61 L2166.49 1890.34 L2181.47 1880.07 L2196.32 1869.80 L2211.29 1859.40 L2226.26 1849.01 L2241.24 1838.49 L2256.09 1827.97 L2271.06 1817.33 L2286.03 1806.68 L2301.01 1795.92 L2315.98 1785.15 L2330.83 1774.38 L2345.80 1763.49 L2360.78 1752.60 L2375.75 1741.71 L2390.73 1730.70 L2405.58 1719.68 L2420.55 1708.67 L2435.52 1697.53 L2450.50 1686.39 L2465.35 1675.26 L2480.32 1664.12 L2495.30 1652.86 L2510.27 1641.60 L2525.24 1630.33 L2540.09 1619.07 L2555.07 1607.69 L2570.04 1596.42 L2585.01 1585.04 L2599.99 1573.65 L2614.84 1562.27 L2629.81 1550.76 L2644.78 1539.37 L2659.76 1527.99 L2674.73 1516.48 L2689.58 1504.97 L2704.56 1493.46 L2719.53 1482.08 L2734.50 1470.57 L2749.35 1459.06 L2764.33 1447.55 L2779.30 1436.04 L2794.28 1424.41 L2809.25 1412.90 L2824.10 1401.39 L2839.07 1389.88 L2854.05 1378.37 L2869.02 1366.86 L2883.99 1355.23 L2898.84 1343.72 L2913.82 1332.21 L2928.79 1320.70 L2943.76 1309.19 L2958.61 1297.68 L2973.59 1286.17 L2988.56 1274.66 L3003.54 1263.16 L3018.51 1251.77 L3033.36 1240.26 L3048.33 1228.75 L3063.31 1217.37 L3078.28 1205.86 L3093.26 1194.47 L3108.11 1183.09 L3123.08 1171.70 L3138.05 1160.32 L3153.03 1148.93 L3167.88 1137.55 L3182.85 1126.16 L3197.82 1114.77 L3212.80 1103.39 L3227.77 1092.00 L3242.62 1080.74 L3257.59 1069.36 L3272.57 1058.10 L3287.54 1046.71 L3302.52 1035.45 L3317.37 1024.06 L3332.34 1012.80 L3347.31 1001.42 L3362.29 990.15 L3377.14 978.89 L3392.11 967.63 L3407.09 956.25 L3422.06 944.98 L3437.03 933.72 L3451.88 922.46 L3466.86 911.20 L3481.83 899.94 L3496.80 888.68 L3511.78 877.41 L3526.63 866.15 L3541.60 854.89 L3556.57 843.63 L3571.55 832.37 L3586.40 821.11 L3601.37 809.85 L3616.35 798.58 L3631.32 787.32 L3646.29 776.06 L3661.14 764.80 L3676.12 753.54 L3691.09 742.28 L3706.07 730.89 L3721.04 719.63 L3735.89 708.37 L3750.86 697.11 L3765.84 685.84 L3780.81 674.58 L3795.78 663.20 L3795.78 591.91 L3780.81 603.67 L3765.84 615.43 L3750.86 627.06 L3735.89 638.82 L3721.04 650.45 L3706.07 662.08 L3691.09 673.72 L3676.12 685.35 L3661.14 696.98 L3646.29 708.61 L3631.32 720.25 L3616.35 731.76 L3601.37 743.39 L3586.40 755.02 L3571.55 766.53 L3556.57 778.04 L3541.60 789.67 L3526.63 801.18 L3511.78 812.69 L3496.80 824.32 L3481.83 835.83 L3466.86 847.34 L3451.88 858.85 L3437.03 870.36 L3422.06 881.87 L3407.09 893.38 L3392.11 905.01 L3377.14 916.52 L3362.29 928.03 L3347.31 939.54 L3332.34 951.05 L3317.37 962.68 L3302.52 974.19 L3287.54 985.70 L3272.57 997.33 L3257.59 1008.84 L3242.62 1020.47 L3227.77 1031.98 L3212.80 1043.62 L3197.82 1055.25 L3182.85 1066.76 L3167.88 1078.39 L3153.03 1090.02 L3138.05 1101.66 L3123.08 1113.41 L3108.11 1125.05 L3093.26 1136.80 L3078.28 1148.44 L3063.31 1160.19 L3048.33 1171.95 L3033.36 1183.71 L3018.51 1195.46 L3003.54 1207.22 L2988.56 1219.10 L2973.59 1230.86 L2958.61 1242.74 L2943.76 1254.62 L2928.79 1266.50 L2913.82 1278.38 L2898.84 1290.26 L2883.99 1302.14 L2869.02 1314.02 L2854.05 1325.90 L2839.07 1337.78 L2824.10 1349.78 L2809.25 1361.66 L2794.28 1373.54 L2779.30 1385.55 L2764.33 1397.43 L2749.35 1409.31 L2734.50 1421.19 L2719.53 1433.19 L2704.56 1445.07 L2689.58 1456.95 L2674.73 1468.83 L2659.76 1480.59 L2644.78 1492.47 L2629.81 1504.35 L2614.84 1516.11 L2599.99 1527.87 L2585.01 1539.62 L2570.04 1551.38 L2555.07 1563.14 L2540.09 1574.77 L2525.24 1586.52 L2510.27 1598.16 L2495.30 1609.67 L2480.32 1621.30 L2465.35 1632.81 L2450.50 1644.32 L2435.52 1655.83 L2420.55 1667.21 L2405.58 1678.72 L2390.73 1689.98 L2375.75 1701.37 L2360.78 1712.63 L2345.80 1723.89 L2330.83 1735.03 L2315.98 1746.17 L2301.01 1757.30 L2286.03 1768.32 L2271.06 1779.33 L2256.09 1790.22 L2241.24 1801.11 L2226.26 1811.88 L2211.29 1822.65 L2196.32 1833.41 L2181.47 1844.06 L2166.49 1854.70 L2151.52 1865.22 L2136.54 1875.61 L2121.57 1886.01 L2106.72 1896.40 L2091.75 1906.68 L2076.77 1916.82 L2061.80 1926.97 L2046.83 1937.12 L2031.97 1947.02 L2017.00 1957.04 L2002.03 1966.82 L1987.05 1976.60 L1972.20 1986.37 L1957.23 1996.03 L1942.26 2005.56 L1927.28 2015.08 L1912.31 2024.49 L1897.46 2033.77 L1882.48 2043.05 L1867.51 2052.21 L1852.54 2061.24 L1837.56 2070.28 L1822.71 2079.19 L1807.74 2087.98 L1792.77 2096.76 L1777.79 2105.42 L1762.94 2113.96 L1747.97 2122.38 L1732.99 2130.79 L1718.02 2139.09 L1703.05 2147.25 L1688.20 2155.30 L1673.22 2163.34 L1658.25 2171.14 L1643.28 2178.93 L1628.30 2186.61 L1613.45 2194.16 L1598.48 2201.71 L1583.51 2209.01 L1568.53 2216.31 L1553.68 2223.49 L1538.71 2230.42 L1523.73 2237.35 L1508.76 2244.15 L1493.79 2250.84 L1478.94 2257.52 L1463.96 2263.95 L1448.99 2270.26 L1434.02 2276.45 L1419.04 2282.64 L1404.19 2288.58 L1389.22 2294.40 L1374.24 2300.21 L1359.27 2305.78 L1344.30 2311.23 L1329.45 2316.67 L1314.47 2321.87 L1299.50 2326.94 L1284.53 2331.89 L1269.67 2336.84 L1254.70 2341.55 L1239.73 2346.13 L1224.75 2350.58 L1209.78 2354.91 L1194.93 2359.12 L1179.96 2363.20 L1164.98 2367.04 L1150.01 2370.88 L1135.04 2374.59 L1120.18 2378.05 L1105.21 2381.52 L1090.24 2384.74 L1075.26 2387.83 L1060.41 2390.92 L1045.44 2393.77 L1030.47 2396.49 L1015.49 2399.09 L1000.52 2401.57 L985.67 2403.92 L970.70 2406.15 L955.72 2408.25 L940.75 2410.23 L925.77 2412.09 L910.92 2413.70 L895.95 2415.30 L880.98 2416.79 L866.00 2418.15 L851.15 2419.39 L836.18 2420.50 L821.21 2421.49 L806.23 2422.36 L791.26 2423.10 L776.41 2423.72 L761.43 2424.34 L746.46 2424.71 L731.49 2425.08 L716.51 2425.45 L701.66 2425.58 L686.69 2425.70 L671.72 2425.82 L656.74 2425.82 L656.74 2425.82 Z" stroke-linejoin="round"/>
	</defs>
	<defs>
		<clipPath id="clipPath_byZOsTeU">
			<use xlink:href="#path_YBaTEeWg"/>
		</clipPath>
	</defs>
	<use xlink:href="#path_YBaTEeWg" style="stroke:none;fill:#FF3333;fill-opacity:0.25"/>
	<use xlink:href="#path_YBaTEeWg" style="fill:none;stroke:#FF0000;stroke-opacity:0.25;stroke-width:17.28" clip-path="url(#clipPath_byZOsTeU)"/>
	<path d=" M641.77 2425.95 L656.74 2425.95 L671.72 2425.95 L686.57 2425.82 L701.54 2425.82 L716.51 2425.58 L731.49 2425.45 L746.46 2425.20 L761.31 2424.83 L776.28 2424.34 L791.26 2423.84 L806.23 2423.22 L821.08 2422.36 L836.05 2421.62 L851.03 2420.63 L866.00 2419.51 L880.98 2418.27 L895.83 2416.91 L910.80 2415.43 L925.77 2413.94 L940.75 2412.21 L955.72 2410.35 L970.57 2408.37 L985.54 2406.27 L1000.52 2403.92 L1015.49 2401.57 L1030.34 2399.09 L1045.32 2396.37 L1060.29 2393.52 L1075.26 2390.55 L1090.24 2387.58 L1105.09 2384.37 L1120.06 2380.90 L1135.04 2377.44 L1150.01 2373.85 L1164.98 2370.01 L1179.83 2366.17 L1194.81 2362.09 L1209.78 2357.88 L1224.75 2353.55 L1239.60 2349.10 L1254.58 2344.52 L1269.55 2339.81 L1284.53 2334.99 L1299.50 2330.04 L1314.35 2324.84 L1329.32 2319.64 L1344.30 2314.20 L1359.27 2308.75 L1374.24 2303.06 L1389.09 2297.37 L1404.07 2291.43 L1419.04 2285.49 L1434.02 2279.30 L1448.87 2273.11 L1463.84 2266.68 L1478.81 2260.24 L1493.79 2253.68 L1508.76 2246.88 L1523.61 2240.07 L1538.58 2233.14 L1553.56 2226.08 L1568.53 2218.78 L1583.51 2211.61 L1598.36 2204.18 L1613.33 2196.63 L1628.30 2188.96 L1643.28 2181.29 L1658.25 2173.49 L1673.10 2165.45 L1688.07 2157.40 L1703.05 2149.36 L1718.02 2141.07 L1732.87 2132.77 L1747.85 2124.24 L1762.82 2115.70 L1777.79 2107.16 L1792.77 2098.37 L1807.62 2089.58 L1822.59 2080.67 L1837.56 2071.64 L1852.54 2062.48 L1867.51 2053.32 L1882.36 2044.04 L1897.34 2034.76 L1912.31 2025.23 L1927.28 2015.70 L1942.13 2006.17 L1957.11 1996.40 L1972.08 1986.62 L1987.05 1976.84 L2002.03 1966.94 L2016.88 1956.92 L2031.85 1946.77 L2046.83 1936.62 L2061.80 1926.35 L2076.77 1916.08 L2091.62 1905.69 L2106.60 1895.29 L2121.57 1884.77 L2136.54 1874.13 L2151.39 1863.49 L2166.37 1852.72 L2181.34 1841.95 L2196.32 1831.06 L2211.29 1820.17 L2226.14 1809.28 L2241.11 1798.14 L2256.09 1787.13 L2271.06 1775.99 L2286.03 1764.73 L2300.88 1753.47 L2315.86 1742.21 L2330.83 1730.82 L2345.80 1719.44 L2360.66 1708.05 L2375.63 1696.54 L2390.60 1684.91 L2405.58 1673.40 L2420.55 1661.77 L2435.40 1650.13 L2450.37 1638.50 L2465.35 1626.74 L2480.32 1614.99 L2495.30 1603.23 L2510.14 1591.35 L2525.12 1579.47 L2540.09 1567.59 L2555.07 1555.71 L2569.92 1543.83 L2584.89 1531.83 L2599.86 1519.94 L2614.84 1507.94 L2629.81 1495.94 L2644.66 1483.93 L2659.64 1471.93 L2674.61 1459.80 L2689.58 1447.80 L2704.56 1435.67 L2719.41 1423.66 L2734.38 1411.54 L2749.35 1399.41 L2764.33 1387.40 L2779.30 1375.28 L2794.15 1363.15 L2809.12 1351.02 L2824.10 1338.89 L2839.07 1326.77 L2853.92 1314.64 L2868.90 1302.63 L2883.87 1290.51 L2898.84 1278.38 L2913.82 1266.25 L2928.67 1254.25 L2943.64 1242.12 L2958.61 1230.11 L2973.59 1217.99 L2988.56 1205.98 L3003.41 1193.98 L3018.39 1181.97 L3033.36 1169.97 L3048.33 1157.96 L3063.18 1146.08 L3078.16 1134.08 L3093.13 1122.08 L3108.11 1110.20 L3123.08 1098.32 L3137.93 1086.44 L3152.90 1074.55 L3167.88 1062.67 L3182.85 1050.79 L3197.82 1038.91 L3212.67 1027.03 L3227.65 1015.28 L3242.62 1003.40 L3257.59 991.64 L3272.45 979.76 L3287.42 968.00 L3302.39 956.25 L3317.37 944.37 L3332.34 932.61 L3347.19 920.85 L3362.16 909.10 L3377.14 897.34 L3392.11 885.58 L3407.09 873.83 L3421.93 862.07 L3436.91 850.31 L3451.88 838.56 L3466.86 826.80 L3481.71 815.04 L3496.68 803.29 L3511.65 791.53 L3526.63 779.77 L3541.60 768.02 L3556.45 756.26 L3571.43 744.50 L3586.40 732.75 L3601.37 720.99 L3616.35 709.23 L3631.20 697.48 L3646.17 685.72 L3661.14 673.84 L3676.12 662.08 L3690.97 650.33 L3705.94 638.45 L3720.91 626.69 L3735.89 614.81 L3750.86 603.05 L3765.71 591.17 L3780.69 579.42 L3795.66 567.54" stroke-linejoin="round" style="fill:none;stroke:#0000FF;stroke-width:8.64"/>
	<path d=" M641.77 2425.95 L656.74 2425.95 L671.72 2425.95 L686.57 2425.82 L701.54 2425.82 L716.51 2425.58 L731.49 2425.45 L746.46 2425.20 L761.31 2424.83 L776.28 2424.46 L791.26 2423.84 L806.23 2423.22 L821.08 2422.48 L836.05 2421.74 L851.03 2420.75 L866.00 2419.76 L880.98 2418.52 L895.83 2417.28 L910.80 2415.92 L925.77 2414.31 L940.75 2412.71 L955.72 2410.85 L970.57 2408.99 L985.54 2406.89 L1000.52 2404.79 L1015.49 2402.43 L1030.34 2399.96 L1045.32 2397.48 L1060.29 2394.76 L1075.26 2391.91 L1090.24 2388.94 L1105.09 2385.85 L1120.06 2382.51 L1135.04 2379.17 L1150.01 2375.70 L1164.98 2372.11 L1179.83 2368.28 L1194.81 2364.44 L1209.78 2360.36 L1224.75 2356.15 L1239.60 2351.94 L1254.58 2347.49 L1269.55 2342.91 L1284.53 2338.21 L1299.50 2333.38 L1314.35 2328.55 L1329.32 2323.48 L1344.30 2318.28 L1359.27 2312.96 L1374.24 2307.51 L1389.09 2301.95 L1404.07 2296.25 L1419.04 2290.56 L1434.02 2284.62 L1448.87 2278.56 L1463.84 2272.37 L1478.81 2266.18 L1493.79 2259.75 L1508.76 2253.31 L1523.61 2246.75 L1538.58 2239.94 L1553.56 2233.14 L1568.53 2226.21 L1583.51 2219.15 L1598.36 2212.10 L1613.33 2204.80 L1628.30 2197.50 L1643.28 2190.07 L1658.25 2182.40 L1673.10 2174.85 L1688.07 2167.05 L1703.05 2159.13 L1718.02 2151.21 L1732.87 2143.17 L1747.85 2135.00 L1762.82 2126.83 L1777.79 2118.42 L1792.77 2110.00 L1807.62 2101.46 L1822.59 2092.93 L1837.56 2084.26 L1852.54 2075.48 L1867.51 2066.57 L1882.36 2057.66 L1897.34 2048.62 L1912.31 2039.46 L1927.28 2030.31 L1942.13 2021.02 L1957.11 2011.62 L1972.08 2002.21 L1987.05 1992.68 L2002.03 1983.03 L2016.88 1973.38 L2031.85 1963.73 L2046.83 1953.83 L2061.80 1943.93 L2076.77 1934.03 L2091.62 1924.00 L2106.60 1913.85 L2121.57 1903.71 L2136.54 1893.56 L2151.39 1883.16 L2166.37 1872.89 L2181.34 1862.50 L2196.32 1851.98 L2211.29 1841.46 L2226.14 1830.81 L2241.11 1820.17 L2256.09 1809.41 L2271.06 1798.64 L2286.03 1787.87 L2300.88 1776.98 L2315.86 1765.97 L2330.83 1755.08 L2345.80 1744.06 L2360.66 1732.93 L2375.63 1721.91 L2390.60 1710.77 L2405.58 1699.51 L2420.55 1688.25 L2435.40 1676.99 L2450.37 1665.73 L2465.35 1654.34 L2480.32 1643.08 L2495.30 1631.69 L2510.14 1620.19 L2525.12 1608.80 L2540.09 1597.29 L2555.07 1585.78 L2569.92 1574.27 L2584.89 1562.64 L2599.86 1551.13 L2614.84 1539.50 L2629.81 1527.87 L2644.66 1516.23 L2659.64 1504.60 L2674.61 1492.97 L2689.58 1481.33 L2704.56 1469.70 L2719.41 1457.94 L2734.38 1446.31 L2749.35 1434.55 L2764.33 1422.80 L2779.30 1411.17 L2794.15 1399.41 L2809.12 1387.65 L2824.10 1375.90 L2839.07 1364.26 L2853.92 1352.51 L2868.90 1340.75 L2883.87 1329.12 L2898.84 1317.36 L2913.82 1305.60 L2928.67 1293.97 L2943.64 1282.21 L2958.61 1270.58 L2973.59 1258.95 L2988.56 1247.32 L3003.41 1235.56 L3018.39 1223.93 L3033.36 1212.29 L3048.33 1200.78 L3063.18 1189.15 L3078.16 1177.52 L3093.13 1166.01 L3108.11 1154.50 L3123.08 1142.87 L3137.93 1131.36 L3152.90 1119.85 L3167.88 1108.34 L3182.85 1096.83 L3197.82 1085.32 L3212.67 1073.94 L3227.65 1062.43 L3242.62 1050.92 L3257.59 1039.53 L3272.45 1028.02 L3287.42 1016.64 L3302.39 1005.13 L3317.37 993.74 L3332.34 982.36 L3347.19 970.85 L3362.16 959.46 L3377.14 948.08 L3392.11 936.69 L3407.09 925.31 L3421.93 913.80 L3436.91 902.41 L3451.88 891.03 L3466.86 879.64 L3481.71 868.26 L3496.68 856.87 L3511.65 845.49 L3526.63 834.10 L3541.60 822.59 L3556.45 811.21 L3571.43 799.82 L3586.40 788.44 L3601.37 777.05 L3616.35 765.54 L3631.20 754.16 L3646.17 742.77 L3661.14 731.26 L3676.12 719.88 L3690.97 708.37 L3705.94 696.98 L3720.91 685.47 L3735.89 673.96 L3750.86 662.45 L3765.71 650.95 L3780.69 639.56 L3795.66 627.93" stroke-linejoin="round" style="fill:none;stroke:#FF0000;stroke-width:8.64"/>
	<line x1="578.53" y1="2489.19" x2="578.53" y2="100.86" style="stroke:#000000;stroke-width:5.76"/>
	<line x1="578.53" y1="2425.82" x2="538.44" y2="2425.82" style="stroke:#000000;stroke-width:5.76"/>
	<text x="518.51" y="2460.85" style="font-family:'Helvetica';font-size:99.99px;fill:#000000" text-anchor="end">0.00</text>
	<line x1="578.53" y1="2312.71" x2="538.44" y2="2312.71" style="stroke:#000000;stroke-width:5.76"/>
	<text x="518.51" y="2347.74" style="font-family:'Helvetica';font-size:99.99px;fill:#000000" text-anchor="end">1.00</text>
	<line x1="578.53" y1="2199.72" x2="538.44" y2="2199.72" style="stroke:#000000;stroke-width:5.76"/>
	<text x="518.51" y="2234.75" style="font-family:'Helvetica';font-size:99.99px;fill:#000000" text-anchor="end">2.00</text>
	<line x1="578.53" y1="2086.61" x2="538.44" y2="2086.61" style="stroke:#000000;stroke-width:5.76"/>
	<text x="518.51" y="2121.64" style="font-family:'Helvetica';font-size:99.99px;fill:#000000" text-anchor="end">3.00</text>
	<line x1="578.53" y1="1973.50" x2="538.44" y2="1973.50" style="stroke:#000000;stroke-width:5.76"/>
	<text x="518.51" y="2008.53" style="font-family:'Helvetica';font-size:99.99px;fill:#000000" text-anchor="end">4.00</text>
	<line x1="578.53" y1="1860.39" x2="538.44" y2="1860.39" style="stroke:#000000;stroke-width:5.76"/>
	<text x="518.51" y="1895.42" style="font-family:'Helvetica';font-size:99.99px;fill:#000000" text-anchor="end">5.00</text>
	<line x1="578.53" y1="1747.28" x2="538.44" y2="1747.28" style="stroke:#000000;stroke-width:5.76"/>
	<text x="518.51" y="1782.31" style="font-family:'Helvetica';font-size:99.99px;fill:#000000" text-anchor="end">6.00</text>
	<line x1="578.53" y1="1634.29" x2="538.44" y2="1634.29" style="stroke:#000000;stroke-width:5.76"/>
	<text x="518.51" y="1669.32" style="font-family:'Helvetica';font-size:99.99px;fill:#000000" text-anchor="end">7.00</text>
	<line x1="578.53" y1="1521.18" x2="538.44" y2="1521.18" style="stroke:#000000;stroke-width:5.76"/>
	<text x="518.51" y="1556.21" style="font-family:'Helvetica';font-size:99.99px;fill:#000000" text-anchor="end">8.00</text>
	<line x1="578.53" y1="1408.07" x2="538.44" y2="1408.07" style="stroke:#000000;stroke-width:5.76"/>
	<text x="518.51" y="1443.10" style="font-family:'Helvetica';font-size:99.99px;fill:#000000" text-anchor="end">9.00</text>
	<line x1="578.53" y1="1294.96" x2="538.44" y2="1294.96" style="stroke:#000000;stroke-width:5.76"/>
	<text x="518.51" y="1329.99" style="font-family:'Helvetica';font-size:99.99px;fill:#000000" text-anchor="end">10.00</text>
	<line x1="578.53" y1="1181.97" x2="538.44" y2="1181.97" style="stroke:#000000;stroke-width:5.76"/>
	<text x="518.51" y="1217.00" style="font-family:'Helvetica';font-size:99.99px;fill:#000000" text-anchor="end">11.00</text>
	<line x1="578.53" y1="1068.86" x2="538.44" y2="1068.86" style="stroke:#000000;stroke-width:5.76"/>
	<text x="518.51" y="1103.89" style="font-family:'Helvetica';font-size:99.99px;fill:#000000" text-anchor="end">12.00</text>
	<line x1="578.53" y1="955.75" x2="538.44" y2="955.75" style="stroke:#000000;stroke-width:5.76"/>
	<text x="518.51" y="990.78" style="font-family:'Helvetica';font-size:99.99px;fill:#000000" text-anchor="end">13.00</text>
	<line x1="578.53" y1="842.64" x2="538.44" y2="842.64" style="stroke:#000000;stroke-width:5.76"/>
	<text x="518.51" y="877.67" style="font-family:'Helvetica';font-size:99.99px;fill:#000000" text-anchor="end">14.00</text>
	<line x1="578.53" y1="729.53" x2="538.44" y2="729.53" style="stroke:#000000;stroke-width:5.76"/>
	<text x="518.51" y="764.56" style="font-family:'Helvetica';font-size:99.99px;fill:#000000" text-anchor="end">15.00</text>
	<line x1="578.53" y1="616.54" x2="538.44" y2="616.54" style="stroke:#000000;stroke-width:5.76"/>
	<text x="518.51" y="651.57" style="font-family:'Helvetica';font-size:99.99px;fill:#000000" text-anchor="end">16.00</text>
	<line x1="578.53" y1="503.43" x2="538.44" y2="503.43" style="stroke:#000000;stroke-width:5.76"/>
	<text x="518.51" y="538.46" style="font-family:'Helvetica';font-size:99.99px;fill:#000000" text-anchor="end">17.00</text>
	<line x1="578.53" y1="390.32" x2="538.44" y2="390.32" style="stroke:#000000;stroke-width:5.76"/>
	<text x="518.51" y="425.35" style="font-family:'Helvetica';font-size:99.99px;fill:#000000" text-anchor="end">18.00</text>
	<line x1="578.53" y1="277.21" x2="538.44" y2="277.21" style="stroke:#000000;stroke-width:5.76"/>
	<text x="518.51" y="312.24" style="font-family:'Helvetica';font-size:99.99px;fill:#000000" text-anchor="end">19.00</text>
	<line x1="578.53" y1="164.22" x2="538.44" y2="164.22" style="stroke:#000000;stroke-width:5.76"/>
	<text x="518.51" y="199.25" style="font-family:'Helvetica';font-size:99.99px;fill:#000000" text-anchor="end">20.00</text>
	<text x="190.71" y="1294.96" style="font-family:'Helvetica';font-size:99.99px;fill:#000000" transform="rotate(-90 190.71,1294.96)" text-anchor="middle">Cumulative incidence (%)</text>
	<line x1="578.53" y1="2489.19" x2="3859.02" y2="2489.19" style="stroke:#000000;stroke-width:5.76"/>
	<line x1="641.89" y1="2489.19" x2="641.89" y2="2529.16" style="stroke:#000000;stroke-width:5.76"/>
	<text x="641.89" y="2619.14" style="font-family:'Helvetica';font-size:99.99px;fill:#000000" text-anchor="middle">0</text>
	<line x1="1389.22" y1="2489.19" x2="1389.22" y2="2529.16" style="stroke:#000000;stroke-width:5.76"/>
	<text x="1389.22" y="2619.14" style="font-family:'Helvetica';font-size:99.99px;fill:#000000" text-anchor="middle">50</text>
	<line x1="2136.54" y1="2489.19" x2="2136.54" y2="2529.16" style="stroke:#000000;stroke-width:5.76"/>
	<text x="2136.54" y="2619.14" style="font-family:'Helvetica';font-size:99.99px;fill:#000000" text-anchor="middle">100</text>
	<line x1="2883.99" y1="2489.19" x2="2883.99" y2="2529.16" style="stroke:#000000;stroke-width:5.76"/>
	<text x="2883.99" y="2619.14" style="font-family:'Helvetica';font-size:99.99px;fill:#000000" text-anchor="middle">150</text>
	<line x1="3631.32" y1="2489.19" x2="3631.32" y2="2529.16" style="stroke:#000000;stroke-width:5.76"/>
	<text x="3631.32" y="2619.14" style="font-family:'Helvetica';font-size:99.99px;fill:#000000" text-anchor="middle">200</text>
	<text x="2218.84" y="2729.16" style="font-family:'Helvetica';font-size:99.99px;fill:#000000" text-anchor="middle">Days from 1 March 2020</text>
	<rect x="1933.59" y="2128.20" width="1890.90" height="326.46" style="fill:#FFFFFF"/>
	<rect x="1936.47" y="2131.08" width="1885.14" height="320.70" style="fill:none;stroke:#000000;stroke-width:5.76"/>
	<rect x="1976.78" y="2171.51" width="374.34" height="99.99" style="fill:#3333FF;fill-opacity:0.25"/>
	<rect x="1981.10" y="2175.83" width="365.70" height="91.35" style="fill:none;stroke:#0000FF;stroke-opacity:0.25;stroke-width:8.64"/>
	<rect x="1976.78" y="2311.47" width="374.34" height="99.99" style="fill:#FF3333;fill-opacity:0.25"/>
	<rect x="1981.10" y="2315.79" width="365.70" height="91.35" style="fill:none;stroke:#FF0000;stroke-opacity:0.25;stroke-width:8.64"/>
	<text x="2411.14" y="2256.53" style="font-family:'Helvetica';font-size:99.99px;fill:#000000">Non-current anticoagulant use</text>
	<text x="2411.14" y="2396.50" style="font-family:'Helvetica';font-size:99.99px;fill:#000000">Current anticoagulant use</text>
</svg>
