<?xml version="1.0" encoding="UTF-8" standalone="no"?>
<!-- This is a Stata 16.1 generated SVG file (http://www.stata.com) -->

<svg version="1.1" width="5.50in" height="4.00in" viewBox="0 0 3960 2880" xmlns="http://www.w3.org/2000/svg" xmlns:xlink="http://www.w3.org/1999/xlink">
	<desc>Stata Graph - Graph</desc>
	<rect x="0" y="0" width="3960" height="2880" style="fill:#EAF2F3;stroke:none"/>
	<rect x="0.00" y="0.00" width="3959.88" height="2880.00" style="fill:#EAF2F3"/>
	<rect x="2.88" y="2.88" width="3954.12" height="2874.24" style="fill:none;stroke:#EAF2F3;stroke-width:5.76"/>
	<rect x="521.73" y="100.86" width="3337.29" height="2388.33" style="fill:#FFFFFF"/>
	<rect x="524.61" y="103.74" width="3331.53" height="2382.57" style="fill:none;stroke:#FFFFFF;stroke-width:5.76"/>
	<line x1="521.73" y1="2425.82" x2="3859.02" y2="2425.82" style="stroke:#EAF2F3;stroke-width:8.64"/>
	<line x1="521.73" y1="1860.39" x2="3859.02" y2="1860.39" style="stroke:#EAF2F3;stroke-width:8.64"/>
	<line x1="521.73" y1="1294.96" x2="3859.02" y2="1294.96" style="stroke:#EAF2F3;stroke-width:8.64"/>
	<line x1="521.73" y1="729.53" x2="3859.02" y2="729.53" style="stroke:#EAF2F3;stroke-width:8.64"/>
	<defs>
		<path id="path_ZhRjQepS" d="M600.31 2425.82 L600.31 2425.82 L615.53 2425.82 L630.75 2425.82 L645.98 2425.82 L661.20 2425.82 L676.42 2425.82 L691.64 2425.70 L706.86 2425.70 L722.08 2425.45 L737.30 2425.20 L752.52 2424.71 L767.75 2424.09 L782.97 2423.10 L798.19 2421.86 L813.41 2420.13 L828.63 2417.90 L843.85 2415.06 L859.07 2411.59 L874.29 2407.26 L889.51 2402.31 L904.61 2396.37 L919.83 2389.69 L935.05 2382.01 L950.28 2373.48 L965.50 2364.19 L980.72 2354.05 L995.94 2343.16 L1011.16 2331.65 L1026.38 2319.39 L1041.60 2306.65 L1056.83 2293.53 L1072.05 2280.04 L1087.27 2266.30 L1102.49 2252.32 L1117.71 2238.34 L1132.93 2224.35 L1148.15 2210.49 L1163.37 2196.75 L1178.60 2183.14 L1193.82 2170.02 L1209.04 2157.15 L1224.26 2144.53 L1239.48 2132.40 L1254.70 2120.52 L1269.80 2109.14 L1285.02 2098.12 L1300.24 2087.36 L1315.46 2077.08 L1330.68 2067.18 L1345.90 2057.53 L1361.13 2048.37 L1376.35 2039.46 L1391.57 2030.92 L1406.79 2022.76 L1422.01 2014.84 L1437.23 2007.29 L1452.45 1999.99 L1467.67 1992.93 L1482.90 1986.13 L1498.12 1979.57 L1513.34 1973.38 L1528.56 1967.32 L1543.78 1961.50 L1559.00 1955.81 L1574.22 1950.36 L1589.44 1945.04 L1604.67 1939.97 L1619.76 1935.02 L1634.98 1930.19 L1650.21 1925.49 L1665.43 1921.03 L1680.65 1916.58 L1695.87 1912.24 L1711.09 1908.04 L1726.31 1903.83 L1741.53 1899.75 L1756.76 1895.79 L1771.98 1891.83 L1787.20 1887.87 L1802.42 1884.15 L1817.64 1880.32 L1832.86 1876.60 L1848.08 1873.01 L1863.30 1869.43 L1878.53 1865.84 L1893.75 1862.25 L1908.97 1858.91 L1924.19 1855.44 L1939.41 1852.10 L1954.63 1848.76 L1969.85 1845.54 L1984.95 1842.20 L2000.17 1839.11 L2015.39 1835.89 L2030.61 1832.79 L2045.84 1829.70 L2061.06 1826.73 L2076.28 1823.64 L2091.50 1820.67 L2106.72 1817.82 L2121.94 1814.85 L2137.16 1812.00 L2152.38 1809.16 L2167.61 1806.31 L2182.83 1803.59 L2198.05 1800.87 L2213.27 1798.14 L2228.49 1795.42 L2243.71 1792.82 L2258.93 1790.22 L2274.15 1787.62 L2289.38 1785.03 L2304.60 1782.43 L2319.82 1779.95 L2335.04 1777.48 L2350.14 1775.00 L2365.36 1772.53 L2380.58 1770.05 L2395.80 1767.70 L2411.02 1765.23 L2426.24 1762.87 L2441.46 1760.52 L2456.68 1758.29 L2471.91 1755.94 L2487.13 1753.72 L2502.35 1751.49 L2517.57 1749.14 L2532.79 1746.91 L2548.01 1744.81 L2563.23 1742.58 L2578.45 1740.47 L2593.68 1738.25 L2608.90 1736.14 L2624.12 1734.04 L2639.34 1731.94 L2654.56 1729.83 L2669.78 1727.85 L2685.00 1725.75 L2700.22 1723.77 L2715.32 1721.66 L2730.54 1719.68 L2745.76 1717.70 L2760.99 1715.72 L2776.21 1713.74 L2791.43 1711.89 L2806.65 1709.91 L2821.87 1708.05 L2837.09 1706.07 L2852.31 1704.21 L2867.53 1702.36 L2882.76 1700.50 L2897.98 1698.65 L2913.20 1696.79 L2928.42 1694.93 L2943.64 1693.20 L2958.86 1691.34 L2974.08 1689.61 L2989.30 1687.76 L3004.53 1686.02 L3019.75 1684.29 L3034.97 1682.56 L3050.19 1680.83 L3065.41 1679.09 L3080.51 1677.36 L3095.73 1675.63 L3110.95 1674.02 L3126.17 1672.29 L3141.39 1670.55 L3156.61 1668.94 L3171.84 1667.34 L3187.06 1665.60 L3202.28 1663.99 L3217.50 1662.39 L3232.72 1660.78 L3247.94 1659.17 L3263.16 1657.56 L3278.39 1655.95 L3293.61 1654.34 L3308.83 1652.73 L3324.05 1651.25 L3339.27 1649.64 L3354.49 1648.03 L3369.71 1646.55 L3384.93 1644.94 L3400.16 1643.45 L3415.38 1641.97 L3430.47 1640.36 L3445.70 1638.87 L3460.92 1637.39 L3476.14 1635.90 L3491.36 1634.42 L3506.58 1632.93 L3521.80 1631.45 L3537.02 1629.96 L3552.24 1628.48 L3567.47 1626.99 L3582.69 1625.63 L3597.91 1624.15 L3613.13 1622.66 L3628.35 1621.30 L3643.57 1619.81 L3658.79 1618.45 L3674.01 1616.97 L3689.24 1615.61 L3704.46 1614.12 L3719.68 1612.76 L3734.90 1611.40 L3750.12 1610.04 L3765.34 1608.55 L3780.56 1607.19 L3795.66 1605.83 L3795.66 1280.73 L3780.56 1282.59 L3765.34 1284.57 L3750.12 1286.42 L3734.90 1288.40 L3719.68 1290.38 L3704.46 1292.24 L3689.24 1294.22 L3674.01 1296.20 L3658.79 1298.18 L3643.57 1300.16 L3628.35 1302.14 L3613.13 1304.12 L3597.91 1306.10 L3582.69 1308.08 L3567.47 1310.06 L3552.24 1312.16 L3537.02 1314.14 L3521.80 1316.12 L3506.58 1318.23 L3491.36 1320.21 L3476.14 1322.31 L3460.92 1324.29 L3445.70 1326.39 L3430.47 1328.50 L3415.38 1330.48 L3400.16 1332.58 L3384.93 1334.69 L3369.71 1336.79 L3354.49 1338.89 L3339.27 1341.00 L3324.05 1343.10 L3308.83 1345.33 L3293.61 1347.43 L3278.39 1349.54 L3263.16 1351.76 L3247.94 1353.87 L3232.72 1356.09 L3217.50 1358.32 L3202.28 1360.43 L3187.06 1362.65 L3171.84 1364.88 L3156.61 1367.11 L3141.39 1369.34 L3126.17 1371.69 L3110.95 1373.92 L3095.73 1376.14 L3080.51 1378.49 L3065.41 1380.72 L3050.19 1383.07 L3034.97 1385.42 L3019.75 1387.78 L3004.53 1390.13 L2989.30 1392.48 L2974.08 1394.83 L2958.86 1397.18 L2943.64 1399.66 L2928.42 1402.01 L2913.20 1404.48 L2897.98 1406.96 L2882.76 1409.43 L2867.53 1411.91 L2852.31 1414.38 L2837.09 1416.86 L2821.87 1419.33 L2806.65 1421.93 L2791.43 1424.53 L2776.21 1427.01 L2760.99 1429.60 L2745.76 1432.33 L2730.54 1434.93 L2715.32 1437.52 L2700.22 1440.25 L2685.00 1442.97 L2669.78 1445.69 L2654.56 1448.42 L2639.34 1451.14 L2624.12 1453.86 L2608.90 1456.71 L2593.68 1459.55 L2578.45 1462.40 L2563.23 1465.25 L2548.01 1468.09 L2532.79 1471.06 L2517.57 1474.03 L2502.35 1477.00 L2487.13 1479.97 L2471.91 1482.94 L2456.68 1486.04 L2441.46 1489.13 L2426.24 1492.22 L2411.02 1495.32 L2395.80 1498.54 L2380.58 1501.75 L2365.36 1504.97 L2350.14 1508.19 L2335.04 1511.53 L2319.82 1514.87 L2304.60 1518.21 L2289.38 1521.55 L2274.15 1525.02 L2258.93 1528.48 L2243.71 1531.95 L2228.49 1535.54 L2213.27 1539.13 L2198.05 1542.72 L2182.83 1546.43 L2167.61 1550.14 L2152.38 1553.85 L2137.16 1557.69 L2121.94 1561.53 L2106.72 1565.36 L2091.50 1569.32 L2076.28 1573.28 L2061.06 1577.37 L2045.84 1581.45 L2030.61 1585.53 L2015.39 1589.74 L2000.17 1594.07 L1984.95 1598.28 L1969.85 1602.61 L1954.63 1607.07 L1939.41 1611.52 L1924.19 1616.10 L1908.97 1620.68 L1893.75 1625.38 L1878.53 1630.09 L1863.30 1634.79 L1848.08 1639.74 L1832.86 1644.57 L1817.64 1649.64 L1802.42 1654.71 L1787.20 1659.79 L1771.98 1664.98 L1756.76 1670.31 L1741.53 1675.75 L1726.31 1681.20 L1711.09 1686.77 L1695.87 1692.46 L1680.65 1698.15 L1665.43 1704.09 L1650.21 1710.15 L1634.98 1716.47 L1619.76 1722.78 L1604.67 1729.46 L1589.44 1736.27 L1574.22 1743.20 L1559.00 1750.50 L1543.78 1758.05 L1528.56 1765.84 L1513.34 1773.89 L1498.12 1782.30 L1482.90 1790.97 L1467.67 1800.00 L1452.45 1809.41 L1437.23 1819.31 L1422.01 1829.58 L1406.79 1840.22 L1391.57 1851.36 L1376.35 1862.99 L1361.13 1874.99 L1345.90 1887.62 L1330.68 1900.74 L1315.46 1914.47 L1300.24 1928.58 L1285.02 1943.43 L1269.80 1958.78 L1254.70 1974.62 L1239.48 1991.08 L1224.26 2008.15 L1209.04 2025.60 L1193.82 2043.67 L1178.60 2062.11 L1163.37 2081.05 L1148.15 2100.23 L1132.93 2119.66 L1117.71 2139.09 L1102.49 2158.64 L1087.27 2177.94 L1072.05 2197.00 L1056.83 2215.69 L1041.60 2233.88 L1026.38 2251.58 L1011.16 2268.53 L995.94 2284.87 L980.72 2300.34 L965.50 2314.94 L950.28 2328.55 L935.05 2341.30 L919.83 2353.06 L904.61 2363.82 L889.51 2373.48 L874.29 2382.26 L859.07 2390.06 L843.85 2396.86 L828.63 2402.68 L813.41 2407.76 L798.19 2411.96 L782.97 2415.43 L767.75 2418.15 L752.52 2420.38 L737.30 2422.11 L722.08 2423.35 L706.86 2424.34 L691.64 2424.96 L676.42 2425.33 L661.20 2425.58 L645.98 2425.70 L630.75 2425.82 L615.53 2425.82 L600.31 2425.82 L600.31 2425.82 Z" stroke-linejoin="round"/>
	</defs>
	<defs>
		<clipPath id="clipPath_SthUxAUD">
			<use xlink:href="#path_ZhRjQepS"/>
		</clipPath>
	</defs>
	<use xlink:href="#path_ZhRjQepS" style="stroke:none;fill:#3333FF;fill-opacity:0.25"/>
	<use xlink:href="#path_ZhRjQepS" style="fill:none;stroke:#0000FF;stroke-opacity:0.25;stroke-width:17.28" clip-path="url(#clipPath_SthUxAUD)"/>
	<defs>
		<path id="path_YBaTEeWg" d="M600.31 2425.82 L600.31 2425.82 L615.53 2425.82 L630.75 2425.82 L645.98 2425.82 L661.20 2425.82 L676.42 2425.82 L691.64 2425.82 L706.86 2425.70 L722.08 2425.58 L737.30 2425.33 L752.52 2425.08 L767.75 2424.59 L782.97 2423.84 L798.19 2422.85 L813.41 2421.62 L828.63 2419.88 L843.85 2417.78 L859.07 2415.06 L874.29 2411.84 L889.51 2408.00 L904.61 2403.55 L919.83 2398.47 L935.05 2392.66 L950.28 2386.10 L965.50 2378.92 L980.72 2371.12 L995.94 2362.71 L1011.16 2353.80 L1026.38 2344.39 L1041.60 2334.49 L1056.83 2324.22 L1072.05 2313.83 L1087.27 2303.06 L1102.49 2292.17 L1117.71 2281.28 L1132.93 2270.39 L1148.15 2259.50 L1163.37 2248.73 L1178.60 2238.21 L1193.82 2227.94 L1209.04 2217.79 L1224.26 2208.02 L1239.48 2198.49 L1254.70 2189.21 L1269.80 2180.30 L1285.02 2171.63 L1300.24 2163.22 L1315.46 2155.17 L1330.68 2147.38 L1345.90 2139.83 L1361.13 2132.65 L1376.35 2125.60 L1391.57 2118.91 L1406.79 2112.48 L1422.01 2106.29 L1437.23 2100.23 L1452.45 2094.53 L1467.67 2088.97 L1482.90 2083.52 L1498.12 2078.45 L1513.34 2073.50 L1528.56 2068.67 L1543.78 2064.09 L1559.00 2059.64 L1574.22 2055.30 L1589.44 2051.10 L1604.67 2047.01 L1619.76 2043.18 L1634.98 2039.34 L1650.21 2035.63 L1665.43 2032.04 L1680.65 2028.45 L1695.87 2025.11 L1711.09 2021.77 L1726.31 2018.43 L1741.53 2015.21 L1756.76 2011.99 L1771.98 2008.90 L1787.20 2005.80 L1802.42 2002.83 L1817.64 1999.86 L1832.86 1996.89 L1848.08 1994.05 L1863.30 1991.20 L1878.53 1988.35 L1893.75 1985.51 L1908.97 1982.78 L1924.19 1980.19 L1939.41 1977.46 L1954.63 1974.86 L1969.85 1972.27 L1984.95 1969.67 L2000.17 1967.19 L2015.39 1964.72 L2030.61 1962.24 L2045.84 1959.77 L2061.06 1957.29 L2076.28 1954.94 L2091.50 1952.59 L2106.72 1950.24 L2121.94 1948.01 L2137.16 1945.66 L2152.38 1943.43 L2167.61 1941.20 L2182.83 1939.10 L2198.05 1936.87 L2213.27 1934.77 L2228.49 1932.54 L2243.71 1930.44 L2258.93 1928.33 L2274.15 1926.35 L2289.38 1924.25 L2304.60 1922.27 L2319.82 1920.29 L2335.04 1918.31 L2350.14 1916.33 L2365.36 1914.35 L2380.58 1912.37 L2395.80 1910.51 L2411.02 1908.66 L2426.24 1906.68 L2441.46 1904.82 L2456.68 1902.96 L2471.91 1901.23 L2487.13 1899.37 L2502.35 1897.64 L2517.57 1895.79 L2532.79 1894.05 L2548.01 1892.32 L2563.23 1890.59 L2578.45 1888.86 L2593.68 1887.12 L2608.90 1885.39 L2624.12 1883.78 L2639.34 1882.05 L2654.56 1880.44 L2669.78 1878.83 L2685.00 1877.10 L2700.22 1875.49 L2715.32 1873.88 L2730.54 1872.40 L2745.76 1870.79 L2760.99 1869.18 L2776.21 1867.69 L2791.43 1866.08 L2806.65 1864.60 L2821.87 1862.99 L2837.09 1861.51 L2852.31 1860.02 L2867.53 1858.54 L2882.76 1857.05 L2897.98 1855.57 L2913.20 1854.08 L2928.42 1852.60 L2943.64 1851.23 L2958.86 1849.75 L2974.08 1848.39 L2989.30 1846.90 L3004.53 1845.54 L3019.75 1844.18 L3034.97 1842.70 L3050.19 1841.33 L3065.41 1839.97 L3080.51 1838.61 L3095.73 1837.25 L3110.95 1835.89 L3126.17 1834.65 L3141.39 1833.29 L3156.61 1831.93 L3171.84 1830.57 L3187.06 1829.33 L3202.28 1827.97 L3217.50 1826.73 L3232.72 1825.49 L3247.94 1824.13 L3263.16 1822.89 L3278.39 1821.66 L3293.61 1820.42 L3308.83 1819.06 L3324.05 1817.82 L3339.27 1816.58 L3354.49 1815.35 L3369.71 1814.23 L3384.93 1812.99 L3400.16 1811.76 L3415.38 1810.52 L3430.47 1809.28 L3445.70 1808.17 L3460.92 1806.93 L3476.14 1805.82 L3491.36 1804.58 L3506.58 1803.47 L3521.80 1802.23 L3537.02 1801.11 L3552.24 1799.88 L3567.47 1798.76 L3582.69 1797.65 L3597.91 1796.53 L3613.13 1795.30 L3628.35 1794.18 L3643.57 1793.07 L3658.79 1791.96 L3674.01 1790.84 L3689.24 1789.73 L3704.46 1788.61 L3719.68 1787.50 L3734.90 1786.39 L3750.12 1785.27 L3765.34 1784.28 L3780.56 1783.17 L3795.66 1782.06 L3795.66 1625.38 L3780.56 1626.62 L3765.34 1627.98 L3750.12 1629.34 L3734.90 1630.70 L3719.68 1632.07 L3704.46 1633.43 L3689.24 1634.79 L3674.01 1636.27 L3658.79 1637.63 L3643.57 1639.00 L3628.35 1640.36 L3613.13 1641.72 L3597.91 1643.08 L3582.69 1644.57 L3567.47 1645.93 L3552.24 1647.29 L3537.02 1648.77 L3521.80 1650.13 L3506.58 1651.62 L3491.36 1652.98 L3476.14 1654.47 L3460.92 1655.83 L3445.70 1657.31 L3430.47 1658.67 L3415.38 1660.16 L3400.16 1661.64 L3384.93 1663.13 L3369.71 1664.49 L3354.49 1665.97 L3339.27 1667.46 L3324.05 1668.94 L3308.83 1670.43 L3293.61 1671.91 L3278.39 1673.40 L3263.16 1674.88 L3247.94 1676.49 L3232.72 1677.98 L3217.50 1679.46 L3202.28 1680.95 L3187.06 1682.56 L3171.84 1684.04 L3156.61 1685.65 L3141.39 1687.14 L3126.17 1688.75 L3110.95 1690.35 L3095.73 1691.84 L3080.51 1693.45 L3065.41 1695.06 L3050.19 1696.67 L3034.97 1698.27 L3019.75 1699.88 L3004.53 1701.49 L2989.30 1703.22 L2974.08 1704.83 L2958.86 1706.44 L2943.64 1708.17 L2928.42 1709.78 L2913.20 1711.52 L2897.98 1713.25 L2882.76 1714.86 L2867.53 1716.59 L2852.31 1718.32 L2837.09 1720.06 L2821.87 1721.79 L2806.65 1723.52 L2791.43 1725.38 L2776.21 1727.11 L2760.99 1728.97 L2745.76 1730.70 L2730.54 1732.55 L2715.32 1734.41 L2700.22 1736.27 L2685.00 1738.12 L2669.78 1739.98 L2654.56 1741.84 L2639.34 1743.82 L2624.12 1745.67 L2608.90 1747.65 L2593.68 1749.51 L2578.45 1751.49 L2563.23 1753.47 L2548.01 1755.57 L2532.79 1757.55 L2517.57 1759.53 L2502.35 1761.64 L2487.13 1763.74 L2471.91 1765.72 L2456.68 1767.95 L2441.46 1770.05 L2426.24 1772.16 L2411.02 1774.38 L2395.80 1776.49 L2380.58 1778.71 L2365.36 1780.94 L2350.14 1783.17 L2335.04 1785.52 L2319.82 1787.75 L2304.60 1790.10 L2289.38 1792.45 L2274.15 1794.80 L2258.93 1797.28 L2243.71 1799.75 L2228.49 1802.10 L2213.27 1804.58 L2198.05 1807.18 L2182.83 1809.65 L2167.61 1812.25 L2152.38 1814.85 L2137.16 1817.45 L2121.94 1820.17 L2106.72 1822.89 L2091.50 1825.62 L2076.28 1828.34 L2061.06 1831.19 L2045.84 1834.03 L2030.61 1836.88 L2015.39 1839.72 L2000.17 1842.70 L1984.95 1845.67 L1969.85 1848.76 L1954.63 1851.73 L1939.41 1854.82 L1924.19 1858.04 L1908.97 1861.26 L1893.75 1864.48 L1878.53 1867.69 L1863.30 1871.03 L1848.08 1874.38 L1832.86 1877.84 L1817.64 1881.31 L1802.42 1884.77 L1787.20 1888.36 L1771.98 1891.95 L1756.76 1895.66 L1741.53 1899.37 L1726.31 1903.21 L1711.09 1907.05 L1695.87 1911.01 L1680.65 1914.97 L1665.43 1919.05 L1650.21 1923.26 L1634.98 1927.59 L1619.76 1932.05 L1604.67 1936.62 L1589.44 1941.33 L1574.22 1946.15 L1559.00 1951.23 L1543.78 1956.42 L1528.56 1961.87 L1513.34 1967.44 L1498.12 1973.26 L1482.90 1979.32 L1467.67 1985.63 L1452.45 1992.19 L1437.23 1999.00 L1422.01 2006.05 L1406.79 2013.48 L1391.57 2021.27 L1376.35 2029.32 L1361.13 2037.73 L1345.90 2046.52 L1330.68 2055.68 L1315.46 2065.20 L1300.24 2075.23 L1285.02 2085.50 L1269.80 2096.27 L1254.70 2107.40 L1239.48 2118.91 L1224.26 2130.79 L1209.04 2143.05 L1193.82 2155.67 L1178.60 2168.66 L1163.37 2181.90 L1148.15 2195.39 L1132.93 2209.01 L1117.71 2222.62 L1102.49 2236.23 L1087.27 2249.85 L1072.05 2263.21 L1056.83 2276.33 L1041.60 2289.08 L1026.38 2301.45 L1011.16 2313.45 L995.94 2324.96 L980.72 2335.85 L965.50 2346.13 L950.28 2355.90 L935.05 2364.94 L919.83 2373.35 L904.61 2381.02 L889.51 2387.95 L874.29 2394.27 L859.07 2399.83 L843.85 2404.79 L828.63 2408.99 L813.41 2412.71 L798.19 2415.68 L782.97 2418.27 L767.75 2420.25 L752.52 2421.86 L737.30 2423.10 L722.08 2424.09 L706.86 2424.71 L691.64 2425.20 L676.42 2425.45 L661.20 2425.70 L645.98 2425.82 L630.75 2425.82 L615.53 2425.82 L600.31 2425.82 L600.31 2425.82 Z" stroke-linejoin="round"/>
	</defs>
	<defs>
		<clipPath id="clipPath_byZOsTeU">
			<use xlink:href="#path_YBaTEeWg"/>
		</clipPath>
	</defs>
	<use xlink:href="#path_YBaTEeWg" style="stroke:none;fill:#FF3333;fill-opacity:0.25"/>
	<use xlink:href="#path_YBaTEeWg" style="fill:none;stroke:#FF0000;stroke-opacity:0.25;stroke-width:17.28" clip-path="url(#clipPath_byZOsTeU)"/>
	<path d=" M585.09 2425.95 L600.31 2425.95 L615.53 2425.95 L630.75 2425.95 L645.98 2425.95 L661.20 2425.82 L676.42 2425.82 L691.64 2425.58 L706.86 2425.33 L721.96 2424.96 L737.18 2424.34 L752.40 2423.47 L767.62 2422.23 L782.84 2420.63 L798.06 2418.52 L813.28 2415.80 L828.51 2412.33 L843.73 2408.25 L858.95 2403.30 L874.17 2397.48 L889.39 2390.80 L904.61 2383.13 L919.83 2374.59 L935.05 2365.06 L950.28 2354.54 L965.50 2343.16 L980.72 2331.03 L995.94 2317.91 L1011.16 2304.17 L1026.38 2289.69 L1041.60 2274.72 L1056.83 2259.13 L1072.05 2243.29 L1087.14 2227.07 L1102.37 2210.62 L1117.59 2194.03 L1132.81 2177.57 L1148.03 2161.11 L1163.25 2144.78 L1178.47 2128.81 L1193.69 2113.22 L1208.91 2098.00 L1224.13 2083.15 L1239.36 2068.67 L1254.58 2054.81 L1269.80 2041.32 L1285.02 2028.20 L1300.24 2015.70 L1315.46 2003.58 L1330.68 1991.94 L1345.90 1980.68 L1361.13 1969.91 L1376.35 1959.52 L1391.57 1949.62 L1406.79 1940.09 L1422.01 1930.81 L1437.23 1922.02 L1452.33 1913.48 L1467.55 1905.44 L1482.77 1897.52 L1497.99 1889.97 L1513.21 1882.79 L1528.44 1875.74 L1543.66 1869.05 L1558.88 1862.50 L1574.10 1856.18 L1589.32 1850.12 L1604.54 1844.18 L1619.76 1838.49 L1634.98 1832.92 L1650.21 1827.60 L1665.43 1822.28 L1680.65 1817.20 L1695.87 1812.13 L1711.09 1807.18 L1726.31 1802.48 L1741.53 1797.65 L1756.76 1793.07 L1771.98 1788.49 L1787.20 1784.04 L1802.30 1779.58 L1817.52 1775.13 L1832.74 1770.92 L1847.96 1766.59 L1863.18 1762.50 L1878.40 1758.29 L1893.62 1754.21 L1908.84 1750.25 L1924.07 1746.29 L1939.29 1742.33 L1954.51 1738.49 L1969.73 1734.66 L1984.95 1730.95 L2000.17 1727.23 L2015.39 1723.64 L2030.61 1719.93 L2045.84 1716.47 L2061.06 1712.88 L2076.28 1709.41 L2091.50 1705.95 L2106.72 1702.61 L2121.94 1699.26 L2137.16 1695.92 L2152.38 1692.58 L2167.48 1689.36 L2182.70 1686.15 L2197.92 1682.93 L2213.14 1679.83 L2228.37 1676.74 L2243.59 1673.65 L2258.81 1670.68 L2274.03 1667.58 L2289.25 1664.61 L2304.47 1661.77 L2319.69 1658.80 L2334.91 1655.95 L2350.14 1653.10 L2365.36 1650.26 L2380.58 1647.41 L2395.80 1644.69 L2411.02 1641.97 L2426.24 1639.24 L2441.46 1636.52 L2456.68 1633.80 L2471.91 1631.20 L2487.13 1628.60 L2502.35 1626.00 L2517.57 1623.40 L2532.67 1620.80 L2547.89 1618.33 L2563.11 1615.73 L2578.33 1613.26 L2593.55 1610.78 L2608.77 1608.31 L2623.99 1605.95 L2639.22 1603.48 L2654.44 1601.13 L2669.66 1598.78 L2684.88 1596.42 L2700.10 1594.07 L2715.32 1591.72 L2730.54 1589.37 L2745.76 1587.14 L2760.99 1584.79 L2776.21 1582.56 L2791.43 1580.34 L2806.65 1578.11 L2821.87 1575.88 L2837.09 1573.78 L2852.31 1571.55 L2867.53 1569.45 L2882.76 1567.22 L2897.85 1565.12 L2913.07 1563.01 L2928.30 1560.91 L2943.52 1558.80 L2958.74 1556.70 L2973.96 1554.60 L2989.18 1552.62 L3004.40 1550.51 L3019.62 1548.53 L3034.84 1546.43 L3050.07 1544.45 L3065.29 1542.47 L3080.51 1540.49 L3095.73 1538.51 L3110.95 1536.53 L3126.17 1534.55 L3141.39 1532.69 L3156.61 1530.71 L3171.84 1528.86 L3187.06 1526.88 L3202.28 1525.02 L3217.50 1523.04 L3232.72 1521.18 L3247.94 1519.33 L3263.04 1517.47 L3278.26 1515.61 L3293.48 1513.76 L3308.70 1511.90 L3323.93 1510.04 L3339.15 1508.31 L3354.37 1506.46 L3369.59 1504.60 L3384.81 1502.87 L3400.03 1501.01 L3415.25 1499.28 L3430.47 1497.55 L3445.70 1495.69 L3460.92 1493.96 L3476.14 1492.22 L3491.36 1490.49 L3506.58 1488.76 L3521.80 1487.03 L3537.02 1485.29 L3552.24 1483.56 L3567.47 1481.83 L3582.69 1480.10 L3597.91 1478.49 L3613.01 1476.75 L3628.23 1475.02 L3643.45 1473.41 L3658.67 1471.68 L3673.89 1470.07 L3689.11 1468.34 L3704.33 1466.73 L3719.55 1465.00 L3734.78 1463.39 L3750.00 1461.78 L3765.22 1460.17 L3780.44 1458.44 L3795.66 1456.83" stroke-linejoin="round" style="fill:none;stroke:#0000FF;stroke-width:8.64"/>
	<path d=" M585.09 2425.95 L600.31 2425.95 L615.53 2425.95 L630.75 2425.95 L645.98 2425.95 L661.20 2425.82 L676.42 2425.82 L691.64 2425.70 L706.86 2425.45 L721.96 2425.20 L737.18 2424.71 L752.40 2424.09 L767.62 2423.22 L782.84 2421.99 L798.06 2420.38 L813.28 2418.40 L828.51 2415.92 L843.73 2412.83 L858.95 2409.24 L874.17 2404.91 L889.39 2399.96 L904.61 2394.27 L919.83 2387.95 L935.05 2380.90 L950.28 2373.23 L965.50 2364.81 L980.72 2355.78 L995.94 2346.13 L1011.16 2335.98 L1026.38 2325.21 L1041.60 2314.07 L1056.83 2302.69 L1072.05 2290.93 L1087.14 2278.93 L1102.37 2266.68 L1117.59 2254.55 L1132.81 2242.30 L1148.03 2230.04 L1163.25 2218.04 L1178.47 2206.28 L1193.69 2194.65 L1208.91 2183.39 L1224.13 2172.38 L1239.36 2161.73 L1254.58 2151.46 L1269.80 2141.44 L1285.02 2131.78 L1300.24 2122.50 L1315.46 2113.47 L1330.68 2104.81 L1345.90 2096.51 L1361.13 2088.59 L1376.35 2080.92 L1391.57 2073.50 L1406.79 2066.44 L1422.01 2059.64 L1437.23 2053.08 L1452.33 2046.77 L1467.55 2040.83 L1482.77 2035.01 L1497.99 2029.32 L1513.21 2023.99 L1528.44 2018.80 L1543.66 2013.85 L1558.88 2009.02 L1574.10 2004.32 L1589.32 1999.86 L1604.54 1995.41 L1619.76 1991.20 L1634.98 1987.12 L1650.21 1983.03 L1665.43 1979.20 L1680.65 1975.36 L1695.87 1971.65 L1711.09 1968.06 L1726.31 1964.47 L1741.53 1961.00 L1756.76 1957.54 L1771.98 1954.07 L1787.20 1950.73 L1802.30 1947.51 L1817.52 1944.30 L1832.74 1941.08 L1847.96 1937.86 L1863.18 1934.77 L1878.40 1931.80 L1893.62 1928.70 L1908.84 1925.73 L1924.07 1922.89 L1939.29 1919.92 L1954.51 1917.07 L1969.73 1914.22 L1984.95 1911.50 L2000.17 1908.78 L2015.39 1906.06 L2030.61 1903.33 L2045.84 1900.74 L2061.06 1898.01 L2076.28 1895.54 L2091.50 1892.94 L2106.72 1890.46 L2121.94 1887.87 L2137.16 1885.51 L2152.38 1883.04 L2167.48 1880.56 L2182.70 1878.21 L2197.92 1875.86 L2213.14 1873.51 L2228.37 1871.28 L2243.59 1868.93 L2258.81 1866.70 L2274.03 1864.48 L2289.25 1862.25 L2304.47 1860.14 L2319.69 1857.92 L2334.91 1855.81 L2350.14 1853.71 L2365.36 1851.61 L2380.58 1849.50 L2395.80 1847.40 L2411.02 1845.42 L2426.24 1843.44 L2441.46 1841.33 L2456.68 1839.35 L2471.91 1837.37 L2487.13 1835.52 L2502.35 1833.54 L2517.57 1831.68 L2532.67 1829.70 L2547.89 1827.84 L2563.11 1825.99 L2578.33 1824.13 L2593.55 1822.28 L2608.77 1820.54 L2623.99 1818.69 L2639.22 1816.95 L2654.44 1815.10 L2669.66 1813.37 L2684.88 1811.63 L2700.10 1809.90 L2715.32 1808.17 L2730.54 1806.44 L2745.76 1804.70 L2760.99 1803.09 L2776.21 1801.36 L2791.43 1799.75 L2806.65 1798.02 L2821.87 1796.41 L2837.09 1794.80 L2852.31 1793.19 L2867.53 1791.58 L2882.76 1789.98 L2897.85 1788.37 L2913.07 1786.88 L2928.30 1785.27 L2943.52 1783.66 L2958.74 1782.18 L2973.96 1780.57 L2989.18 1779.09 L3004.40 1777.60 L3019.62 1776.12 L3034.84 1774.63 L3050.07 1773.02 L3065.29 1771.66 L3080.51 1770.18 L3095.73 1768.69 L3110.95 1767.21 L3126.17 1765.72 L3141.39 1764.36 L3156.61 1762.87 L3171.84 1761.39 L3187.06 1760.03 L3202.28 1758.67 L3217.50 1757.18 L3232.72 1755.82 L3247.94 1754.46 L3263.04 1752.97 L3278.26 1751.61 L3293.48 1750.25 L3308.70 1748.89 L3323.93 1747.53 L3339.15 1746.17 L3354.37 1744.81 L3369.59 1743.57 L3384.81 1742.21 L3400.03 1740.85 L3415.25 1739.48 L3430.47 1738.25 L3445.70 1736.89 L3460.92 1735.52 L3476.14 1734.29 L3491.36 1732.93 L3506.58 1731.69 L3521.80 1730.45 L3537.02 1729.09 L3552.24 1727.85 L3567.47 1726.61 L3582.69 1725.25 L3597.91 1724.02 L3613.01 1722.78 L3628.23 1721.54 L3643.45 1720.30 L3658.67 1719.06 L3673.89 1717.83 L3689.11 1716.59 L3704.33 1715.35 L3719.55 1714.11 L3734.78 1712.88 L3750.00 1711.64 L3765.22 1710.40 L3780.44 1709.29 L3795.66 1708.05" stroke-linejoin="round" style="fill:none;stroke:#FF0000;stroke-width:8.64"/>
	<line x1="521.73" y1="2489.19" x2="521.73" y2="100.86" style="stroke:#000000;stroke-width:5.76"/>
	<line x1="521.73" y1="2425.82" x2="481.76" y2="2425.82" style="stroke:#000000;stroke-width:5.76"/>
	<text x="461.83" y="2460.85" style="font-family:'Helvetica';font-size:99.99px;fill:#000000" text-anchor="end">0.00</text>
	<line x1="521.73" y1="1860.39" x2="481.76" y2="1860.39" style="stroke:#000000;stroke-width:5.76"/>
	<text x="461.83" y="1895.42" style="font-family:'Helvetica';font-size:99.99px;fill:#000000" text-anchor="end">0.50</text>
	<line x1="521.73" y1="1294.96" x2="481.76" y2="1294.96" style="stroke:#000000;stroke-width:5.76"/>
	<text x="461.83" y="1329.99" style="font-family:'Helvetica';font-size:99.99px;fill:#000000" text-anchor="end">1.00</text>
	<line x1="521.73" y1="729.53" x2="481.76" y2="729.53" style="stroke:#000000;stroke-width:5.76"/>
	<text x="461.83" y="764.56" style="font-family:'Helvetica';font-size:99.99px;fill:#000000" text-anchor="end">1.50</text>
	<line x1="521.73" y1="164.22" x2="481.76" y2="164.22" style="stroke:#000000;stroke-width:5.76"/>
	<text x="461.83" y="199.25" style="font-family:'Helvetica';font-size:99.99px;fill:#000000" text-anchor="end">2.00</text>
	<text x="190.71" y="1294.96" style="font-family:'Helvetica';font-size:99.99px;fill:#000000" transform="rotate(-90 190.71,1294.96)" text-anchor="middle">Cumulative incidence (%)</text>
	<line x1="521.73" y1="2489.19" x2="3859.02" y2="2489.19" style="stroke:#000000;stroke-width:5.76"/>
	<line x1="585.09" y1="2489.19" x2="585.09" y2="2529.16" style="stroke:#000000;stroke-width:5.76"/>
	<text x="585.09" y="2619.14" style="font-family:'Helvetica';font-size:99.99px;fill:#000000" text-anchor="middle">0</text>
	<line x1="1345.90" y1="2489.19" x2="1345.90" y2="2529.16" style="stroke:#000000;stroke-width:5.76"/>
	<text x="1345.90" y="2619.14" style="font-family:'Helvetica';font-size:99.99px;fill:#000000" text-anchor="middle">50</text>
	<line x1="2106.72" y1="2489.19" x2="2106.72" y2="2529.16" style="stroke:#000000;stroke-width:5.76"/>
	<text x="2106.72" y="2619.14" style="font-family:'Helvetica';font-size:99.99px;fill:#000000" text-anchor="middle">100</text>
	<line x1="2867.53" y1="2489.19" x2="2867.53" y2="2529.16" style="stroke:#000000;stroke-width:5.76"/>
	<text x="2867.53" y="2619.14" style="font-family:'Helvetica';font-size:99.99px;fill:#000000" text-anchor="middle">150</text>
	<line x1="3628.35" y1="2489.19" x2="3628.35" y2="2529.16" style="stroke:#000000;stroke-width:5.76"/>
	<text x="3628.35" y="2619.14" style="font-family:'Helvetica';font-size:99.99px;fill:#000000" text-anchor="middle">200</text>
	<text x="2190.38" y="2729.16" style="font-family:'Helvetica';font-size:99.99px;fill:#000000" text-anchor="middle">Days from 1 March 2020</text>
	<rect x="1933.59" y="2128.20" width="1890.90" height="326.46" style="fill:#FFFFFF"/>
	<rect x="1936.47" y="2131.08" width="1885.14" height="320.70" style="fill:none;stroke:#000000;stroke-width:5.76"/>
	<rect x="1976.78" y="2171.51" width="374.34" height="99.99" style="fill:#3333FF;fill-opacity:0.25"/>
	<rect x="1981.10" y="2175.83" width="365.70" height="91.35" style="fill:none;stroke:#0000FF;stroke-opacity:0.25;stroke-width:8.64"/>
	<rect x="1976.78" y="2311.47" width="374.34" height="99.99" style="fill:#FF3333;fill-opacity:0.25"/>
	<rect x="1981.10" y="2315.79" width="365.70" height="91.35" style="fill:none;stroke:#FF0000;stroke-opacity:0.25;stroke-width:8.64"/>
	<text x="2411.14" y="2256.53" style="font-family:'Helvetica';font-size:99.99px;fill:#000000">Non-current anticoagulant use</text>
	<text x="2411.14" y="2396.50" style="font-family:'Helvetica';font-size:99.99px;fill:#000000">Current anticoagulant use</text>
</svg>
