<?xml version="1.0" encoding="UTF-8" standalone="no"?>
<!-- This is a Stata 16.1 generated SVG file (http://www.stata.com) -->

<svg version="1.1" width="5.50in" height="4.00in" viewBox="0 0 3960 2880" xmlns="http://www.w3.org/2000/svg" xmlns:xlink="http://www.w3.org/1999/xlink">
	<desc>Stata Graph - Graph</desc>
	<rect x="0" y="0" width="3960" height="2880" style="fill:#EAF2F3;stroke:none"/>
	<rect x="0.00" y="0.00" width="3959.88" height="2880.00" style="fill:#EAF2F3"/>
	<rect x="2.88" y="2.88" width="3954.12" height="2874.24" style="fill:none;stroke:#EAF2F3;stroke-width:5.76"/>
	<rect x="521.73" y="100.86" width="3337.29" height="2388.33" style="fill:#FFFFFF"/>
	<rect x="524.61" y="103.74" width="3331.53" height="2382.57" style="fill:none;stroke:#FFFFFF;stroke-width:5.76"/>
	<line x1="521.73" y1="2425.82" x2="3859.02" y2="2425.82" style="stroke:#EAF2F3;stroke-width:8.64"/>
	<line x1="521.73" y1="2425.82" x2="3859.02" y2="2425.82" style="stroke:#EAF2F3;stroke-width:8.64"/>
	<line x1="521.73" y1="2425.82" x2="3859.02" y2="2425.82" style="stroke:#EAF2F3;stroke-width:8.64"/>
	<line x1="521.73" y1="2425.82" x2="3859.02" y2="2425.82" style="stroke:#EAF2F3;stroke-width:8.64"/>
	<line x1="521.73" y1="2425.82" x2="3859.02" y2="2425.82" style="stroke:#EAF2F3;stroke-width:8.64"/>
	<line x1="521.73" y1="2425.82" x2="3859.02" y2="2425.82" style="stroke:#EAF2F3;stroke-width:8.64"/>
	<defs>
		<path id="path_tbBLxsPJ" d="M600.31 2425.82 L600.31 2425.82 L615.53 2425.82 L630.75 2425.82 L645.98 2425.82 L661.20 2425.82 L676.42 2425.82 L691.64 2425.82 L706.86 2425.82 L722.08 2425.82 L737.30 2425.82 L752.52 2425.82 L767.75 2425.82 L782.97 2425.82 L798.19 2425.82 L813.41 2425.82 L828.63 2425.82 L843.85 2425.82 L859.07 2425.82 L874.29 2425.82 L889.51 2425.82 L904.61 2425.82 L919.83 2425.82 L935.05 2425.82 L950.28 2425.82 L965.50 2425.82 L980.72 2425.82 L995.94 2425.82 L1011.16 2425.82 L1026.38 2425.82 L1041.60 2425.82 L1056.83 2425.82 L1072.05 2425.82 L1087.27 2425.82 L1102.49 2425.82 L1117.71 2425.82 L1132.93 2425.82 L1148.15 2425.82 L1163.37 2425.82 L1178.60 2425.82 L1193.82 2425.82 L1209.04 2425.82 L1224.26 2425.82 L1239.48 2425.82 L1254.70 2425.82 L1269.80 2425.82 L1285.02 2425.82 L1300.24 2425.82 L1315.46 2425.82 L1330.68 2425.82 L1345.90 2425.82 L1361.13 2425.82 L1376.35 2425.82 L1391.57 2425.82 L1406.79 2425.82 L1422.01 2425.82 L1437.23 2425.82 L1452.45 2425.82 L1467.67 2425.82 L1482.90 2425.82 L1498.12 2425.82 L1513.34 2425.82 L1528.56 2425.82 L1543.78 2425.82 L1559.00 2425.82 L1574.22 2425.82 L1589.44 2425.82 L1604.67 2425.82 L1619.76 2425.82 L1634.98 2425.82 L1650.21 2425.82 L1665.43 2425.82 L1680.65 2425.82 L1695.87 2425.82 L1711.09 2425.82 L1726.31 2425.82 L1741.53 2425.82 L1756.76 2425.82 L1771.98 2425.82 L1787.20 2425.82 L1802.42 2425.82 L1817.64 2425.82 L1832.86 2425.82 L1848.08 2425.82 L1863.30 2425.82 L1878.53 2425.82 L1893.75 2425.82 L1908.97 2425.82 L1924.19 2425.82 L1939.41 2425.82 L1954.63 2425.82 L1969.85 2425.82 L1984.95 2425.82 L2000.17 2425.82 L2015.39 2425.82 L2030.61 2425.82 L2045.84 2425.82 L2061.06 2425.82 L2076.28 2425.82 L2091.50 2425.82 L2106.72 2425.82 L2121.94 2425.82 L2137.16 2425.82 L2152.38 2425.82 L2167.61 2425.82 L2182.83 2425.82 L2198.05 2425.82 L2213.27 2425.82 L2228.49 2425.82 L2243.71 2425.82 L2258.93 2425.82 L2274.15 2425.82 L2289.38 2425.82 L2304.60 2425.82 L2319.82 2425.82 L2335.04 2425.82 L2350.14 2425.82 L2365.36 2425.82 L2380.58 2425.82 L2395.80 2425.82 L2411.02 2425.82 L2426.24 2425.82 L2441.46 2425.82 L2456.68 2425.82 L2471.91 2425.82 L2487.13 2425.82 L2502.35 2425.82 L2517.57 2425.82 L2532.79 2425.82 L2548.01 2425.82 L2563.23 2425.82 L2578.45 2425.82 L2593.68 2425.82 L2608.90 2425.82 L2624.12 2425.82 L2639.34 2425.82 L2654.56 2425.82 L2669.78 2425.82 L2685.00 2425.82 L2700.22 2425.82 L2715.32 2425.82 L2730.54 2425.82 L2745.76 2425.82 L2760.99 2425.82 L2776.21 2425.82 L2791.43 2425.82 L2806.65 2425.82 L2821.87 2425.82 L2837.09 2425.82 L2852.31 2425.82 L2867.53 2425.82 L2882.76 2425.82 L2897.98 2425.82 L2913.20 2425.82 L2928.42 2425.82 L2943.64 2425.82 L2958.86 2425.82 L2974.08 2425.82 L2989.30 2425.82 L3004.53 2425.82 L3019.75 2425.82 L3034.97 2425.82 L3050.19 2425.82 L3065.41 2425.82 L3080.51 2425.82 L3095.73 2425.82 L3110.95 2425.82 L3126.17 2425.82 L3141.39 2425.82 L3156.61 2425.82 L3171.84 2425.82 L3187.06 2425.82 L3202.28 2425.82 L3217.50 2425.82 L3232.72 2425.82 L3247.94 2425.82 L3263.16 2425.82 L3278.39 2425.82 L3293.61 2425.82 L3308.83 2425.82 L3324.05 2425.82 L3339.27 2425.82 L3354.49 2425.82 L3369.71 2425.82 L3384.93 2425.82 L3400.16 2425.82 L3415.38 2425.82 L3430.47 2425.82 L3445.70 2425.82 L3460.92 2425.82 L3476.14 2425.82 L3491.36 2425.82 L3506.58 2425.82 L3521.80 2425.82 L3537.02 2425.82 L3552.24 2425.82 L3567.47 2425.82 L3582.69 2425.82 L3597.91 2425.82 L3613.13 2425.82 L3628.35 2425.82 L3643.57 2425.82 L3658.79 2425.82 L3674.01 2425.82 L3689.24 2425.82 L3704.46 2425.82 L3719.68 2425.82 L3734.90 2425.82 L3750.12 2425.82 L3765.34 2425.82 L3780.56 2425.82 L3795.66 2425.82 L3795.66 2425.82 L3780.56 2425.82 L3765.34 2425.82 L3750.12 2425.82 L3734.90 2425.82 L3719.68 2425.82 L3704.46 2425.82 L3689.24 2425.82 L3674.01 2425.82 L3658.79 2425.82 L3643.57 2425.82 L3628.35 2425.82 L3613.13 2425.82 L3597.91 2425.82 L3582.69 2425.82 L3567.47 2425.82 L3552.24 2425.82 L3537.02 2425.82 L3521.80 2425.82 L3506.58 2425.82 L3491.36 2425.82 L3476.14 2425.82 L3460.92 2425.82 L3445.70 2425.82 L3430.47 2425.82 L3415.38 2425.82 L3400.16 2425.82 L3384.93 2425.82 L3369.71 2425.82 L3354.49 2425.82 L3339.27 2425.82 L3324.05 2425.82 L3308.83 2425.82 L3293.61 2425.82 L3278.39 2425.82 L3263.16 2425.82 L3247.94 2425.82 L3232.72 2425.82 L3217.50 2425.82 L3202.28 2425.82 L3187.06 2425.82 L3171.84 2425.82 L3156.61 2425.82 L3141.39 2425.82 L3126.17 2425.82 L3110.95 2425.82 L3095.73 2425.82 L3080.51 2425.82 L3065.41 2425.82 L3050.19 2425.82 L3034.97 2425.82 L3019.75 2425.82 L3004.53 2425.82 L2989.30 2425.82 L2974.08 2425.82 L2958.86 2425.82 L2943.64 2425.82 L2928.42 2425.82 L2913.20 2425.82 L2897.98 2425.82 L2882.76 2425.82 L2867.53 2425.82 L2852.31 2425.82 L2837.09 2425.82 L2821.87 2425.82 L2806.65 2425.82 L2791.43 2425.82 L2776.21 2425.82 L2760.99 2425.82 L2745.76 2425.82 L2730.54 2425.82 L2715.32 2425.82 L2700.22 2425.82 L2685.00 2425.82 L2669.78 2425.82 L2654.56 2425.82 L2639.34 2425.82 L2624.12 2425.82 L2608.90 2425.82 L2593.68 2425.82 L2578.45 2425.82 L2563.23 2425.82 L2548.01 2425.82 L2532.79 2425.82 L2517.57 2425.82 L2502.35 2425.82 L2487.13 2425.82 L2471.91 2425.82 L2456.68 2425.82 L2441.46 2425.82 L2426.24 2425.82 L2411.02 2425.82 L2395.80 2425.82 L2380.58 2425.82 L2365.36 2425.82 L2350.14 2425.82 L2335.04 2425.82 L2319.82 2425.82 L2304.60 2425.82 L2289.38 2425.82 L2274.15 2425.82 L2258.93 2425.82 L2243.71 2425.82 L2228.49 2425.82 L2213.27 2425.82 L2198.05 2425.82 L2182.83 2425.82 L2167.61 2425.82 L2152.38 2425.82 L2137.16 2425.82 L2121.94 2425.82 L2106.72 2425.82 L2091.50 2425.82 L2076.28 2425.82 L2061.06 2425.82 L2045.84 2425.82 L2030.61 2425.82 L2015.39 2425.82 L2000.17 2425.82 L1984.95 2425.82 L1969.85 2425.82 L1954.63 2425.82 L1939.41 2425.82 L1924.19 2425.82 L1908.97 2425.82 L1893.75 2425.82 L1878.53 2425.82 L1863.30 2425.82 L1848.08 2425.82 L1832.86 2425.82 L1817.64 2425.82 L1802.42 2425.82 L1787.20 2425.82 L1771.98 2425.82 L1756.76 2425.82 L1741.53 2425.82 L1726.31 2425.82 L1711.09 2425.82 L1695.87 2425.82 L1680.65 2425.82 L1665.43 2425.82 L1650.21 2425.82 L1634.98 2425.82 L1619.76 2425.82 L1604.67 2425.82 L1589.44 2425.82 L1574.22 2425.82 L1559.00 2425.82 L1543.78 2425.82 L1528.56 2425.82 L1513.34 2425.82 L1498.12 2425.82 L1482.90 2425.82 L1467.67 2425.82 L1452.45 2425.82 L1437.23 2425.82 L1422.01 2425.82 L1406.79 2425.82 L1391.57 2425.82 L1376.35 2425.82 L1361.13 2425.82 L1345.90 2425.82 L1330.68 2425.82 L1315.46 2425.82 L1300.24 2425.82 L1285.02 2425.82 L1269.80 2425.82 L1254.70 2425.82 L1239.48 2425.82 L1224.26 2425.82 L1209.04 2425.82 L1193.82 2425.82 L1178.60 2425.82 L1163.37 2425.82 L1148.15 2425.82 L1132.93 2425.82 L1117.71 2425.82 L1102.49 2425.82 L1087.27 2425.82 L1072.05 2425.82 L1056.83 2425.82 L1041.60 2425.82 L1026.38 2425.82 L1011.16 2425.82 L995.94 2425.82 L980.72 2425.82 L965.50 2425.82 L950.28 2425.82 L935.05 2425.82 L919.83 2425.82 L904.61 2425.82 L889.51 2425.82 L874.29 2425.82 L859.07 2425.82 L843.85 2425.82 L828.63 2425.82 L813.41 2425.82 L798.19 2425.82 L782.97 2425.82 L767.75 2425.82 L752.52 2425.82 L737.30 2425.82 L722.08 2425.82 L706.86 2425.82 L691.64 2425.82 L676.42 2425.82 L661.20 2425.82 L645.98 2425.82 L630.75 2425.82 L615.53 2425.82 L600.31 164.22 L600.31 2425.82 Z" stroke-linejoin="round"/>
	</defs>
	<defs>
		<clipPath id="clipPath_dHodlOJP">
			<use xlink:href="#path_tbBLxsPJ"/>
		</clipPath>
	</defs>
	<use xlink:href="#path_tbBLxsPJ" style="stroke:none;fill:#3333FF;fill-opacity:0.25"/>
	<use xlink:href="#path_tbBLxsPJ" style="fill:none;stroke:#0000FF;stroke-opacity:0.25;stroke-width:17.28" clip-path="url(#clipPath_dHodlOJP)"/>
	<defs>
		<path id="path_GgckANwW" d="M615.53 2425.82 L615.53 2425.82 L630.75 2425.82 L645.98 2425.82 L661.20 2425.82 L676.42 2425.82 L691.64 2425.82 L706.86 2425.82 L722.08 2425.82 L737.30 2425.82 L752.52 2425.82 L767.75 2425.82 L782.97 2425.82 L798.19 2425.82 L813.41 2425.82 L828.63 2425.82 L843.85 2425.82 L859.07 2425.82 L874.29 2425.82 L889.51 2425.82 L904.61 2425.82 L919.83 2425.82 L935.05 2425.82 L950.28 2425.82 L965.50 2425.82 L980.72 2425.82 L995.94 2425.82 L1011.16 2425.82 L1026.38 2425.82 L1041.60 2425.82 L1056.83 2425.82 L1072.05 2425.82 L1087.27 2425.82 L1102.49 2425.82 L1117.71 2425.82 L1132.93 2425.82 L1148.15 2425.82 L1163.37 2425.82 L1178.60 2425.82 L1193.82 2425.82 L1209.04 2425.82 L1224.26 2425.82 L1239.48 2425.82 L1254.70 2425.82 L1269.80 2425.82 L1285.02 2425.82 L1300.24 2425.82 L1315.46 2425.82 L1330.68 2425.82 L1345.90 2425.82 L1361.13 2425.82 L1376.35 2425.82 L1391.57 2425.82 L1406.79 2425.82 L1422.01 2425.82 L1437.23 2425.82 L1452.45 2425.82 L1467.67 2425.82 L1482.90 2425.82 L1498.12 2425.82 L1513.34 2425.82 L1528.56 2425.82 L1543.78 2425.82 L1559.00 2425.82 L1574.22 2425.82 L1589.44 2425.82 L1604.67 2425.82 L1619.76 2425.82 L1634.98 2425.82 L1650.21 2425.82 L1665.43 2425.82 L1680.65 2425.82 L1695.87 2425.82 L1711.09 2425.82 L1726.31 2425.82 L1741.53 2425.82 L1756.76 2425.82 L1771.98 2425.82 L1787.20 2425.82 L1802.42 2425.82 L1817.64 2425.82 L1832.86 2425.82 L1848.08 2425.82 L1863.30 2425.82 L1878.53 2425.82 L1893.75 2425.82 L1908.97 2425.82 L1924.19 2425.82 L1939.41 2425.82 L1954.63 2425.82 L1969.85 2425.82 L1984.95 2425.82 L2000.17 2425.82 L2015.39 2425.82 L2030.61 2425.82 L2045.84 2425.82 L2061.06 2425.82 L2076.28 2425.82 L2091.50 2425.82 L2106.72 2425.82 L2121.94 2425.82 L2137.16 2425.82 L2152.38 2425.82 L2167.61 2425.82 L2182.83 2425.82 L2198.05 2425.82 L2213.27 2425.82 L2228.49 2425.82 L2243.71 2425.82 L2258.93 2425.82 L2274.15 2425.82 L2289.38 2425.82 L2304.60 2425.82 L2319.82 2425.82 L2335.04 2425.82 L2350.14 2425.82 L2365.36 2425.82 L2380.58 2425.82 L2395.80 2425.82 L2411.02 2425.82 L2426.24 2425.82 L2441.46 2425.82 L2456.68 2425.82 L2471.91 2425.82 L2487.13 2425.82 L2502.35 2425.82 L2517.57 2425.82 L2532.79 2425.82 L2548.01 2425.82 L2563.23 2425.82 L2578.45 2425.82 L2593.68 2425.82 L2608.90 2425.82 L2624.12 2425.82 L2639.34 2425.82 L2654.56 2425.82 L2669.78 2425.82 L2685.00 2425.82 L2700.22 2425.82 L2715.32 2425.82 L2730.54 2425.82 L2745.76 2425.82 L2760.99 2425.82 L2776.21 2425.82 L2791.43 2425.82 L2806.65 2425.82 L2821.87 2425.82 L2837.09 2425.82 L2852.31 2425.82 L2867.53 2425.82 L2882.76 2425.82 L2897.98 2425.82 L2913.20 2425.82 L2928.42 2425.82 L2943.64 2425.82 L2958.86 2425.82 L2974.08 2425.82 L2989.30 2425.82 L3004.53 2425.82 L3019.75 2425.82 L3034.97 2425.82 L3050.19 2425.82 L3065.41 2425.82 L3080.51 2425.82 L3095.73 2425.82 L3110.95 2425.82 L3126.17 2425.82 L3141.39 2425.82 L3156.61 2425.82 L3171.84 2425.82 L3187.06 2425.82 L3202.28 2425.82 L3217.50 2425.82 L3232.72 2425.82 L3247.94 2425.82 L3263.16 2425.82 L3278.39 2425.82 L3293.61 2425.82 L3308.83 2425.82 L3324.05 2425.82 L3339.27 2425.82 L3354.49 2425.82 L3369.71 2425.82 L3384.93 2425.82 L3400.16 2425.82 L3415.38 2425.82 L3430.47 2425.82 L3445.70 2425.82 L3460.92 2425.82 L3476.14 2425.82 L3491.36 2425.82 L3506.58 2425.82 L3521.80 2425.82 L3537.02 2425.82 L3552.24 2425.82 L3567.47 2425.82 L3582.69 2425.82 L3597.91 2425.82 L3613.13 2425.82 L3628.35 2425.82 L3643.57 2425.82 L3658.79 2425.82 L3674.01 2425.82 L3689.24 2425.82 L3704.46 2425.82 L3719.68 2425.82 L3734.90 2425.82 L3750.12 2425.82 L3765.34 2425.82 L3780.56 2425.82 L3795.66 2425.82 L3795.66 2425.82 L3780.56 2425.82 L3765.34 2425.82 L3750.12 2425.82 L3734.90 2425.82 L3719.68 2425.82 L3704.46 2425.82 L3689.24 2425.82 L3674.01 2425.82 L3658.79 2425.82 L3643.57 2425.82 L3628.35 2425.82 L3613.13 2425.82 L3597.91 2425.82 L3582.69 2425.82 L3567.47 2425.82 L3552.24 2425.82 L3537.02 2425.82 L3521.80 2425.82 L3506.58 2425.82 L3491.36 2425.82 L3476.14 2425.82 L3460.92 2425.82 L3445.70 2425.82 L3430.47 2425.82 L3415.38 2425.82 L3400.16 2425.82 L3384.93 2425.82 L3369.71 2425.82 L3354.49 2425.82 L3339.27 2425.82 L3324.05 2425.82 L3308.83 2425.82 L3293.61 2425.82 L3278.39 2425.82 L3263.16 2425.82 L3247.94 2425.82 L3232.72 2425.82 L3217.50 2425.82 L3202.28 2425.82 L3187.06 2425.82 L3171.84 2425.82 L3156.61 2425.82 L3141.39 2425.82 L3126.17 2425.82 L3110.95 2425.82 L3095.73 2425.82 L3080.51 2425.82 L3065.41 2425.82 L3050.19 2425.82 L3034.97 2425.82 L3019.75 2425.82 L3004.53 2425.82 L2989.30 2425.82 L2974.08 2425.82 L2958.86 2425.82 L2943.64 2425.82 L2928.42 2425.82 L2913.20 2425.82 L2897.98 2425.82 L2882.76 2425.82 L2867.53 2425.82 L2852.31 2425.82 L2837.09 2425.82 L2821.87 2425.82 L2806.65 2425.82 L2791.43 2425.82 L2776.21 2425.82 L2760.99 2425.82 L2745.76 2425.82 L2730.54 2425.82 L2715.32 2425.82 L2700.22 2425.82 L2685.00 2425.82 L2669.78 2425.82 L2654.56 2425.82 L2639.34 2425.82 L2624.12 2425.82 L2608.90 2425.82 L2593.68 2425.82 L2578.45 2425.82 L2563.23 2425.82 L2548.01 2425.82 L2532.79 2425.82 L2517.57 2425.82 L2502.35 2425.82 L2487.13 2425.82 L2471.91 2425.82 L2456.68 2425.82 L2441.46 2425.82 L2426.24 2425.82 L2411.02 2425.82 L2395.80 2425.82 L2380.58 2425.82 L2365.36 2425.82 L2350.14 2425.82 L2335.04 2425.82 L2319.82 2425.82 L2304.60 2425.82 L2289.38 2425.82 L2274.15 2425.82 L2258.93 2425.82 L2243.71 2425.82 L2228.49 2425.82 L2213.27 2425.82 L2198.05 2425.82 L2182.83 2425.82 L2167.61 2425.82 L2152.38 2425.82 L2137.16 2425.82 L2121.94 2425.82 L2106.72 2425.82 L2091.50 2425.82 L2076.28 2425.82 L2061.06 2425.82 L2045.84 2425.82 L2030.61 2425.82 L2015.39 2425.82 L2000.17 2425.82 L1984.95 2425.82 L1969.85 2425.82 L1954.63 2425.82 L1939.41 2425.82 L1924.19 2425.82 L1908.97 2425.82 L1893.75 2425.82 L1878.53 2425.82 L1863.30 2425.82 L1848.08 2425.82 L1832.86 2425.82 L1817.64 2425.82 L1802.42 2425.82 L1787.20 2425.82 L1771.98 2425.82 L1756.76 2425.82 L1741.53 2425.82 L1726.31 2425.82 L1711.09 2425.82 L1695.87 2425.82 L1680.65 2425.82 L1665.43 2425.82 L1650.21 2425.82 L1634.98 2425.82 L1619.76 2425.82 L1604.67 2425.82 L1589.44 2425.82 L1574.22 2425.82 L1559.00 2425.82 L1543.78 2425.82 L1528.56 2425.82 L1513.34 2425.82 L1498.12 2425.82 L1482.90 2425.82 L1467.67 2425.82 L1452.45 2425.82 L1437.23 2425.82 L1422.01 2425.82 L1406.79 2425.82 L1391.57 2425.82 L1376.35 2425.82 L1361.13 2425.82 L1345.90 2425.82 L1330.68 2425.82 L1315.46 2425.82 L1300.24 2425.82 L1285.02 2425.82 L1269.80 2425.82 L1254.70 2425.82 L1239.48 2425.82 L1224.26 2425.82 L1209.04 2425.82 L1193.82 2425.82 L1178.60 2425.82 L1163.37 2425.82 L1148.15 2425.82 L1132.93 2425.82 L1117.71 2425.82 L1102.49 2425.82 L1087.27 2425.82 L1072.05 2425.82 L1056.83 2425.82 L1041.60 2425.82 L1026.38 2425.82 L1011.16 2425.82 L995.94 2425.82 L980.72 2425.82 L965.50 2425.82 L950.28 2425.82 L935.05 2425.82 L919.83 2425.82 L904.61 2425.82 L889.51 2425.82 L874.29 2425.82 L859.07 2425.82 L843.85 2425.82 L828.63 2425.82 L813.41 2425.82 L798.19 2425.82 L782.97 2425.82 L767.75 2425.82 L752.52 2425.82 L737.30 2425.82 L722.08 2425.82 L706.86 2425.82 L691.64 2425.82 L676.42 2425.82 L661.20 2425.82 L645.98 2425.82 L630.75 2425.82 L615.53 2425.82 L615.53 2425.82 Z" stroke-linejoin="round"/>
	</defs>
	<defs>
		<clipPath id="clipPath_rjOnedCx">
			<use xlink:href="#path_GgckANwW"/>
		</clipPath>
	</defs>
	<use xlink:href="#path_GgckANwW" style="stroke:none;fill:#FF3333;fill-opacity:0.25"/>
	<use xlink:href="#path_GgckANwW" style="fill:none;stroke:#FF0000;stroke-opacity:0.25;stroke-width:17.28" clip-path="url(#clipPath_rjOnedCx)"/>
	<path d=" M585.09 2425.95 L600.31 2425.95 L615.53 2425.95 L630.75 2425.95 L645.98 2425.95 L661.20 2425.95 L676.42 2425.95 L691.64 2425.95 L706.86 2425.95 L721.96 2425.95 L737.18 2425.95 L752.40 2425.95 L767.62 2425.95 L782.84 2425.95 L798.06 2425.95 L813.28 2425.95 L828.51 2425.95 L843.73 2425.95 L858.95 2425.95 L874.17 2425.95 L889.39 2425.95 L904.61 2425.95 L919.83 2425.95 L935.05 2425.95 L950.28 2425.95 L965.50 2425.95 L980.72 2425.95 L995.94 2425.95 L1011.16 2425.95 L1026.38 2425.95 L1041.60 2425.95 L1056.83 2425.95 L1072.05 2425.95 L1087.14 2425.95 L1102.37 2425.95 L1117.59 2425.95 L1132.81 2425.95 L1148.03 2425.95 L1163.25 2425.95 L1178.47 2425.95 L1193.69 2425.95 L1208.91 2425.95 L1224.13 2425.95 L1239.36 2425.95 L1254.58 2425.95 L1269.80 2425.95 L1285.02 2425.95 L1300.24 2425.95 L1315.46 2425.95 L1330.68 2425.95 L1345.90 2425.95 L1361.13 2425.95 L1376.35 2425.95 L1391.57 2425.95 L1406.79 2425.95 L1422.01 2425.95 L1437.23 2425.95 L1452.33 2425.95 L1467.55 2425.95 L1482.77 2425.95 L1497.99 2425.95 L1513.21 2425.95 L1528.44 2425.95 L1543.66 2425.95 L1558.88 2425.95 L1574.10 2425.95 L1589.32 2425.95 L1604.54 2425.95 L1619.76 2425.95 L1634.98 2425.95 L1650.21 2425.95 L1665.43 2425.95 L1680.65 2425.95 L1695.87 2425.95 L1711.09 2425.95 L1726.31 2425.95 L1741.53 2425.95 L1756.76 2425.95 L1771.98 2425.95 L1787.20 2425.95 L1802.30 2425.95 L1817.52 2425.95 L1832.74 2425.95 L1847.96 2425.95 L1863.18 2425.95 L1878.40 2425.95 L1893.62 2425.95 L1908.84 2425.95 L1924.07 2425.95 L1939.29 2425.95 L1954.51 2425.95 L1969.73 2425.95 L1984.95 2425.95 L2000.17 2425.95 L2015.39 2425.95 L2030.61 2425.95 L2045.84 2425.95 L2061.06 2425.95 L2076.28 2425.95 L2091.50 2425.95 L2106.72 2425.95 L2121.94 2425.95 L2137.16 2425.95 L2152.38 2425.95 L2167.48 2425.95 L2182.70 2425.95 L2197.92 2425.95 L2213.14 2425.95 L2228.37 2425.95 L2243.59 2425.95 L2258.81 2425.95 L2274.03 2425.95 L2289.25 2425.95 L2304.47 2425.95 L2319.69 2425.95 L2334.91 2425.95 L2350.14 2425.95 L2365.36 2425.95 L2380.58 2425.95 L2395.80 2425.95 L2411.02 2425.95 L2426.24 2425.95 L2441.46 2425.95 L2456.68 2425.95 L2471.91 2425.95 L2487.13 2425.95 L2502.35 2425.95 L2517.57 2425.95 L2532.67 2425.95 L2547.89 2425.95 L2563.11 2425.95 L2578.33 2425.95 L2593.55 2425.95 L2608.77 2425.95 L2623.99 2425.95 L2639.22 2425.95 L2654.44 2425.95 L2669.66 2425.95 L2684.88 2425.95 L2700.10 2425.95 L2715.32 2425.95 L2730.54 2425.95 L2745.76 2425.95 L2760.99 2425.95 L2776.21 2425.95 L2791.43 2425.95 L2806.65 2425.95 L2821.87 2425.95 L2837.09 2425.95 L2852.31 2425.95 L2867.53 2425.95 L2882.76 2425.95 L2897.85 2425.95 L2913.07 2425.95 L2928.30 2425.95 L2943.52 2425.95 L2958.74 2425.95 L2973.96 2425.95 L2989.18 2425.95 L3004.40 2425.95 L3019.62 2425.95 L3034.84 2425.95 L3050.07 2425.95 L3065.29 2425.95 L3080.51 2425.95 L3095.73 2425.95 L3110.95 2425.95 L3126.17 2425.95 L3141.39 2425.95 L3156.61 2425.95 L3171.84 2425.95 L3187.06 2425.95 L3202.28 2425.95 L3217.50 2425.95 L3232.72 2425.95 L3247.94 2425.95 L3263.04 2425.95 L3278.26 2425.95 L3293.48 2425.95 L3308.70 2425.95 L3323.93 2425.95 L3339.15 2425.95 L3354.37 2425.95 L3369.59 2425.95 L3384.81 2425.95 L3400.03 2425.95 L3415.25 2425.95 L3430.47 2425.95 L3445.70 2425.95 L3460.92 2425.95 L3476.14 2425.95 L3491.36 2425.95 L3506.58 2425.95 L3521.80 2425.95 L3537.02 2425.95 L3552.24 2425.95 L3567.47 2425.95 L3582.69 2425.95 L3597.91 2425.95 L3613.01 2425.95 L3628.23 2425.95 L3643.45 2425.95 L3658.67 2425.95 L3673.89 2425.95 L3689.11 2425.95 L3704.33 2425.95 L3719.55 2425.95 L3734.78 2425.95 L3750.00 2425.95 L3765.22 2425.95 L3780.44 2425.95 L3795.66 2425.95" stroke-linejoin="round" style="fill:none;stroke:#0000FF;stroke-width:8.64"/>
	<path d=" M585.09 2425.95 L600.31 2425.95 L615.53 2425.95 L630.75 2425.95 L645.98 2425.95 L661.20 2425.95 L676.42 2425.95 L691.64 2425.95 L706.86 2425.95 L721.96 2425.95 L737.18 2425.95 L752.40 2425.95 L767.62 2425.95 L782.84 2425.95 L798.06 2425.95 L813.28 2425.95 L828.51 2425.95 L843.73 2425.95 L858.95 2425.95 L874.17 2425.95 L889.39 2425.95 L904.61 2425.95 L919.83 2425.95 L935.05 2425.95 L950.28 2425.95 L965.50 2425.95 L980.72 2425.95 L995.94 2425.95 L1011.16 2425.95 L1026.38 2425.95 L1041.60 2425.95 L1056.83 2425.95 L1072.05 2425.95 L1087.14 2425.95 L1102.37 2425.95 L1117.59 2425.95 L1132.81 2425.95 L1148.03 2425.95 L1163.25 2425.95 L1178.47 2425.95 L1193.69 2425.95 L1208.91 2425.95 L1224.13 2425.95 L1239.36 2425.95 L1254.58 2425.95 L1269.80 2425.95 L1285.02 2425.95 L1300.24 2425.95 L1315.46 2425.95 L1330.68 2425.95 L1345.90 2425.95 L1361.13 2425.95 L1376.35 2425.95 L1391.57 2425.95 L1406.79 2425.95 L1422.01 2425.95 L1437.23 2425.95 L1452.33 2425.95 L1467.55 2425.95 L1482.77 2425.95 L1497.99 2425.95 L1513.21 2425.95 L1528.44 2425.95 L1543.66 2425.95 L1558.88 2425.95 L1574.10 2425.95 L1589.32 2425.95 L1604.54 2425.95 L1619.76 2425.95 L1634.98 2425.95 L1650.21 2425.95 L1665.43 2425.95 L1680.65 2425.95 L1695.87 2425.95 L1711.09 2425.95 L1726.31 2425.95 L1741.53 2425.95 L1756.76 2425.95 L1771.98 2425.95 L1787.20 2425.95 L1802.30 2425.95 L1817.52 2425.95 L1832.74 2425.95 L1847.96 2425.95 L1863.18 2425.95 L1878.40 2425.95 L1893.62 2425.95 L1908.84 2425.95 L1924.07 2425.95 L1939.29 2425.95 L1954.51 2425.95 L1969.73 2425.95 L1984.95 2425.95 L2000.17 2425.95 L2015.39 2425.95 L2030.61 2425.95 L2045.84 2425.95 L2061.06 2425.95 L2076.28 2425.95 L2091.50 2425.95 L2106.72 2425.95 L2121.94 2425.95 L2137.16 2425.95 L2152.38 2425.95 L2167.48 2425.95 L2182.70 2425.95 L2197.92 2425.95 L2213.14 2425.95 L2228.37 2425.95 L2243.59 2425.95 L2258.81 2425.95 L2274.03 2425.95 L2289.25 2425.95 L2304.47 2425.95 L2319.69 2425.95 L2334.91 2425.95 L2350.14 2425.95 L2365.36 2425.95 L2380.58 2425.95 L2395.80 2425.95 L2411.02 2425.95 L2426.24 2425.95 L2441.46 2425.95 L2456.68 2425.95 L2471.91 2425.95 L2487.13 2425.95 L2502.35 2425.95 L2517.57 2425.95 L2532.67 2425.95 L2547.89 2425.95 L2563.11 2425.95 L2578.33 2425.95 L2593.55 2425.95 L2608.77 2425.95 L2623.99 2425.95 L2639.22 2425.95 L2654.44 2425.95 L2669.66 2425.95 L2684.88 2425.95 L2700.10 2425.95 L2715.32 2425.95 L2730.54 2425.95 L2745.76 2425.95 L2760.99 2425.95 L2776.21 2425.95 L2791.43 2425.95 L2806.65 2425.95 L2821.87 2425.95 L2837.09 2425.95 L2852.31 2425.95 L2867.53 2425.95 L2882.76 2425.95 L2897.85 2425.95 L2913.07 2425.95 L2928.30 2425.95 L2943.52 2425.95 L2958.74 2425.95 L2973.96 2425.95 L2989.18 2425.95 L3004.40 2425.95 L3019.62 2425.95 L3034.84 2425.95 L3050.07 2425.95 L3065.29 2425.95 L3080.51 2425.95 L3095.73 2425.95 L3110.95 2425.95 L3126.17 2425.95 L3141.39 2425.95 L3156.61 2425.95 L3171.84 2425.95 L3187.06 2425.95 L3202.28 2425.95 L3217.50 2425.95 L3232.72 2425.95 L3247.94 2425.95 L3263.04 2425.95 L3278.26 2425.95 L3293.48 2425.95 L3308.70 2425.95 L3323.93 2425.95 L3339.15 2425.95 L3354.37 2425.95 L3369.59 2425.95 L3384.81 2425.95 L3400.03 2425.95 L3415.25 2425.95 L3430.47 2425.95 L3445.70 2425.95 L3460.92 2425.95 L3476.14 2425.95 L3491.36 2425.95 L3506.58 2425.95 L3521.80 2425.95 L3537.02 2425.95 L3552.24 2425.95 L3567.47 2425.95 L3582.69 2425.95 L3597.91 2425.95 L3613.01 2425.95 L3628.23 2425.95 L3643.45 2425.95 L3658.67 2425.95 L3673.89 2425.95 L3689.11 2425.95 L3704.33 2425.95 L3719.55 2425.95 L3734.78 2425.95 L3750.00 2425.95 L3765.22 2425.95 L3780.44 2425.95 L3795.66 2425.95" stroke-linejoin="round" style="fill:none;stroke:#FF0000;stroke-width:8.64"/>
	<line x1="521.73" y1="2489.19" x2="521.73" y2="100.86" style="stroke:#000000;stroke-width:5.76"/>
	<line x1="521.73" y1="2425.82" x2="481.76" y2="2425.82" style="stroke:#000000;stroke-width:5.76"/>
	<text x="461.83" y="2460.85" style="font-family:'Helvetica';font-size:99.99px;fill:#000000" text-anchor="end">0.00</text>
	<line x1="521.73" y1="2425.82" x2="481.76" y2="2425.82" style="stroke:#000000;stroke-width:5.76"/>
	<text x="461.83" y="2460.85" style="font-family:'Helvetica';font-size:99.99px;fill:#000000" text-anchor="end">0.10</text>
	<line x1="521.73" y1="2425.82" x2="481.76" y2="2425.82" style="stroke:#000000;stroke-width:5.76"/>
	<text x="461.83" y="2460.85" style="font-family:'Helvetica';font-size:99.99px;fill:#000000" text-anchor="end">0.20</text>
	<line x1="521.73" y1="2425.82" x2="481.76" y2="2425.82" style="stroke:#000000;stroke-width:5.76"/>
	<text x="461.83" y="2460.85" style="font-family:'Helvetica';font-size:99.99px;fill:#000000" text-anchor="end">0.30</text>
	<line x1="521.73" y1="2425.82" x2="481.76" y2="2425.82" style="stroke:#000000;stroke-width:5.76"/>
	<text x="461.83" y="2460.85" style="font-family:'Helvetica';font-size:99.99px;fill:#000000" text-anchor="end">0.40</text>
	<line x1="521.73" y1="2425.82" x2="481.76" y2="2425.82" style="stroke:#000000;stroke-width:5.76"/>
	<text x="461.83" y="2460.85" style="font-family:'Helvetica';font-size:99.99px;fill:#000000" text-anchor="end">0.50</text>
	<text x="190.71" y="1294.96" style="font-family:'Helvetica';font-size:99.99px;fill:#000000" transform="rotate(-90 190.71,1294.96)" text-anchor="middle">Cumulative incidence (%)</text>
	<line x1="521.73" y1="2489.19" x2="3859.02" y2="2489.19" style="stroke:#000000;stroke-width:5.76"/>
	<line x1="585.09" y1="2489.19" x2="585.09" y2="2529.16" style="stroke:#000000;stroke-width:5.76"/>
	<text x="585.09" y="2619.14" style="font-family:'Helvetica';font-size:99.99px;fill:#000000" text-anchor="middle">0</text>
	<line x1="1345.90" y1="2489.19" x2="1345.90" y2="2529.16" style="stroke:#000000;stroke-width:5.76"/>
	<text x="1345.90" y="2619.14" style="font-family:'Helvetica';font-size:99.99px;fill:#000000" text-anchor="middle">50</text>
	<line x1="2106.72" y1="2489.19" x2="2106.72" y2="2529.16" style="stroke:#000000;stroke-width:5.76"/>
	<text x="2106.72" y="2619.14" style="font-family:'Helvetica';font-size:99.99px;fill:#000000" text-anchor="middle">100</text>
	<line x1="2867.53" y1="2489.19" x2="2867.53" y2="2529.16" style="stroke:#000000;stroke-width:5.76"/>
	<text x="2867.53" y="2619.14" style="font-family:'Helvetica';font-size:99.99px;fill:#000000" text-anchor="middle">150</text>
	<line x1="3628.35" y1="2489.19" x2="3628.35" y2="2529.16" style="stroke:#000000;stroke-width:5.76"/>
	<text x="3628.35" y="2619.14" style="font-family:'Helvetica';font-size:99.99px;fill:#000000" text-anchor="middle">200</text>
	<text x="2190.38" y="2729.16" style="font-family:'Helvetica';font-size:99.99px;fill:#000000" text-anchor="middle">Days from 1 March 2020</text>
	<rect x="1933.59" y="2128.20" width="1890.90" height="326.46" style="fill:#FFFFFF"/>
	<rect x="1936.47" y="2131.08" width="1885.14" height="320.70" style="fill:none;stroke:#000000;stroke-width:5.76"/>
	<rect x="1976.78" y="2171.51" width="374.34" height="99.99" style="fill:#3333FF;fill-opacity:0.25"/>
	<rect x="1981.10" y="2175.83" width="365.70" height="91.35" style="fill:none;stroke:#0000FF;stroke-opacity:0.25;stroke-width:8.64"/>
	<rect x="1976.78" y="2311.47" width="374.34" height="99.99" style="fill:#FF3333;fill-opacity:0.25"/>
	<rect x="1981.10" y="2315.79" width="365.70" height="91.35" style="fill:none;stroke:#FF0000;stroke-opacity:0.25;stroke-width:8.64"/>
	<text x="2411.14" y="2256.53" style="font-family:'Helvetica';font-size:99.99px;fill:#000000">Non-current anticoagulant use</text>
	<text x="2411.14" y="2396.50" style="font-family:'Helvetica';font-size:99.99px;fill:#000000">Current anticoagulant use</text>
</svg>
