<?xml version="1.0" encoding="UTF-8" standalone="no"?>
<!-- This is a Stata 16.1 generated SVG file (http://www.stata.com) -->

<svg version="1.1" width="5.50in" height="4.00in" viewBox="0 0 3960 2880" xmlns="http://www.w3.org/2000/svg" xmlns:xlink="http://www.w3.org/1999/xlink">
	<desc>Stata Graph - Graph</desc>
	<rect x="0" y="0" width="3960" height="2880" style="fill:#EAF2F3;stroke:none"/>
	<rect x="0.00" y="0.00" width="3959.88" height="2880.00" style="fill:#EAF2F3"/>
	<rect x="2.88" y="2.88" width="3954.12" height="2874.24" style="fill:none;stroke:#EAF2F3;stroke-width:5.76"/>
	<rect x="521.73" y="100.86" width="3337.29" height="2388.33" style="fill:#FFFFFF"/>
	<rect x="524.61" y="103.74" width="3331.53" height="2382.57" style="fill:none;stroke:#FFFFFF;stroke-width:5.76"/>
	<line x1="521.73" y1="2425.82" x2="3859.02" y2="2425.82" style="stroke:#EAF2F3;stroke-width:8.64"/>
	<line x1="521.73" y1="1973.50" x2="3859.02" y2="1973.50" style="stroke:#EAF2F3;stroke-width:8.64"/>
	<line x1="521.73" y1="1521.18" x2="3859.02" y2="1521.18" style="stroke:#EAF2F3;stroke-width:8.64"/>
	<line x1="521.73" y1="1068.86" x2="3859.02" y2="1068.86" style="stroke:#EAF2F3;stroke-width:8.64"/>
	<line x1="521.73" y1="616.54" x2="3859.02" y2="616.54" style="stroke:#EAF2F3;stroke-width:8.64"/>
	<line x1="521.73" y1="164.22" x2="3859.02" y2="164.22" style="stroke:#EAF2F3;stroke-width:8.64"/>
	<defs>
		<path id="path_OkywVUjm" d="M600.31 2425.82 L600.31 2425.82 L615.53 2425.82 L630.75 2425.70 L645.98 2425.45 L661.20 2424.96 L676.42 2423.97 L691.64 2422.36 L706.86 2420.13 L722.08 2417.04 L737.30 2413.08 L752.52 2408.00 L767.75 2401.82 L782.97 2394.39 L798.19 2385.85 L813.41 2376.07 L828.63 2365.06 L843.85 2352.93 L859.07 2339.69 L874.29 2325.21 L889.51 2309.74 L904.61 2293.41 L919.83 2276.08 L935.05 2258.01 L950.28 2239.20 L965.50 2219.65 L980.72 2199.60 L995.94 2179.18 L1011.16 2158.27 L1026.38 2136.98 L1041.60 2115.57 L1056.83 2093.92 L1072.05 2072.26 L1087.27 2050.48 L1102.49 2028.70 L1117.71 2007.04 L1132.93 1985.51 L1148.15 1964.22 L1163.37 1943.18 L1178.60 1922.39 L1193.82 1901.85 L1209.04 1881.68 L1224.26 1861.88 L1239.48 1842.45 L1254.70 1823.39 L1269.80 1804.70 L1285.02 1786.39 L1300.24 1768.57 L1315.46 1750.99 L1330.68 1733.92 L1345.90 1717.21 L1361.13 1701.00 L1376.35 1685.03 L1391.57 1669.56 L1406.79 1654.47 L1422.01 1639.74 L1437.23 1625.38 L1452.45 1611.40 L1467.67 1597.66 L1482.90 1584.42 L1498.12 1571.43 L1513.34 1558.93 L1528.56 1546.68 L1543.78 1534.67 L1559.00 1523.04 L1574.22 1511.78 L1589.44 1500.76 L1604.67 1490.00 L1619.76 1479.60 L1634.98 1469.45 L1650.21 1459.68 L1665.43 1450.02 L1680.65 1440.74 L1695.87 1431.71 L1711.09 1422.80 L1726.31 1414.26 L1741.53 1405.97 L1756.76 1397.80 L1771.98 1389.88 L1787.20 1382.21 L1802.42 1374.78 L1817.64 1367.48 L1832.86 1360.43 L1848.08 1353.62 L1863.30 1346.94 L1878.53 1340.38 L1893.75 1334.07 L1908.97 1328.00 L1924.19 1321.94 L1939.41 1316.12 L1954.63 1310.43 L1969.85 1304.98 L1984.95 1299.66 L2000.17 1294.47 L2015.39 1289.39 L2030.61 1284.44 L2045.84 1279.61 L2061.06 1274.91 L2076.28 1270.33 L2091.50 1266.00 L2106.72 1261.67 L2121.94 1257.46 L2137.16 1253.38 L2152.38 1249.42 L2167.61 1245.58 L2182.83 1241.75 L2198.05 1238.16 L2213.27 1234.57 L2228.49 1231.10 L2243.71 1227.76 L2258.93 1224.42 L2274.15 1221.20 L2289.38 1218.11 L2304.60 1215.02 L2319.82 1212.05 L2335.04 1209.20 L2350.14 1206.35 L2365.36 1203.63 L2380.58 1200.91 L2395.80 1198.31 L2411.02 1195.83 L2426.24 1193.36 L2441.46 1190.88 L2456.68 1188.53 L2471.91 1186.30 L2487.13 1184.08 L2502.35 1181.85 L2517.57 1179.75 L2532.79 1177.64 L2548.01 1175.66 L2563.23 1173.68 L2578.45 1171.70 L2593.68 1169.85 L2608.90 1167.99 L2624.12 1166.13 L2639.34 1164.40 L2654.56 1162.67 L2669.78 1161.06 L2685.00 1159.45 L2700.22 1157.84 L2715.32 1156.23 L2730.54 1154.75 L2745.76 1153.26 L2760.99 1151.78 L2776.21 1150.42 L2791.43 1149.05 L2806.65 1147.69 L2821.87 1146.33 L2837.09 1144.97 L2852.31 1143.73 L2867.53 1142.50 L2882.76 1141.26 L2897.98 1140.02 L2913.20 1138.91 L2928.42 1137.79 L2943.64 1136.68 L2958.86 1135.57 L2974.08 1134.45 L2989.30 1133.34 L3004.53 1132.35 L3019.75 1131.36 L3034.97 1130.37 L3050.19 1129.38 L3065.41 1128.39 L3080.51 1127.40 L3095.73 1126.53 L3110.95 1125.54 L3126.17 1124.68 L3141.39 1123.81 L3156.61 1122.94 L3171.84 1122.08 L3187.06 1121.21 L3202.28 1120.47 L3217.50 1119.60 L3232.72 1118.86 L3247.94 1117.99 L3263.16 1117.25 L3278.39 1116.51 L3293.61 1115.76 L3308.83 1115.02 L3324.05 1114.28 L3339.27 1113.54 L3354.49 1112.79 L3369.71 1112.18 L3384.93 1111.43 L3400.16 1110.69 L3415.38 1110.07 L3430.47 1109.33 L3445.70 1108.71 L3460.92 1108.09 L3476.14 1107.35 L3491.36 1106.73 L3506.58 1106.11 L3521.80 1105.49 L3537.02 1104.87 L3552.24 1104.26 L3567.47 1103.64 L3582.69 1103.02 L3597.91 1102.40 L3613.13 1101.78 L3628.35 1101.16 L3643.57 1100.67 L3658.79 1100.05 L3674.01 1099.43 L3689.24 1098.81 L3704.46 1098.32 L3719.68 1097.70 L3734.90 1097.08 L3750.12 1096.58 L3765.34 1095.96 L3780.56 1095.47 L3795.66 1094.85 L3795.66 187.98 L3780.56 188.97 L3765.34 189.96 L3750.12 190.83 L3734.90 191.82 L3719.68 192.81 L3704.46 193.80 L3689.24 194.79 L3674.01 195.78 L3658.79 196.77 L3643.57 197.76 L3628.35 198.75 L3613.13 199.74 L3597.91 200.73 L3582.69 201.72 L3567.47 202.71 L3552.24 203.70 L3537.02 204.81 L3521.80 205.80 L3506.58 206.92 L3491.36 207.91 L3476.14 209.02 L3460.92 210.01 L3445.70 211.12 L3430.47 212.24 L3415.38 213.35 L3400.16 214.47 L3384.93 215.58 L3369.71 216.69 L3354.49 217.93 L3339.27 219.04 L3324.05 220.28 L3308.83 221.40 L3293.61 222.63 L3278.39 223.87 L3263.16 225.11 L3247.94 226.35 L3232.72 227.71 L3217.50 228.94 L3202.28 230.31 L3187.06 231.67 L3171.84 233.03 L3156.61 234.39 L3141.39 235.75 L3126.17 237.24 L3110.95 238.60 L3095.73 240.08 L3080.51 241.57 L3065.41 243.18 L3050.19 244.66 L3034.97 246.27 L3019.75 247.88 L3004.53 249.49 L2989.30 251.22 L2974.08 252.95 L2958.86 254.69 L2943.64 256.42 L2928.42 258.27 L2913.20 260.13 L2897.98 261.99 L2882.76 263.97 L2867.53 265.82 L2852.31 267.93 L2837.09 269.91 L2821.87 272.01 L2806.65 274.24 L2791.43 276.34 L2776.21 278.57 L2760.99 280.92 L2745.76 283.27 L2730.54 285.62 L2715.32 288.10 L2700.22 290.57 L2685.00 293.17 L2669.78 295.77 L2654.56 298.49 L2639.34 301.22 L2624.12 304.06 L2608.90 307.03 L2593.68 309.88 L2578.45 312.97 L2563.23 316.07 L2548.01 319.28 L2532.79 322.50 L2517.57 325.97 L2502.35 329.31 L2487.13 332.90 L2471.91 336.49 L2456.68 340.20 L2441.46 344.04 L2426.24 348.00 L2411.02 351.96 L2395.80 356.04 L2380.58 360.25 L2365.36 364.58 L2350.14 369.03 L2335.04 373.61 L2319.82 378.32 L2304.60 383.14 L2289.38 388.09 L2274.15 393.17 L2258.93 398.36 L2243.71 403.81 L2228.49 409.25 L2213.27 414.95 L2198.05 420.76 L2182.83 426.70 L2167.61 432.77 L2152.38 439.08 L2137.16 445.64 L2121.94 452.32 L2106.72 459.13 L2091.50 466.18 L2076.28 473.36 L2061.06 480.78 L2045.84 488.46 L2030.61 496.25 L2015.39 504.30 L2000.17 512.59 L1984.95 521.13 L1969.85 529.91 L1954.63 538.95 L1939.41 548.23 L1924.19 557.76 L1908.97 567.54 L1893.75 577.56 L1878.53 587.95 L1863.30 598.60 L1848.08 609.49 L1832.86 620.75 L1817.64 632.38 L1802.42 644.26 L1787.20 656.39 L1771.98 669.01 L1756.76 682.01 L1741.53 695.25 L1726.31 708.86 L1711.09 722.97 L1695.87 737.45 L1680.65 752.30 L1665.43 767.52 L1650.21 783.24 L1634.98 799.33 L1619.76 815.91 L1604.67 832.86 L1589.44 850.31 L1574.22 868.26 L1559.00 886.82 L1543.78 905.75 L1528.56 925.18 L1513.34 945.11 L1498.12 965.65 L1482.90 986.69 L1467.67 1008.35 L1452.45 1030.50 L1437.23 1053.15 L1422.01 1076.53 L1406.79 1100.42 L1391.57 1124.92 L1376.35 1149.92 L1361.13 1175.66 L1345.90 1202.02 L1330.68 1228.88 L1315.46 1256.47 L1300.24 1284.57 L1285.02 1313.28 L1269.80 1342.73 L1254.70 1372.68 L1239.48 1403.25 L1224.26 1434.31 L1209.04 1466.11 L1193.82 1498.41 L1178.60 1531.21 L1163.37 1564.50 L1148.15 1598.16 L1132.93 1632.31 L1117.71 1666.72 L1102.49 1701.37 L1087.27 1736.27 L1072.05 1771.17 L1056.83 1806.19 L1041.60 1841.09 L1026.38 1875.86 L1011.16 1910.51 L995.94 1944.67 L980.72 1978.58 L965.50 2011.87 L950.28 2044.54 L935.05 2076.59 L919.83 2107.78 L904.61 2137.97 L889.51 2167.18 L874.29 2195.15 L859.07 2222.00 L843.85 2247.37 L828.63 2271.38 L813.41 2293.78 L798.19 2314.57 L782.97 2333.50 L767.75 2350.70 L752.52 2366.05 L737.30 2379.54 L722.08 2391.17 L706.86 2400.83 L691.64 2408.75 L676.42 2414.93 L661.20 2419.39 L645.98 2422.48 L630.75 2424.46 L615.53 2425.45 L600.31 2425.82 L600.31 2425.82 Z" stroke-linejoin="round"/>
	</defs>
	<defs>
		<clipPath id="clipPath_sheWAgal">
			<use xlink:href="#path_OkywVUjm"/>
		</clipPath>
	</defs>
	<use xlink:href="#path_OkywVUjm" style="stroke:none;fill:#3333FF;fill-opacity:0.25"/>
	<use xlink:href="#path_OkywVUjm" style="fill:none;stroke:#0000FF;stroke-opacity:0.25;stroke-width:17.28" clip-path="url(#clipPath_sheWAgal)"/>
	<defs>
		<path id="path_zNofduss" d="M600.31 2425.82 L600.31 2425.82 L615.53 2425.82 L630.75 2425.70 L645.98 2425.58 L661.20 2425.08 L676.42 2424.21 L691.64 2422.98 L706.86 2421.12 L722.08 2418.52 L737.30 2415.18 L752.52 2410.97 L767.75 2405.78 L782.97 2399.59 L798.19 2392.29 L813.41 2383.99 L828.63 2374.71 L843.85 2364.32 L859.07 2352.81 L874.29 2340.43 L889.51 2327.07 L904.61 2312.96 L919.83 2297.86 L935.05 2282.15 L950.28 2265.69 L965.50 2248.61 L980.72 2230.91 L995.94 2212.84 L1011.16 2194.40 L1026.38 2175.59 L1041.60 2156.53 L1056.83 2137.35 L1072.05 2118.05 L1087.27 2098.62 L1102.49 2079.19 L1117.71 2059.88 L1132.93 2040.58 L1148.15 2021.52 L1163.37 2002.59 L1178.60 1983.90 L1193.82 1965.46 L1209.04 1947.27 L1224.26 1929.45 L1239.48 1912.00 L1254.70 1894.92 L1269.80 1878.09 L1285.02 1861.63 L1300.24 1845.54 L1315.46 1829.82 L1330.68 1814.36 L1345.90 1799.38 L1361.13 1784.78 L1376.35 1770.42 L1391.57 1756.44 L1406.79 1742.83 L1422.01 1729.58 L1437.23 1716.59 L1452.45 1704.09 L1467.67 1691.72 L1482.90 1679.83 L1498.12 1668.20 L1513.34 1656.82 L1528.56 1645.80 L1543.78 1635.04 L1559.00 1624.64 L1574.22 1614.49 L1589.44 1604.59 L1604.67 1594.94 L1619.76 1585.53 L1634.98 1576.50 L1650.21 1567.59 L1665.43 1559.05 L1680.65 1550.64 L1695.87 1542.47 L1711.09 1534.55 L1726.31 1526.88 L1741.53 1519.33 L1756.76 1512.02 L1771.98 1504.97 L1787.20 1498.04 L1802.42 1491.36 L1817.64 1484.80 L1832.86 1478.49 L1848.08 1472.30 L1863.30 1466.24 L1878.53 1460.42 L1893.75 1454.73 L1908.97 1449.28 L1924.19 1443.84 L1939.41 1438.64 L1954.63 1433.56 L1969.85 1428.61 L1984.95 1423.79 L2000.17 1419.09 L2015.39 1414.51 L2030.61 1410.05 L2045.84 1405.72 L2061.06 1401.51 L2076.28 1397.43 L2091.50 1393.47 L2106.72 1389.63 L2121.94 1385.80 L2137.16 1382.21 L2152.38 1378.62 L2167.61 1375.15 L2182.83 1371.69 L2198.05 1368.47 L2213.27 1365.25 L2228.49 1362.04 L2243.71 1359.06 L2258.93 1356.09 L2274.15 1353.12 L2289.38 1350.28 L2304.60 1347.56 L2319.82 1344.96 L2335.04 1342.36 L2350.14 1339.76 L2365.36 1337.28 L2380.58 1334.93 L2395.80 1332.58 L2411.02 1330.23 L2426.24 1328.00 L2441.46 1325.78 L2456.68 1323.67 L2471.91 1321.69 L2487.13 1319.59 L2502.35 1317.61 L2517.57 1315.75 L2532.79 1313.89 L2548.01 1312.04 L2563.23 1310.18 L2578.45 1308.45 L2593.68 1306.72 L2608.90 1305.11 L2624.12 1303.50 L2639.34 1301.89 L2654.56 1300.41 L2669.78 1298.80 L2685.00 1297.44 L2700.22 1295.95 L2715.32 1294.47 L2730.54 1293.10 L2745.76 1291.74 L2760.99 1290.51 L2776.21 1289.14 L2791.43 1287.91 L2806.65 1286.67 L2821.87 1285.56 L2837.09 1284.32 L2852.31 1283.20 L2867.53 1282.09 L2882.76 1280.98 L2897.98 1279.86 L2913.20 1278.75 L2928.42 1277.76 L2943.64 1276.77 L2958.86 1275.78 L2974.08 1274.79 L2989.30 1273.80 L3004.53 1272.93 L3019.75 1271.94 L3034.97 1271.08 L3050.19 1270.21 L3065.41 1269.34 L3080.51 1268.48 L3095.73 1267.61 L3110.95 1266.74 L3126.17 1266.00 L3141.39 1265.14 L3156.61 1264.39 L3171.84 1263.65 L3187.06 1262.91 L3202.28 1262.17 L3217.50 1261.42 L3232.72 1260.68 L3247.94 1259.94 L3263.16 1259.20 L3278.39 1258.58 L3293.61 1257.83 L3308.83 1257.22 L3324.05 1256.60 L3339.27 1255.85 L3354.49 1255.24 L3369.71 1254.62 L3384.93 1254.00 L3400.16 1253.38 L3415.38 1252.76 L3430.47 1252.14 L3445.70 1251.52 L3460.92 1250.90 L3476.14 1250.41 L3491.36 1249.79 L3506.58 1249.17 L3521.80 1248.68 L3537.02 1248.06 L3552.24 1247.56 L3567.47 1246.94 L3582.69 1246.45 L3597.91 1245.83 L3613.13 1245.34 L3628.35 1244.84 L3643.57 1244.22 L3658.79 1243.73 L3674.01 1243.23 L3689.24 1242.74 L3704.46 1242.24 L3719.68 1241.62 L3734.90 1241.13 L3750.12 1240.63 L3765.34 1240.14 L3780.56 1239.64 L3795.66 1239.15 L3795.66 806.63 L3780.56 807.37 L3765.34 807.99 L3750.12 808.73 L3734.90 809.35 L3719.68 810.09 L3704.46 810.84 L3689.24 811.45 L3674.01 812.20 L3658.79 812.94 L3643.57 813.68 L3628.35 814.30 L3613.13 815.04 L3597.91 815.79 L3582.69 816.53 L3567.47 817.27 L3552.24 818.01 L3537.02 818.76 L3521.80 819.50 L3506.58 820.24 L3491.36 820.98 L3476.14 821.73 L3460.92 822.47 L3445.70 823.33 L3430.47 824.08 L3415.38 824.94 L3400.16 825.69 L3384.93 826.55 L3369.71 827.29 L3354.49 828.16 L3339.27 829.03 L3324.05 829.89 L3308.83 830.64 L3293.61 831.50 L3278.39 832.49 L3263.16 833.36 L3247.94 834.22 L3232.72 835.21 L3217.50 836.08 L3202.28 837.07 L3187.06 837.94 L3171.84 838.93 L3156.61 839.92 L3141.39 840.91 L3126.17 842.02 L3110.95 843.01 L3095.73 844.00 L3080.51 845.12 L3065.41 846.23 L3050.19 847.34 L3034.97 848.46 L3019.75 849.57 L3004.53 850.81 L2989.30 851.92 L2974.08 853.16 L2958.86 854.40 L2943.64 855.76 L2928.42 857.00 L2913.20 858.36 L2897.98 859.72 L2882.76 861.08 L2867.53 862.44 L2852.31 863.93 L2837.09 865.29 L2821.87 866.90 L2806.65 868.38 L2791.43 869.99 L2776.21 871.47 L2760.99 873.21 L2745.76 874.82 L2730.54 876.55 L2715.32 878.28 L2700.22 880.14 L2685.00 881.87 L2669.78 883.85 L2654.56 885.71 L2639.34 887.69 L2624.12 889.67 L2608.90 891.77 L2593.68 893.87 L2578.45 896.10 L2563.23 898.33 L2548.01 900.56 L2532.79 902.91 L2517.57 905.26 L2502.35 907.73 L2487.13 910.33 L2471.91 912.93 L2456.68 915.53 L2441.46 918.25 L2426.24 921.10 L2411.02 923.95 L2395.80 926.92 L2380.58 929.89 L2365.36 932.98 L2350.14 936.20 L2335.04 939.42 L2319.82 942.76 L2304.60 946.22 L2289.38 949.81 L2274.15 953.40 L2258.93 957.11 L2243.71 960.95 L2228.49 964.91 L2213.27 968.99 L2198.05 973.20 L2182.83 977.41 L2167.61 981.86 L2152.38 986.32 L2137.16 991.02 L2121.94 995.72 L2106.72 1000.67 L2091.50 1005.75 L2076.28 1010.95 L2061.06 1016.27 L2045.84 1021.71 L2030.61 1027.40 L2015.39 1033.10 L2000.17 1039.04 L1984.95 1045.23 L1969.85 1051.54 L1954.63 1057.97 L1939.41 1064.65 L1924.19 1071.46 L1908.97 1078.51 L1893.75 1085.69 L1878.53 1093.12 L1863.30 1100.79 L1848.08 1108.59 L1832.86 1116.75 L1817.64 1125.05 L1802.42 1133.59 L1787.20 1142.37 L1771.98 1151.41 L1756.76 1160.69 L1741.53 1170.22 L1726.31 1179.99 L1711.09 1190.14 L1695.87 1200.54 L1680.65 1211.18 L1665.43 1222.07 L1650.21 1233.33 L1634.98 1244.96 L1619.76 1256.84 L1604.67 1269.10 L1589.44 1281.60 L1574.22 1294.47 L1559.00 1307.71 L1543.78 1321.32 L1528.56 1335.30 L1513.34 1349.54 L1498.12 1364.26 L1482.90 1379.36 L1467.67 1394.83 L1452.45 1410.79 L1437.23 1427.01 L1422.01 1443.71 L1406.79 1460.79 L1391.57 1478.36 L1376.35 1496.31 L1361.13 1514.75 L1345.90 1533.56 L1330.68 1552.74 L1315.46 1572.42 L1300.24 1592.59 L1285.02 1613.13 L1269.80 1634.17 L1254.70 1655.58 L1239.48 1677.48 L1224.26 1699.76 L1209.04 1722.41 L1193.82 1745.55 L1178.60 1769.06 L1163.37 1792.82 L1148.15 1817.08 L1132.93 1841.46 L1117.71 1866.21 L1102.49 1891.08 L1087.27 1916.08 L1072.05 1941.33 L1056.83 1966.45 L1041.60 1991.69 L1026.38 2016.94 L1011.16 2041.94 L995.94 2066.81 L980.72 2091.44 L965.50 2115.70 L950.28 2139.70 L935.05 2163.09 L919.83 2186.11 L904.61 2208.39 L889.51 2229.92 L874.29 2250.84 L859.07 2270.76 L843.85 2289.82 L828.63 2307.76 L813.41 2324.72 L798.19 2340.31 L782.97 2354.79 L767.75 2367.91 L752.52 2379.66 L737.30 2389.93 L722.08 2398.84 L706.86 2406.39 L691.64 2412.46 L676.42 2417.28 L661.20 2420.75 L645.98 2423.22 L630.75 2424.71 L615.53 2425.45 L600.31 2425.82 L600.31 2425.82 Z" stroke-linejoin="round"/>
	</defs>
	<defs>
		<clipPath id="clipPath_KnVdhJAx">
			<use xlink:href="#path_zNofduss"/>
		</clipPath>
	</defs>
	<use xlink:href="#path_zNofduss" style="stroke:none;fill:#FF3333;fill-opacity:0.25"/>
	<use xlink:href="#path_zNofduss" style="fill:none;stroke:#FF0000;stroke-opacity:0.25;stroke-width:17.28" clip-path="url(#clipPath_KnVdhJAx)"/>
	<path d=" M585.09 2425.95 L600.31 2425.95 L615.53 2425.82 L630.75 2425.45 L645.98 2424.71 L661.20 2423.47 L676.42 2421.37 L691.64 2418.27 L706.86 2413.94 L721.96 2408.50 L737.18 2401.57 L752.40 2393.28 L767.62 2383.38 L782.84 2372.11 L798.06 2359.24 L813.28 2344.89 L828.51 2329.05 L843.73 2311.85 L858.95 2293.28 L874.17 2273.61 L889.39 2252.69 L904.61 2230.66 L919.83 2207.65 L935.05 2183.76 L950.28 2159.13 L965.50 2133.76 L980.72 2107.78 L995.94 2081.42 L1011.16 2054.56 L1026.38 2027.34 L1041.60 1999.99 L1056.83 1972.39 L1072.05 1944.79 L1087.14 1917.07 L1102.37 1889.47 L1117.59 1862.12 L1132.81 1834.77 L1148.03 1807.80 L1163.25 1781.07 L1178.47 1754.71 L1193.69 1728.72 L1208.91 1703.22 L1224.13 1678.10 L1239.36 1653.48 L1254.58 1629.34 L1269.80 1605.58 L1285.02 1582.44 L1300.24 1559.79 L1315.46 1537.52 L1330.68 1515.86 L1345.90 1494.70 L1361.13 1473.91 L1376.35 1453.74 L1391.57 1434.06 L1406.79 1414.75 L1422.01 1395.94 L1437.23 1377.63 L1452.33 1359.81 L1467.55 1342.48 L1482.77 1325.53 L1497.99 1308.94 L1513.21 1292.86 L1528.44 1277.26 L1543.66 1262.04 L1558.88 1247.19 L1574.10 1232.71 L1589.32 1218.60 L1604.54 1204.99 L1619.76 1191.63 L1634.98 1178.76 L1650.21 1166.13 L1665.43 1153.88 L1680.65 1141.88 L1695.87 1130.24 L1711.09 1118.98 L1726.31 1108.09 L1741.53 1097.33 L1756.76 1086.93 L1771.98 1076.91 L1787.20 1067.01 L1802.30 1057.48 L1817.52 1048.20 L1832.74 1039.16 L1847.96 1030.37 L1863.18 1021.84 L1878.40 1013.42 L1893.62 1005.38 L1908.84 997.58 L1924.07 989.91 L1939.29 982.48 L1954.51 975.18 L1969.73 968.13 L1984.95 961.32 L2000.17 954.64 L2015.39 948.08 L2030.61 941.77 L2045.84 935.70 L2061.06 929.76 L2076.28 923.95 L2091.50 918.25 L2106.72 912.81 L2121.94 907.36 L2137.16 902.17 L2152.38 897.09 L2167.48 892.14 L2182.70 887.32 L2197.92 882.74 L2213.14 878.16 L2228.37 873.70 L2243.59 869.37 L2258.81 865.16 L2274.03 861.08 L2289.25 857.12 L2304.47 853.28 L2319.69 849.45 L2334.91 845.73 L2350.14 842.15 L2365.36 838.68 L2380.58 835.21 L2395.80 832.00 L2411.02 828.78 L2426.24 825.56 L2441.46 822.47 L2456.68 819.50 L2471.91 816.53 L2487.13 813.68 L2502.35 810.96 L2517.57 808.24 L2532.67 805.64 L2547.89 803.04 L2563.11 800.56 L2578.33 798.09 L2593.55 795.74 L2608.77 793.39 L2623.99 791.03 L2639.22 788.81 L2654.44 786.70 L2669.66 784.60 L2684.88 782.50 L2700.10 780.39 L2715.32 778.54 L2730.54 776.56 L2745.76 774.70 L2760.99 772.84 L2776.21 770.99 L2791.43 769.25 L2806.65 767.52 L2821.87 765.79 L2837.09 764.18 L2852.31 762.57 L2867.53 760.96 L2882.76 759.48 L2897.85 757.87 L2913.07 756.38 L2928.30 754.90 L2943.52 753.54 L2958.74 752.18 L2973.96 750.81 L2989.18 749.45 L3004.40 748.09 L3019.62 746.85 L3034.84 745.49 L3050.07 744.26 L3065.29 743.02 L3080.51 741.90 L3095.73 740.67 L3110.95 739.55 L3126.17 738.44 L3141.39 737.20 L3156.61 736.21 L3171.84 735.10 L3187.06 733.98 L3202.28 732.99 L3217.50 731.88 L3232.72 730.89 L3247.94 729.90 L3263.04 728.91 L3278.26 727.92 L3293.48 726.93 L3308.70 726.06 L3323.93 725.07 L3339.15 724.21 L3354.37 723.22 L3369.59 722.35 L3384.81 721.49 L3400.03 720.62 L3415.25 719.63 L3430.47 718.76 L3445.70 718.02 L3460.92 717.15 L3476.14 716.29 L3491.36 715.42 L3506.58 714.68 L3521.80 713.81 L3537.02 713.07 L3552.24 712.20 L3567.47 711.46 L3582.69 710.59 L3597.91 709.85 L3613.01 709.11 L3628.23 708.24 L3643.45 707.50 L3658.67 706.76 L3673.89 706.02 L3689.11 705.27 L3704.33 704.53 L3719.55 703.79 L3734.78 703.05 L3750.00 702.30 L3765.22 701.56 L3780.44 700.82 L3795.66 700.08" stroke-linejoin="round" style="fill:none;stroke:#0000FF;stroke-width:8.64"/>
	<path d=" M585.09 2425.95 L600.31 2425.95 L615.53 2425.82 L630.75 2425.58 L645.98 2424.96 L661.20 2423.97 L676.42 2422.23 L691.64 2419.76 L706.86 2416.29 L721.96 2411.96 L737.18 2406.39 L752.40 2399.71 L767.62 2391.79 L782.84 2382.63 L798.06 2372.36 L813.28 2360.85 L828.51 2348.23 L843.73 2334.37 L858.95 2319.52 L874.17 2303.68 L889.39 2286.85 L904.61 2269.15 L919.83 2250.71 L935.05 2231.53 L950.28 2211.73 L965.50 2191.43 L980.72 2170.64 L995.94 2149.36 L1011.16 2127.82 L1026.38 2106.04 L1041.60 2084.02 L1056.83 2061.86 L1072.05 2039.71 L1087.14 2017.44 L1102.37 1995.41 L1117.59 1973.26 L1132.81 1951.47 L1148.03 1929.69 L1163.25 1908.28 L1178.47 1887.12 L1193.69 1866.21 L1208.91 1845.79 L1224.13 1825.62 L1239.36 1805.82 L1254.58 1786.39 L1269.80 1767.33 L1285.02 1748.77 L1300.24 1730.57 L1315.46 1712.75 L1330.68 1695.30 L1345.90 1678.23 L1361.13 1661.64 L1376.35 1645.31 L1391.57 1629.47 L1406.79 1614.00 L1422.01 1598.90 L1437.23 1584.30 L1452.33 1569.94 L1467.55 1555.96 L1482.77 1542.34 L1497.99 1529.10 L1513.21 1516.11 L1528.44 1503.61 L1543.66 1491.36 L1558.88 1479.35 L1574.10 1467.84 L1589.32 1456.46 L1604.54 1445.45 L1619.76 1434.80 L1634.98 1424.41 L1650.21 1414.26 L1665.43 1404.36 L1680.65 1394.83 L1695.87 1385.55 L1711.09 1376.39 L1726.31 1367.60 L1741.53 1359.06 L1756.76 1350.65 L1771.98 1342.61 L1787.20 1334.69 L1802.30 1327.01 L1817.52 1319.46 L1832.74 1312.29 L1847.96 1305.23 L1863.18 1298.30 L1878.40 1291.62 L1893.62 1285.18 L1908.84 1278.75 L1924.07 1272.68 L1939.29 1266.62 L1954.51 1260.80 L1969.73 1255.24 L1984.95 1249.67 L2000.17 1244.35 L2015.39 1239.15 L2030.61 1234.07 L2045.84 1229.12 L2061.06 1224.30 L2076.28 1219.59 L2091.50 1215.14 L2106.72 1210.68 L2121.94 1206.35 L2137.16 1202.15 L2152.38 1198.06 L2167.48 1194.10 L2182.70 1190.26 L2197.92 1186.55 L2213.14 1182.84 L2228.37 1179.25 L2243.59 1175.79 L2258.81 1172.44 L2274.03 1169.10 L2289.25 1165.89 L2304.47 1162.79 L2319.69 1159.82 L2334.91 1156.85 L2350.14 1154.00 L2365.36 1151.16 L2380.58 1148.44 L2395.80 1145.71 L2411.02 1143.11 L2426.24 1140.64 L2441.46 1138.16 L2456.68 1135.69 L2471.91 1133.34 L2487.13 1131.11 L2502.35 1128.88 L2517.57 1126.66 L2532.67 1124.55 L2547.89 1122.45 L2563.11 1120.47 L2578.33 1118.49 L2593.55 1116.63 L2608.77 1114.65 L2623.99 1112.92 L2639.22 1111.06 L2654.44 1109.33 L2669.66 1107.60 L2684.88 1105.99 L2700.10 1104.38 L2715.32 1102.77 L2730.54 1101.16 L2745.76 1099.68 L2760.99 1098.19 L2776.21 1096.71 L2791.43 1095.35 L2806.65 1093.98 L2821.87 1092.62 L2837.09 1091.26 L2852.31 1089.90 L2867.53 1088.66 L2882.76 1087.43 L2897.85 1086.19 L2913.07 1084.95 L2928.30 1083.84 L2943.52 1082.72 L2958.74 1081.61 L2973.96 1080.50 L2989.18 1079.38 L3004.40 1078.27 L3019.62 1077.28 L3034.84 1076.29 L3050.07 1075.30 L3065.29 1074.31 L3080.51 1073.32 L3095.73 1072.33 L3110.95 1071.46 L3126.17 1070.47 L3141.39 1069.60 L3156.61 1068.74 L3171.84 1067.87 L3187.06 1067.01 L3202.28 1066.14 L3217.50 1065.27 L3232.72 1064.53 L3247.94 1063.66 L3263.04 1062.92 L3278.26 1062.06 L3293.48 1061.31 L3308.70 1060.57 L3323.93 1059.83 L3339.15 1059.09 L3354.37 1058.34 L3369.59 1057.60 L3384.81 1056.86 L3400.03 1056.24 L3415.25 1055.50 L3430.47 1054.75 L3445.70 1054.14 L3460.92 1053.39 L3476.14 1052.77 L3491.36 1052.03 L3506.58 1051.41 L3521.80 1050.79 L3537.02 1050.18 L3552.24 1049.43 L3567.47 1048.81 L3582.69 1048.20 L3597.91 1047.58 L3613.01 1046.96 L3628.23 1046.34 L3643.45 1045.72 L3658.67 1045.10 L3673.89 1044.48 L3689.11 1043.86 L3704.33 1043.25 L3719.55 1042.63 L3734.78 1042.13 L3750.00 1041.51 L3765.22 1040.89 L3780.44 1040.28 L3795.66 1039.66" stroke-linejoin="round" style="fill:none;stroke:#FF0000;stroke-width:8.64"/>
	<line x1="521.73" y1="2489.19" x2="521.73" y2="100.86" style="stroke:#000000;stroke-width:5.76"/>
	<line x1="521.73" y1="2425.82" x2="481.76" y2="2425.82" style="stroke:#000000;stroke-width:5.76"/>
	<text x="461.83" y="2460.85" style="font-family:'Helvetica';font-size:99.99px;fill:#000000" text-anchor="end">0.00</text>
	<line x1="521.73" y1="1973.50" x2="481.76" y2="1973.50" style="stroke:#000000;stroke-width:5.76"/>
	<text x="461.83" y="2008.53" style="font-family:'Helvetica';font-size:99.99px;fill:#000000" text-anchor="end">0.10</text>
	<line x1="521.73" y1="1521.18" x2="481.76" y2="1521.18" style="stroke:#000000;stroke-width:5.76"/>
	<text x="461.83" y="1556.21" style="font-family:'Helvetica';font-size:99.99px;fill:#000000" text-anchor="end">0.20</text>
	<line x1="521.73" y1="1068.86" x2="481.76" y2="1068.86" style="stroke:#000000;stroke-width:5.76"/>
	<text x="461.83" y="1103.89" style="font-family:'Helvetica';font-size:99.99px;fill:#000000" text-anchor="end">0.30</text>
	<line x1="521.73" y1="616.54" x2="481.76" y2="616.54" style="stroke:#000000;stroke-width:5.76"/>
	<text x="461.83" y="651.57" style="font-family:'Helvetica';font-size:99.99px;fill:#000000" text-anchor="end">0.40</text>
	<line x1="521.73" y1="164.22" x2="481.76" y2="164.22" style="stroke:#000000;stroke-width:5.76"/>
	<text x="461.83" y="199.25" style="font-family:'Helvetica';font-size:99.99px;fill:#000000" text-anchor="end">0.50</text>
	<text x="190.71" y="1294.96" style="font-family:'Helvetica';font-size:99.99px;fill:#000000" transform="rotate(-90 190.71,1294.96)" text-anchor="middle">Cumulative incidence (%)</text>
	<line x1="521.73" y1="2489.19" x2="3859.02" y2="2489.19" style="stroke:#000000;stroke-width:5.76"/>
	<line x1="585.09" y1="2489.19" x2="585.09" y2="2529.16" style="stroke:#000000;stroke-width:5.76"/>
	<text x="585.09" y="2619.14" style="font-family:'Helvetica';font-size:99.99px;fill:#000000" text-anchor="middle">0</text>
	<line x1="1345.90" y1="2489.19" x2="1345.90" y2="2529.16" style="stroke:#000000;stroke-width:5.76"/>
	<text x="1345.90" y="2619.14" style="font-family:'Helvetica';font-size:99.99px;fill:#000000" text-anchor="middle">50</text>
	<line x1="2106.72" y1="2489.19" x2="2106.72" y2="2529.16" style="stroke:#000000;stroke-width:5.76"/>
	<text x="2106.72" y="2619.14" style="font-family:'Helvetica';font-size:99.99px;fill:#000000" text-anchor="middle">100</text>
	<line x1="2867.53" y1="2489.19" x2="2867.53" y2="2529.16" style="stroke:#000000;stroke-width:5.76"/>
	<text x="2867.53" y="2619.14" style="font-family:'Helvetica';font-size:99.99px;fill:#000000" text-anchor="middle">150</text>
	<line x1="3628.35" y1="2489.19" x2="3628.35" y2="2529.16" style="stroke:#000000;stroke-width:5.76"/>
	<text x="3628.35" y="2619.14" style="font-family:'Helvetica';font-size:99.99px;fill:#000000" text-anchor="middle">200</text>
	<text x="2190.38" y="2729.16" style="font-family:'Helvetica';font-size:99.99px;fill:#000000" text-anchor="middle">Days from 1 March 2020</text>
	<rect x="1933.59" y="2128.20" width="1890.90" height="326.46" style="fill:#FFFFFF"/>
	<rect x="1936.47" y="2131.08" width="1885.14" height="320.70" style="fill:none;stroke:#000000;stroke-width:5.76"/>
	<rect x="1976.78" y="2171.51" width="374.34" height="99.99" style="fill:#3333FF;fill-opacity:0.25"/>
	<rect x="1981.10" y="2175.83" width="365.70" height="91.35" style="fill:none;stroke:#0000FF;stroke-opacity:0.25;stroke-width:8.64"/>
	<rect x="1976.78" y="2311.47" width="374.34" height="99.99" style="fill:#FF3333;fill-opacity:0.25"/>
	<rect x="1981.10" y="2315.79" width="365.70" height="91.35" style="fill:none;stroke:#FF0000;stroke-opacity:0.25;stroke-width:8.64"/>
	<text x="2411.14" y="2256.53" style="font-family:'Helvetica';font-size:99.99px;fill:#000000">Non-current anticoagulant use</text>
	<text x="2411.14" y="2396.50" style="font-family:'Helvetica';font-size:99.99px;fill:#000000">Current anticoagulant use</text>
</svg>
