<?xml version="1.0" encoding="UTF-8" standalone="no"?>
<!-- This is a Stata 16.1 generated SVG file (http://www.stata.com) -->

<svg version="1.1" width="5.50in" height="4.00in" viewBox="0 0 3960 2880" xmlns="http://www.w3.org/2000/svg" xmlns:xlink="http://www.w3.org/1999/xlink">
	<desc>Stata Graph - Graph</desc>
	<rect x="0" y="0" width="3960" height="2880" style="fill:#EAF2F3;stroke:none"/>
	<rect x="0.00" y="0.00" width="3959.88" height="2880.00" style="fill:#EAF2F3"/>
	<rect x="2.88" y="2.88" width="3954.12" height="2874.24" style="fill:none;stroke:#EAF2F3;stroke-width:5.76"/>
	<rect x="556.38" y="100.86" width="3302.64" height="2388.33" style="fill:#FFFFFF"/>
	<rect x="559.26" y="103.74" width="3296.88" height="2382.57" style="fill:none;stroke:#FFFFFF;stroke-width:5.76"/>
	<line x1="556.38" y1="2425.82" x2="3859.02" y2="2425.82" style="stroke:#EAF2F3;stroke-width:8.64"/>
	<line x1="556.38" y1="1973.50" x2="3859.02" y2="1973.50" style="stroke:#EAF2F3;stroke-width:8.64"/>
	<line x1="556.38" y1="1521.18" x2="3859.02" y2="1521.18" style="stroke:#EAF2F3;stroke-width:8.64"/>
	<line x1="556.38" y1="1068.86" x2="3859.02" y2="1068.86" style="stroke:#EAF2F3;stroke-width:8.64"/>
	<line x1="556.38" y1="616.54" x2="3859.02" y2="616.54" style="stroke:#EAF2F3;stroke-width:8.64"/>
	<line x1="556.38" y1="164.22" x2="3859.02" y2="164.22" style="stroke:#EAF2F3;stroke-width:8.64"/>
	<defs>
		<path id="path_TYTqucCN" d="M619.74 616.54 L619.74 616.54 L634.84 616.54 L649.93 616.67 L664.91 617.04 L680.01 617.78 L694.98 619.14 L710.08 621.37 L725.17 624.59 L740.15 628.92 L755.25 634.61 L770.34 641.54 L785.32 649.96 L800.41 659.86 L815.51 671.12 L830.49 683.99 L845.58 698.22 L860.56 713.94 L875.65 730.89 L890.75 749.21 L905.73 768.76 L920.82 789.43 L935.92 811.08 L950.89 833.73 L965.99 857.24 L980.97 881.50 L996.06 906.50 L1011.16 931.99 L1026.13 957.98 L1041.23 984.34 L1056.33 1011.07 L1071.30 1038.05 L1086.40 1065.03 L1101.50 1092.25 L1116.47 1119.35 L1131.57 1146.46 L1146.54 1173.43 L1161.64 1200.17 L1176.74 1226.65 L1191.71 1252.88 L1206.81 1278.75 L1221.91 1304.24 L1236.88 1329.36 L1251.98 1353.99 L1266.95 1378.12 L1282.05 1401.76 L1297.15 1425.03 L1312.12 1447.80 L1327.22 1470.07 L1342.32 1491.85 L1357.29 1513.14 L1372.39 1533.93 L1387.48 1554.22 L1402.46 1574.03 L1417.56 1593.33 L1432.53 1612.27 L1447.63 1630.70 L1462.72 1648.65 L1477.70 1666.10 L1492.80 1683.18 L1507.89 1699.76 L1522.87 1715.97 L1537.96 1731.69 L1552.94 1747.03 L1568.04 1762.01 L1583.13 1776.49 L1598.11 1790.72 L1613.20 1804.46 L1628.30 1817.94 L1643.28 1830.94 L1658.37 1843.69 L1673.47 1855.94 L1688.44 1867.94 L1703.54 1879.70 L1718.52 1891.08 L1733.61 1902.10 L1748.71 1912.86 L1763.68 1923.38 L1778.78 1933.53 L1793.88 1943.43 L1808.85 1953.08 L1823.95 1962.37 L1838.92 1971.52 L1854.02 1980.31 L1869.12 1988.97 L1884.09 1997.39 L1899.19 2005.43 L1914.29 2013.35 L1929.26 2021.15 L1944.36 2028.57 L1959.46 2035.87 L1974.43 2042.93 L1989.53 2049.86 L2004.50 2056.54 L2019.60 2063.10 L2034.70 2069.41 L2049.67 2075.60 L2064.77 2081.66 L2079.87 2087.48 L2094.84 2093.17 L2109.94 2098.74 L2124.91 2104.06 L2140.01 2109.38 L2155.11 2114.46 L2170.08 2119.41 L2185.18 2124.24 L2200.28 2128.94 L2215.25 2133.52 L2230.35 2137.97 L2245.32 2142.30 L2260.42 2146.51 L2275.51 2150.59 L2290.49 2154.68 L2305.59 2158.51 L2320.68 2162.35 L2335.66 2166.06 L2350.76 2169.65 L2365.85 2173.12 L2380.83 2176.58 L2395.92 2179.92 L2410.90 2183.14 L2425.99 2186.36 L2441.09 2189.45 L2456.07 2192.42 L2471.16 2195.39 L2486.26 2198.24 L2501.24 2200.96 L2516.33 2203.69 L2531.31 2206.28 L2546.40 2208.88 L2561.50 2211.48 L2576.47 2213.83 L2591.57 2216.31 L2606.67 2218.66 L2621.64 2220.89 L2636.74 2223.11 L2651.84 2225.34 L2666.81 2227.45 L2681.91 2229.55 L2696.88 2231.53 L2711.98 2233.51 L2727.08 2235.49 L2742.05 2237.35 L2757.15 2239.20 L2772.25 2241.06 L2787.22 2242.79 L2802.32 2244.52 L2817.29 2246.13 L2832.39 2247.87 L2847.49 2249.47 L2862.46 2251.08 L2877.56 2252.57 L2892.66 2254.05 L2907.63 2255.54 L2922.73 2257.02 L2937.82 2258.51 L2952.80 2259.87 L2967.90 2261.23 L2982.87 2262.59 L2997.97 2263.83 L3013.07 2265.19 L3028.04 2266.43 L3043.14 2267.67 L3058.23 2268.90 L3073.21 2270.14 L3088.30 2271.25 L3103.28 2272.37 L3118.38 2273.61 L3133.47 2274.72 L3148.45 2275.71 L3163.55 2276.82 L3178.64 2277.94 L3193.62 2278.93 L3208.71 2279.92 L3223.81 2281.03 L3238.78 2282.02 L3253.88 2283.01 L3268.86 2283.88 L3283.95 2284.87 L3299.05 2285.86 L3314.03 2286.72 L3329.12 2287.71 L3344.22 2288.58 L3359.19 2289.45 L3374.29 2290.31 L3389.26 2291.18 L3404.36 2292.05 L3419.46 2292.91 L3434.43 2293.78 L3449.53 2294.64 L3464.63 2295.51 L3479.60 2296.25 L3494.70 2297.12 L3509.80 2297.86 L3524.77 2298.73 L3539.87 2299.47 L3554.84 2300.21 L3569.94 2301.08 L3585.04 2301.82 L3600.01 2302.56 L3615.11 2303.31 L3630.21 2304.05 L3645.18 2304.79 L3660.28 2305.53 L3675.25 2306.28 L3690.35 2307.02 L3705.45 2307.76 L3720.42 2308.50 L3735.52 2309.25 L3750.61 2309.99 L3765.59 2310.73 L3780.69 2311.47 L3795.66 2312.09 L3795.66 279.44 L3780.69 279.56 L3765.59 279.68 L3750.61 279.81 L3735.52 279.93 L3720.42 280.18 L3705.45 280.30 L3690.35 280.43 L3675.25 280.55 L3660.28 280.67 L3645.18 280.80 L3630.21 281.05 L3615.11 281.17 L3600.01 281.29 L3585.04 281.42 L3569.94 281.66 L3554.84 281.79 L3539.87 281.91 L3524.77 282.04 L3509.80 282.28 L3494.70 282.41 L3479.60 282.53 L3464.63 282.78 L3449.53 282.90 L3434.43 283.03 L3419.46 283.27 L3404.36 283.40 L3389.26 283.52 L3374.29 283.77 L3359.19 283.89 L3344.22 284.14 L3329.12 284.26 L3314.03 284.39 L3299.05 284.63 L3283.95 284.76 L3268.86 285.01 L3253.88 285.25 L3238.78 285.38 L3223.81 285.62 L3208.71 285.75 L3193.62 286.00 L3178.64 286.24 L3163.55 286.37 L3148.45 286.61 L3133.47 286.86 L3118.38 287.11 L3103.28 287.23 L3088.30 287.48 L3073.21 287.73 L3058.23 287.98 L3043.14 288.22 L3028.04 288.47 L3013.07 288.72 L2997.97 288.97 L2982.87 289.21 L2967.90 289.46 L2952.80 289.71 L2937.82 290.08 L2922.73 290.33 L2907.63 290.57 L2892.66 290.95 L2877.56 291.19 L2862.46 291.56 L2847.49 291.81 L2832.39 292.18 L2817.29 292.43 L2802.32 292.80 L2787.22 293.17 L2772.25 293.54 L2757.15 293.79 L2742.05 294.16 L2727.08 294.53 L2711.98 295.03 L2696.88 295.40 L2681.91 295.77 L2666.81 296.14 L2651.84 296.64 L2636.74 297.01 L2621.64 297.50 L2606.67 297.88 L2591.57 298.37 L2576.47 298.87 L2561.50 299.36 L2546.40 299.86 L2531.31 300.35 L2516.33 300.85 L2501.24 301.46 L2486.26 301.96 L2471.16 302.58 L2456.07 303.07 L2441.09 303.69 L2425.99 304.31 L2410.90 304.93 L2395.92 305.55 L2380.83 306.17 L2365.85 306.91 L2350.76 307.65 L2335.66 308.27 L2320.68 309.01 L2305.59 309.76 L2290.49 310.62 L2275.51 311.36 L2260.42 312.23 L2245.32 312.97 L2230.35 313.84 L2215.25 314.71 L2200.28 315.70 L2185.18 316.56 L2170.08 317.55 L2155.11 318.54 L2140.01 319.53 L2124.91 320.52 L2109.94 321.64 L2094.84 322.75 L2079.87 323.86 L2064.77 324.98 L2049.67 326.22 L2034.70 327.45 L2019.60 328.69 L2004.50 329.93 L1989.53 331.29 L1974.43 332.65 L1959.46 334.01 L1944.36 335.50 L1929.26 336.98 L1914.29 338.47 L1899.19 340.08 L1884.09 341.68 L1869.12 343.42 L1854.02 345.03 L1838.92 346.88 L1823.95 348.61 L1808.85 350.47 L1793.88 352.33 L1778.78 354.31 L1763.68 356.41 L1748.71 358.39 L1733.61 360.62 L1718.52 362.72 L1703.54 364.95 L1688.44 367.30 L1673.47 369.65 L1658.37 372.13 L1643.28 374.60 L1628.30 377.20 L1613.20 379.92 L1598.11 382.65 L1583.13 385.37 L1568.04 388.34 L1552.94 391.31 L1537.96 394.28 L1522.87 397.37 L1507.89 400.59 L1492.80 403.93 L1477.70 407.27 L1462.72 410.74 L1447.63 414.33 L1432.53 417.92 L1417.56 421.63 L1402.46 425.47 L1387.48 429.43 L1372.39 433.39 L1357.29 437.47 L1342.32 441.68 L1327.22 446.01 L1312.12 450.46 L1297.15 454.92 L1282.05 459.50 L1266.95 464.20 L1251.98 468.90 L1236.88 473.85 L1221.91 478.68 L1206.81 483.75 L1191.71 488.83 L1176.74 494.03 L1161.64 499.22 L1146.54 504.54 L1131.57 509.87 L1116.47 515.19 L1101.50 520.51 L1086.40 525.83 L1071.30 531.28 L1056.33 536.60 L1041.23 541.79 L1026.13 546.99 L1011.16 552.19 L996.06 557.14 L980.97 562.09 L965.99 566.92 L950.89 571.62 L935.92 576.07 L920.82 580.41 L905.73 584.61 L890.75 588.45 L875.65 592.16 L860.56 595.63 L845.58 598.84 L830.49 601.69 L815.51 604.41 L800.41 606.77 L785.32 608.87 L770.34 610.60 L755.25 612.21 L740.15 613.45 L725.17 614.44 L710.08 615.18 L694.98 615.80 L680.01 616.17 L664.91 616.29 L649.93 616.42 L634.84 616.54 L619.74 616.54 L619.74 616.54 Z" stroke-linejoin="round"/>
	</defs>
	<defs>
		<clipPath id="clipPath_MjlOpmCO">
			<use xlink:href="#path_TYTqucCN"/>
		</clipPath>
	</defs>
	<use xlink:href="#path_TYTqucCN" style="stroke:none;fill:#FF3333;fill-opacity:0.25"/>
	<use xlink:href="#path_TYTqucCN" style="fill:none;stroke:#FF0000;stroke-opacity:0.25;stroke-width:17.28" clip-path="url(#clipPath_MjlOpmCO)"/>
	<path d=" M619.74 616.54 L634.71 616.54 L649.81 616.54 L664.91 616.79 L679.88 617.04 L694.98 617.53 L710.08 618.40 L725.05 619.64 L740.15 621.24 L755.25 623.47 L770.22 626.19 L785.32 629.41 L800.29 633.37 L815.39 637.83 L830.49 642.90 L845.46 648.59 L860.56 654.78 L875.65 661.59 L890.63 668.89 L905.73 676.69 L920.70 684.98 L935.80 693.64 L950.89 702.80 L965.87 712.20 L980.97 721.86 L996.06 731.88 L1011.04 742.15 L1026.13 752.55 L1041.23 763.19 L1056.21 773.83 L1071.30 784.72 L1086.28 795.49 L1101.38 806.38 L1116.47 817.39 L1131.45 828.16 L1146.54 839.05 L1161.64 849.82 L1176.62 860.46 L1191.71 870.98 L1206.69 881.38 L1221.78 891.52 L1236.88 901.67 L1251.86 911.45 L1266.95 921.22 L1282.05 930.75 L1297.02 940.03 L1312.12 949.19 L1327.22 958.10 L1342.19 966.77 L1357.29 975.30 L1372.26 983.72 L1387.36 991.89 L1402.46 999.81 L1417.43 1007.60 L1432.53 1015.15 L1447.63 1022.58 L1462.60 1029.76 L1477.70 1036.69 L1492.67 1043.62 L1507.77 1050.30 L1522.87 1056.73 L1537.84 1063.05 L1552.94 1069.23 L1568.04 1075.17 L1583.01 1080.99 L1598.11 1086.68 L1613.08 1092.25 L1628.18 1097.57 L1643.28 1102.89 L1658.25 1107.97 L1673.35 1112.92 L1688.44 1117.74 L1703.42 1122.45 L1718.52 1127.03 L1733.61 1131.36 L1748.59 1135.69 L1763.68 1139.90 L1778.66 1143.98 L1793.76 1147.94 L1808.85 1151.78 L1823.83 1155.61 L1838.92 1159.20 L1854.02 1162.79 L1869.00 1166.26 L1884.09 1169.60 L1899.07 1172.82 L1914.16 1176.03 L1929.26 1179.13 L1944.24 1182.10 L1959.33 1185.07 L1974.43 1187.91 L1989.40 1190.64 L2004.50 1193.36 L2019.60 1195.96 L2034.57 1198.56 L2049.67 1201.03 L2064.64 1203.38 L2079.74 1205.73 L2094.84 1207.96 L2109.81 1210.19 L2124.91 1212.42 L2140.01 1214.52 L2154.98 1216.50 L2170.08 1218.48 L2185.05 1220.46 L2200.15 1222.32 L2215.25 1224.17 L2230.22 1226.03 L2245.32 1227.76 L2260.42 1229.37 L2275.39 1231.10 L2290.49 1232.71 L2305.59 1234.20 L2320.56 1235.81 L2335.66 1237.29 L2350.63 1238.65 L2365.73 1240.14 L2380.83 1241.50 L2395.80 1242.86 L2410.90 1244.10 L2425.99 1245.34 L2440.97 1246.57 L2456.07 1247.81 L2471.04 1249.05 L2486.14 1250.16 L2501.24 1251.28 L2516.21 1252.39 L2531.31 1253.38 L2546.40 1254.49 L2561.38 1255.48 L2576.47 1256.47 L2591.57 1257.34 L2606.55 1258.33 L2621.64 1259.20 L2636.62 1260.19 L2651.72 1261.05 L2666.81 1261.92 L2681.79 1262.66 L2696.88 1263.53 L2711.98 1264.27 L2726.95 1265.14 L2742.05 1265.88 L2757.03 1266.62 L2772.12 1267.36 L2787.22 1267.98 L2802.20 1268.72 L2817.29 1269.34 L2832.39 1270.09 L2847.36 1270.70 L2862.46 1271.32 L2877.56 1271.94 L2892.53 1272.56 L2907.63 1273.18 L2922.60 1273.80 L2937.70 1274.29 L2952.80 1274.91 L2967.77 1275.41 L2982.87 1275.90 L2997.97 1276.52 L3012.94 1277.02 L3028.04 1277.51 L3043.01 1278.01 L3058.11 1278.50 L3073.21 1279.00 L3088.18 1279.49 L3103.28 1279.86 L3118.38 1280.36 L3133.35 1280.85 L3148.45 1281.22 L3163.42 1281.72 L3178.52 1282.09 L3193.62 1282.59 L3208.59 1282.96 L3223.69 1283.33 L3238.78 1283.70 L3253.76 1284.19 L3268.86 1284.57 L3283.95 1284.94 L3298.93 1285.31 L3314.03 1285.68 L3329.00 1286.05 L3344.10 1286.42 L3359.19 1286.79 L3374.17 1287.16 L3389.26 1287.41 L3404.36 1287.78 L3419.34 1288.15 L3434.43 1288.53 L3449.41 1288.77 L3464.51 1289.14 L3479.60 1289.52 L3494.58 1289.76 L3509.67 1290.13 L3524.77 1290.51 L3539.74 1290.75 L3554.84 1291.12 L3569.94 1291.37 L3584.91 1291.74 L3600.01 1291.99 L3614.99 1292.36 L3630.08 1292.61 L3645.18 1292.86 L3660.15 1293.23 L3675.25 1293.48 L3690.35 1293.85 L3705.32 1294.09 L3720.42 1294.34 L3735.39 1294.71 L3750.49 1294.96 L3765.59 1295.21 L3780.56 1295.58 L3795.66 1295.83" stroke-linejoin="round" style="fill:none;stroke:#FF0000;stroke-width:8.64"/>
	<line x1="556.38" y1="2489.19" x2="556.38" y2="100.86" style="stroke:#000000;stroke-width:5.76"/>
	<line x1="556.38" y1="2425.82" x2="516.41" y2="2425.82" style="stroke:#000000;stroke-width:5.76"/>
	<text x="496.49" y="2460.85" style="font-family:'Helvetica';font-size:99.99px;fill:#000000" text-anchor="end">-0.20</text>
	<line x1="556.38" y1="1973.50" x2="516.41" y2="1973.50" style="stroke:#000000;stroke-width:5.76"/>
	<text x="496.49" y="2008.53" style="font-family:'Helvetica';font-size:99.99px;fill:#000000" text-anchor="end">-0.15</text>
	<line x1="556.38" y1="1521.18" x2="516.41" y2="1521.18" style="stroke:#000000;stroke-width:5.76"/>
	<text x="496.49" y="1556.21" style="font-family:'Helvetica';font-size:99.99px;fill:#000000" text-anchor="end">-0.10</text>
	<line x1="556.38" y1="1068.86" x2="516.41" y2="1068.86" style="stroke:#000000;stroke-width:5.76"/>
	<text x="496.49" y="1103.89" style="font-family:'Helvetica';font-size:99.99px;fill:#000000" text-anchor="end">-0.05</text>
	<line x1="556.38" y1="616.54" x2="516.41" y2="616.54" style="stroke:#000000;stroke-width:5.76"/>
	<text x="496.49" y="651.57" style="font-family:'Helvetica';font-size:99.99px;fill:#000000" text-anchor="end">0.00</text>
	<line x1="556.38" y1="164.22" x2="516.41" y2="164.22" style="stroke:#000000;stroke-width:5.76"/>
	<text x="496.49" y="199.25" style="font-family:'Helvetica';font-size:99.99px;fill:#000000" text-anchor="end">0.05</text>
	<text x="190.71" y="1294.96" style="font-family:'Helvetica';font-size:99.99px;fill:#000000" transform="rotate(-90 190.71,1294.96)" text-anchor="middle">Difference in curves (%)</text>
	<line x1="556.38" y1="2489.19" x2="3859.02" y2="2489.19" style="stroke:#000000;stroke-width:5.76"/>
	<line x1="619.74" y1="2489.19" x2="619.74" y2="2529.16" style="stroke:#000000;stroke-width:5.76"/>
	<text x="619.74" y="2619.14" style="font-family:'Helvetica';font-size:99.99px;fill:#000000" text-anchor="middle">0</text>
	<line x1="1372.39" y1="2489.19" x2="1372.39" y2="2529.16" style="stroke:#000000;stroke-width:5.76"/>
	<text x="1372.39" y="2619.14" style="font-family:'Helvetica';font-size:99.99px;fill:#000000" text-anchor="middle">50</text>
	<line x1="2124.91" y1="2489.19" x2="2124.91" y2="2529.16" style="stroke:#000000;stroke-width:5.76"/>
	<text x="2124.91" y="2619.14" style="font-family:'Helvetica';font-size:99.99px;fill:#000000" text-anchor="middle">100</text>
	<line x1="2877.56" y1="2489.19" x2="2877.56" y2="2529.16" style="stroke:#000000;stroke-width:5.76"/>
	<text x="2877.56" y="2619.14" style="font-family:'Helvetica';font-size:99.99px;fill:#000000" text-anchor="middle">150</text>
	<line x1="3630.21" y1="2489.19" x2="3630.21" y2="2529.16" style="stroke:#000000;stroke-width:5.76"/>
	<text x="3630.21" y="2619.14" style="font-family:'Helvetica';font-size:99.99px;fill:#000000" text-anchor="middle">200</text>
	<text x="2207.70" y="2729.16" style="font-family:'Helvetica';font-size:99.99px;fill:#000000" text-anchor="middle">Days from 1 March 2020</text>
</svg>
