<?xml version="1.0" encoding="UTF-8" standalone="no"?>
<!-- This is a Stata 16.1 generated SVG file (http://www.stata.com) -->

<svg version="1.1" width="5.50in" height="4.00in" viewBox="0 0 3960 2880" xmlns="http://www.w3.org/2000/svg" xmlns:xlink="http://www.w3.org/1999/xlink">
	<desc>Stata Graph - Graph</desc>
	<rect x="0" y="0" width="3960" height="2880" style="fill:#EAF2F3;stroke:none"/>
	<rect x="0.00" y="0.00" width="3959.88" height="2880.00" style="fill:#EAF2F3"/>
	<rect x="2.88" y="2.88" width="3954.12" height="2874.24" style="fill:none;stroke:#EAF2F3;stroke-width:5.76"/>
	<rect x="556.38" y="100.86" width="3302.64" height="2388.33" style="fill:#FFFFFF"/>
	<rect x="559.26" y="103.74" width="3296.88" height="2382.57" style="fill:none;stroke:#FFFFFF;stroke-width:5.76"/>
	<line x1="556.38" y1="1731.07" x2="3859.02" y2="1731.07" style="stroke:#EAF2F3;stroke-width:8.64"/>
	<line x1="556.38" y1="1036.44" x2="3859.02" y2="1036.44" style="stroke:#EAF2F3;stroke-width:8.64"/>
	<line x1="556.38" y1="341.68" x2="3859.02" y2="341.68" style="stroke:#EAF2F3;stroke-width:8.64"/>
	<defs>
		<path id="path_axdseUkW" d="M619.74 341.68 L619.74 341.68 L634.84 341.68 L649.93 341.68 L664.91 341.68 L680.01 341.81 L694.98 341.93 L710.08 342.18 L725.17 342.43 L740.15 342.80 L755.25 343.29 L770.34 343.79 L785.32 344.41 L800.41 345.15 L815.51 346.02 L830.49 347.01 L845.58 348.12 L860.56 349.36 L875.65 350.59 L890.75 352.08 L905.73 353.69 L920.82 355.42 L935.92 357.28 L950.89 359.26 L965.99 361.36 L980.97 363.59 L996.06 365.94 L1011.16 368.42 L1026.13 371.14 L1041.23 373.86 L1056.33 376.83 L1071.30 379.92 L1086.40 383.14 L1101.50 386.36 L1116.47 389.82 L1131.57 393.54 L1146.54 397.25 L1161.64 401.09 L1176.74 405.05 L1191.71 409.25 L1206.81 413.46 L1221.91 417.92 L1236.88 422.37 L1251.98 427.07 L1266.95 431.90 L1282.05 436.85 L1297.15 441.80 L1312.12 447.00 L1327.22 452.32 L1342.32 457.77 L1357.29 463.21 L1372.39 468.90 L1387.48 474.72 L1402.46 480.54 L1417.56 486.60 L1432.53 492.66 L1447.63 498.98 L1462.72 505.29 L1477.70 511.72 L1492.80 518.28 L1507.89 524.96 L1522.87 531.77 L1537.96 538.70 L1552.94 545.75 L1568.04 552.81 L1583.13 559.99 L1598.11 567.29 L1613.20 574.71 L1628.30 582.26 L1643.28 589.81 L1658.37 597.48 L1673.47 605.28 L1688.44 613.20 L1703.54 621.12 L1718.52 629.16 L1733.61 637.33 L1748.71 645.50 L1763.68 653.92 L1778.78 662.21 L1793.88 670.75 L1808.85 679.28 L1823.95 687.95 L1838.92 696.61 L1854.02 705.40 L1869.12 714.31 L1884.09 723.22 L1899.19 732.25 L1914.29 741.29 L1929.26 750.44 L1944.36 759.72 L1959.46 769.01 L1974.43 778.29 L1989.53 787.69 L2004.50 797.22 L2019.60 806.75 L2034.70 816.28 L2049.67 825.93 L2064.77 835.71 L2079.87 845.49 L2094.84 855.26 L2109.94 865.16 L2124.91 875.06 L2140.01 885.09 L2155.11 895.11 L2170.08 905.14 L2185.18 915.28 L2200.28 925.43 L2215.25 935.70 L2230.35 945.97 L2245.32 956.25 L2260.42 966.52 L2275.51 976.91 L2290.49 987.31 L2305.59 997.83 L2320.68 1008.22 L2335.66 1018.74 L2350.76 1029.26 L2365.85 1039.78 L2380.83 1050.42 L2395.92 1061.07 L2410.90 1071.58 L2425.99 1082.23 L2441.09 1092.99 L2456.07 1103.64 L2471.16 1114.28 L2486.26 1125.05 L2501.24 1135.69 L2516.33 1146.46 L2531.31 1157.22 L2546.40 1167.99 L2561.50 1178.63 L2576.47 1189.40 L2591.57 1200.17 L2606.67 1210.93 L2621.64 1221.70 L2636.74 1232.46 L2651.84 1243.23 L2666.81 1254.00 L2681.91 1264.76 L2696.88 1275.53 L2711.98 1286.17 L2727.08 1296.94 L2742.05 1307.71 L2757.15 1318.35 L2772.25 1329.12 L2787.22 1339.76 L2802.32 1350.40 L2817.29 1361.05 L2832.39 1371.69 L2847.49 1382.33 L2862.46 1392.85 L2877.56 1403.49 L2892.66 1414.01 L2907.63 1424.53 L2922.73 1435.05 L2937.82 1445.57 L2952.80 1456.09 L2967.90 1466.48 L2982.87 1476.88 L2997.97 1487.27 L3013.07 1497.67 L3028.04 1507.94 L3043.14 1518.21 L3058.23 1528.48 L3073.21 1538.76 L3088.30 1548.90 L3103.28 1559.17 L3118.38 1569.32 L3133.47 1579.47 L3148.45 1589.49 L3163.55 1599.64 L3178.64 1609.67 L3193.62 1619.69 L3208.71 1629.71 L3223.81 1639.61 L3238.78 1649.64 L3253.88 1659.54 L3268.86 1669.44 L3283.95 1679.34 L3299.05 1689.24 L3314.03 1699.02 L3329.12 1708.92 L3344.22 1718.69 L3359.19 1728.47 L3374.29 1738.25 L3389.26 1748.02 L3404.36 1757.68 L3419.46 1767.45 L3434.43 1777.11 L3449.53 1786.76 L3464.63 1796.53 L3479.60 1806.06 L3494.70 1815.72 L3509.80 1825.37 L3524.77 1834.90 L3539.87 1844.55 L3554.84 1854.08 L3569.94 1863.61 L3585.04 1873.26 L3600.01 1882.79 L3615.11 1892.20 L3630.21 1901.73 L3645.18 1911.25 L3660.28 1920.78 L3675.25 1930.19 L3690.35 1939.72 L3705.45 1949.12 L3720.42 1958.53 L3735.52 1967.93 L3750.61 1977.34 L3765.59 1986.87 L3780.69 1996.27 L3795.66 2005.56 L3795.66 164.22 L3780.69 165.21 L3765.59 166.20 L3750.61 167.19 L3735.52 168.18 L3720.42 169.17 L3705.45 170.16 L3690.35 171.15 L3675.25 172.14 L3660.28 173.13 L3645.18 174.12 L3630.21 175.11 L3615.11 176.10 L3600.01 177.09 L3585.04 178.21 L3569.94 179.20 L3554.84 180.19 L3539.87 181.18 L3524.77 182.17 L3509.80 183.28 L3494.70 184.27 L3479.60 185.26 L3464.63 186.25 L3449.53 187.36 L3434.43 188.35 L3419.46 189.34 L3404.36 190.33 L3389.26 191.45 L3374.29 192.44 L3359.19 193.43 L3344.22 194.54 L3329.12 195.53 L3314.03 196.64 L3299.05 197.63 L3283.95 198.75 L3268.86 199.74 L3253.88 200.85 L3238.78 201.84 L3223.81 202.96 L3208.71 203.95 L3193.62 205.06 L3178.64 206.05 L3163.55 207.16 L3148.45 208.28 L3133.47 209.27 L3118.38 210.38 L3103.28 211.50 L3088.30 212.49 L3073.21 213.60 L3058.23 214.71 L3043.14 215.83 L3028.04 216.94 L3013.07 217.93 L2997.97 219.04 L2982.87 220.16 L2967.90 221.27 L2952.80 222.39 L2937.82 223.50 L2922.73 224.61 L2907.63 225.73 L2892.66 226.84 L2877.56 227.95 L2862.46 229.07 L2847.49 230.31 L2832.39 231.42 L2817.29 232.53 L2802.32 233.65 L2787.22 234.76 L2772.25 235.87 L2757.15 237.11 L2742.05 238.23 L2727.08 239.34 L2711.98 240.45 L2696.88 241.69 L2681.91 242.81 L2666.81 243.92 L2651.84 245.03 L2636.74 246.27 L2621.64 247.38 L2606.67 248.50 L2591.57 249.61 L2576.47 250.85 L2561.50 251.96 L2546.40 253.08 L2531.31 254.19 L2516.33 255.43 L2501.24 256.54 L2486.26 257.66 L2471.16 258.77 L2456.07 260.01 L2441.09 261.12 L2425.99 262.23 L2410.90 263.35 L2395.92 264.46 L2380.83 265.70 L2365.85 266.81 L2350.76 267.93 L2335.66 269.04 L2320.68 270.15 L2305.59 271.27 L2290.49 272.38 L2275.51 273.50 L2260.42 274.61 L2245.32 275.72 L2230.35 276.84 L2215.25 277.95 L2200.28 279.06 L2185.18 280.06 L2170.08 281.17 L2155.11 282.28 L2140.01 283.27 L2124.91 284.39 L2109.94 285.50 L2094.84 286.49 L2079.87 287.60 L2064.77 288.59 L2049.67 289.71 L2034.70 290.70 L2019.60 291.69 L2004.50 292.68 L1989.53 293.79 L1974.43 294.78 L1959.46 295.77 L1944.36 296.76 L1929.26 297.75 L1914.29 298.74 L1899.19 299.73 L1884.09 300.60 L1869.12 301.59 L1854.02 302.58 L1838.92 303.44 L1823.95 304.43 L1808.85 305.30 L1793.88 306.29 L1778.78 307.16 L1763.68 308.15 L1748.71 309.01 L1733.61 309.88 L1718.52 310.75 L1703.54 311.61 L1688.44 312.48 L1673.47 313.34 L1658.37 314.09 L1643.28 314.95 L1628.30 315.82 L1613.20 316.56 L1598.11 317.43 L1583.13 318.17 L1568.04 318.91 L1552.94 319.66 L1537.96 320.40 L1522.87 321.14 L1507.89 321.88 L1492.80 322.63 L1477.70 323.37 L1462.72 323.99 L1447.63 324.73 L1432.53 325.35 L1417.56 326.09 L1402.46 326.71 L1387.48 327.33 L1372.39 327.95 L1357.29 328.57 L1342.32 329.19 L1327.22 329.68 L1312.12 330.30 L1297.15 330.79 L1282.05 331.41 L1266.95 331.91 L1251.98 332.40 L1236.88 332.90 L1221.91 333.39 L1206.81 333.89 L1191.71 334.38 L1176.74 334.75 L1161.64 335.25 L1146.54 335.62 L1131.57 335.99 L1116.47 336.36 L1101.50 336.73 L1086.40 337.11 L1071.30 337.48 L1056.33 337.85 L1041.23 338.10 L1026.13 338.47 L1011.16 338.71 L996.06 338.96 L980.97 339.21 L965.99 339.46 L950.89 339.70 L935.92 339.95 L920.82 340.08 L905.73 340.32 L890.75 340.45 L875.65 340.69 L860.56 340.82 L845.58 340.94 L830.49 341.07 L815.51 341.19 L800.41 341.19 L785.32 341.31 L770.34 341.44 L755.25 341.44 L740.15 341.56 L725.17 341.56 L710.08 341.56 L694.98 341.68 L680.01 341.68 L664.91 341.68 L649.93 341.68 L634.84 341.68 L619.74 341.68 L619.74 341.68 Z" stroke-linejoin="round"/>
	</defs>
	<defs>
		<clipPath id="clipPath_nUtmWPsw">
			<use xlink:href="#path_axdseUkW"/>
		</clipPath>
	</defs>
	<use xlink:href="#path_axdseUkW" style="stroke:none;fill:#FF3333;fill-opacity:0.25"/>
	<use xlink:href="#path_axdseUkW" style="fill:none;stroke:#FF0000;stroke-opacity:0.25;stroke-width:17.28" clip-path="url(#clipPath_nUtmWPsw)"/>
	<path d=" M619.74 341.68 L634.71 341.68 L649.81 341.68 L664.91 341.81 L679.88 341.81 L694.98 341.81 L710.08 341.93 L725.05 342.06 L740.15 342.18 L755.25 342.43 L770.22 342.67 L785.32 342.92 L800.29 343.29 L815.39 343.66 L830.49 344.04 L845.46 344.53 L860.56 345.15 L875.65 345.77 L890.63 346.39 L905.73 347.01 L920.70 347.87 L935.80 348.61 L950.89 349.48 L965.87 350.47 L980.97 351.46 L996.06 352.57 L1011.04 353.69 L1026.13 354.80 L1041.23 356.04 L1056.21 357.40 L1071.30 358.76 L1086.28 360.12 L1101.38 361.61 L1116.47 363.22 L1131.45 364.83 L1146.54 366.44 L1161.64 368.17 L1176.62 370.02 L1191.71 371.88 L1206.69 373.74 L1221.78 375.72 L1236.88 377.70 L1251.86 379.80 L1266.95 381.90 L1282.05 384.13 L1297.02 386.36 L1312.12 388.71 L1327.22 391.06 L1342.19 393.54 L1357.29 396.01 L1372.26 398.49 L1387.36 401.09 L1402.46 403.69 L1417.43 406.41 L1432.53 409.13 L1447.63 411.85 L1462.60 414.70 L1477.70 417.67 L1492.67 420.52 L1507.77 423.49 L1522.87 426.58 L1537.84 429.67 L1552.94 432.77 L1568.04 435.98 L1583.01 439.20 L1598.11 442.42 L1613.08 445.76 L1628.18 449.10 L1643.28 452.44 L1658.25 455.91 L1673.35 459.37 L1688.44 462.84 L1703.42 466.43 L1718.52 470.02 L1733.61 473.61 L1748.59 477.32 L1763.68 481.03 L1778.66 484.74 L1793.76 488.58 L1808.85 492.42 L1823.83 496.25 L1838.92 500.09 L1854.02 504.05 L1869.00 508.01 L1884.09 511.97 L1899.07 516.05 L1914.16 520.01 L1929.26 524.10 L1944.24 528.31 L1959.33 532.39 L1974.43 536.60 L1989.40 540.80 L2004.50 545.01 L2019.60 549.22 L2034.57 553.55 L2049.67 557.88 L2064.64 562.21 L2079.74 566.55 L2094.84 571.00 L2109.81 575.33 L2124.91 579.79 L2140.01 584.24 L2154.98 588.70 L2170.08 593.28 L2185.05 597.73 L2200.15 602.31 L2215.25 606.89 L2230.22 611.47 L2245.32 616.05 L2260.42 620.63 L2275.39 625.33 L2290.49 629.91 L2305.59 634.61 L2320.56 639.31 L2335.66 644.02 L2350.63 648.72 L2365.73 653.42 L2380.83 658.12 L2395.80 662.83 L2410.90 667.53 L2425.99 672.35 L2440.97 677.06 L2456.07 681.88 L2471.04 686.59 L2486.14 691.41 L2501.24 696.24 L2516.21 700.94 L2531.31 705.77 L2546.40 710.59 L2561.38 715.42 L2576.47 720.25 L2591.57 724.95 L2606.55 729.78 L2621.64 734.60 L2636.62 739.43 L2651.72 744.26 L2666.81 749.08 L2681.79 753.78 L2696.88 758.61 L2711.98 763.44 L2726.95 768.26 L2742.05 772.97 L2757.03 777.79 L2772.12 782.62 L2787.22 787.32 L2802.20 792.15 L2817.29 796.85 L2832.39 801.55 L2847.36 806.38 L2862.46 811.08 L2877.56 815.79 L2892.53 820.49 L2907.63 825.19 L2922.60 829.89 L2937.70 834.60 L2952.80 839.30 L2967.77 844.00 L2982.87 848.58 L2997.97 853.28 L3012.94 857.86 L3028.04 862.44 L3043.01 867.02 L3058.11 871.72 L3073.21 876.18 L3088.18 880.76 L3103.28 885.34 L3118.38 889.91 L3133.35 894.37 L3148.45 898.95 L3163.42 903.40 L3178.52 907.98 L3193.62 912.44 L3208.59 916.89 L3223.69 921.35 L3238.78 925.80 L3253.76 930.26 L3268.86 934.71 L3283.95 939.04 L3298.93 943.50 L3314.03 947.95 L3329.00 952.29 L3344.10 956.62 L3359.19 961.07 L3374.17 965.40 L3389.26 969.74 L3404.36 974.07 L3419.34 978.52 L3434.43 982.85 L3449.41 987.06 L3464.51 991.39 L3479.60 995.72 L3494.58 1000.06 L3509.67 1004.39 L3524.77 1008.59 L3539.74 1012.93 L3554.84 1017.26 L3569.94 1021.46 L3584.91 1025.80 L3600.01 1030.00 L3614.99 1034.21 L3630.08 1038.54 L3645.18 1042.75 L3660.15 1046.96 L3675.25 1051.29 L3690.35 1055.50 L3705.32 1059.70 L3720.42 1063.91 L3735.39 1068.12 L3750.49 1072.33 L3765.59 1076.53 L3780.56 1080.74 L3795.66 1084.95" stroke-linejoin="round" style="fill:none;stroke:#FF0000;stroke-width:8.64"/>
	<line x1="556.38" y1="2489.19" x2="556.38" y2="100.86" style="stroke:#000000;stroke-width:5.76"/>
	<line x1="556.38" y1="2425.82" x2="516.41" y2="2425.82" style="stroke:#000000;stroke-width:5.76"/>
	<text x="496.49" y="2460.85" style="font-family:'Helvetica';font-size:99.99px;fill:#000000" text-anchor="end">-1.50</text>
	<line x1="556.38" y1="1731.07" x2="516.41" y2="1731.07" style="stroke:#000000;stroke-width:5.76"/>
	<text x="496.49" y="1766.10" style="font-family:'Helvetica';font-size:99.99px;fill:#000000" text-anchor="end">-1.00</text>
	<line x1="556.38" y1="1036.44" x2="516.41" y2="1036.44" style="stroke:#000000;stroke-width:5.76"/>
	<text x="496.49" y="1071.47" style="font-family:'Helvetica';font-size:99.99px;fill:#000000" text-anchor="end">-0.50</text>
	<line x1="556.38" y1="341.68" x2="516.41" y2="341.68" style="stroke:#000000;stroke-width:5.76"/>
	<text x="496.49" y="376.71" style="font-family:'Helvetica';font-size:99.99px;fill:#000000" text-anchor="end">0.00</text>
	<text x="190.71" y="1294.96" style="font-family:'Helvetica';font-size:99.99px;fill:#000000" transform="rotate(-90 190.71,1294.96)" text-anchor="middle">Difference in curves (%)</text>
	<line x1="556.38" y1="2489.19" x2="3859.02" y2="2489.19" style="stroke:#000000;stroke-width:5.76"/>
	<line x1="619.74" y1="2489.19" x2="619.74" y2="2529.16" style="stroke:#000000;stroke-width:5.76"/>
	<text x="619.74" y="2619.14" style="font-family:'Helvetica';font-size:99.99px;fill:#000000" text-anchor="middle">0</text>
	<line x1="1372.39" y1="2489.19" x2="1372.39" y2="2529.16" style="stroke:#000000;stroke-width:5.76"/>
	<text x="1372.39" y="2619.14" style="font-family:'Helvetica';font-size:99.99px;fill:#000000" text-anchor="middle">50</text>
	<line x1="2124.91" y1="2489.19" x2="2124.91" y2="2529.16" style="stroke:#000000;stroke-width:5.76"/>
	<text x="2124.91" y="2619.14" style="font-family:'Helvetica';font-size:99.99px;fill:#000000" text-anchor="middle">100</text>
	<line x1="2877.56" y1="2489.19" x2="2877.56" y2="2529.16" style="stroke:#000000;stroke-width:5.76"/>
	<text x="2877.56" y="2619.14" style="font-family:'Helvetica';font-size:99.99px;fill:#000000" text-anchor="middle">150</text>
	<line x1="3630.21" y1="2489.19" x2="3630.21" y2="2529.16" style="stroke:#000000;stroke-width:5.76"/>
	<text x="3630.21" y="2619.14" style="font-family:'Helvetica';font-size:99.99px;fill:#000000" text-anchor="middle">200</text>
	<text x="2207.70" y="2729.16" style="font-family:'Helvetica';font-size:99.99px;fill:#000000" text-anchor="middle">Days from 1 March 2020</text>
</svg>
