<?xml version="1.0" encoding="UTF-8" standalone="no"?>
<!-- This is a Stata 16.1 generated SVG file (http://www.stata.com) -->

<svg version="1.1" width="5.50in" height="4.00in" viewBox="0 0 3960 2880" xmlns="http://www.w3.org/2000/svg" xmlns:xlink="http://www.w3.org/1999/xlink">
	<desc>Stata Graph - Graph</desc>
	<rect x="0" y="0" width="3960" height="2880" style="fill:#EAF2F3;stroke:none"/>
	<rect x="0.00" y="0.00" width="3959.88" height="2880.00" style="fill:#EAF2F3"/>
	<rect x="2.88" y="2.88" width="3954.12" height="2874.24" style="fill:none;stroke:#EAF2F3;stroke-width:5.76"/>
	<rect x="556.38" y="100.86" width="3302.64" height="2388.33" style="fill:#FFFFFF"/>
	<rect x="559.26" y="103.74" width="3296.88" height="2382.57" style="fill:none;stroke:#FFFFFF;stroke-width:5.76"/>
	<line x1="556.38" y1="2425.82" x2="3859.02" y2="2425.82" style="stroke:#EAF2F3;stroke-width:8.64"/>
	<line x1="556.38" y1="1860.52" x2="3859.02" y2="1860.52" style="stroke:#EAF2F3;stroke-width:8.64"/>
	<line x1="556.38" y1="1295.08" x2="3859.02" y2="1295.08" style="stroke:#EAF2F3;stroke-width:8.64"/>
	<line x1="556.38" y1="729.78" x2="3859.02" y2="729.78" style="stroke:#EAF2F3;stroke-width:8.64"/>
	<line x1="556.38" y1="164.47" x2="3859.02" y2="164.47" style="stroke:#EAF2F3;stroke-width:8.64"/>
	<defs>
		<path id="path_axdseUkW" d="M619.74 164.47 L619.74 164.47 L634.84 164.47 L649.93 164.47 L664.91 164.47 L680.01 164.47 L694.98 164.59 L710.08 164.84 L725.17 165.34 L740.15 166.08 L755.25 167.19 L770.34 168.80 L785.32 171.03 L800.41 174.12 L815.51 178.08 L830.49 183.28 L845.58 189.84 L860.56 197.88 L875.65 207.54 L890.75 219.04 L905.73 232.41 L920.82 247.76 L935.92 265.08 L950.89 284.63 L965.99 306.17 L980.97 329.80 L996.06 355.42 L1011.16 383.02 L1026.13 412.35 L1041.23 443.41 L1056.33 475.96 L1071.30 509.74 L1086.40 544.64 L1101.50 580.53 L1116.47 617.04 L1131.57 653.92 L1146.54 691.17 L1161.64 728.29 L1176.74 765.29 L1191.71 801.93 L1206.81 837.81 L1221.91 873.08 L1236.88 907.36 L1251.98 940.65 L1266.95 973.08 L1282.05 1004.39 L1297.15 1034.71 L1312.12 1063.91 L1327.22 1092.13 L1342.32 1119.23 L1357.29 1145.47 L1372.39 1170.59 L1387.48 1194.72 L1402.46 1217.99 L1417.56 1240.26 L1432.53 1261.67 L1447.63 1282.21 L1462.72 1301.89 L1477.70 1320.95 L1492.80 1339.14 L1507.89 1356.59 L1522.87 1373.42 L1537.96 1389.76 L1552.94 1405.35 L1568.04 1420.45 L1583.13 1434.93 L1598.11 1449.03 L1613.20 1462.52 L1628.30 1475.76 L1643.28 1488.51 L1658.37 1500.89 L1673.47 1513.01 L1688.44 1524.65 L1703.54 1536.16 L1718.52 1547.29 L1733.61 1558.31 L1748.71 1569.08 L1763.68 1579.59 L1778.78 1589.87 L1793.88 1600.14 L1808.85 1610.16 L1823.95 1620.06 L1838.92 1629.84 L1854.02 1639.37 L1869.12 1648.90 L1884.09 1658.18 L1899.19 1667.46 L1914.29 1676.49 L1929.26 1685.40 L1944.36 1694.31 L1959.46 1702.98 L1974.43 1711.64 L1989.53 1720.06 L2004.50 1728.47 L2019.60 1736.76 L2034.70 1744.93 L2049.67 1752.97 L2064.77 1760.89 L2079.87 1768.81 L2094.84 1776.49 L2109.94 1784.16 L2124.91 1791.71 L2140.01 1799.26 L2155.11 1806.68 L2170.08 1813.98 L2185.18 1821.16 L2200.28 1828.34 L2215.25 1835.39 L2230.35 1842.45 L2245.32 1849.25 L2260.42 1856.18 L2275.51 1862.87 L2290.49 1869.55 L2305.59 1876.23 L2320.68 1882.79 L2335.66 1889.23 L2350.76 1895.66 L2365.85 1902.10 L2380.83 1908.41 L2395.92 1914.60 L2410.90 1920.78 L2425.99 1926.85 L2441.09 1932.91 L2456.07 1938.98 L2471.16 1944.92 L2486.26 1950.73 L2501.24 1956.55 L2516.33 1962.37 L2531.31 1968.18 L2546.40 1973.87 L2561.50 1979.44 L2576.47 1985.01 L2591.57 1990.58 L2606.67 1996.15 L2621.64 2001.60 L2636.74 2006.92 L2651.84 2012.36 L2666.81 2017.68 L2681.91 2022.88 L2696.88 2028.20 L2711.98 2033.40 L2727.08 2038.47 L2742.05 2043.67 L2757.15 2048.75 L2772.25 2053.82 L2787.22 2058.77 L2802.32 2063.72 L2817.29 2068.67 L2832.39 2073.62 L2847.49 2078.45 L2862.46 2083.40 L2877.56 2088.10 L2892.66 2092.93 L2907.63 2097.63 L2922.73 2102.33 L2937.82 2107.03 L2952.80 2111.74 L2967.90 2116.31 L2982.87 2121.02 L2997.97 2125.47 L3013.07 2130.05 L3028.04 2134.63 L3043.14 2139.09 L3058.23 2143.54 L3073.21 2148.00 L3088.30 2152.45 L3103.28 2156.78 L3118.38 2161.11 L3133.47 2165.57 L3148.45 2169.78 L3163.55 2174.11 L3178.64 2178.44 L3193.62 2182.65 L3208.71 2186.85 L3223.81 2191.06 L3238.78 2195.27 L3253.88 2199.48 L3268.86 2203.56 L3283.95 2207.77 L3299.05 2211.85 L3314.03 2215.94 L3329.12 2220.02 L3344.22 2224.10 L3359.19 2228.06 L3374.29 2232.15 L3389.26 2236.11 L3404.36 2240.07 L3419.46 2244.03 L3434.43 2247.99 L3449.53 2251.95 L3464.63 2255.91 L3479.60 2259.75 L3494.70 2263.71 L3509.80 2267.54 L3524.77 2271.38 L3539.87 2275.21 L3554.84 2279.05 L3569.94 2282.89 L3585.04 2286.60 L3600.01 2290.44 L3615.11 2294.15 L3630.21 2297.99 L3645.18 2301.70 L3660.28 2305.41 L3675.25 2309.12 L3690.35 2312.84 L3705.45 2316.55 L3720.42 2320.26 L3735.52 2323.85 L3750.61 2327.56 L3765.59 2331.15 L3780.69 2334.86 L3795.66 2338.45 L3795.66 501.70 L3780.69 501.08 L3765.59 500.58 L3750.61 499.97 L3735.52 499.35 L3720.42 498.85 L3705.45 498.23 L3690.35 497.61 L3675.25 497.12 L3660.28 496.50 L3645.18 495.88 L3630.21 495.39 L3615.11 494.77 L3600.01 494.15 L3585.04 493.53 L3569.94 493.04 L3554.84 492.42 L3539.87 491.80 L3524.77 491.18 L3509.80 490.56 L3494.70 489.94 L3479.60 489.45 L3464.63 488.83 L3449.53 488.21 L3434.43 487.59 L3419.46 486.97 L3404.36 486.35 L3389.26 485.73 L3374.29 484.99 L3359.19 484.37 L3344.22 483.75 L3329.12 483.14 L3314.03 482.52 L3299.05 481.90 L3283.95 481.28 L3268.86 480.54 L3253.88 479.92 L3238.78 479.30 L3223.81 478.56 L3208.71 477.94 L3193.62 477.32 L3178.64 476.58 L3163.55 475.96 L3148.45 475.21 L3133.47 474.60 L3118.38 473.85 L3103.28 473.23 L3088.30 472.49 L3073.21 471.75 L3058.23 471.13 L3043.14 470.39 L3028.04 469.65 L3013.07 468.90 L2997.97 468.28 L2982.87 467.54 L2967.90 466.80 L2952.80 466.06 L2937.82 465.31 L2922.73 464.57 L2907.63 463.83 L2892.66 463.09 L2877.56 462.34 L2862.46 461.48 L2847.49 460.74 L2832.39 459.99 L2817.29 459.25 L2802.32 458.38 L2787.22 457.64 L2772.25 456.78 L2757.15 456.03 L2742.05 455.17 L2727.08 454.42 L2711.98 453.56 L2696.88 452.82 L2681.91 451.95 L2666.81 451.08 L2651.84 450.22 L2636.74 449.35 L2621.64 448.48 L2606.67 447.62 L2591.57 446.75 L2576.47 445.89 L2561.50 445.02 L2546.40 444.15 L2531.31 443.16 L2516.33 442.30 L2501.24 441.43 L2486.26 440.44 L2471.16 439.45 L2456.07 438.58 L2441.09 437.59 L2425.99 436.60 L2410.90 435.61 L2395.92 434.75 L2380.83 433.63 L2365.85 432.64 L2350.76 431.65 L2335.66 430.66 L2320.68 429.67 L2305.59 428.56 L2290.49 427.57 L2275.51 426.46 L2260.42 425.34 L2245.32 424.35 L2230.35 423.24 L2215.25 422.12 L2200.28 421.01 L2185.18 419.90 L2170.08 418.66 L2155.11 417.55 L2140.01 416.43 L2124.91 415.19 L2109.94 413.96 L2094.84 412.84 L2079.87 411.61 L2064.77 410.37 L2049.67 409.01 L2034.70 407.77 L2019.60 406.53 L2004.50 405.17 L1989.53 403.81 L1974.43 402.57 L1959.46 401.21 L1944.36 399.72 L1929.26 398.36 L1914.29 397.00 L1899.19 395.52 L1884.09 394.03 L1869.12 392.55 L1854.02 391.06 L1838.92 389.58 L1823.95 388.09 L1808.85 386.48 L1793.88 384.87 L1778.78 383.27 L1763.68 381.66 L1748.71 379.92 L1733.61 378.32 L1718.52 376.58 L1703.54 374.73 L1688.44 372.99 L1673.47 371.01 L1658.37 369.16 L1643.28 367.18 L1628.30 365.20 L1613.20 363.09 L1598.11 360.87 L1583.13 358.64 L1568.04 356.29 L1552.94 353.94 L1537.96 351.46 L1522.87 348.86 L1507.89 346.14 L1492.80 343.42 L1477.70 340.57 L1462.72 337.48 L1447.63 334.38 L1432.53 331.17 L1417.56 327.82 L1402.46 324.24 L1387.48 320.65 L1372.39 316.81 L1357.29 312.85 L1342.32 308.77 L1327.22 304.56 L1312.12 300.10 L1297.15 295.52 L1282.05 290.82 L1266.95 285.87 L1251.98 280.92 L1236.88 275.72 L1221.91 270.40 L1206.81 264.96 L1191.71 259.26 L1176.74 253.57 L1161.64 247.88 L1146.54 242.06 L1131.57 236.25 L1116.47 230.43 L1101.50 224.74 L1086.40 219.04 L1071.30 213.48 L1056.33 208.15 L1041.23 203.08 L1026.13 198.13 L1011.16 193.55 L996.06 189.22 L980.97 185.26 L965.99 181.55 L950.89 178.33 L935.92 175.36 L920.82 172.88 L905.73 170.66 L890.75 168.92 L875.65 167.44 L860.56 166.33 L845.58 165.46 L830.49 164.96 L815.51 164.59 L800.41 164.35 L785.32 164.22 L770.34 164.22 L755.25 164.22 L740.15 164.22 L725.17 164.22 L710.08 164.35 L694.98 164.35 L680.01 164.35 L664.91 164.47 L649.93 164.47 L634.84 164.47 L619.74 164.47 L619.74 164.47 Z" stroke-linejoin="round"/>
	</defs>
	<defs>
		<clipPath id="clipPath_nUtmWPsw">
			<use xlink:href="#path_axdseUkW"/>
		</clipPath>
	</defs>
	<use xlink:href="#path_axdseUkW" style="stroke:none;fill:#FF3333;fill-opacity:0.25"/>
	<use xlink:href="#path_axdseUkW" style="fill:none;stroke:#FF0000;stroke-opacity:0.25;stroke-width:17.28" clip-path="url(#clipPath_nUtmWPsw)"/>
	<path d=" M619.74 164.47 L634.71 164.47 L649.81 164.47 L664.91 164.47 L679.88 164.47 L694.98 164.59 L710.08 164.72 L725.05 164.84 L740.15 165.21 L755.25 165.71 L770.22 166.57 L785.32 167.69 L800.29 169.30 L815.39 171.40 L830.49 174.25 L845.46 177.71 L860.56 182.17 L875.65 187.61 L890.63 194.05 L905.73 201.60 L920.70 210.38 L935.80 220.28 L950.89 231.54 L965.87 243.92 L980.97 257.53 L996.06 272.38 L1011.04 288.35 L1026.13 305.30 L1041.23 323.25 L1056.21 342.18 L1071.30 361.73 L1086.28 381.90 L1101.38 402.70 L1116.47 423.73 L1131.45 445.14 L1146.54 466.68 L1161.64 488.21 L1176.62 509.49 L1191.71 530.66 L1206.69 551.45 L1221.78 571.74 L1236.88 591.54 L1251.86 610.85 L1266.95 629.54 L1282.05 647.60 L1297.02 665.18 L1312.12 682.13 L1327.22 698.34 L1342.19 714.06 L1357.29 729.16 L1372.26 743.76 L1387.36 757.74 L1402.46 771.11 L1417.43 784.10 L1432.53 796.48 L1447.63 808.36 L1462.60 819.75 L1477.70 830.76 L1492.67 841.28 L1507.77 851.43 L1522.87 861.20 L1537.84 870.61 L1552.94 879.64 L1568.04 888.43 L1583.01 896.84 L1598.11 905.01 L1613.08 912.93 L1628.18 920.48 L1643.28 927.91 L1658.25 935.08 L1673.35 942.01 L1688.44 948.82 L1703.42 955.50 L1718.52 961.94 L1733.61 968.37 L1748.59 974.56 L1763.68 980.63 L1778.66 986.69 L1793.76 992.51 L1808.85 998.32 L1823.83 1004.14 L1838.92 1009.71 L1854.02 1015.28 L1869.00 1020.85 L1884.09 1026.17 L1899.07 1031.49 L1914.16 1036.81 L1929.26 1042.01 L1944.24 1047.08 L1959.33 1052.16 L1974.43 1057.11 L1989.40 1062.06 L2004.50 1066.88 L2019.60 1071.71 L2034.57 1076.41 L2049.67 1081.11 L2064.64 1085.69 L2079.74 1090.27 L2094.84 1094.73 L2109.81 1099.18 L2124.91 1103.51 L2140.01 1107.84 L2154.98 1112.18 L2170.08 1116.38 L2185.05 1120.59 L2200.15 1124.68 L2215.25 1128.88 L2230.22 1132.84 L2245.32 1136.93 L2260.42 1140.89 L2275.39 1144.72 L2290.49 1148.68 L2305.59 1152.52 L2320.56 1156.23 L2335.66 1160.07 L2350.63 1163.78 L2365.73 1167.49 L2380.83 1171.08 L2395.80 1174.67 L2410.90 1178.26 L2425.99 1181.85 L2440.97 1185.31 L2456.07 1188.78 L2471.04 1192.24 L2486.14 1195.71 L2501.24 1199.05 L2516.21 1202.39 L2531.31 1205.73 L2546.40 1209.08 L2561.38 1212.29 L2576.47 1215.51 L2591.57 1218.73 L2606.55 1221.95 L2621.64 1225.04 L2636.62 1228.26 L2651.72 1231.35 L2666.81 1234.44 L2681.79 1237.54 L2696.88 1240.51 L2711.98 1243.48 L2726.95 1246.57 L2742.05 1249.54 L2757.03 1252.39 L2772.12 1255.36 L2787.22 1258.33 L2802.20 1261.18 L2817.29 1264.02 L2832.39 1266.87 L2847.36 1269.71 L2862.46 1272.44 L2877.56 1275.28 L2892.53 1278.01 L2907.63 1280.85 L2922.60 1283.58 L2937.70 1286.30 L2952.80 1288.90 L2967.77 1291.62 L2982.87 1294.34 L2997.97 1296.94 L3012.94 1299.54 L3028.04 1302.14 L3043.01 1304.74 L3058.11 1307.34 L3073.21 1309.93 L3088.18 1312.53 L3103.28 1315.01 L3118.38 1317.61 L3133.35 1320.08 L3148.45 1322.56 L3163.42 1325.03 L3178.52 1327.51 L3193.62 1329.98 L3208.59 1332.46 L3223.69 1334.93 L3238.78 1337.28 L3253.76 1339.76 L3268.86 1342.11 L3283.95 1344.59 L3298.93 1346.94 L3314.03 1349.29 L3329.00 1351.64 L3344.10 1353.99 L3359.19 1356.34 L3374.17 1358.69 L3389.26 1360.92 L3404.36 1363.27 L3419.34 1365.50 L3434.43 1367.85 L3449.41 1370.08 L3464.51 1372.43 L3479.60 1374.66 L3494.58 1376.89 L3509.67 1379.11 L3524.77 1381.34 L3539.74 1383.57 L3554.84 1385.80 L3569.94 1388.02 L3584.91 1390.13 L3600.01 1392.35 L3614.99 1394.58 L3630.08 1396.69 L3645.18 1398.91 L3660.15 1401.02 L3675.25 1403.25 L3690.35 1405.35 L3705.32 1407.45 L3720.42 1409.56 L3735.39 1411.66 L3750.49 1413.76 L3765.59 1415.87 L3780.56 1417.97 L3795.66 1420.08" stroke-linejoin="round" style="fill:none;stroke:#FF0000;stroke-width:8.64"/>
	<line x1="556.38" y1="2489.19" x2="556.38" y2="100.86" style="stroke:#000000;stroke-width:5.76"/>
	<line x1="556.38" y1="2425.82" x2="516.41" y2="2425.82" style="stroke:#000000;stroke-width:5.76"/>
	<text x="496.49" y="2460.85" style="font-family:'Helvetica';font-size:99.99px;fill:#000000" text-anchor="end">-0.40</text>
	<line x1="556.38" y1="1860.52" x2="516.41" y2="1860.52" style="stroke:#000000;stroke-width:5.76"/>
	<text x="496.49" y="1895.54" style="font-family:'Helvetica';font-size:99.99px;fill:#000000" text-anchor="end">-0.30</text>
	<line x1="556.38" y1="1295.08" x2="516.41" y2="1295.08" style="stroke:#000000;stroke-width:5.76"/>
	<text x="496.49" y="1330.11" style="font-family:'Helvetica';font-size:99.99px;fill:#000000" text-anchor="end">-0.20</text>
	<line x1="556.38" y1="729.78" x2="516.41" y2="729.78" style="stroke:#000000;stroke-width:5.76"/>
	<text x="496.49" y="764.81" style="font-family:'Helvetica';font-size:99.99px;fill:#000000" text-anchor="end">-0.10</text>
	<line x1="556.38" y1="164.47" x2="516.41" y2="164.47" style="stroke:#000000;stroke-width:5.76"/>
	<text x="496.49" y="199.50" style="font-family:'Helvetica';font-size:99.99px;fill:#000000" text-anchor="end">0.00</text>
	<text x="190.71" y="1294.96" style="font-family:'Helvetica';font-size:99.99px;fill:#000000" transform="rotate(-90 190.71,1294.96)" text-anchor="middle">Difference in curves (%)</text>
	<line x1="556.38" y1="2489.19" x2="3859.02" y2="2489.19" style="stroke:#000000;stroke-width:5.76"/>
	<line x1="619.74" y1="2489.19" x2="619.74" y2="2529.16" style="stroke:#000000;stroke-width:5.76"/>
	<text x="619.74" y="2619.14" style="font-family:'Helvetica';font-size:99.99px;fill:#000000" text-anchor="middle">0</text>
	<line x1="1372.39" y1="2489.19" x2="1372.39" y2="2529.16" style="stroke:#000000;stroke-width:5.76"/>
	<text x="1372.39" y="2619.14" style="font-family:'Helvetica';font-size:99.99px;fill:#000000" text-anchor="middle">50</text>
	<line x1="2124.91" y1="2489.19" x2="2124.91" y2="2529.16" style="stroke:#000000;stroke-width:5.76"/>
	<text x="2124.91" y="2619.14" style="font-family:'Helvetica';font-size:99.99px;fill:#000000" text-anchor="middle">100</text>
	<line x1="2877.56" y1="2489.19" x2="2877.56" y2="2529.16" style="stroke:#000000;stroke-width:5.76"/>
	<text x="2877.56" y="2619.14" style="font-family:'Helvetica';font-size:99.99px;fill:#000000" text-anchor="middle">150</text>
	<line x1="3630.21" y1="2489.19" x2="3630.21" y2="2529.16" style="stroke:#000000;stroke-width:5.76"/>
	<text x="3630.21" y="2619.14" style="font-family:'Helvetica';font-size:99.99px;fill:#000000" text-anchor="middle">200</text>
	<text x="2207.70" y="2729.16" style="font-family:'Helvetica';font-size:99.99px;fill:#000000" text-anchor="middle">Days from 1 March 2020</text>
</svg>
