<?xml version="1.0" encoding="UTF-8" standalone="no"?>
<!-- This is a Stata 16.1 generated SVG file (http://www.stata.com) -->

<svg version="1.1" width="5.50in" height="4.00in" viewBox="0 0 3960 2880" xmlns="http://www.w3.org/2000/svg" xmlns:xlink="http://www.w3.org/1999/xlink">
	<desc>Stata Graph - Graph</desc>
	<rect x="0" y="0" width="3960" height="2880" style="fill:#EAF2F3;stroke:none"/>
	<rect x="0.00" y="0.00" width="3959.88" height="2880.00" style="fill:#EAF2F3"/>
	<rect x="2.88" y="2.88" width="3954.12" height="2874.24" style="fill:none;stroke:#EAF2F3;stroke-width:5.76"/>
	<rect x="556.38" y="100.86" width="3302.64" height="2388.33" style="fill:#FFFFFF"/>
	<rect x="559.26" y="103.74" width="3296.88" height="2382.57" style="fill:none;stroke:#FFFFFF;stroke-width:5.76"/>
	<line x1="556.38" y1="2425.82" x2="3859.02" y2="2425.82" style="stroke:#EAF2F3;stroke-width:8.64"/>
	<line x1="556.38" y1="1896.40" x2="3859.02" y2="1896.40" style="stroke:#EAF2F3;stroke-width:8.64"/>
	<line x1="556.38" y1="1366.86" x2="3859.02" y2="1366.86" style="stroke:#EAF2F3;stroke-width:8.64"/>
	<line x1="556.38" y1="837.44" x2="3859.02" y2="837.44" style="stroke:#EAF2F3;stroke-width:8.64"/>
	<line x1="556.38" y1="307.90" x2="3859.02" y2="307.90" style="stroke:#EAF2F3;stroke-width:8.64"/>
	<defs>
		<path id="path_evlpIYnU" d="M619.74 307.90 L619.74 307.90 L649.93 307.90 L664.91 307.90 L680.01 307.90 L694.98 307.90 L710.08 307.90 L725.17 308.02 L740.15 308.02 L755.25 308.15 L770.34 308.39 L785.32 308.77 L800.41 309.26 L815.51 310.13 L830.49 311.24 L845.58 312.85 L860.56 315.08 L875.65 318.05 L890.75 322.01 L905.73 327.08 L920.82 333.64 L935.92 341.81 L950.89 351.83 L965.99 364.08 L980.97 378.56 L996.06 395.76 L1011.16 415.69 L1026.13 438.46 L1041.23 464.32 L1056.33 493.28 L1071.30 525.09 L1086.40 559.99 L1101.50 597.48 L1116.47 637.58 L1131.57 679.90 L1146.54 724.21 L1161.64 769.87 L1176.74 816.65 L1191.71 863.93 L1206.81 911.20 L1221.91 958.23 L1236.88 1004.26 L1251.98 1049.19 L1266.95 1092.75 L1282.05 1134.95 L1297.15 1175.54 L1312.12 1214.52 L1327.22 1251.89 L1342.32 1287.78 L1357.29 1322.06 L1372.39 1354.73 L1387.48 1385.92 L1402.46 1415.87 L1417.56 1444.33 L1432.53 1471.68 L1447.63 1497.79 L1462.72 1522.92 L1477.70 1547.17 L1492.80 1570.44 L1507.89 1592.96 L1522.87 1614.86 L1537.96 1636.27 L1552.94 1657.06 L1568.04 1677.24 L1583.13 1696.91 L1598.11 1716.09 L1613.20 1734.66 L1628.30 1752.73 L1643.28 1770.30 L1658.37 1787.50 L1673.47 1804.08 L1688.44 1820.30 L1703.54 1836.01 L1718.52 1851.23 L1733.61 1865.96 L1748.71 1880.44 L1763.68 1894.42 L1778.78 1907.91 L1793.88 1921.16 L1808.85 1933.90 L1823.95 1946.28 L1838.92 1958.28 L1854.02 1970.04 L1869.12 1981.30 L1884.09 1992.31 L1899.19 2003.08 L1914.29 2013.35 L1929.26 2023.38 L1944.36 2033.15 L1959.46 2042.56 L1974.43 2051.84 L1989.53 2060.63 L2004.50 2069.29 L2019.60 2077.70 L2034.70 2085.75 L2049.67 2093.67 L2064.77 2101.34 L2079.87 2108.64 L2094.84 2115.82 L2109.94 2122.75 L2124.91 2129.56 L2140.01 2136.12 L2155.11 2142.43 L2170.08 2148.61 L2185.18 2154.55 L2200.28 2160.37 L2215.25 2165.94 L2230.35 2171.39 L2245.32 2176.58 L2260.42 2181.78 L2275.51 2186.73 L2290.49 2191.43 L2305.59 2196.14 L2320.68 2200.59 L2335.66 2205.05 L2350.76 2209.25 L2365.85 2213.34 L2380.83 2217.42 L2395.92 2221.26 L2410.90 2224.97 L2425.99 2228.56 L2441.09 2232.15 L2456.07 2235.61 L2471.16 2238.83 L2486.26 2242.05 L2501.24 2245.27 L2516.33 2248.24 L2531.31 2251.21 L2546.40 2254.05 L2561.50 2256.78 L2576.47 2259.50 L2591.57 2262.10 L2606.67 2264.57 L2621.64 2267.05 L2636.74 2269.40 L2651.84 2271.63 L2666.81 2273.98 L2681.91 2276.08 L2696.88 2278.18 L2711.98 2280.29 L2727.08 2282.27 L2742.05 2284.13 L2757.15 2285.98 L2772.25 2287.84 L2787.22 2289.57 L2802.32 2291.30 L2817.29 2293.04 L2832.39 2294.64 L2847.49 2296.25 L2862.46 2297.74 L2877.56 2299.22 L2892.66 2300.71 L2907.63 2302.07 L2922.73 2303.43 L2937.82 2304.79 L2952.80 2306.15 L2967.90 2307.39 L2982.87 2308.63 L2997.97 2309.87 L3013.07 2310.98 L3028.04 2312.22 L3043.14 2313.33 L3058.23 2314.32 L3073.21 2315.43 L3088.30 2316.42 L3103.28 2317.54 L3118.38 2318.53 L3133.47 2319.52 L3148.45 2320.39 L3163.55 2321.38 L3178.64 2322.24 L3193.62 2323.23 L3208.71 2324.10 L3223.81 2324.96 L3238.78 2325.71 L3253.88 2326.57 L3268.86 2327.44 L3283.95 2328.18 L3299.05 2329.05 L3314.03 2329.79 L3329.12 2330.53 L3344.22 2331.28 L3359.19 2332.02 L3374.29 2332.76 L3389.26 2333.50 L3404.36 2334.25 L3419.46 2334.86 L3434.43 2335.61 L3449.53 2336.35 L3464.63 2336.97 L3479.60 2337.71 L3494.70 2338.33 L3509.80 2339.07 L3524.77 2339.69 L3539.87 2340.31 L3554.84 2340.93 L3569.94 2341.67 L3585.04 2342.29 L3600.01 2342.91 L3615.11 2343.53 L3630.21 2344.15 L3645.18 2344.89 L3660.28 2345.51 L3675.25 2346.13 L3690.35 2346.74 L3705.45 2347.36 L3720.42 2347.98 L3735.52 2348.60 L3750.61 2349.22 L3765.59 2349.84 L3780.69 2350.46 L3795.66 2350.95 L3795.66 164.22 L3780.69 164.22 L3765.59 164.22 L3750.61 164.35 L3735.52 164.35 L3720.42 164.35 L3705.45 164.47 L3690.35 164.47 L3675.25 164.47 L3660.28 164.59 L3645.18 164.59 L3630.21 164.59 L3615.11 164.72 L3600.01 164.72 L3585.04 164.72 L3569.94 164.84 L3554.84 164.84 L3539.87 164.96 L3524.77 164.96 L3509.80 164.96 L3494.70 165.09 L3479.60 165.09 L3464.63 165.09 L3449.53 165.21 L3434.43 165.21 L3419.46 165.34 L3404.36 165.34 L3389.26 165.34 L3374.29 165.46 L3359.19 165.46 L3344.22 165.58 L3329.12 165.58 L3314.03 165.58 L3299.05 165.71 L3283.95 165.71 L3268.86 165.83 L3253.88 165.83 L3238.78 165.95 L3223.81 165.95 L3208.71 166.08 L3193.62 166.08 L3178.64 166.20 L3163.55 166.20 L3148.45 166.33 L3133.47 166.33 L3118.38 166.45 L3103.28 166.45 L3088.30 166.57 L3073.21 166.57 L3058.23 166.70 L3043.14 166.70 L3028.04 166.82 L3013.07 166.94 L2997.97 166.94 L2982.87 167.07 L2967.90 167.19 L2952.80 167.19 L2937.82 167.32 L2922.73 167.44 L2907.63 167.56 L2892.66 167.56 L2877.56 167.69 L2862.46 167.81 L2847.49 167.93 L2832.39 168.06 L2817.29 168.18 L2802.32 168.18 L2787.22 168.31 L2772.25 168.43 L2757.15 168.55 L2742.05 168.68 L2727.08 168.80 L2711.98 169.05 L2696.88 169.17 L2681.91 169.30 L2666.81 169.42 L2651.84 169.54 L2636.74 169.67 L2621.64 169.91 L2606.67 170.04 L2591.57 170.16 L2576.47 170.41 L2561.50 170.53 L2546.40 170.78 L2531.31 170.90 L2516.33 171.15 L2501.24 171.40 L2486.26 171.52 L2471.16 171.77 L2456.07 172.02 L2441.09 172.27 L2425.99 172.51 L2410.90 172.76 L2395.92 173.01 L2380.83 173.26 L2365.85 173.50 L2350.76 173.87 L2335.66 174.12 L2320.68 174.37 L2305.59 174.74 L2290.49 174.99 L2275.51 175.36 L2260.42 175.73 L2245.32 176.10 L2230.35 176.47 L2215.25 176.84 L2200.28 177.22 L2185.18 177.59 L2170.08 177.96 L2155.11 178.45 L2140.01 178.82 L2124.91 179.32 L2109.94 179.69 L2094.84 180.19 L2079.87 180.68 L2064.77 181.18 L2049.67 181.79 L2034.70 182.29 L2019.60 182.78 L2004.50 183.40 L1989.53 184.02 L1974.43 184.64 L1959.46 185.26 L1944.36 185.88 L1929.26 186.50 L1914.29 187.24 L1899.19 187.98 L1884.09 188.72 L1869.12 189.47 L1854.02 190.21 L1838.92 190.95 L1823.95 191.82 L1808.85 192.68 L1793.88 193.55 L1778.78 194.42 L1763.68 195.28 L1748.71 196.27 L1733.61 197.26 L1718.52 198.25 L1703.54 199.24 L1688.44 200.36 L1673.47 201.35 L1658.37 202.46 L1643.28 203.70 L1628.30 204.81 L1613.20 206.05 L1598.11 207.29 L1583.13 208.53 L1568.04 209.76 L1552.94 211.12 L1537.96 212.49 L1522.87 213.85 L1507.89 215.33 L1492.80 216.82 L1477.70 218.30 L1462.72 219.91 L1447.63 221.52 L1432.53 223.25 L1417.56 224.98 L1402.46 226.96 L1387.48 228.94 L1372.39 230.92 L1357.29 233.15 L1342.32 235.50 L1327.22 237.85 L1312.12 240.45 L1297.15 243.18 L1282.05 245.90 L1266.95 248.87 L1251.98 251.96 L1236.88 255.06 L1221.91 258.27 L1206.81 261.62 L1191.71 264.83 L1176.74 268.17 L1161.64 271.39 L1146.54 274.49 L1131.57 277.46 L1116.47 280.30 L1101.50 283.03 L1086.40 285.50 L1071.30 287.85 L1056.33 289.96 L1041.23 291.94 L1026.13 293.79 L1011.16 295.40 L996.06 297.01 L980.97 298.37 L965.99 299.73 L950.89 300.97 L935.92 302.08 L920.82 303.07 L905.73 303.94 L890.75 304.81 L875.65 305.42 L860.56 306.04 L845.58 306.54 L830.49 306.91 L815.51 307.16 L800.41 307.40 L785.32 307.65 L770.34 307.78 L755.25 307.78 L740.15 307.90 L725.17 307.90 L710.08 307.90 L694.98 307.90 L680.01 307.90 L664.91 307.90 L649.93 307.90 L619.74 307.90 L619.74 307.90 Z" stroke-linejoin="round"/>
	</defs>
	<defs>
		<clipPath id="clipPath_IExJwIYo">
			<use xlink:href="#path_evlpIYnU"/>
		</clipPath>
	</defs>
	<use xlink:href="#path_evlpIYnU" style="stroke:none;fill:#FF3333;fill-opacity:0.25"/>
	<use xlink:href="#path_evlpIYnU" style="fill:none;stroke:#FF0000;stroke-opacity:0.25;stroke-width:17.28" clip-path="url(#clipPath_IExJwIYo)"/>
	<path d=" M619.74 308.02 L649.81 308.02 L664.91 308.02 L679.88 308.02 L694.98 308.02 L710.08 308.02 L725.05 308.02 L740.15 308.02 L755.25 308.02 L770.22 308.15 L785.32 308.27 L800.29 308.39 L815.39 308.77 L830.49 309.14 L845.46 309.76 L860.56 310.62 L875.65 311.86 L890.63 313.47 L905.73 315.57 L920.70 318.42 L935.80 322.01 L950.89 326.46 L965.87 331.91 L980.97 338.59 L996.06 346.39 L1011.04 355.67 L1026.13 366.19 L1041.23 378.19 L1056.21 391.68 L1071.30 406.53 L1086.28 422.74 L1101.38 440.32 L1116.47 459.00 L1131.45 478.80 L1146.54 499.35 L1161.64 520.63 L1176.62 542.41 L1191.71 564.44 L1206.69 586.47 L1221.78 608.25 L1236.88 629.66 L1251.86 650.57 L1266.95 670.87 L1282.05 690.42 L1297.02 709.36 L1312.12 727.55 L1327.22 745.00 L1342.19 761.71 L1357.29 777.67 L1372.26 792.89 L1387.36 807.49 L1402.46 821.48 L1417.43 834.72 L1432.53 847.47 L1447.63 859.72 L1462.60 871.47 L1477.70 882.74 L1492.67 893.63 L1507.77 904.27 L1522.87 914.42 L1537.84 924.44 L1552.94 934.09 L1568.04 943.62 L1583.01 952.78 L1598.11 961.69 L1613.08 970.35 L1628.18 978.89 L1643.28 987.06 L1658.25 995.10 L1673.35 1002.78 L1688.44 1010.33 L1703.42 1017.63 L1718.52 1024.81 L1733.61 1031.74 L1748.59 1038.42 L1763.68 1044.85 L1778.66 1051.17 L1793.76 1057.35 L1808.85 1063.29 L1823.83 1069.11 L1838.92 1074.68 L1854.02 1080.12 L1869.00 1085.45 L1884.09 1090.52 L1899.07 1095.59 L1914.16 1100.42 L1929.26 1105.00 L1944.24 1109.58 L1959.33 1114.03 L1974.43 1118.24 L1989.40 1122.45 L2004.50 1126.41 L2019.60 1130.37 L2034.57 1134.08 L2049.67 1137.79 L2064.64 1141.26 L2079.74 1144.72 L2094.84 1148.06 L2109.81 1151.28 L2124.91 1154.50 L2140.01 1157.47 L2154.98 1160.44 L2170.08 1163.29 L2185.05 1166.13 L2200.15 1168.86 L2215.25 1171.45 L2230.22 1173.93 L2245.32 1176.40 L2260.42 1178.76 L2275.39 1181.11 L2290.49 1183.33 L2305.59 1185.44 L2320.56 1187.54 L2335.66 1189.65 L2350.63 1191.63 L2365.73 1193.48 L2380.83 1195.34 L2395.80 1197.19 L2410.90 1198.93 L2425.99 1200.66 L2440.97 1202.27 L2456.07 1203.88 L2471.04 1205.36 L2486.14 1206.85 L2501.24 1208.33 L2516.21 1209.82 L2531.31 1211.18 L2546.40 1212.42 L2561.38 1213.78 L2576.47 1215.02 L2591.57 1216.25 L2606.55 1217.37 L2621.64 1218.48 L2636.62 1219.59 L2651.72 1220.71 L2666.81 1221.70 L2681.79 1222.69 L2696.88 1223.68 L2711.98 1224.67 L2726.95 1225.66 L2742.05 1226.52 L2757.03 1227.39 L2772.12 1228.26 L2787.22 1229.00 L2802.20 1229.87 L2817.29 1230.61 L2832.39 1231.35 L2847.36 1232.09 L2862.46 1232.84 L2877.56 1233.58 L2892.53 1234.20 L2907.63 1234.82 L2922.60 1235.56 L2937.70 1236.18 L2952.80 1236.80 L2967.77 1237.29 L2982.87 1237.91 L2997.97 1238.53 L3012.94 1239.02 L3028.04 1239.52 L3043.01 1240.14 L3058.11 1240.63 L3073.21 1241.13 L3088.18 1241.62 L3103.28 1241.99 L3118.38 1242.49 L3133.35 1242.98 L3148.45 1243.36 L3163.42 1243.85 L3178.52 1244.22 L3193.62 1244.72 L3208.59 1245.09 L3223.69 1245.46 L3238.78 1245.95 L3253.76 1246.33 L3268.86 1246.70 L3283.95 1247.07 L3298.93 1247.44 L3314.03 1247.81 L3329.00 1248.18 L3344.10 1248.43 L3359.19 1248.80 L3374.17 1249.17 L3389.26 1249.54 L3404.36 1249.79 L3419.34 1250.16 L3434.43 1250.53 L3449.41 1250.78 L3464.51 1251.15 L3479.60 1251.40 L3494.58 1251.77 L3509.67 1252.02 L3524.77 1252.39 L3539.74 1252.64 L3554.84 1253.01 L3569.94 1253.26 L3584.91 1253.63 L3600.01 1253.87 L3614.99 1254.12 L3630.08 1254.49 L3645.18 1254.74 L3660.15 1255.11 L3675.25 1255.36 L3690.35 1255.61 L3705.32 1255.98 L3720.42 1256.23 L3735.39 1256.47 L3750.49 1256.84 L3765.59 1257.09 L3780.56 1257.34 L3795.66 1257.59" stroke-linejoin="round" style="fill:none;stroke:#FF0000;stroke-width:8.64"/>
	<line x1="556.38" y1="2489.19" x2="556.38" y2="100.86" style="stroke:#000000;stroke-width:5.76"/>
	<line x1="556.38" y1="2425.82" x2="516.41" y2="2425.82" style="stroke:#000000;stroke-width:5.76"/>
	<text x="496.49" y="2460.85" style="font-family:'Helvetica';font-size:99.99px;fill:#000000" text-anchor="end">-0.20</text>
	<line x1="556.38" y1="1896.40" x2="516.41" y2="1896.40" style="stroke:#000000;stroke-width:5.76"/>
	<text x="496.49" y="1931.43" style="font-family:'Helvetica';font-size:99.99px;fill:#000000" text-anchor="end">-0.15</text>
	<line x1="556.38" y1="1366.86" x2="516.41" y2="1366.86" style="stroke:#000000;stroke-width:5.76"/>
	<text x="496.49" y="1401.89" style="font-family:'Helvetica';font-size:99.99px;fill:#000000" text-anchor="end">-0.10</text>
	<line x1="556.38" y1="837.44" x2="516.41" y2="837.44" style="stroke:#000000;stroke-width:5.76"/>
	<text x="496.49" y="872.47" style="font-family:'Helvetica';font-size:99.99px;fill:#000000" text-anchor="end">-0.05</text>
	<line x1="556.38" y1="307.90" x2="516.41" y2="307.90" style="stroke:#000000;stroke-width:5.76"/>
	<text x="496.49" y="342.93" style="font-family:'Helvetica';font-size:99.99px;fill:#000000" text-anchor="end">0.00</text>
	<text x="190.71" y="1294.96" style="font-family:'Helvetica';font-size:99.99px;fill:#000000" transform="rotate(-90 190.71,1294.96)" text-anchor="middle">Difference in curves (%)</text>
	<line x1="556.38" y1="2489.19" x2="3859.02" y2="2489.19" style="stroke:#000000;stroke-width:5.76"/>
	<line x1="619.74" y1="2489.19" x2="619.74" y2="2529.16" style="stroke:#000000;stroke-width:5.76"/>
	<text x="619.74" y="2619.14" style="font-family:'Helvetica';font-size:99.99px;fill:#000000" text-anchor="middle">0</text>
	<line x1="1372.39" y1="2489.19" x2="1372.39" y2="2529.16" style="stroke:#000000;stroke-width:5.76"/>
	<text x="1372.39" y="2619.14" style="font-family:'Helvetica';font-size:99.99px;fill:#000000" text-anchor="middle">50</text>
	<line x1="2124.91" y1="2489.19" x2="2124.91" y2="2529.16" style="stroke:#000000;stroke-width:5.76"/>
	<text x="2124.91" y="2619.14" style="font-family:'Helvetica';font-size:99.99px;fill:#000000" text-anchor="middle">100</text>
	<line x1="2877.56" y1="2489.19" x2="2877.56" y2="2529.16" style="stroke:#000000;stroke-width:5.76"/>
	<text x="2877.56" y="2619.14" style="font-family:'Helvetica';font-size:99.99px;fill:#000000" text-anchor="middle">150</text>
	<line x1="3630.21" y1="2489.19" x2="3630.21" y2="2529.16" style="stroke:#000000;stroke-width:5.76"/>
	<text x="3630.21" y="2619.14" style="font-family:'Helvetica';font-size:99.99px;fill:#000000" text-anchor="middle">200</text>
	<text x="2207.70" y="2729.16" style="font-family:'Helvetica';font-size:99.99px;fill:#000000" text-anchor="middle">Days from 1 March 2020</text>
</svg>
