<?xml version="1.0" encoding="UTF-8" standalone="no"?>
<!-- This is a Stata 16.1 generated SVG file (http://www.stata.com) -->

<svg version="1.1" width="5.50in" height="4.00in" viewBox="0 0 3960 2880" xmlns="http://www.w3.org/2000/svg" xmlns:xlink="http://www.w3.org/1999/xlink">
	<desc>Stata Graph - Graph</desc>
	<rect x="0" y="0" width="3960" height="2880" style="fill:#FFFFFF;stroke:none"/>
	<rect x="0.00" y="0.00" width="3959.88" height="2880.00" style="fill:#FFFFFF"/>
	<rect x="2.88" y="2.88" width="3954.12" height="2874.24" style="fill:none;stroke:#FFFFFF;stroke-width:5.76"/>
	<rect x="353.59" y="238.26" width="3502.55" height="2173.55" style="fill:none;stroke:#000000;stroke-width:5.76"/>
	<circle cx="701.41" cy="762.45" r="14.97" style="fill:none;stroke:#606060;stroke-width:8.64"/>
	<circle cx="769.11" cy="1044.98" r="14.97" style="fill:none;stroke:#606060;stroke-width:8.64"/>
	<circle cx="786.06" cy="2089.09" r="14.97" style="fill:none;stroke:#606060;stroke-width:8.64"/>
	<circle cx="802.89" cy="982.85" r="14.97" style="fill:none;stroke:#606060;stroke-width:8.64"/>
	<circle cx="819.84" cy="1066.26" r="14.97" style="fill:none;stroke:#606060;stroke-width:8.64"/>
	<circle cx="853.63" cy="1012.93" r="14.97" style="fill:none;stroke:#606060;stroke-width:8.64"/>
	<circle cx="870.58" cy="934.96" r="14.97" style="fill:none;stroke:#606060;stroke-width:8.64"/>
	<circle cx="870.58" cy="1043.12" r="14.97" style="fill:none;stroke:#606060;stroke-width:8.64"/>
	<circle cx="870.58" cy="1178.26" r="14.97" style="fill:none;stroke:#606060;stroke-width:8.64"/>
	<circle cx="870.58" cy="994.86" r="14.97" style="fill:none;stroke:#606060;stroke-width:8.64"/>
	<circle cx="887.41" cy="925.31" r="14.97" style="fill:none;stroke:#606060;stroke-width:8.64"/>
	<circle cx="887.41" cy="897.96" r="14.97" style="fill:none;stroke:#606060;stroke-width:8.64"/>
	<circle cx="904.37" cy="902.41" r="14.97" style="fill:none;stroke:#606060;stroke-width:8.64"/>
	<circle cx="904.37" cy="1110.44" r="14.97" style="fill:none;stroke:#606060;stroke-width:8.64"/>
	<circle cx="921.32" cy="954.39" r="14.97" style="fill:none;stroke:#606060;stroke-width:8.64"/>
	<circle cx="938.15" cy="1159.57" r="14.97" style="fill:none;stroke:#606060;stroke-width:8.64"/>
	<circle cx="938.15" cy="1064.41" r="14.97" style="fill:none;stroke:#606060;stroke-width:8.64"/>
	<circle cx="938.15" cy="2138.84" r="14.97" style="fill:none;stroke:#606060;stroke-width:8.64"/>
	<circle cx="938.15" cy="2145.40" r="14.97" style="fill:none;stroke:#606060;stroke-width:8.64"/>
	<circle cx="955.10" cy="990.28" r="14.97" style="fill:none;stroke:#606060;stroke-width:8.64"/>
	<circle cx="972.06" cy="867.89" r="14.97" style="fill:none;stroke:#606060;stroke-width:8.64"/>
	<circle cx="972.06" cy="800.81" r="14.97" style="fill:none;stroke:#606060;stroke-width:8.64"/>
	<circle cx="972.06" cy="1097.20" r="14.97" style="fill:none;stroke:#606060;stroke-width:8.64"/>
	<circle cx="972.06" cy="1984.89" r="14.97" style="fill:none;stroke:#606060;stroke-width:8.64"/>
	<circle cx="988.89" cy="1007.36" r="14.97" style="fill:none;stroke:#606060;stroke-width:8.64"/>
	<circle cx="988.89" cy="1051.54" r="14.97" style="fill:none;stroke:#606060;stroke-width:8.64"/>
	<circle cx="1005.84" cy="939.54" r="14.97" style="fill:none;stroke:#606060;stroke-width:8.64"/>
	<circle cx="1005.84" cy="1973.01" r="14.97" style="fill:none;stroke:#606060;stroke-width:8.64"/>
	<circle cx="1005.84" cy="908.48" r="14.97" style="fill:none;stroke:#606060;stroke-width:8.64"/>
	<circle cx="1005.84" cy="1093.86" r="14.97" style="fill:none;stroke:#606060;stroke-width:8.64"/>
	<circle cx="1039.62" cy="954.76" r="14.97" style="fill:none;stroke:#606060;stroke-width:8.64"/>
	<circle cx="1039.62" cy="958.23" r="14.97" style="fill:none;stroke:#606060;stroke-width:8.64"/>
	<circle cx="1056.58" cy="1083.34" r="14.97" style="fill:none;stroke:#606060;stroke-width:8.64"/>
	<circle cx="1056.58" cy="1086.06" r="14.97" style="fill:none;stroke:#606060;stroke-width:8.64"/>
	<circle cx="1056.58" cy="757.37" r="14.97" style="fill:none;stroke:#606060;stroke-width:8.64"/>
	<circle cx="1056.58" cy="1045.23" r="14.97" style="fill:none;stroke:#606060;stroke-width:8.64"/>
	<circle cx="1056.58" cy="789.05" r="14.97" style="fill:none;stroke:#606060;stroke-width:8.64"/>
	<circle cx="1073.41" cy="968.00" r="14.97" style="fill:none;stroke:#606060;stroke-width:8.64"/>
	<circle cx="1073.41" cy="793.76" r="14.97" style="fill:none;stroke:#606060;stroke-width:8.64"/>
	<circle cx="1073.41" cy="1067.62" r="14.97" style="fill:none;stroke:#606060;stroke-width:8.64"/>
	<circle cx="1090.36" cy="915.65" r="14.97" style="fill:none;stroke:#606060;stroke-width:8.64"/>
	<circle cx="1090.36" cy="974.44" r="14.97" style="fill:none;stroke:#606060;stroke-width:8.64"/>
	<circle cx="1107.32" cy="984.71" r="14.97" style="fill:none;stroke:#606060;stroke-width:8.64"/>
	<circle cx="1124.14" cy="980.01" r="14.97" style="fill:none;stroke:#606060;stroke-width:8.64"/>
	<circle cx="1141.10" cy="1060.57" r="14.97" style="fill:none;stroke:#606060;stroke-width:8.64"/>
	<circle cx="1141.10" cy="889.05" r="14.97" style="fill:none;stroke:#606060;stroke-width:8.64"/>
	<circle cx="1158.05" cy="805.27" r="14.97" style="fill:none;stroke:#606060;stroke-width:8.64"/>
	<circle cx="1174.88" cy="1140.27" r="14.97" style="fill:none;stroke:#606060;stroke-width:8.64"/>
	<circle cx="1174.88" cy="1780.82" r="14.97" style="fill:none;stroke:#606060;stroke-width:8.64"/>
	<circle cx="1191.84" cy="966.39" r="14.97" style="fill:none;stroke:#606060;stroke-width:8.64"/>
	<circle cx="1191.84" cy="659.11" r="14.97" style="fill:none;stroke:#606060;stroke-width:8.64"/>
	<circle cx="1191.84" cy="948.57" r="14.97" style="fill:none;stroke:#606060;stroke-width:8.64"/>
	<circle cx="1191.84" cy="2100.35" r="14.97" style="fill:none;stroke:#606060;stroke-width:8.64"/>
	<circle cx="1208.67" cy="899.07" r="14.97" style="fill:none;stroke:#606060;stroke-width:8.64"/>
	<circle cx="1208.67" cy="1030.62" r="14.97" style="fill:none;stroke:#606060;stroke-width:8.64"/>
	<circle cx="1208.67" cy="1002.16" r="14.97" style="fill:none;stroke:#606060;stroke-width:8.64"/>
	<circle cx="1208.67" cy="1027.16" r="14.97" style="fill:none;stroke:#606060;stroke-width:8.64"/>
	<circle cx="1225.62" cy="964.17" r="14.97" style="fill:none;stroke:#606060;stroke-width:8.64"/>
	<circle cx="1242.57" cy="1037.92" r="14.97" style="fill:none;stroke:#606060;stroke-width:8.64"/>
	<circle cx="1242.57" cy="934.59" r="14.97" style="fill:none;stroke:#606060;stroke-width:8.64"/>
	<circle cx="1259.40" cy="2183.51" r="14.97" style="fill:none;stroke:#606060;stroke-width:8.64"/>
	<circle cx="1259.40" cy="1073.19" r="14.97" style="fill:none;stroke:#606060;stroke-width:8.64"/>
	<circle cx="1276.36" cy="2269.03" r="14.97" style="fill:none;stroke:#606060;stroke-width:8.64"/>
	<circle cx="1276.36" cy="955.01" r="14.97" style="fill:none;stroke:#606060;stroke-width:8.64"/>
	<circle cx="1276.36" cy="2101.09" r="14.97" style="fill:none;stroke:#606060;stroke-width:8.64"/>
	<circle cx="1293.31" cy="1951.47" r="14.97" style="fill:none;stroke:#606060;stroke-width:8.64"/>
	<circle cx="1293.31" cy="966.15" r="14.97" style="fill:none;stroke:#606060;stroke-width:8.64"/>
	<circle cx="1293.31" cy="2028.20" r="14.97" style="fill:none;stroke:#606060;stroke-width:8.64"/>
	<circle cx="1293.31" cy="815.54" r="14.97" style="fill:none;stroke:#606060;stroke-width:8.64"/>
	<circle cx="1293.31" cy="2072.01" r="14.97" style="fill:none;stroke:#606060;stroke-width:8.64"/>
	<circle cx="1293.31" cy="585.23" r="14.97" style="fill:none;stroke:#606060;stroke-width:8.64"/>
	<circle cx="1310.14" cy="962.56" r="14.97" style="fill:none;stroke:#606060;stroke-width:8.64"/>
	<circle cx="1310.14" cy="996.09" r="14.97" style="fill:none;stroke:#606060;stroke-width:8.64"/>
	<circle cx="1327.10" cy="817.89" r="14.97" style="fill:none;stroke:#606060;stroke-width:8.64"/>
	<circle cx="1360.88" cy="2062.48" r="14.97" style="fill:none;stroke:#606060;stroke-width:8.64"/>
	<circle cx="1377.83" cy="949.07" r="14.97" style="fill:none;stroke:#606060;stroke-width:8.64"/>
	<circle cx="1377.83" cy="961.94" r="14.97" style="fill:none;stroke:#606060;stroke-width:8.64"/>
	<circle cx="1411.62" cy="1139.77" r="14.97" style="fill:none;stroke:#606060;stroke-width:8.64"/>
	<circle cx="1411.62" cy="862.69" r="14.97" style="fill:none;stroke:#606060;stroke-width:8.64"/>
	<circle cx="1428.57" cy="916.52" r="14.97" style="fill:none;stroke:#606060;stroke-width:8.64"/>
	<circle cx="1428.57" cy="969.74" r="14.97" style="fill:none;stroke:#606060;stroke-width:8.64"/>
	<circle cx="1428.57" cy="1933.04" r="14.97" style="fill:none;stroke:#606060;stroke-width:8.64"/>
	<circle cx="1428.57" cy="1028.39" r="14.97" style="fill:none;stroke:#606060;stroke-width:8.64"/>
	<circle cx="1428.57" cy="1689.74" r="14.97" style="fill:none;stroke:#606060;stroke-width:8.64"/>
	<circle cx="1445.40" cy="1424.28" r="14.97" style="fill:none;stroke:#606060;stroke-width:8.64"/>
	<circle cx="1445.40" cy="995.60" r="14.97" style="fill:none;stroke:#606060;stroke-width:8.64"/>
	<circle cx="1445.40" cy="2071.14" r="14.97" style="fill:none;stroke:#606060;stroke-width:8.64"/>
	<circle cx="1445.40" cy="950.18" r="14.97" style="fill:none;stroke:#606060;stroke-width:8.64"/>
	<circle cx="1462.35" cy="854.27" r="14.97" style="fill:none;stroke:#606060;stroke-width:8.64"/>
	<circle cx="1462.35" cy="2008.53" r="14.97" style="fill:none;stroke:#606060;stroke-width:8.64"/>
	<circle cx="1462.35" cy="2042.81" r="14.97" style="fill:none;stroke:#606060;stroke-width:8.64"/>
	<circle cx="1462.35" cy="1025.18" r="14.97" style="fill:none;stroke:#606060;stroke-width:8.64"/>
	<circle cx="1479.31" cy="781.38" r="14.97" style="fill:none;stroke:#606060;stroke-width:8.64"/>
	<circle cx="1496.14" cy="902.78" r="14.97" style="fill:none;stroke:#606060;stroke-width:8.64"/>
	<circle cx="1496.14" cy="1930.93" r="14.97" style="fill:none;stroke:#606060;stroke-width:8.64"/>
	<circle cx="1546.88" cy="936.69" r="14.97" style="fill:none;stroke:#606060;stroke-width:8.64"/>
	<circle cx="1597.61" cy="2060.50" r="14.97" style="fill:none;stroke:#606060;stroke-width:8.64"/>
	<circle cx="1614.57" cy="1063.66" r="14.97" style="fill:none;stroke:#606060;stroke-width:8.64"/>
	<circle cx="1631.40" cy="1280.11" r="14.97" style="fill:none;stroke:#606060;stroke-width:8.64"/>
	<circle cx="1648.35" cy="866.52" r="14.97" style="fill:none;stroke:#606060;stroke-width:8.64"/>
	<circle cx="1648.35" cy="1421.07" r="14.97" style="fill:none;stroke:#606060;stroke-width:8.64"/>
	<circle cx="1766.65" cy="808.36" r="14.97" style="fill:none;stroke:#606060;stroke-width:8.64"/>
	<circle cx="1766.65" cy="1030.00" r="14.97" style="fill:none;stroke:#606060;stroke-width:8.64"/>
	<circle cx="1834.35" cy="2118.67" r="14.97" style="fill:none;stroke:#606060;stroke-width:8.64"/>
	<circle cx="1834.35" cy="1538.63" r="14.97" style="fill:none;stroke:#606060;stroke-width:8.64"/>
	<circle cx="1834.35" cy="976.79" r="14.97" style="fill:none;stroke:#606060;stroke-width:8.64"/>
	<circle cx="1868.13" cy="1570.07" r="14.97" style="fill:none;stroke:#606060;stroke-width:8.64"/>
	<circle cx="1868.13" cy="2103.32" r="14.97" style="fill:none;stroke:#606060;stroke-width:8.64"/>
	<circle cx="1885.08" cy="2111.24" r="14.97" style="fill:none;stroke:#606060;stroke-width:8.64"/>
	<circle cx="1885.08" cy="1110.94" r="14.97" style="fill:none;stroke:#606060;stroke-width:8.64"/>
	<circle cx="1952.65" cy="2123.25" r="14.97" style="fill:none;stroke:#606060;stroke-width:8.64"/>
	<circle cx="1969.61" cy="2095.65" r="14.97" style="fill:none;stroke:#606060;stroke-width:8.64"/>
	<circle cx="1969.61" cy="2055.68" r="14.97" style="fill:none;stroke:#606060;stroke-width:8.64"/>
	<circle cx="1986.43" cy="924.44" r="14.97" style="fill:none;stroke:#606060;stroke-width:8.64"/>
	<circle cx="2020.34" cy="1946.90" r="14.97" style="fill:none;stroke:#606060;stroke-width:8.64"/>
	<circle cx="2037.17" cy="1093.49" r="14.97" style="fill:none;stroke:#606060;stroke-width:8.64"/>
	<circle cx="2121.69" cy="1004.14" r="14.97" style="fill:none;stroke:#606060;stroke-width:8.64"/>
	<circle cx="2290.86" cy="980.63" r="14.97" style="fill:none;stroke:#606060;stroke-width:8.64"/>
	<circle cx="2307.69" cy="1940.83" r="14.97" style="fill:none;stroke:#606060;stroke-width:8.64"/>
	<circle cx="2409.16" cy="942.51" r="14.97" style="fill:none;stroke:#606060;stroke-width:8.64"/>
	<circle cx="2442.95" cy="883.60" r="14.97" style="fill:none;stroke:#606060;stroke-width:8.64"/>
	<circle cx="2544.42" cy="1040.65" r="14.97" style="fill:none;stroke:#606060;stroke-width:8.64"/>
	<circle cx="3372.93" cy="1552.00" r="14.97" style="fill:none;stroke:#606060;stroke-width:8.64"/>
	<circle cx="3474.41" cy="1023.20" r="14.97" style="fill:none;stroke:#606060;stroke-width:8.64"/>
	<circle cx="3711.14" cy="1544.45" r="14.97" style="fill:none;stroke:#606060;stroke-width:8.64"/>
	<circle cx="3727.97" cy="884.35" r="14.97" style="fill:none;stroke:#606060;stroke-width:8.64"/>
	<circle cx="3744.92" cy="298.74" r="14.97" style="fill:none;stroke:#606060;stroke-width:8.64"/>
	<path d=" M701.41 1093.74 L769.11 1091.01 L786.06 1110.07 L802.89 1106.11 L819.84 1104.75 L853.63 1102.89 L870.58 1101.66 L870.58 1099.18 L870.58 1098.19 L870.58 1095.47 L887.41 1113.29 L887.41 1112.67 L904.37 1130.99 L904.37 1128.26 L921.32 1143.24 L938.15 1155.49 L938.15 1152.64 L938.15 1165.51 L938.15 1160.44 L955.10 1173.43 L972.06 1165.14 L972.06 1162.42 L972.06 1160.07 L972.06 1155.49 L988.89 1167.62 L988.89 1164.65 L1005.84 1162.05 L1005.84 1161.80 L1005.84 1157.96 L1005.84 1154.99 L1039.62 1152.64 L1039.62 1162.17 L1056.58 1160.56 L1056.58 1166.88 L1056.58 1169.97 L1056.58 1167.87 L1056.58 1178.26 L1073.41 1175.66 L1073.41 1172.07 L1073.41 1181.35 L1090.36 1190.88 L1090.36 1189.03 L1107.32 1184.70 L1124.14 1181.60 L1141.10 1189.52 L1141.10 1186.92 L1158.05 1195.96 L1174.88 1194.60 L1174.88 1195.46 L1191.84 1192.12 L1191.84 1194.35 L1191.84 1194.84 L1191.84 1194.72 L1208.67 1194.97 L1208.67 1200.54 L1208.67 1199.67 L1208.67 1205.12 L1225.62 1216.75 L1242.57 1227.27 L1242.57 1226.65 L1259.40 1237.79 L1259.40 1249.42 L1276.36 1260.80 L1276.36 1261.05 L1276.36 1269.34 L1293.31 1270.70 L1293.31 1269.22 L1293.31 1268.35 L1293.31 1266.37 L1293.31 1254.49 L1293.31 1253.38 L1310.14 1255.11 L1310.14 1262.54 L1327.10 1261.79 L1360.88 1257.46 L1377.83 1256.23 L1377.83 1248.80 L1411.62 1251.89 L1411.62 1244.59 L1428.57 1248.06 L1428.57 1249.67 L1428.57 1252.64 L1428.57 1255.73 L1428.57 1257.59 L1445.40 1259.44 L1445.40 1264.89 L1445.40 1267.36 L1445.40 1272.68 L1462.35 1276.03 L1462.35 1281.60 L1462.35 1284.07 L1462.35 1288.28 L1479.31 1291.99 L1496.14 1295.70 L1496.14 1299.42 L1546.88 1302.39 L1597.61 1307.46 L1614.57 1313.77 L1631.40 1316.00 L1648.35 1309.93 L1648.35 1314.39 L1766.65 1323.05 L1766.65 1328.00 L1834.35 1317.61 L1834.35 1323.30 L1834.35 1327.38 L1868.13 1331.96 L1868.13 1336.42 L1885.08 1341.74 L1885.08 1346.19 L1952.65 1352.38 L1969.61 1339.76 L1969.61 1343.84 L1986.43 1329.36 L2020.34 1335.30 L2037.17 1323.05 L2121.69 1312.66 L2290.86 1318.47 L2307.69 1306.47 L2409.16 1314.88 L2442.95 1301.64 L2544.42 1314.39 L3372.93 1320.83 L3474.41 1326.89 L3711.14 1336.42 L3727.97 1322.43 L3744.92 1329.86" stroke-linejoin="round" style="fill:none;stroke:#000000;stroke-width:8.64"/>
	<line x1="350.71" y1="2414.69" x2="350.71" y2="235.38" style="stroke:#000000;stroke-width:5.76"/>
	<line x1="350.71" y1="2351.32" x2="310.74" y2="2351.32" style="stroke:#000000;stroke-width:5.76"/>
	<text x="266.64" y="2351.32" style="font-family:'Helvetica';font-size:79.94px;fill:#000000" transform="rotate(-90 266.64,2351.32)" text-anchor="middle">-6</text>
	<line x1="350.71" y1="1963.48" x2="310.74" y2="1963.48" style="stroke:#000000;stroke-width:5.76"/>
	<text x="266.64" y="1963.48" style="font-family:'Helvetica';font-size:79.94px;fill:#000000" transform="rotate(-90 266.64,1963.48)" text-anchor="middle">-4</text>
	<line x1="350.71" y1="1575.51" x2="310.74" y2="1575.51" style="stroke:#000000;stroke-width:5.76"/>
	<text x="266.64" y="1575.51" style="font-family:'Helvetica';font-size:79.94px;fill:#000000" transform="rotate(-90 266.64,1575.51)" text-anchor="middle">-2</text>
	<line x1="350.71" y1="1187.67" x2="310.74" y2="1187.67" style="stroke:#000000;stroke-width:5.76"/>
	<text x="266.64" y="1187.67" style="font-family:'Helvetica';font-size:79.94px;fill:#000000" transform="rotate(-90 266.64,1187.67)" text-anchor="middle">0</text>
	<line x1="350.71" y1="799.82" x2="310.74" y2="799.82" style="stroke:#000000;stroke-width:5.76"/>
	<text x="266.64" y="799.82" style="font-family:'Helvetica';font-size:79.94px;fill:#000000" transform="rotate(-90 266.64,799.82)" text-anchor="middle">2</text>
	<line x1="350.71" y1="411.85" x2="310.74" y2="411.85" style="stroke:#000000;stroke-width:5.76"/>
	<text x="266.64" y="411.85" style="font-family:'Helvetica';font-size:79.94px;fill:#000000" transform="rotate(-90 266.64,411.85)" text-anchor="middle">4</text>
	<text x="176.68" y="1325.03" style="font-family:'Helvetica';font-size:79.94px;fill:#000000" transform="rotate(-90 176.68,1325.03)" text-anchor="middle">Scaled Schoenfeld Residuals</text>
	<line x1="350.71" y1="2414.69" x2="3859.02" y2="2414.69" style="stroke:#000000;stroke-width:5.76"/>
	<line x1="414.07" y1="2414.69" x2="414.07" y2="2454.66" style="stroke:#000000;stroke-width:5.76"/>
	<text x="414.07" y="2530.61" style="font-family:'Helvetica';font-size:79.94px;fill:#000000" text-anchor="middle">0</text>
	<line x1="1259.53" y1="2414.69" x2="1259.53" y2="2454.66" style="stroke:#000000;stroke-width:5.76"/>
	<text x="1259.53" y="2530.61" style="font-family:'Helvetica';font-size:79.94px;fill:#000000" text-anchor="middle">50</text>
	<line x1="2104.86" y1="2414.69" x2="2104.86" y2="2454.66" style="stroke:#000000;stroke-width:5.76"/>
	<text x="2104.86" y="2530.61" style="font-family:'Helvetica';font-size:79.94px;fill:#000000" text-anchor="middle">100</text>
	<line x1="2950.32" y1="2414.69" x2="2950.32" y2="2454.66" style="stroke:#000000;stroke-width:5.76"/>
	<text x="2950.32" y="2530.61" style="font-family:'Helvetica';font-size:79.94px;fill:#000000" text-anchor="middle">150</text>
	<line x1="3795.66" y1="2414.69" x2="3795.66" y2="2454.66" style="stroke:#000000;stroke-width:5.76"/>
	<text x="3795.66" y="2530.61" style="font-family:'Helvetica';font-size:79.94px;fill:#000000" text-anchor="middle">200</text>
	<text x="2104.86" y="2620.57" style="font-family:'Helvetica';font-size:79.94px;fill:#000000" text-anchor="middle">Time</text>
	<text x="368.03" y="2737.89" style="font-family:'Helvetica';font-size:79.94px;fill:#000000">bandwidth = .8</text>
	<text x="368.03" y="187.99" style="font-family:'Helvetica';font-size:99.99px;fill:#000000">Schoenfeld residuals against time, DAG adjusted</text>
</svg>
