<?xml version="1.0" encoding="UTF-8" standalone="no"?>
<!-- This is a Stata 16.1 generated SVG file (http://www.stata.com) -->

<svg version="1.1" width="5.50in" height="4.00in" viewBox="0 0 3960 2880" xmlns="http://www.w3.org/2000/svg" xmlns:xlink="http://www.w3.org/1999/xlink">
	<desc>Stata Graph - Graph</desc>
	<rect x="0" y="0" width="3960" height="2880" style="fill:#FFFFFF;stroke:none"/>
	<rect x="0.00" y="0.00" width="3959.88" height="2880.00" style="fill:#FFFFFF"/>
	<rect x="2.88" y="2.88" width="3954.12" height="2874.24" style="fill:none;stroke:#FFFFFF;stroke-width:5.76"/>
	<rect x="353.59" y="238.26" width="3502.55" height="2173.55" style="fill:none;stroke:#000000;stroke-width:5.76"/>
	<circle cx="590.29" cy="863.68" r="14.97" style="fill:none;stroke:#606060;stroke-width:8.64"/>
	<circle cx="638.43" cy="2106.91" r="14.97" style="fill:none;stroke:#606060;stroke-width:8.64"/>
	<circle cx="654.39" cy="912.31" r="14.97" style="fill:none;stroke:#606060;stroke-width:8.64"/>
	<circle cx="670.48" cy="1335.43" r="14.97" style="fill:none;stroke:#606060;stroke-width:8.64"/>
	<circle cx="686.44" cy="880.51" r="14.97" style="fill:none;stroke:#606060;stroke-width:8.64"/>
	<circle cx="686.44" cy="1353.37" r="14.97" style="fill:none;stroke:#606060;stroke-width:8.64"/>
	<circle cx="686.44" cy="1237.79" r="14.97" style="fill:none;stroke:#606060;stroke-width:8.64"/>
	<circle cx="686.44" cy="1206.97" r="14.97" style="fill:none;stroke:#606060;stroke-width:8.64"/>
	<circle cx="702.53" cy="1174.42" r="14.97" style="fill:none;stroke:#606060;stroke-width:8.64"/>
	<circle cx="702.53" cy="841.90" r="14.97" style="fill:none;stroke:#606060;stroke-width:8.64"/>
	<circle cx="702.53" cy="1117.87" r="14.97" style="fill:none;stroke:#606060;stroke-width:8.64"/>
	<circle cx="718.49" cy="1107.35" r="14.97" style="fill:none;stroke:#606060;stroke-width:8.64"/>
	<circle cx="718.49" cy="683.74" r="14.97" style="fill:none;stroke:#606060;stroke-width:8.64"/>
	<circle cx="734.58" cy="1117.87" r="14.97" style="fill:none;stroke:#606060;stroke-width:8.64"/>
	<circle cx="750.54" cy="1227.51" r="14.97" style="fill:none;stroke:#606060;stroke-width:8.64"/>
	<circle cx="750.54" cy="1794.31" r="14.97" style="fill:none;stroke:#606060;stroke-width:8.64"/>
	<circle cx="750.54" cy="1320.58" r="14.97" style="fill:none;stroke:#606060;stroke-width:8.64"/>
	<circle cx="750.54" cy="898.08" r="14.97" style="fill:none;stroke:#606060;stroke-width:8.64"/>
	<circle cx="750.54" cy="998.07" r="14.97" style="fill:none;stroke:#606060;stroke-width:8.64"/>
	<circle cx="766.63" cy="740.79" r="14.97" style="fill:none;stroke:#606060;stroke-width:8.64"/>
	<circle cx="766.63" cy="1064.28" r="14.97" style="fill:none;stroke:#606060;stroke-width:8.64"/>
	<circle cx="766.63" cy="943.62" r="14.97" style="fill:none;stroke:#606060;stroke-width:8.64"/>
	<circle cx="766.63" cy="1643.08" r="14.97" style="fill:none;stroke:#606060;stroke-width:8.64"/>
	<circle cx="782.60" cy="376.71" r="14.97" style="fill:none;stroke:#606060;stroke-width:8.64"/>
	<circle cx="782.60" cy="2014.84" r="14.97" style="fill:none;stroke:#606060;stroke-width:8.64"/>
	<circle cx="798.68" cy="1246.45" r="14.97" style="fill:none;stroke:#606060;stroke-width:8.64"/>
	<circle cx="798.68" cy="1131.36" r="14.97" style="fill:none;stroke:#606060;stroke-width:8.64"/>
	<circle cx="798.68" cy="1028.27" r="14.97" style="fill:none;stroke:#606060;stroke-width:8.64"/>
	<circle cx="798.68" cy="715.05" r="14.97" style="fill:none;stroke:#606060;stroke-width:8.64"/>
	<circle cx="798.68" cy="627.31" r="14.97" style="fill:none;stroke:#606060;stroke-width:8.64"/>
	<circle cx="798.68" cy="2000.61" r="14.97" style="fill:none;stroke:#606060;stroke-width:8.64"/>
	<circle cx="814.65" cy="880.01" r="14.97" style="fill:none;stroke:#606060;stroke-width:8.64"/>
	<circle cx="814.65" cy="955.26" r="14.97" style="fill:none;stroke:#606060;stroke-width:8.64"/>
	<circle cx="814.65" cy="637.08" r="14.97" style="fill:none;stroke:#606060;stroke-width:8.64"/>
	<circle cx="814.65" cy="2230.42" r="14.97" style="fill:none;stroke:#606060;stroke-width:8.64"/>
	<circle cx="814.65" cy="1704.34" r="14.97" style="fill:none;stroke:#606060;stroke-width:8.64"/>
	<circle cx="814.65" cy="1218.36" r="14.97" style="fill:none;stroke:#606060;stroke-width:8.64"/>
	<circle cx="830.73" cy="819.75" r="14.97" style="fill:none;stroke:#606060;stroke-width:8.64"/>
	<circle cx="830.73" cy="1094.11" r="14.97" style="fill:none;stroke:#606060;stroke-width:8.64"/>
	<circle cx="830.73" cy="1148.56" r="14.97" style="fill:none;stroke:#606060;stroke-width:8.64"/>
	<circle cx="846.70" cy="1678.23" r="14.97" style="fill:none;stroke:#606060;stroke-width:8.64"/>
	<circle cx="846.70" cy="1104.50" r="14.97" style="fill:none;stroke:#606060;stroke-width:8.64"/>
	<circle cx="846.70" cy="1217.12" r="14.97" style="fill:none;stroke:#606060;stroke-width:8.64"/>
	<circle cx="862.78" cy="1648.65" r="14.97" style="fill:none;stroke:#606060;stroke-width:8.64"/>
	<circle cx="862.78" cy="893.26" r="14.97" style="fill:none;stroke:#606060;stroke-width:8.64"/>
	<circle cx="862.78" cy="834.84" r="14.97" style="fill:none;stroke:#606060;stroke-width:8.64"/>
	<circle cx="862.78" cy="1565.36" r="14.97" style="fill:none;stroke:#606060;stroke-width:8.64"/>
	<circle cx="878.75" cy="762.94" r="14.97" style="fill:none;stroke:#606060;stroke-width:8.64"/>
	<circle cx="878.75" cy="1557.32" r="14.97" style="fill:none;stroke:#606060;stroke-width:8.64"/>
	<circle cx="878.75" cy="660.23" r="14.97" style="fill:none;stroke:#606060;stroke-width:8.64"/>
	<circle cx="878.75" cy="1686.27" r="14.97" style="fill:none;stroke:#606060;stroke-width:8.64"/>
	<circle cx="894.84" cy="986.81" r="14.97" style="fill:none;stroke:#606060;stroke-width:8.64"/>
	<circle cx="894.84" cy="1501.01" r="14.97" style="fill:none;stroke:#606060;stroke-width:8.64"/>
	<circle cx="894.84" cy="1068.74" r="14.97" style="fill:none;stroke:#606060;stroke-width:8.64"/>
	<circle cx="894.84" cy="681.39" r="14.97" style="fill:none;stroke:#606060;stroke-width:8.64"/>
	<circle cx="894.84" cy="953.65" r="14.97" style="fill:none;stroke:#606060;stroke-width:8.64"/>
	<circle cx="894.84" cy="1286.30" r="14.97" style="fill:none;stroke:#606060;stroke-width:8.64"/>
	<circle cx="894.84" cy="782.99" r="14.97" style="fill:none;stroke:#606060;stroke-width:8.64"/>
	<circle cx="894.84" cy="912.56" r="14.97" style="fill:none;stroke:#606060;stroke-width:8.64"/>
	<circle cx="894.84" cy="1167.25" r="14.97" style="fill:none;stroke:#606060;stroke-width:8.64"/>
	<circle cx="910.80" cy="1240.51" r="14.97" style="fill:none;stroke:#606060;stroke-width:8.64"/>
	<circle cx="910.80" cy="2039.46" r="14.97" style="fill:none;stroke:#606060;stroke-width:8.64"/>
	<circle cx="910.80" cy="974.81" r="14.97" style="fill:none;stroke:#606060;stroke-width:8.64"/>
	<circle cx="910.80" cy="1078.14" r="14.97" style="fill:none;stroke:#606060;stroke-width:8.64"/>
	<circle cx="910.80" cy="821.23" r="14.97" style="fill:none;stroke:#606060;stroke-width:8.64"/>
	<circle cx="910.80" cy="895.61" r="14.97" style="fill:none;stroke:#606060;stroke-width:8.64"/>
	<circle cx="910.80" cy="2125.35" r="14.97" style="fill:none;stroke:#606060;stroke-width:8.64"/>
	<circle cx="910.80" cy="662.45" r="14.97" style="fill:none;stroke:#606060;stroke-width:8.64"/>
	<circle cx="910.80" cy="2157.77" r="14.97" style="fill:none;stroke:#606060;stroke-width:8.64"/>
	<circle cx="910.80" cy="1842.70" r="14.97" style="fill:none;stroke:#606060;stroke-width:8.64"/>
	<circle cx="926.89" cy="1020.60" r="14.97" style="fill:none;stroke:#606060;stroke-width:8.64"/>
	<circle cx="926.89" cy="771.61" r="14.97" style="fill:none;stroke:#606060;stroke-width:8.64"/>
	<circle cx="926.89" cy="1484.30" r="14.97" style="fill:none;stroke:#606060;stroke-width:8.64"/>
	<circle cx="926.89" cy="940.90" r="14.97" style="fill:none;stroke:#606060;stroke-width:8.64"/>
	<circle cx="926.89" cy="867.76" r="14.97" style="fill:none;stroke:#606060;stroke-width:8.64"/>
	<circle cx="926.89" cy="593.15" r="14.97" style="fill:none;stroke:#606060;stroke-width:8.64"/>
	<circle cx="942.98" cy="1122.08" r="14.97" style="fill:none;stroke:#606060;stroke-width:8.64"/>
	<circle cx="942.98" cy="1096.09" r="14.97" style="fill:none;stroke:#606060;stroke-width:8.64"/>
	<circle cx="942.98" cy="915.53" r="14.97" style="fill:none;stroke:#606060;stroke-width:8.64"/>
	<circle cx="942.98" cy="1679.83" r="14.97" style="fill:none;stroke:#606060;stroke-width:8.64"/>
	<circle cx="942.98" cy="2233.63" r="14.97" style="fill:none;stroke:#606060;stroke-width:8.64"/>
	<circle cx="942.98" cy="799.08" r="14.97" style="fill:none;stroke:#606060;stroke-width:8.64"/>
	<circle cx="942.98" cy="838.43" r="14.97" style="fill:none;stroke:#606060;stroke-width:8.64"/>
	<circle cx="942.98" cy="850.56" r="14.97" style="fill:none;stroke:#606060;stroke-width:8.64"/>
	<circle cx="942.98" cy="1483.31" r="14.97" style="fill:none;stroke:#606060;stroke-width:8.64"/>
	<circle cx="958.94" cy="1781.56" r="14.97" style="fill:none;stroke:#606060;stroke-width:8.64"/>
	<circle cx="958.94" cy="1841.21" r="14.97" style="fill:none;stroke:#606060;stroke-width:8.64"/>
	<circle cx="958.94" cy="936.82" r="14.97" style="fill:none;stroke:#606060;stroke-width:8.64"/>
	<circle cx="975.03" cy="949.56" r="14.97" style="fill:none;stroke:#606060;stroke-width:8.64"/>
	<circle cx="975.03" cy="1664.12" r="14.97" style="fill:none;stroke:#606060;stroke-width:8.64"/>
	<circle cx="975.03" cy="981.00" r="14.97" style="fill:none;stroke:#606060;stroke-width:8.64"/>
	<circle cx="990.99" cy="1685.40" r="14.97" style="fill:none;stroke:#606060;stroke-width:8.64"/>
	<circle cx="990.99" cy="1232.84" r="14.97" style="fill:none;stroke:#606060;stroke-width:8.64"/>
	<circle cx="990.99" cy="1676.62" r="14.97" style="fill:none;stroke:#606060;stroke-width:8.64"/>
	<circle cx="990.99" cy="872.34" r="14.97" style="fill:none;stroke:#606060;stroke-width:8.64"/>
	<circle cx="990.99" cy="1525.39" r="14.97" style="fill:none;stroke:#606060;stroke-width:8.64"/>
	<circle cx="990.99" cy="1145.09" r="14.97" style="fill:none;stroke:#606060;stroke-width:8.64"/>
	<circle cx="990.99" cy="1166.75" r="14.97" style="fill:none;stroke:#606060;stroke-width:8.64"/>
	<circle cx="990.99" cy="625.82" r="14.97" style="fill:none;stroke:#606060;stroke-width:8.64"/>
	<circle cx="1007.08" cy="916.27" r="14.97" style="fill:none;stroke:#606060;stroke-width:8.64"/>
	<circle cx="1007.08" cy="938.80" r="14.97" style="fill:none;stroke:#606060;stroke-width:8.64"/>
	<circle cx="1007.08" cy="362.60" r="14.97" style="fill:none;stroke:#606060;stroke-width:8.64"/>
	<circle cx="1007.08" cy="699.83" r="14.97" style="fill:none;stroke:#606060;stroke-width:8.64"/>
	<circle cx="1023.04" cy="1813.24" r="14.97" style="fill:none;stroke:#606060;stroke-width:8.64"/>
	<circle cx="1023.04" cy="1281.97" r="14.97" style="fill:none;stroke:#606060;stroke-width:8.64"/>
	<circle cx="1023.04" cy="923.58" r="14.97" style="fill:none;stroke:#606060;stroke-width:8.64"/>
	<circle cx="1023.04" cy="699.21" r="14.97" style="fill:none;stroke:#606060;stroke-width:8.64"/>
	<circle cx="1023.04" cy="1007.11" r="14.97" style="fill:none;stroke:#606060;stroke-width:8.64"/>
	<circle cx="1023.04" cy="1122.08" r="14.97" style="fill:none;stroke:#606060;stroke-width:8.64"/>
	<circle cx="1039.13" cy="1007.98" r="14.97" style="fill:none;stroke:#606060;stroke-width:8.64"/>
	<circle cx="1039.13" cy="1144.97" r="14.97" style="fill:none;stroke:#606060;stroke-width:8.64"/>
	<circle cx="1039.13" cy="1821.41" r="14.97" style="fill:none;stroke:#606060;stroke-width:8.64"/>
	<circle cx="1039.13" cy="1058.96" r="14.97" style="fill:none;stroke:#606060;stroke-width:8.64"/>
	<circle cx="1039.13" cy="945.73" r="14.97" style="fill:none;stroke:#606060;stroke-width:8.64"/>
	<circle cx="1039.13" cy="1316.00" r="14.97" style="fill:none;stroke:#606060;stroke-width:8.64"/>
	<circle cx="1039.13" cy="1922.27" r="14.97" style="fill:none;stroke:#606060;stroke-width:8.64"/>
	<circle cx="1039.13" cy="1740.47" r="14.97" style="fill:none;stroke:#606060;stroke-width:8.64"/>
	<circle cx="1055.09" cy="920.61" r="14.97" style="fill:none;stroke:#606060;stroke-width:8.64"/>
	<circle cx="1055.09" cy="1183.58" r="14.97" style="fill:none;stroke:#606060;stroke-width:8.64"/>
	<circle cx="1055.09" cy="778.66" r="14.97" style="fill:none;stroke:#606060;stroke-width:8.64"/>
	<circle cx="1071.18" cy="992.13" r="14.97" style="fill:none;stroke:#606060;stroke-width:8.64"/>
	<circle cx="1071.18" cy="2025.85" r="14.97" style="fill:none;stroke:#606060;stroke-width:8.64"/>
	<circle cx="1071.18" cy="573.10" r="14.97" style="fill:none;stroke:#606060;stroke-width:8.64"/>
	<circle cx="1087.14" cy="1314.88" r="14.97" style="fill:none;stroke:#606060;stroke-width:8.64"/>
	<circle cx="1087.14" cy="755.64" r="14.97" style="fill:none;stroke:#606060;stroke-width:8.64"/>
	<circle cx="1087.14" cy="1176.78" r="14.97" style="fill:none;stroke:#606060;stroke-width:8.64"/>
	<circle cx="1087.14" cy="2098.74" r="14.97" style="fill:none;stroke:#606060;stroke-width:8.64"/>
	<circle cx="1103.23" cy="1488.39" r="14.97" style="fill:none;stroke:#606060;stroke-width:8.64"/>
	<circle cx="1103.23" cy="1952.34" r="14.97" style="fill:none;stroke:#606060;stroke-width:8.64"/>
	<circle cx="1103.23" cy="2082.90" r="14.97" style="fill:none;stroke:#606060;stroke-width:8.64"/>
	<circle cx="1103.23" cy="1103.76" r="14.97" style="fill:none;stroke:#606060;stroke-width:8.64"/>
	<circle cx="1119.19" cy="733.12" r="14.97" style="fill:none;stroke:#606060;stroke-width:8.64"/>
	<circle cx="1119.19" cy="918.01" r="14.97" style="fill:none;stroke:#606060;stroke-width:8.64"/>
	<circle cx="1135.28" cy="2255.29" r="14.97" style="fill:none;stroke:#606060;stroke-width:8.64"/>
	<circle cx="1135.28" cy="792.27" r="14.97" style="fill:none;stroke:#606060;stroke-width:8.64"/>
	<circle cx="1135.28" cy="979.26" r="14.97" style="fill:none;stroke:#606060;stroke-width:8.64"/>
	<circle cx="1135.28" cy="1027.28" r="14.97" style="fill:none;stroke:#606060;stroke-width:8.64"/>
	<circle cx="1135.28" cy="1666.35" r="14.97" style="fill:none;stroke:#606060;stroke-width:8.64"/>
	<circle cx="1151.25" cy="658.00" r="14.97" style="fill:none;stroke:#606060;stroke-width:8.64"/>
	<circle cx="1151.25" cy="2351.45" r="14.97" style="fill:none;stroke:#606060;stroke-width:8.64"/>
	<circle cx="1151.25" cy="1009.46" r="14.97" style="fill:none;stroke:#606060;stroke-width:8.64"/>
	<circle cx="1151.25" cy="2097.50" r="14.97" style="fill:none;stroke:#606060;stroke-width:8.64"/>
	<circle cx="1151.25" cy="1067.75" r="14.97" style="fill:none;stroke:#606060;stroke-width:8.64"/>
	<circle cx="1167.33" cy="1387.16" r="14.97" style="fill:none;stroke:#606060;stroke-width:8.64"/>
	<circle cx="1167.33" cy="1954.57" r="14.97" style="fill:none;stroke:#606060;stroke-width:8.64"/>
	<circle cx="1167.33" cy="1289.14" r="14.97" style="fill:none;stroke:#606060;stroke-width:8.64"/>
	<circle cx="1167.33" cy="1579.47" r="14.97" style="fill:none;stroke:#606060;stroke-width:8.64"/>
	<circle cx="1167.33" cy="629.78" r="14.97" style="fill:none;stroke:#606060;stroke-width:8.64"/>
	<circle cx="1167.33" cy="2196.88" r="14.97" style="fill:none;stroke:#606060;stroke-width:8.64"/>
	<circle cx="1167.33" cy="432.40" r="14.97" style="fill:none;stroke:#606060;stroke-width:8.64"/>
	<circle cx="1183.30" cy="1607.69" r="14.97" style="fill:none;stroke:#606060;stroke-width:8.64"/>
	<circle cx="1183.30" cy="1890.09" r="14.97" style="fill:none;stroke:#606060;stroke-width:8.64"/>
	<circle cx="1183.30" cy="1054.01" r="14.97" style="fill:none;stroke:#606060;stroke-width:8.64"/>
	<circle cx="1183.30" cy="721.24" r="14.97" style="fill:none;stroke:#606060;stroke-width:8.64"/>
	<circle cx="1199.38" cy="1884.15" r="14.97" style="fill:none;stroke:#606060;stroke-width:8.64"/>
	<circle cx="1199.38" cy="1690.97" r="14.97" style="fill:none;stroke:#606060;stroke-width:8.64"/>
	<circle cx="1199.38" cy="841.16" r="14.97" style="fill:none;stroke:#606060;stroke-width:8.64"/>
	<circle cx="1215.35" cy="975.18" r="14.97" style="fill:none;stroke:#606060;stroke-width:8.64"/>
	<circle cx="1215.35" cy="811.95" r="14.97" style="fill:none;stroke:#606060;stroke-width:8.64"/>
	<circle cx="1215.35" cy="884.96" r="14.97" style="fill:none;stroke:#606060;stroke-width:8.64"/>
	<circle cx="1215.35" cy="1112.67" r="14.97" style="fill:none;stroke:#606060;stroke-width:8.64"/>
	<circle cx="1231.44" cy="1681.69" r="14.97" style="fill:none;stroke:#606060;stroke-width:8.64"/>
	<circle cx="1231.44" cy="759.23" r="14.97" style="fill:none;stroke:#606060;stroke-width:8.64"/>
	<circle cx="1231.44" cy="939.42" r="14.97" style="fill:none;stroke:#606060;stroke-width:8.64"/>
	<circle cx="1231.44" cy="1949.00" r="14.97" style="fill:none;stroke:#606060;stroke-width:8.64"/>
	<circle cx="1231.44" cy="751.43" r="14.97" style="fill:none;stroke:#606060;stroke-width:8.64"/>
	<circle cx="1247.40" cy="884.22" r="14.97" style="fill:none;stroke:#606060;stroke-width:8.64"/>
	<circle cx="1247.40" cy="1759.16" r="14.97" style="fill:none;stroke:#606060;stroke-width:8.64"/>
	<circle cx="1247.40" cy="628.67" r="14.97" style="fill:none;stroke:#606060;stroke-width:8.64"/>
	<circle cx="1247.40" cy="701.44" r="14.97" style="fill:none;stroke:#606060;stroke-width:8.64"/>
	<circle cx="1263.49" cy="1266.62" r="14.97" style="fill:none;stroke:#606060;stroke-width:8.64"/>
	<circle cx="1263.49" cy="1075.67" r="14.97" style="fill:none;stroke:#606060;stroke-width:8.64"/>
	<circle cx="1279.45" cy="879.77" r="14.97" style="fill:none;stroke:#606060;stroke-width:8.64"/>
	<circle cx="1279.45" cy="1903.83" r="14.97" style="fill:none;stroke:#606060;stroke-width:8.64"/>
	<circle cx="1279.45" cy="1227.27" r="14.97" style="fill:none;stroke:#606060;stroke-width:8.64"/>
	<circle cx="1279.45" cy="1018.37" r="14.97" style="fill:none;stroke:#606060;stroke-width:8.64"/>
	<circle cx="1279.45" cy="578.67" r="14.97" style="fill:none;stroke:#606060;stroke-width:8.64"/>
	<circle cx="1295.54" cy="942.51" r="14.97" style="fill:none;stroke:#606060;stroke-width:8.64"/>
	<circle cx="1311.50" cy="961.69" r="14.97" style="fill:none;stroke:#606060;stroke-width:8.64"/>
	<circle cx="1311.50" cy="1036.69" r="14.97" style="fill:none;stroke:#606060;stroke-width:8.64"/>
	<circle cx="1311.50" cy="1000.80" r="14.97" style="fill:none;stroke:#606060;stroke-width:8.64"/>
	<circle cx="1327.59" cy="606.89" r="14.97" style="fill:none;stroke:#606060;stroke-width:8.64"/>
	<circle cx="1327.59" cy="1172.57" r="14.97" style="fill:none;stroke:#606060;stroke-width:8.64"/>
	<circle cx="1327.59" cy="1025.18" r="14.97" style="fill:none;stroke:#606060;stroke-width:8.64"/>
	<circle cx="1327.59" cy="780.76" r="14.97" style="fill:none;stroke:#606060;stroke-width:8.64"/>
	<circle cx="1327.59" cy="2048.75" r="14.97" style="fill:none;stroke:#606060;stroke-width:8.64"/>
	<circle cx="1327.59" cy="1778.47" r="14.97" style="fill:none;stroke:#606060;stroke-width:8.64"/>
	<circle cx="1327.59" cy="1055.50" r="14.97" style="fill:none;stroke:#606060;stroke-width:8.64"/>
	<circle cx="1343.55" cy="2014.96" r="14.97" style="fill:none;stroke:#606060;stroke-width:8.64"/>
	<circle cx="1343.55" cy="1153.76" r="14.97" style="fill:none;stroke:#606060;stroke-width:8.64"/>
	<circle cx="1343.55" cy="1827.23" r="14.97" style="fill:none;stroke:#606060;stroke-width:8.64"/>
	<circle cx="1343.55" cy="835.96" r="14.97" style="fill:none;stroke:#606060;stroke-width:8.64"/>
	<circle cx="1343.55" cy="947.09" r="14.97" style="fill:none;stroke:#606060;stroke-width:8.64"/>
	<circle cx="1343.55" cy="1552.12" r="14.97" style="fill:none;stroke:#606060;stroke-width:8.64"/>
	<circle cx="1343.55" cy="996.84" r="14.97" style="fill:none;stroke:#606060;stroke-width:8.64"/>
	<circle cx="1359.64" cy="1271.45" r="14.97" style="fill:none;stroke:#606060;stroke-width:8.64"/>
	<circle cx="1359.64" cy="865.66" r="14.97" style="fill:none;stroke:#606060;stroke-width:8.64"/>
	<circle cx="1359.64" cy="827.17" r="14.97" style="fill:none;stroke:#606060;stroke-width:8.64"/>
	<circle cx="1359.64" cy="1347.68" r="14.97" style="fill:none;stroke:#606060;stroke-width:8.64"/>
	<circle cx="1375.61" cy="1267.86" r="14.97" style="fill:none;stroke:#606060;stroke-width:8.64"/>
	<circle cx="1375.61" cy="1083.34" r="14.97" style="fill:none;stroke:#606060;stroke-width:8.64"/>
	<circle cx="1391.69" cy="1274.54" r="14.97" style="fill:none;stroke:#606060;stroke-width:8.64"/>
	<circle cx="1391.69" cy="735.35" r="14.97" style="fill:none;stroke:#606060;stroke-width:8.64"/>
	<circle cx="1391.69" cy="907.49" r="14.97" style="fill:none;stroke:#606060;stroke-width:8.64"/>
	<circle cx="1391.69" cy="1226.03" r="14.97" style="fill:none;stroke:#606060;stroke-width:8.64"/>
	<circle cx="1391.69" cy="816.16" r="14.97" style="fill:none;stroke:#606060;stroke-width:8.64"/>
	<circle cx="1391.69" cy="1057.85" r="14.97" style="fill:none;stroke:#606060;stroke-width:8.64"/>
	<circle cx="1391.69" cy="961.69" r="14.97" style="fill:none;stroke:#606060;stroke-width:8.64"/>
	<circle cx="1407.66" cy="986.32" r="14.97" style="fill:none;stroke:#606060;stroke-width:8.64"/>
	<circle cx="1407.66" cy="773.21" r="14.97" style="fill:none;stroke:#606060;stroke-width:8.64"/>
	<circle cx="1407.66" cy="845.61" r="14.97" style="fill:none;stroke:#606060;stroke-width:8.64"/>
	<circle cx="1423.74" cy="873.33" r="14.97" style="fill:none;stroke:#606060;stroke-width:8.64"/>
	<circle cx="1423.74" cy="1768.94" r="14.97" style="fill:none;stroke:#606060;stroke-width:8.64"/>
	<circle cx="1455.80" cy="1358.82" r="14.97" style="fill:none;stroke:#606060;stroke-width:8.64"/>
	<circle cx="1455.80" cy="618.77" r="14.97" style="fill:none;stroke:#606060;stroke-width:8.64"/>
	<circle cx="1455.80" cy="1014.41" r="14.97" style="fill:none;stroke:#606060;stroke-width:8.64"/>
	<circle cx="1471.76" cy="1748.27" r="14.97" style="fill:none;stroke:#606060;stroke-width:8.64"/>
	<circle cx="1471.76" cy="2236.11" r="14.97" style="fill:none;stroke:#606060;stroke-width:8.64"/>
	<circle cx="1471.76" cy="842.76" r="14.97" style="fill:none;stroke:#606060;stroke-width:8.64"/>
	<circle cx="1487.85" cy="1090.40" r="14.97" style="fill:none;stroke:#606060;stroke-width:8.64"/>
	<circle cx="1487.85" cy="1657.93" r="14.97" style="fill:none;stroke:#606060;stroke-width:8.64"/>
	<circle cx="1503.81" cy="1241.62" r="14.97" style="fill:none;stroke:#606060;stroke-width:8.64"/>
	<circle cx="1503.81" cy="1234.20" r="14.97" style="fill:none;stroke:#606060;stroke-width:8.64"/>
	<circle cx="1519.90" cy="1750.37" r="14.97" style="fill:none;stroke:#606060;stroke-width:8.64"/>
	<circle cx="1519.90" cy="868.01" r="14.97" style="fill:none;stroke:#606060;stroke-width:8.64"/>
	<circle cx="1519.90" cy="1551.13" r="14.97" style="fill:none;stroke:#606060;stroke-width:8.64"/>
	<circle cx="1519.90" cy="1239.89" r="14.97" style="fill:none;stroke:#606060;stroke-width:8.64"/>
	<circle cx="1535.86" cy="855.51" r="14.97" style="fill:none;stroke:#606060;stroke-width:8.64"/>
	<circle cx="1551.95" cy="1036.31" r="14.97" style="fill:none;stroke:#606060;stroke-width:8.64"/>
	<circle cx="1551.95" cy="1579.10" r="14.97" style="fill:none;stroke:#606060;stroke-width:8.64"/>
	<circle cx="1567.91" cy="1004.88" r="14.97" style="fill:none;stroke:#606060;stroke-width:8.64"/>
	<circle cx="1567.91" cy="921.35" r="14.97" style="fill:none;stroke:#606060;stroke-width:8.64"/>
	<circle cx="1567.91" cy="1571.18" r="14.97" style="fill:none;stroke:#606060;stroke-width:8.64"/>
	<circle cx="1567.91" cy="843.14" r="14.97" style="fill:none;stroke:#606060;stroke-width:8.64"/>
	<circle cx="1584.00" cy="992.38" r="14.97" style="fill:none;stroke:#606060;stroke-width:8.64"/>
	<circle cx="1584.00" cy="847.22" r="14.97" style="fill:none;stroke:#606060;stroke-width:8.64"/>
	<circle cx="1616.05" cy="1754.83" r="14.97" style="fill:none;stroke:#606060;stroke-width:8.64"/>
	<circle cx="1616.05" cy="1047.21" r="14.97" style="fill:none;stroke:#606060;stroke-width:8.64"/>
	<circle cx="1648.10" cy="1017.38" r="14.97" style="fill:none;stroke:#606060;stroke-width:8.64"/>
	<circle cx="1664.07" cy="1279.49" r="14.97" style="fill:none;stroke:#606060;stroke-width:8.64"/>
	<circle cx="1664.07" cy="746.73" r="14.97" style="fill:none;stroke:#606060;stroke-width:8.64"/>
	<circle cx="1664.07" cy="971.59" r="14.97" style="fill:none;stroke:#606060;stroke-width:8.64"/>
	<circle cx="1664.07" cy="974.07" r="14.97" style="fill:none;stroke:#606060;stroke-width:8.64"/>
	<circle cx="1680.15" cy="1195.96" r="14.97" style="fill:none;stroke:#606060;stroke-width:8.64"/>
	<circle cx="1680.15" cy="1912.00" r="14.97" style="fill:none;stroke:#606060;stroke-width:8.64"/>
	<circle cx="1680.15" cy="1282.21" r="14.97" style="fill:none;stroke:#606060;stroke-width:8.64"/>
	<circle cx="1696.12" cy="404.18" r="14.97" style="fill:none;stroke:#606060;stroke-width:8.64"/>
	<circle cx="1696.12" cy="1158.71" r="14.97" style="fill:none;stroke:#606060;stroke-width:8.64"/>
	<circle cx="1712.20" cy="1570.44" r="14.97" style="fill:none;stroke:#606060;stroke-width:8.64"/>
	<circle cx="1712.20" cy="742.03" r="14.97" style="fill:none;stroke:#606060;stroke-width:8.64"/>
	<circle cx="1712.20" cy="772.35" r="14.97" style="fill:none;stroke:#606060;stroke-width:8.64"/>
	<circle cx="1712.20" cy="902.78" r="14.97" style="fill:none;stroke:#606060;stroke-width:8.64"/>
	<circle cx="1728.17" cy="1135.81" r="14.97" style="fill:none;stroke:#606060;stroke-width:8.64"/>
	<circle cx="1728.17" cy="1413.27" r="14.97" style="fill:none;stroke:#606060;stroke-width:8.64"/>
	<circle cx="1744.26" cy="1669.44" r="14.97" style="fill:none;stroke:#606060;stroke-width:8.64"/>
	<circle cx="1760.22" cy="1920.41" r="14.97" style="fill:none;stroke:#606060;stroke-width:8.64"/>
	<circle cx="1760.22" cy="1076.66" r="14.97" style="fill:none;stroke:#606060;stroke-width:8.64"/>
	<circle cx="1776.31" cy="915.78" r="14.97" style="fill:none;stroke:#606060;stroke-width:8.64"/>
	<circle cx="1792.27" cy="939.54" r="14.97" style="fill:none;stroke:#606060;stroke-width:8.64"/>
	<circle cx="1792.27" cy="2204.18" r="14.97" style="fill:none;stroke:#606060;stroke-width:8.64"/>
	<circle cx="1808.36" cy="1931.06" r="14.97" style="fill:none;stroke:#606060;stroke-width:8.64"/>
	<circle cx="1808.36" cy="961.57" r="14.97" style="fill:none;stroke:#606060;stroke-width:8.64"/>
	<circle cx="1824.32" cy="993.99" r="14.97" style="fill:none;stroke:#606060;stroke-width:8.64"/>
	<circle cx="1824.32" cy="721.61" r="14.97" style="fill:none;stroke:#606060;stroke-width:8.64"/>
	<circle cx="1840.41" cy="871.10" r="14.97" style="fill:none;stroke:#606060;stroke-width:8.64"/>
	<circle cx="1840.41" cy="952.90" r="14.97" style="fill:none;stroke:#606060;stroke-width:8.64"/>
	<circle cx="1840.41" cy="929.52" r="14.97" style="fill:none;stroke:#606060;stroke-width:8.64"/>
	<circle cx="1904.51" cy="1012.55" r="14.97" style="fill:none;stroke:#606060;stroke-width:8.64"/>
	<circle cx="1904.51" cy="2121.39" r="14.97" style="fill:none;stroke:#606060;stroke-width:8.64"/>
	<circle cx="1904.51" cy="1571.67" r="14.97" style="fill:none;stroke:#606060;stroke-width:8.64"/>
	<circle cx="1920.60" cy="911.45" r="14.97" style="fill:none;stroke:#606060;stroke-width:8.64"/>
	<circle cx="1920.60" cy="1000.30" r="14.97" style="fill:none;stroke:#606060;stroke-width:8.64"/>
	<circle cx="1936.56" cy="644.39" r="14.97" style="fill:none;stroke:#606060;stroke-width:8.64"/>
	<circle cx="1968.62" cy="895.11" r="14.97" style="fill:none;stroke:#606060;stroke-width:8.64"/>
	<circle cx="1984.70" cy="2100.97" r="14.97" style="fill:none;stroke:#606060;stroke-width:8.64"/>
	<circle cx="2016.75" cy="1034.21" r="14.97" style="fill:none;stroke:#606060;stroke-width:8.64"/>
	<circle cx="2032.72" cy="2082.90" r="14.97" style="fill:none;stroke:#606060;stroke-width:8.64"/>
	<circle cx="2048.80" cy="910.58" r="14.97" style="fill:none;stroke:#606060;stroke-width:8.64"/>
	<circle cx="2064.77" cy="707.62" r="14.97" style="fill:none;stroke:#606060;stroke-width:8.64"/>
	<circle cx="2080.86" cy="1047.70" r="14.97" style="fill:none;stroke:#606060;stroke-width:8.64"/>
	<circle cx="2080.86" cy="1622.29" r="14.97" style="fill:none;stroke:#606060;stroke-width:8.64"/>
	<circle cx="2128.87" cy="1196.70" r="14.97" style="fill:none;stroke:#606060;stroke-width:8.64"/>
	<circle cx="2144.96" cy="1191.63" r="14.97" style="fill:none;stroke:#606060;stroke-width:8.64"/>
	<circle cx="2160.92" cy="1081.11" r="14.97" style="fill:none;stroke:#606060;stroke-width:8.64"/>
	<circle cx="2160.92" cy="2088.72" r="14.97" style="fill:none;stroke:#606060;stroke-width:8.64"/>
	<circle cx="2177.01" cy="942.39" r="14.97" style="fill:none;stroke:#606060;stroke-width:8.64"/>
	<circle cx="2177.01" cy="1484.06" r="14.97" style="fill:none;stroke:#606060;stroke-width:8.64"/>
	<circle cx="2192.97" cy="2120.77" r="14.97" style="fill:none;stroke:#606060;stroke-width:8.64"/>
	<circle cx="2192.97" cy="1288.03" r="14.97" style="fill:none;stroke:#606060;stroke-width:8.64"/>
	<circle cx="2225.03" cy="1068.49" r="14.97" style="fill:none;stroke:#606060;stroke-width:8.64"/>
	<circle cx="2241.11" cy="993.00" r="14.97" style="fill:none;stroke:#606060;stroke-width:8.64"/>
	<circle cx="2305.22" cy="2001.60" r="14.97" style="fill:none;stroke:#606060;stroke-width:8.64"/>
	<circle cx="2337.27" cy="1840.22" r="14.97" style="fill:none;stroke:#606060;stroke-width:8.64"/>
	<circle cx="2353.23" cy="1087.30" r="14.97" style="fill:none;stroke:#606060;stroke-width:8.64"/>
	<circle cx="2385.28" cy="2024.12" r="14.97" style="fill:none;stroke:#606060;stroke-width:8.64"/>
	<circle cx="2401.37" cy="1037.55" r="14.97" style="fill:none;stroke:#606060;stroke-width:8.64"/>
	<circle cx="2449.38" cy="896.60" r="14.97" style="fill:none;stroke:#606060;stroke-width:8.64"/>
	<circle cx="2481.43" cy="722.97" r="14.97" style="fill:none;stroke:#606060;stroke-width:8.64"/>
	<circle cx="2641.69" cy="915.90" r="14.97" style="fill:none;stroke:#606060;stroke-width:8.64"/>
	<circle cx="2689.83" cy="912.07" r="14.97" style="fill:none;stroke:#606060;stroke-width:8.64"/>
	<circle cx="2753.93" cy="897.22" r="14.97" style="fill:none;stroke:#606060;stroke-width:8.64"/>
	<circle cx="2818.03" cy="1948.13" r="14.97" style="fill:none;stroke:#606060;stroke-width:8.64"/>
	<circle cx="2930.28" cy="1193.11" r="14.97" style="fill:none;stroke:#606060;stroke-width:8.64"/>
	<circle cx="2962.33" cy="1147.57" r="14.97" style="fill:none;stroke:#606060;stroke-width:8.64"/>
	<circle cx="2994.38" cy="1193.85" r="14.97" style="fill:none;stroke:#606060;stroke-width:8.64"/>
	<circle cx="3010.34" cy="1657.68" r="14.97" style="fill:none;stroke:#606060;stroke-width:8.64"/>
	<circle cx="3154.64" cy="354.31" r="14.97" style="fill:none;stroke:#606060;stroke-width:8.64"/>
	<circle cx="3186.69" cy="1143.86" r="14.97" style="fill:none;stroke:#606060;stroke-width:8.64"/>
	<circle cx="3218.74" cy="459.62" r="14.97" style="fill:none;stroke:#606060;stroke-width:8.64"/>
	<circle cx="3250.79" cy="807.12" r="14.97" style="fill:none;stroke:#606060;stroke-width:8.64"/>
	<circle cx="3266.75" cy="298.74" r="14.97" style="fill:none;stroke:#606060;stroke-width:8.64"/>
	<circle cx="3330.86" cy="826.68" r="14.97" style="fill:none;stroke:#606060;stroke-width:8.64"/>
	<circle cx="3346.94" cy="1344.96" r="14.97" style="fill:none;stroke:#606060;stroke-width:8.64"/>
	<circle cx="3362.91" cy="1833.41" r="14.97" style="fill:none;stroke:#606060;stroke-width:8.64"/>
	<circle cx="3362.91" cy="965.65" r="14.97" style="fill:none;stroke:#606060;stroke-width:8.64"/>
	<circle cx="3411.05" cy="2202.45" r="14.97" style="fill:none;stroke:#606060;stroke-width:8.64"/>
	<circle cx="3427.01" cy="1857.92" r="14.97" style="fill:none;stroke:#606060;stroke-width:8.64"/>
	<circle cx="3443.10" cy="1094.97" r="14.97" style="fill:none;stroke:#606060;stroke-width:8.64"/>
	<circle cx="3443.10" cy="687.33" r="14.97" style="fill:none;stroke:#606060;stroke-width:8.64"/>
	<circle cx="3459.06" cy="1906.55" r="14.97" style="fill:none;stroke:#606060;stroke-width:8.64"/>
	<circle cx="3459.06" cy="834.60" r="14.97" style="fill:none;stroke:#606060;stroke-width:8.64"/>
	<circle cx="3475.15" cy="1135.69" r="14.97" style="fill:none;stroke:#606060;stroke-width:8.64"/>
	<circle cx="3491.11" cy="1077.15" r="14.97" style="fill:none;stroke:#606060;stroke-width:8.64"/>
	<circle cx="3491.11" cy="1150.66" r="14.97" style="fill:none;stroke:#606060;stroke-width:8.64"/>
	<circle cx="3491.11" cy="951.17" r="14.97" style="fill:none;stroke:#606060;stroke-width:8.64"/>
	<circle cx="3507.20" cy="1586.28" r="14.97" style="fill:none;stroke:#606060;stroke-width:8.64"/>
	<circle cx="3523.16" cy="1634.05" r="14.97" style="fill:none;stroke:#606060;stroke-width:8.64"/>
	<circle cx="3587.26" cy="1803.09" r="14.97" style="fill:none;stroke:#606060;stroke-width:8.64"/>
	<circle cx="3587.26" cy="919.99" r="14.97" style="fill:none;stroke:#606060;stroke-width:8.64"/>
	<circle cx="3603.35" cy="1653.23" r="14.97" style="fill:none;stroke:#606060;stroke-width:8.64"/>
	<circle cx="3603.35" cy="2018.55" r="14.97" style="fill:none;stroke:#606060;stroke-width:8.64"/>
	<circle cx="3603.35" cy="1273.80" r="14.97" style="fill:none;stroke:#606060;stroke-width:8.64"/>
	<circle cx="3619.32" cy="1754.95" r="14.97" style="fill:none;stroke:#606060;stroke-width:8.64"/>
	<circle cx="3619.32" cy="1067.87" r="14.97" style="fill:none;stroke:#606060;stroke-width:8.64"/>
	<circle cx="3635.40" cy="915.53" r="14.97" style="fill:none;stroke:#606060;stroke-width:8.64"/>
	<circle cx="3651.37" cy="1589.99" r="14.97" style="fill:none;stroke:#606060;stroke-width:8.64"/>
	<circle cx="3667.45" cy="1900.24" r="14.97" style="fill:none;stroke:#606060;stroke-width:8.64"/>
	<circle cx="3683.42" cy="2023.62" r="14.97" style="fill:none;stroke:#606060;stroke-width:8.64"/>
	<circle cx="3683.42" cy="681.51" r="14.97" style="fill:none;stroke:#606060;stroke-width:8.64"/>
	<circle cx="3683.42" cy="552.31" r="14.97" style="fill:none;stroke:#606060;stroke-width:8.64"/>
	<circle cx="3699.51" cy="714.06" r="14.97" style="fill:none;stroke:#606060;stroke-width:8.64"/>
	<circle cx="3699.51" cy="770.37" r="14.97" style="fill:none;stroke:#606060;stroke-width:8.64"/>
	<circle cx="3715.47" cy="705.15" r="14.97" style="fill:none;stroke:#606060;stroke-width:8.64"/>
	<circle cx="3715.47" cy="1527.87" r="14.97" style="fill:none;stroke:#606060;stroke-width:8.64"/>
	<circle cx="3731.56" cy="951.17" r="14.97" style="fill:none;stroke:#606060;stroke-width:8.64"/>
	<circle cx="3731.56" cy="2114.83" r="14.97" style="fill:none;stroke:#606060;stroke-width:8.64"/>
	<circle cx="3747.52" cy="986.81" r="14.97" style="fill:none;stroke:#606060;stroke-width:8.64"/>
	<circle cx="3747.52" cy="2071.02" r="14.97" style="fill:none;stroke:#606060;stroke-width:8.64"/>
	<circle cx="3747.52" cy="1155.24" r="14.97" style="fill:none;stroke:#606060;stroke-width:8.64"/>
	<circle cx="3747.52" cy="920.11" r="14.97" style="fill:none;stroke:#606060;stroke-width:8.64"/>
	<circle cx="3747.52" cy="959.22" r="14.97" style="fill:none;stroke:#606060;stroke-width:8.64"/>
	<circle cx="3763.61" cy="1106.48" r="14.97" style="fill:none;stroke:#606060;stroke-width:8.64"/>
	<circle cx="3779.57" cy="917.76" r="14.97" style="fill:none;stroke:#606060;stroke-width:8.64"/>
	<circle cx="3795.66" cy="587.71" r="14.97" style="fill:none;stroke:#606060;stroke-width:8.64"/>
	<circle cx="3795.66" cy="1241.13" r="14.97" style="fill:none;stroke:#606060;stroke-width:8.64"/>
	<circle cx="3795.66" cy="665.67" r="14.97" style="fill:none;stroke:#606060;stroke-width:8.64"/>
	<circle cx="3795.66" cy="965.03" r="14.97" style="fill:none;stroke:#606060;stroke-width:8.64"/>
	<path d=" M590.29 1207.59 L638.43 1208.95 L654.39 1214.03 L670.48 1214.52 L686.44 1217.00 L686.44 1213.04 L686.44 1219.72 L686.44 1214.40 L702.53 1217.00 L702.53 1221.45 L702.53 1220.34 L718.49 1217.12 L718.49 1221.45 L734.58 1224.42 L750.54 1221.95 L750.54 1220.46 L750.54 1217.86 L750.54 1215.76 L750.54 1215.14 L766.63 1217.99 L766.63 1215.14 L766.63 1213.53 L766.63 1217.99 L782.60 1215.14 L782.60 1213.16 L798.68 1216.38 L798.68 1212.91 L798.68 1209.94 L798.68 1210.31 L798.68 1209.45 L798.68 1207.59 L814.65 1211.55 L814.65 1211.67 L814.65 1210.56 L814.65 1206.97 L814.65 1205.49 L814.65 1204.13 L830.73 1203.26 L830.73 1202.15 L830.73 1198.80 L846.70 1198.68 L846.70 1197.81 L846.70 1195.46 L862.78 1200.04 L862.78 1203.14 L862.78 1202.39 L862.78 1206.72 L878.75 1206.48 L878.75 1209.69 L878.75 1207.71 L878.75 1206.35 L894.84 1208.21 L894.84 1207.10 L894.84 1207.34 L894.84 1205.61 L894.84 1203.75 L894.84 1204.50 L894.84 1204.74 L894.84 1204.13 L894.84 1204.50 L910.80 1202.27 L910.80 1200.78 L910.80 1200.91 L910.80 1199.05 L910.80 1198.31 L910.80 1197.19 L910.80 1196.20 L910.80 1194.22 L910.80 1192.49 L910.80 1191.01 L926.89 1193.73 L926.89 1194.47 L926.89 1191.87 L926.89 1191.01 L926.89 1193.61 L926.89 1198.31 L942.98 1196.70 L942.98 1196.20 L942.98 1198.31 L942.98 1198.56 L942.98 1198.68 L942.98 1201.16 L942.98 1199.67 L942.98 1201.28 L942.98 1201.40 L958.94 1199.92 L958.94 1199.17 L958.94 1200.78 L975.03 1200.04 L975.03 1198.80 L975.03 1200.41 L990.99 1198.80 L990.99 1197.94 L990.99 1196.45 L990.99 1198.80 L990.99 1198.18 L990.99 1197.44 L990.99 1197.81 L990.99 1195.96 L1007.08 1194.97 L1007.08 1194.10 L1007.08 1194.10 L1007.08 1197.07 L1023.04 1197.32 L1023.04 1194.10 L1023.04 1193.98 L1023.04 1195.59 L1023.04 1193.73 L1023.04 1192.00 L1039.13 1190.88 L1039.13 1190.64 L1039.13 1191.50 L1039.13 1193.36 L1039.13 1196.20 L1039.13 1195.83 L1039.13 1194.72 L1039.13 1193.73 L1055.09 1197.57 L1055.09 1200.41 L1055.09 1199.55 L1071.18 1198.68 L1071.18 1196.95 L1071.18 1195.71 L1087.14 1194.72 L1087.14 1193.73 L1087.14 1193.11 L1087.14 1196.58 L1103.23 1197.94 L1103.23 1196.95 L1103.23 1196.20 L1103.23 1194.10 L1119.19 1193.11 L1119.19 1196.33 L1135.28 1195.71 L1135.28 1198.93 L1135.28 1197.94 L1135.28 1196.20 L1135.28 1195.71 L1151.25 1197.19 L1151.25 1197.19 L1151.25 1197.19 L1151.25 1196.70 L1151.25 1199.92 L1167.33 1200.17 L1167.33 1197.94 L1167.33 1202.15 L1167.33 1202.02 L1167.33 1202.64 L1167.33 1201.40 L1167.33 1204.13 L1183.30 1206.35 L1183.30 1205.98 L1183.30 1210.19 L1183.30 1209.94 L1199.38 1209.20 L1199.38 1209.32 L1199.38 1208.58 L1215.35 1207.47 L1215.35 1204.37 L1215.35 1206.48 L1215.35 1207.59 L1231.44 1208.09 L1231.44 1209.69 L1231.44 1211.80 L1231.44 1209.69 L1231.44 1207.96 L1247.40 1208.21 L1247.40 1204.00 L1247.40 1200.66 L1247.40 1199.55 L1263.49 1200.66 L1263.49 1204.62 L1279.45 1205.86 L1279.45 1206.48 L1279.45 1209.94 L1279.45 1210.44 L1279.45 1210.68 L1295.54 1209.45 L1311.50 1206.48 L1311.50 1206.11 L1311.50 1207.10 L1327.59 1207.22 L1327.59 1206.60 L1327.59 1206.23 L1327.59 1208.09 L1327.59 1210.19 L1327.59 1207.59 L1327.59 1210.31 L1343.55 1214.40 L1343.55 1213.41 L1343.55 1216.87 L1343.55 1215.14 L1343.55 1216.01 L1343.55 1215.76 L1343.55 1218.98 L1359.64 1220.71 L1359.64 1219.35 L1359.64 1218.98 L1359.64 1218.11 L1375.61 1216.25 L1375.61 1216.01 L1391.69 1218.11 L1391.69 1217.37 L1391.69 1220.46 L1391.69 1216.75 L1391.69 1220.58 L1391.69 1220.96 L1391.69 1221.20 L1407.66 1221.45 L1407.66 1217.86 L1407.66 1218.85 L1423.74 1213.28 L1423.74 1211.18 L1455.80 1209.94 L1455.80 1210.56 L1455.80 1209.69 L1471.76 1210.56 L1471.76 1211.80 L1471.76 1214.03 L1487.85 1214.40 L1487.85 1214.77 L1503.81 1215.88 L1503.81 1214.15 L1519.90 1210.44 L1519.90 1211.92 L1519.90 1213.28 L1519.90 1214.64 L1535.86 1213.65 L1551.95 1211.55 L1551.95 1209.20 L1567.91 1210.31 L1567.91 1211.18 L1567.91 1209.57 L1567.91 1210.44 L1584.00 1208.58 L1584.00 1208.46 L1616.05 1206.72 L1616.05 1207.96 L1648.10 1206.85 L1664.07 1206.97 L1664.07 1207.22 L1664.07 1209.45 L1664.07 1210.56 L1680.15 1211.67 L1680.15 1215.02 L1680.15 1217.00 L1696.12 1214.64 L1696.12 1214.40 L1712.20 1215.51 L1712.20 1217.61 L1712.20 1218.48 L1712.20 1218.85 L1728.17 1219.72 L1728.17 1219.97 L1744.26 1217.49 L1760.22 1218.23 L1760.22 1219.35 L1776.31 1218.85 L1792.27 1216.01 L1792.27 1213.78 L1808.36 1215.02 L1808.36 1215.14 L1824.32 1217.00 L1824.32 1217.99 L1840.41 1214.52 L1840.41 1217.24 L1840.41 1216.87 L1904.51 1218.85 L1904.51 1218.98 L1904.51 1215.14 L1920.60 1214.03 L1920.60 1210.81 L1936.56 1206.97 L1968.62 1207.34 L1984.70 1209.45 L2016.75 1210.81 L2032.72 1206.11 L2048.80 1207.96 L2064.77 1208.95 L2080.86 1209.82 L2080.86 1207.71 L2128.87 1210.31 L2144.96 1204.99 L2160.92 1205.86 L2160.92 1201.77 L2177.01 1202.39 L2177.01 1201.53 L2192.97 1197.94 L2192.97 1197.57 L2225.03 1195.71 L2241.11 1198.43 L2305.22 1193.61 L2337.27 1197.32 L2353.23 1195.34 L2385.28 1191.87 L2401.37 1192.62 L2449.38 1194.97 L2481.43 1191.50 L2641.69 1189.03 L2689.83 1190.76 L2753.93 1191.87 L2818.03 1193.73 L2930.28 1195.34 L2962.33 1195.71 L2994.38 1193.23 L3010.34 1195.46 L3154.64 1196.82 L3186.69 1192.86 L3218.74 1195.21 L3250.79 1196.82 L3266.75 1193.85 L3330.86 1196.82 L3346.94 1199.55 L3362.91 1199.17 L3362.91 1199.79 L3411.05 1201.53 L3427.01 1197.69 L3443.10 1197.57 L3443.10 1198.56 L3459.06 1202.02 L3459.06 1203.51 L3475.15 1204.87 L3491.11 1205.73 L3491.11 1206.97 L3491.11 1210.31 L3507.20 1210.56 L3523.16 1211.67 L3587.26 1214.15 L3587.26 1209.32 L3603.35 1205.98 L3603.35 1206.85 L3603.35 1202.02 L3619.32 1202.27 L3619.32 1198.56 L3635.40 1200.78 L3651.37 1202.27 L3667.45 1200.17 L3683.42 1201.40 L3683.42 1200.91 L3683.42 1203.01 L3699.51 1205.36 L3699.51 1204.50 L3715.47 1204.13 L3715.47 1204.87 L3731.56 1204.37 L3731.56 1207.47 L3747.52 1209.45 L3747.52 1209.32 L3747.52 1211.92 L3747.52 1212.91 L3747.52 1214.64 L3763.61 1216.13 L3779.57 1219.22 L3795.66 1221.70 L3795.66 1224.17 L3795.66 1220.34 L3795.66 1219.35" stroke-linejoin="round" style="fill:none;stroke:#000000;stroke-width:8.64"/>
	<line x1="350.71" y1="2414.69" x2="350.71" y2="235.38" style="stroke:#000000;stroke-width:5.76"/>
	<line x1="350.71" y1="2250.34" x2="310.74" y2="2250.34" style="stroke:#000000;stroke-width:5.76"/>
	<text x="266.64" y="2250.34" style="font-family:'Helvetica';font-size:79.94px;fill:#000000" transform="rotate(-90 266.64,2250.34)" text-anchor="middle">-6</text>
	<line x1="350.71" y1="1883.41" x2="310.74" y2="1883.41" style="stroke:#000000;stroke-width:5.76"/>
	<text x="266.64" y="1883.41" style="font-family:'Helvetica';font-size:79.94px;fill:#000000" transform="rotate(-90 266.64,1883.41)" text-anchor="middle">-4</text>
	<line x1="350.71" y1="1516.60" x2="310.74" y2="1516.60" style="stroke:#000000;stroke-width:5.76"/>
	<text x="266.64" y="1516.60" style="font-family:'Helvetica';font-size:79.94px;fill:#000000" transform="rotate(-90 266.64,1516.60)" text-anchor="middle">-2</text>
	<line x1="350.71" y1="1149.67" x2="310.74" y2="1149.67" style="stroke:#000000;stroke-width:5.76"/>
	<text x="266.64" y="1149.67" style="font-family:'Helvetica';font-size:79.94px;fill:#000000" transform="rotate(-90 266.64,1149.67)" text-anchor="middle">0</text>
	<line x1="350.71" y1="782.87" x2="310.74" y2="782.87" style="stroke:#000000;stroke-width:5.76"/>
	<text x="266.64" y="782.87" style="font-family:'Helvetica';font-size:79.94px;fill:#000000" transform="rotate(-90 266.64,782.87)" text-anchor="middle">2</text>
	<line x1="350.71" y1="415.94" x2="310.74" y2="415.94" style="stroke:#000000;stroke-width:5.76"/>
	<text x="266.64" y="415.94" style="font-family:'Helvetica';font-size:79.94px;fill:#000000" transform="rotate(-90 266.64,415.94)" text-anchor="middle">4</text>
	<text x="176.68" y="1325.03" style="font-family:'Helvetica';font-size:79.94px;fill:#000000" transform="rotate(-90 176.68,1325.03)" text-anchor="middle">Scaled Schoenfeld Residuals</text>
	<line x1="350.71" y1="2414.69" x2="3859.02" y2="2414.69" style="stroke:#000000;stroke-width:5.76"/>
	<line x1="414.07" y1="2414.69" x2="414.07" y2="2454.66" style="stroke:#000000;stroke-width:5.76"/>
	<text x="414.07" y="2530.61" style="font-family:'Helvetica';font-size:79.94px;fill:#000000" text-anchor="middle">0</text>
	<line x1="1215.47" y1="2414.69" x2="1215.47" y2="2454.66" style="stroke:#000000;stroke-width:5.76"/>
	<text x="1215.47" y="2530.61" style="font-family:'Helvetica';font-size:79.94px;fill:#000000" text-anchor="middle">50</text>
	<line x1="2016.75" y1="2414.69" x2="2016.75" y2="2454.66" style="stroke:#000000;stroke-width:5.76"/>
	<text x="2016.75" y="2530.61" style="font-family:'Helvetica';font-size:79.94px;fill:#000000" text-anchor="middle">100</text>
	<line x1="2818.03" y1="2414.69" x2="2818.03" y2="2454.66" style="stroke:#000000;stroke-width:5.76"/>
	<text x="2818.03" y="2530.61" style="font-family:'Helvetica';font-size:79.94px;fill:#000000" text-anchor="middle">150</text>
	<line x1="3619.44" y1="2414.69" x2="3619.44" y2="2454.66" style="stroke:#000000;stroke-width:5.76"/>
	<text x="3619.44" y="2530.61" style="font-family:'Helvetica';font-size:79.94px;fill:#000000" text-anchor="middle">200</text>
	<text x="2104.86" y="2620.57" style="font-family:'Helvetica';font-size:79.94px;fill:#000000" text-anchor="middle">Time</text>
	<text x="368.03" y="2737.89" style="font-family:'Helvetica';font-size:79.94px;fill:#000000">bandwidth = .8</text>
	<text x="368.03" y="187.99" style="font-family:'Helvetica';font-size:99.99px;fill:#000000">Schoenfeld residuals against time, fully adjusted</text>
</svg>
