<?xml version="1.0" encoding="UTF-8" standalone="no"?>
<!-- This is a Stata 16.1 generated SVG file (http://www.stata.com) -->

<svg version="1.1" width="5.50in" height="4.00in" viewBox="0 0 3960 2880" xmlns="http://www.w3.org/2000/svg" xmlns:xlink="http://www.w3.org/1999/xlink">
	<desc>Stata Graph - Graph</desc>
	<rect x="0" y="0" width="3960" height="2880" style="fill:#FFFFFF;stroke:none"/>
	<rect x="0.00" y="0.00" width="3959.88" height="2880.00" style="fill:#FFFFFF"/>
	<rect x="2.88" y="2.88" width="3954.12" height="2874.24" style="fill:none;stroke:#FFFFFF;stroke-width:5.76"/>
	<rect x="353.59" y="238.26" width="3502.55" height="2173.55" style="fill:none;stroke:#000000;stroke-width:5.76"/>
	<circle cx="590.29" cy="942.51" r="14.97" style="fill:none;stroke:#606060;stroke-width:8.64"/>
	<circle cx="638.43" cy="2099.86" r="14.97" style="fill:none;stroke:#606060;stroke-width:8.64"/>
	<circle cx="654.39" cy="723.96" r="14.97" style="fill:none;stroke:#606060;stroke-width:8.64"/>
	<circle cx="670.48" cy="897.09" r="14.97" style="fill:none;stroke:#606060;stroke-width:8.64"/>
	<circle cx="686.44" cy="934.59" r="14.97" style="fill:none;stroke:#606060;stroke-width:8.64"/>
	<circle cx="686.44" cy="1176.40" r="14.97" style="fill:none;stroke:#606060;stroke-width:8.64"/>
	<circle cx="686.44" cy="868.38" r="14.97" style="fill:none;stroke:#606060;stroke-width:8.64"/>
	<circle cx="686.44" cy="899.94" r="14.97" style="fill:none;stroke:#606060;stroke-width:8.64"/>
	<circle cx="702.53" cy="878.16" r="14.97" style="fill:none;stroke:#606060;stroke-width:8.64"/>
	<circle cx="702.53" cy="942.51" r="14.97" style="fill:none;stroke:#606060;stroke-width:8.64"/>
	<circle cx="702.53" cy="969.12" r="14.97" style="fill:none;stroke:#606060;stroke-width:8.64"/>
	<circle cx="718.49" cy="859.10" r="14.97" style="fill:none;stroke:#606060;stroke-width:8.64"/>
	<circle cx="718.49" cy="848.46" r="14.97" style="fill:none;stroke:#606060;stroke-width:8.64"/>
	<circle cx="734.58" cy="1003.64" r="14.97" style="fill:none;stroke:#606060;stroke-width:8.64"/>
	<circle cx="750.54" cy="1053.27" r="14.97" style="fill:none;stroke:#606060;stroke-width:8.64"/>
	<circle cx="750.54" cy="1884.90" r="14.97" style="fill:none;stroke:#606060;stroke-width:8.64"/>
	<circle cx="750.54" cy="1428.74" r="14.97" style="fill:none;stroke:#606060;stroke-width:8.64"/>
	<circle cx="750.54" cy="973.45" r="14.97" style="fill:none;stroke:#606060;stroke-width:8.64"/>
	<circle cx="750.54" cy="2025.60" r="14.97" style="fill:none;stroke:#606060;stroke-width:8.64"/>
	<circle cx="766.63" cy="824.82" r="14.97" style="fill:none;stroke:#606060;stroke-width:8.64"/>
	<circle cx="766.63" cy="994.61" r="14.97" style="fill:none;stroke:#606060;stroke-width:8.64"/>
	<circle cx="766.63" cy="951.67" r="14.97" style="fill:none;stroke:#606060;stroke-width:8.64"/>
	<circle cx="766.63" cy="1451.88" r="14.97" style="fill:none;stroke:#606060;stroke-width:8.64"/>
	<circle cx="782.60" cy="878.16" r="14.97" style="fill:none;stroke:#606060;stroke-width:8.64"/>
	<circle cx="782.60" cy="2094.16" r="14.97" style="fill:none;stroke:#606060;stroke-width:8.64"/>
	<circle cx="798.68" cy="1053.76" r="14.97" style="fill:none;stroke:#606060;stroke-width:8.64"/>
	<circle cx="798.68" cy="1179.25" r="14.97" style="fill:none;stroke:#606060;stroke-width:8.64"/>
	<circle cx="798.68" cy="891.15" r="14.97" style="fill:none;stroke:#606060;stroke-width:8.64"/>
	<circle cx="798.68" cy="864.17" r="14.97" style="fill:none;stroke:#606060;stroke-width:8.64"/>
	<circle cx="798.68" cy="938.43" r="14.97" style="fill:none;stroke:#606060;stroke-width:8.64"/>
	<circle cx="798.68" cy="2055.18" r="14.97" style="fill:none;stroke:#606060;stroke-width:8.64"/>
	<circle cx="814.65" cy="953.15" r="14.97" style="fill:none;stroke:#606060;stroke-width:8.64"/>
	<circle cx="814.65" cy="862.69" r="14.97" style="fill:none;stroke:#606060;stroke-width:8.64"/>
	<circle cx="814.65" cy="1012.43" r="14.97" style="fill:none;stroke:#606060;stroke-width:8.64"/>
	<circle cx="814.65" cy="2077.33" r="14.97" style="fill:none;stroke:#606060;stroke-width:8.64"/>
	<circle cx="814.65" cy="1953.08" r="14.97" style="fill:none;stroke:#606060;stroke-width:8.64"/>
	<circle cx="814.65" cy="1176.40" r="14.97" style="fill:none;stroke:#606060;stroke-width:8.64"/>
	<circle cx="830.73" cy="878.16" r="14.97" style="fill:none;stroke:#606060;stroke-width:8.64"/>
	<circle cx="830.73" cy="925.68" r="14.97" style="fill:none;stroke:#606060;stroke-width:8.64"/>
	<circle cx="830.73" cy="1042.50" r="14.97" style="fill:none;stroke:#606060;stroke-width:8.64"/>
	<circle cx="846.70" cy="2050.23" r="14.97" style="fill:none;stroke:#606060;stroke-width:8.64"/>
	<circle cx="846.70" cy="944.49" r="14.97" style="fill:none;stroke:#606060;stroke-width:8.64"/>
	<circle cx="846.70" cy="992.75" r="14.97" style="fill:none;stroke:#606060;stroke-width:8.64"/>
	<circle cx="862.78" cy="1591.47" r="14.97" style="fill:none;stroke:#606060;stroke-width:8.64"/>
	<circle cx="862.78" cy="841.03" r="14.97" style="fill:none;stroke:#606060;stroke-width:8.64"/>
	<circle cx="862.78" cy="952.53" r="14.97" style="fill:none;stroke:#606060;stroke-width:8.64"/>
	<circle cx="862.78" cy="2008.15" r="14.97" style="fill:none;stroke:#606060;stroke-width:8.64"/>
	<circle cx="878.75" cy="778.91" r="14.97" style="fill:none;stroke:#606060;stroke-width:8.64"/>
	<circle cx="878.75" cy="1641.10" r="14.97" style="fill:none;stroke:#606060;stroke-width:8.64"/>
	<circle cx="878.75" cy="921.22" r="14.97" style="fill:none;stroke:#606060;stroke-width:8.64"/>
	<circle cx="878.75" cy="1847.15" r="14.97" style="fill:none;stroke:#606060;stroke-width:8.64"/>
	<circle cx="894.84" cy="935.70" r="14.97" style="fill:none;stroke:#606060;stroke-width:8.64"/>
	<circle cx="894.84" cy="1574.52" r="14.97" style="fill:none;stroke:#606060;stroke-width:8.64"/>
	<circle cx="894.84" cy="1059.46" r="14.97" style="fill:none;stroke:#606060;stroke-width:8.64"/>
	<circle cx="894.84" cy="840.66" r="14.97" style="fill:none;stroke:#606060;stroke-width:8.64"/>
	<circle cx="894.84" cy="1076.53" r="14.97" style="fill:none;stroke:#606060;stroke-width:8.64"/>
	<circle cx="894.84" cy="1113.17" r="14.97" style="fill:none;stroke:#606060;stroke-width:8.64"/>
	<circle cx="894.84" cy="916.03" r="14.97" style="fill:none;stroke:#606060;stroke-width:8.64"/>
	<circle cx="894.84" cy="771.48" r="14.97" style="fill:none;stroke:#606060;stroke-width:8.64"/>
	<circle cx="894.84" cy="1123.56" r="14.97" style="fill:none;stroke:#606060;stroke-width:8.64"/>
	<circle cx="910.80" cy="886.94" r="14.97" style="fill:none;stroke:#606060;stroke-width:8.64"/>
	<circle cx="910.80" cy="1909.40" r="14.97" style="fill:none;stroke:#606060;stroke-width:8.64"/>
	<circle cx="910.80" cy="1007.73" r="14.97" style="fill:none;stroke:#606060;stroke-width:8.64"/>
	<circle cx="910.80" cy="907.98" r="14.97" style="fill:none;stroke:#606060;stroke-width:8.64"/>
	<circle cx="910.80" cy="909.59" r="14.97" style="fill:none;stroke:#606060;stroke-width:8.64"/>
	<circle cx="910.80" cy="1105.37" r="14.97" style="fill:none;stroke:#606060;stroke-width:8.64"/>
	<circle cx="910.80" cy="2095.40" r="14.97" style="fill:none;stroke:#606060;stroke-width:8.64"/>
	<circle cx="910.80" cy="995.35" r="14.97" style="fill:none;stroke:#606060;stroke-width:8.64"/>
	<circle cx="910.80" cy="2071.02" r="14.97" style="fill:none;stroke:#606060;stroke-width:8.64"/>
	<circle cx="910.80" cy="1957.04" r="14.97" style="fill:none;stroke:#606060;stroke-width:8.64"/>
	<circle cx="926.89" cy="907.49" r="14.97" style="fill:none;stroke:#606060;stroke-width:8.64"/>
	<circle cx="926.89" cy="960.83" r="14.97" style="fill:none;stroke:#606060;stroke-width:8.64"/>
	<circle cx="926.89" cy="1931.06" r="14.97" style="fill:none;stroke:#606060;stroke-width:8.64"/>
	<circle cx="926.89" cy="1017.50" r="14.97" style="fill:none;stroke:#606060;stroke-width:8.64"/>
	<circle cx="926.89" cy="935.21" r="14.97" style="fill:none;stroke:#606060;stroke-width:8.64"/>
	<circle cx="926.89" cy="769.75" r="14.97" style="fill:none;stroke:#606060;stroke-width:8.64"/>
	<circle cx="942.98" cy="1041.64" r="14.97" style="fill:none;stroke:#606060;stroke-width:8.64"/>
	<circle cx="942.98" cy="1123.19" r="14.97" style="fill:none;stroke:#606060;stroke-width:8.64"/>
	<circle cx="942.98" cy="942.51" r="14.97" style="fill:none;stroke:#606060;stroke-width:8.64"/>
	<circle cx="942.98" cy="1567.84" r="14.97" style="fill:none;stroke:#606060;stroke-width:8.64"/>
	<circle cx="942.98" cy="2101.22" r="14.97" style="fill:none;stroke:#606060;stroke-width:8.64"/>
	<circle cx="942.98" cy="1039.41" r="14.97" style="fill:none;stroke:#606060;stroke-width:8.64"/>
	<circle cx="942.98" cy="982.98" r="14.97" style="fill:none;stroke:#606060;stroke-width:8.64"/>
	<circle cx="942.98" cy="985.45" r="14.97" style="fill:none;stroke:#606060;stroke-width:8.64"/>
	<circle cx="942.98" cy="1634.05" r="14.97" style="fill:none;stroke:#606060;stroke-width:8.64"/>
	<circle cx="958.94" cy="1946.65" r="14.97" style="fill:none;stroke:#606060;stroke-width:8.64"/>
	<circle cx="958.94" cy="1657.68" r="14.97" style="fill:none;stroke:#606060;stroke-width:8.64"/>
	<circle cx="958.94" cy="1002.41" r="14.97" style="fill:none;stroke:#606060;stroke-width:8.64"/>
	<circle cx="975.03" cy="918.87" r="14.97" style="fill:none;stroke:#606060;stroke-width:8.64"/>
	<circle cx="975.03" cy="1834.28" r="14.97" style="fill:none;stroke:#606060;stroke-width:8.64"/>
	<circle cx="975.03" cy="1030.25" r="14.97" style="fill:none;stroke:#606060;stroke-width:8.64"/>
	<circle cx="990.99" cy="2073.00" r="14.97" style="fill:none;stroke:#606060;stroke-width:8.64"/>
	<circle cx="990.99" cy="1079.50" r="14.97" style="fill:none;stroke:#606060;stroke-width:8.64"/>
	<circle cx="990.99" cy="1973.26" r="14.97" style="fill:none;stroke:#606060;stroke-width:8.64"/>
	<circle cx="990.99" cy="939.66" r="14.97" style="fill:none;stroke:#606060;stroke-width:8.64"/>
	<circle cx="990.99" cy="1659.04" r="14.97" style="fill:none;stroke:#606060;stroke-width:8.64"/>
	<circle cx="990.99" cy="1074.93" r="14.97" style="fill:none;stroke:#606060;stroke-width:8.64"/>
	<circle cx="990.99" cy="972.95" r="14.97" style="fill:none;stroke:#606060;stroke-width:8.64"/>
	<circle cx="990.99" cy="882.98" r="14.97" style="fill:none;stroke:#606060;stroke-width:8.64"/>
	<circle cx="1007.08" cy="915.65" r="14.97" style="fill:none;stroke:#606060;stroke-width:8.64"/>
	<circle cx="1007.08" cy="889.30" r="14.97" style="fill:none;stroke:#606060;stroke-width:8.64"/>
	<circle cx="1007.08" cy="634.86" r="14.97" style="fill:none;stroke:#606060;stroke-width:8.64"/>
	<circle cx="1007.08" cy="905.88" r="14.97" style="fill:none;stroke:#606060;stroke-width:8.64"/>
	<circle cx="1023.04" cy="1765.47" r="14.97" style="fill:none;stroke:#606060;stroke-width:8.64"/>
	<circle cx="1023.04" cy="999.19" r="14.97" style="fill:none;stroke:#606060;stroke-width:8.64"/>
	<circle cx="1023.04" cy="943.62" r="14.97" style="fill:none;stroke:#606060;stroke-width:8.64"/>
	<circle cx="1023.04" cy="1018.00" r="14.97" style="fill:none;stroke:#606060;stroke-width:8.64"/>
	<circle cx="1023.04" cy="724.08" r="14.97" style="fill:none;stroke:#606060;stroke-width:8.64"/>
	<circle cx="1023.04" cy="1070.22" r="14.97" style="fill:none;stroke:#606060;stroke-width:8.64"/>
	<circle cx="1039.13" cy="886.70" r="14.97" style="fill:none;stroke:#606060;stroke-width:8.64"/>
	<circle cx="1039.13" cy="933.23" r="14.97" style="fill:none;stroke:#606060;stroke-width:8.64"/>
	<circle cx="1039.13" cy="1745.30" r="14.97" style="fill:none;stroke:#606060;stroke-width:8.64"/>
	<circle cx="1039.13" cy="1015.90" r="14.97" style="fill:none;stroke:#606060;stroke-width:8.64"/>
	<circle cx="1039.13" cy="774.82" r="14.97" style="fill:none;stroke:#606060;stroke-width:8.64"/>
	<circle cx="1039.13" cy="905.75" r="14.97" style="fill:none;stroke:#606060;stroke-width:8.64"/>
	<circle cx="1039.13" cy="1759.78" r="14.97" style="fill:none;stroke:#606060;stroke-width:8.64"/>
	<circle cx="1039.13" cy="2028.08" r="14.97" style="fill:none;stroke:#606060;stroke-width:8.64"/>
	<circle cx="1055.09" cy="693.52" r="14.97" style="fill:none;stroke:#606060;stroke-width:8.64"/>
	<circle cx="1055.09" cy="990.03" r="14.97" style="fill:none;stroke:#606060;stroke-width:8.64"/>
	<circle cx="1055.09" cy="1006.00" r="14.97" style="fill:none;stroke:#606060;stroke-width:8.64"/>
	<circle cx="1071.18" cy="900.06" r="14.97" style="fill:none;stroke:#606060;stroke-width:8.64"/>
	<circle cx="1071.18" cy="1998.13" r="14.97" style="fill:none;stroke:#606060;stroke-width:8.64"/>
	<circle cx="1071.18" cy="933.23" r="14.97" style="fill:none;stroke:#606060;stroke-width:8.64"/>
	<circle cx="1087.14" cy="1131.98" r="14.97" style="fill:none;stroke:#606060;stroke-width:8.64"/>
	<circle cx="1087.14" cy="983.72" r="14.97" style="fill:none;stroke:#606060;stroke-width:8.64"/>
	<circle cx="1087.14" cy="1006.00" r="14.97" style="fill:none;stroke:#606060;stroke-width:8.64"/>
	<circle cx="1087.14" cy="1926.72" r="14.97" style="fill:none;stroke:#606060;stroke-width:8.64"/>
	<circle cx="1103.23" cy="1887.25" r="14.97" style="fill:none;stroke:#606060;stroke-width:8.64"/>
	<circle cx="1103.23" cy="1969.42" r="14.97" style="fill:none;stroke:#606060;stroke-width:8.64"/>
	<circle cx="1103.23" cy="2041.82" r="14.97" style="fill:none;stroke:#606060;stroke-width:8.64"/>
	<circle cx="1103.23" cy="558.87" r="14.97" style="fill:none;stroke:#606060;stroke-width:8.64"/>
	<circle cx="1119.19" cy="919.37" r="14.97" style="fill:none;stroke:#606060;stroke-width:8.64"/>
	<circle cx="1119.19" cy="788.19" r="14.97" style="fill:none;stroke:#606060;stroke-width:8.64"/>
	<circle cx="1135.28" cy="2141.19" r="14.97" style="fill:none;stroke:#606060;stroke-width:8.64"/>
	<circle cx="1135.28" cy="1080.37" r="14.97" style="fill:none;stroke:#606060;stroke-width:8.64"/>
	<circle cx="1135.28" cy="855.39" r="14.97" style="fill:none;stroke:#606060;stroke-width:8.64"/>
	<circle cx="1135.28" cy="636.59" r="14.97" style="fill:none;stroke:#606060;stroke-width:8.64"/>
	<circle cx="1135.28" cy="1552.86" r="14.97" style="fill:none;stroke:#606060;stroke-width:8.64"/>
	<circle cx="1151.25" cy="849.57" r="14.97" style="fill:none;stroke:#606060;stroke-width:8.64"/>
	<circle cx="1151.25" cy="2246.13" r="14.97" style="fill:none;stroke:#606060;stroke-width:8.64"/>
	<circle cx="1151.25" cy="937.19" r="14.97" style="fill:none;stroke:#606060;stroke-width:8.64"/>
	<circle cx="1151.25" cy="1874.75" r="14.97" style="fill:none;stroke:#606060;stroke-width:8.64"/>
	<circle cx="1151.25" cy="951.17" r="14.97" style="fill:none;stroke:#606060;stroke-width:8.64"/>
	<circle cx="1167.33" cy="1079.01" r="14.97" style="fill:none;stroke:#606060;stroke-width:8.64"/>
	<circle cx="1167.33" cy="1855.81" r="14.97" style="fill:none;stroke:#606060;stroke-width:8.64"/>
	<circle cx="1167.33" cy="1068.86" r="14.97" style="fill:none;stroke:#606060;stroke-width:8.64"/>
	<circle cx="1167.33" cy="1547.05" r="14.97" style="fill:none;stroke:#606060;stroke-width:8.64"/>
	<circle cx="1167.33" cy="919.24" r="14.97" style="fill:none;stroke:#606060;stroke-width:8.64"/>
	<circle cx="1167.33" cy="2103.82" r="14.97" style="fill:none;stroke:#606060;stroke-width:8.64"/>
	<circle cx="1167.33" cy="894.49" r="14.97" style="fill:none;stroke:#606060;stroke-width:8.64"/>
	<circle cx="1183.30" cy="1888.73" r="14.97" style="fill:none;stroke:#606060;stroke-width:8.64"/>
	<circle cx="1183.30" cy="1904.70" r="14.97" style="fill:none;stroke:#606060;stroke-width:8.64"/>
	<circle cx="1183.30" cy="980.13" r="14.97" style="fill:none;stroke:#606060;stroke-width:8.64"/>
	<circle cx="1183.30" cy="447.87" r="14.97" style="fill:none;stroke:#606060;stroke-width:8.64"/>
	<circle cx="1199.38" cy="2014.71" r="14.97" style="fill:none;stroke:#606060;stroke-width:8.64"/>
	<circle cx="1199.38" cy="1532.07" r="14.97" style="fill:none;stroke:#606060;stroke-width:8.64"/>
	<circle cx="1199.38" cy="855.51" r="14.97" style="fill:none;stroke:#606060;stroke-width:8.64"/>
	<circle cx="1215.35" cy="927.66" r="14.97" style="fill:none;stroke:#606060;stroke-width:8.64"/>
	<circle cx="1215.35" cy="970.73" r="14.97" style="fill:none;stroke:#606060;stroke-width:8.64"/>
	<circle cx="1215.35" cy="943.13" r="14.97" style="fill:none;stroke:#606060;stroke-width:8.64"/>
	<circle cx="1215.35" cy="857.24" r="14.97" style="fill:none;stroke:#606060;stroke-width:8.64"/>
	<circle cx="1231.44" cy="1851.73" r="14.97" style="fill:none;stroke:#606060;stroke-width:8.64"/>
	<circle cx="1231.44" cy="819.87" r="14.97" style="fill:none;stroke:#606060;stroke-width:8.64"/>
	<circle cx="1231.44" cy="735.72" r="14.97" style="fill:none;stroke:#606060;stroke-width:8.64"/>
	<circle cx="1231.44" cy="1884.15" r="14.97" style="fill:none;stroke:#606060;stroke-width:8.64"/>
	<circle cx="1231.44" cy="885.09" r="14.97" style="fill:none;stroke:#606060;stroke-width:8.64"/>
	<circle cx="1247.40" cy="893.01" r="14.97" style="fill:none;stroke:#606060;stroke-width:8.64"/>
	<circle cx="1247.40" cy="1942.94" r="14.97" style="fill:none;stroke:#606060;stroke-width:8.64"/>
	<circle cx="1247.40" cy="681.64" r="14.97" style="fill:none;stroke:#606060;stroke-width:8.64"/>
	<circle cx="1247.40" cy="644.76" r="14.97" style="fill:none;stroke:#606060;stroke-width:8.64"/>
	<circle cx="1263.49" cy="1640.23" r="14.97" style="fill:none;stroke:#606060;stroke-width:8.64"/>
	<circle cx="1263.49" cy="1025.80" r="14.97" style="fill:none;stroke:#606060;stroke-width:8.64"/>
	<circle cx="1279.45" cy="748.59" r="14.97" style="fill:none;stroke:#606060;stroke-width:8.64"/>
	<circle cx="1279.45" cy="1972.88" r="14.97" style="fill:none;stroke:#606060;stroke-width:8.64"/>
	<circle cx="1279.45" cy="1016.76" r="14.97" style="fill:none;stroke:#606060;stroke-width:8.64"/>
	<circle cx="1279.45" cy="867.64" r="14.97" style="fill:none;stroke:#606060;stroke-width:8.64"/>
	<circle cx="1279.45" cy="932.36" r="14.97" style="fill:none;stroke:#606060;stroke-width:8.64"/>
	<circle cx="1295.54" cy="926.67" r="14.97" style="fill:none;stroke:#606060;stroke-width:8.64"/>
	<circle cx="1311.50" cy="1027.53" r="14.97" style="fill:none;stroke:#606060;stroke-width:8.64"/>
	<circle cx="1311.50" cy="786.83" r="14.97" style="fill:none;stroke:#606060;stroke-width:8.64"/>
	<circle cx="1311.50" cy="987.31" r="14.97" style="fill:none;stroke:#606060;stroke-width:8.64"/>
	<circle cx="1327.59" cy="498.85" r="14.97" style="fill:none;stroke:#606060;stroke-width:8.64"/>
	<circle cx="1327.59" cy="835.59" r="14.97" style="fill:none;stroke:#606060;stroke-width:8.64"/>
	<circle cx="1327.59" cy="955.75" r="14.97" style="fill:none;stroke:#606060;stroke-width:8.64"/>
	<circle cx="1327.59" cy="892.64" r="14.97" style="fill:none;stroke:#606060;stroke-width:8.64"/>
	<circle cx="1327.59" cy="1897.89" r="14.97" style="fill:none;stroke:#606060;stroke-width:8.64"/>
	<circle cx="1327.59" cy="2007.78" r="14.97" style="fill:none;stroke:#606060;stroke-width:8.64"/>
	<circle cx="1327.59" cy="859.72" r="14.97" style="fill:none;stroke:#606060;stroke-width:8.64"/>
	<circle cx="1343.55" cy="2048.87" r="14.97" style="fill:none;stroke:#606060;stroke-width:8.64"/>
	<circle cx="1343.55" cy="886.08" r="14.97" style="fill:none;stroke:#606060;stroke-width:8.64"/>
	<circle cx="1343.55" cy="1984.89" r="14.97" style="fill:none;stroke:#606060;stroke-width:8.64"/>
	<circle cx="1343.55" cy="792.27" r="14.97" style="fill:none;stroke:#606060;stroke-width:8.64"/>
	<circle cx="1343.55" cy="716.16" r="14.97" style="fill:none;stroke:#606060;stroke-width:8.64"/>
	<circle cx="1343.55" cy="1887.62" r="14.97" style="fill:none;stroke:#606060;stroke-width:8.64"/>
	<circle cx="1343.55" cy="971.84" r="14.97" style="fill:none;stroke:#606060;stroke-width:8.64"/>
	<circle cx="1359.64" cy="952.53" r="14.97" style="fill:none;stroke:#606060;stroke-width:8.64"/>
	<circle cx="1359.64" cy="675.94" r="14.97" style="fill:none;stroke:#606060;stroke-width:8.64"/>
	<circle cx="1359.64" cy="771.98" r="14.97" style="fill:none;stroke:#606060;stroke-width:8.64"/>
	<circle cx="1359.64" cy="1750.62" r="14.97" style="fill:none;stroke:#606060;stroke-width:8.64"/>
	<circle cx="1375.61" cy="935.58" r="14.97" style="fill:none;stroke:#606060;stroke-width:8.64"/>
	<circle cx="1375.61" cy="905.75" r="14.97" style="fill:none;stroke:#606060;stroke-width:8.64"/>
	<circle cx="1391.69" cy="999.56" r="14.97" style="fill:none;stroke:#606060;stroke-width:8.64"/>
	<circle cx="1391.69" cy="892.39" r="14.97" style="fill:none;stroke:#606060;stroke-width:8.64"/>
	<circle cx="1391.69" cy="964.04" r="14.97" style="fill:none;stroke:#606060;stroke-width:8.64"/>
	<circle cx="1391.69" cy="1179.50" r="14.97" style="fill:none;stroke:#606060;stroke-width:8.64"/>
	<circle cx="1391.69" cy="816.16" r="14.97" style="fill:none;stroke:#606060;stroke-width:8.64"/>
	<circle cx="1391.69" cy="750.20" r="14.97" style="fill:none;stroke:#606060;stroke-width:8.64"/>
	<circle cx="1391.69" cy="822.84" r="14.97" style="fill:none;stroke:#606060;stroke-width:8.64"/>
	<circle cx="1407.66" cy="958.72" r="14.97" style="fill:none;stroke:#606060;stroke-width:8.64"/>
	<circle cx="1407.66" cy="795.74" r="14.97" style="fill:none;stroke:#606060;stroke-width:8.64"/>
	<circle cx="1407.66" cy="977.04" r="14.97" style="fill:none;stroke:#606060;stroke-width:8.64"/>
	<circle cx="1423.74" cy="897.59" r="14.97" style="fill:none;stroke:#606060;stroke-width:8.64"/>
	<circle cx="1423.74" cy="2010.51" r="14.97" style="fill:none;stroke:#606060;stroke-width:8.64"/>
	<circle cx="1455.80" cy="1522.30" r="14.97" style="fill:none;stroke:#606060;stroke-width:8.64"/>
	<circle cx="1455.80" cy="1009.09" r="14.97" style="fill:none;stroke:#606060;stroke-width:8.64"/>
	<circle cx="1455.80" cy="1016.27" r="14.97" style="fill:none;stroke:#606060;stroke-width:8.64"/>
	<circle cx="1471.76" cy="2066.07" r="14.97" style="fill:none;stroke:#606060;stroke-width:8.64"/>
	<circle cx="1471.76" cy="2089.58" r="14.97" style="fill:none;stroke:#606060;stroke-width:8.64"/>
	<circle cx="1471.76" cy="906.62" r="14.97" style="fill:none;stroke:#606060;stroke-width:8.64"/>
	<circle cx="1487.85" cy="1104.87" r="14.97" style="fill:none;stroke:#606060;stroke-width:8.64"/>
	<circle cx="1487.85" cy="1950.36" r="14.97" style="fill:none;stroke:#606060;stroke-width:8.64"/>
	<circle cx="1503.81" cy="1026.54" r="14.97" style="fill:none;stroke:#606060;stroke-width:8.64"/>
	<circle cx="1503.81" cy="965.28" r="14.97" style="fill:none;stroke:#606060;stroke-width:8.64"/>
	<circle cx="1519.90" cy="1764.36" r="14.97" style="fill:none;stroke:#606060;stroke-width:8.64"/>
	<circle cx="1519.90" cy="724.95" r="14.97" style="fill:none;stroke:#606060;stroke-width:8.64"/>
	<circle cx="1519.90" cy="1531.83" r="14.97" style="fill:none;stroke:#606060;stroke-width:8.64"/>
	<circle cx="1519.90" cy="1041.76" r="14.97" style="fill:none;stroke:#606060;stroke-width:8.64"/>
	<circle cx="1535.86" cy="928.15" r="14.97" style="fill:none;stroke:#606060;stroke-width:8.64"/>
	<circle cx="1551.95" cy="777.17" r="14.97" style="fill:none;stroke:#606060;stroke-width:8.64"/>
	<circle cx="1551.95" cy="1351.27" r="14.97" style="fill:none;stroke:#606060;stroke-width:8.64"/>
	<circle cx="1567.91" cy="938.55" r="14.97" style="fill:none;stroke:#606060;stroke-width:8.64"/>
	<circle cx="1567.91" cy="862.56" r="14.97" style="fill:none;stroke:#606060;stroke-width:8.64"/>
	<circle cx="1567.91" cy="1750.00" r="14.97" style="fill:none;stroke:#606060;stroke-width:8.64"/>
	<circle cx="1567.91" cy="586.10" r="14.97" style="fill:none;stroke:#606060;stroke-width:8.64"/>
	<circle cx="1584.00" cy="850.68" r="14.97" style="fill:none;stroke:#606060;stroke-width:8.64"/>
	<circle cx="1584.00" cy="780.27" r="14.97" style="fill:none;stroke:#606060;stroke-width:8.64"/>
	<circle cx="1616.05" cy="1888.36" r="14.97" style="fill:none;stroke:#606060;stroke-width:8.64"/>
	<circle cx="1616.05" cy="1004.39" r="14.97" style="fill:none;stroke:#606060;stroke-width:8.64"/>
	<circle cx="1648.10" cy="968.99" r="14.97" style="fill:none;stroke:#606060;stroke-width:8.64"/>
	<circle cx="1664.07" cy="1308.94" r="14.97" style="fill:none;stroke:#606060;stroke-width:8.64"/>
	<circle cx="1664.07" cy="350.10" r="14.97" style="fill:none;stroke:#606060;stroke-width:8.64"/>
	<circle cx="1664.07" cy="1063.05" r="14.97" style="fill:none;stroke:#606060;stroke-width:8.64"/>
	<circle cx="1664.07" cy="857.12" r="14.97" style="fill:none;stroke:#606060;stroke-width:8.64"/>
	<circle cx="1680.15" cy="1134.20" r="14.97" style="fill:none;stroke:#606060;stroke-width:8.64"/>
	<circle cx="1680.15" cy="1949.74" r="14.97" style="fill:none;stroke:#606060;stroke-width:8.64"/>
	<circle cx="1680.15" cy="1013.92" r="14.97" style="fill:none;stroke:#606060;stroke-width:8.64"/>
	<circle cx="1696.12" cy="764.68" r="14.97" style="fill:none;stroke:#606060;stroke-width:8.64"/>
	<circle cx="1696.12" cy="1065.64" r="14.97" style="fill:none;stroke:#606060;stroke-width:8.64"/>
	<circle cx="1712.20" cy="1924.00" r="14.97" style="fill:none;stroke:#606060;stroke-width:8.64"/>
	<circle cx="1712.20" cy="950.31" r="14.97" style="fill:none;stroke:#606060;stroke-width:8.64"/>
	<circle cx="1712.20" cy="1062.92" r="14.97" style="fill:none;stroke:#606060;stroke-width:8.64"/>
	<circle cx="1712.20" cy="778.16" r="14.97" style="fill:none;stroke:#606060;stroke-width:8.64"/>
	<circle cx="1728.17" cy="943.13" r="14.97" style="fill:none;stroke:#606060;stroke-width:8.64"/>
	<circle cx="1728.17" cy="1575.26" r="14.97" style="fill:none;stroke:#606060;stroke-width:8.64"/>
	<circle cx="1744.26" cy="1887.62" r="14.97" style="fill:none;stroke:#606060;stroke-width:8.64"/>
	<circle cx="1760.22" cy="2047.51" r="14.97" style="fill:none;stroke:#606060;stroke-width:8.64"/>
	<circle cx="1760.22" cy="865.91" r="14.97" style="fill:none;stroke:#606060;stroke-width:8.64"/>
	<circle cx="1776.31" cy="936.69" r="14.97" style="fill:none;stroke:#606060;stroke-width:8.64"/>
	<circle cx="1792.27" cy="956.99" r="14.97" style="fill:none;stroke:#606060;stroke-width:8.64"/>
	<circle cx="1792.27" cy="1963.48" r="14.97" style="fill:none;stroke:#606060;stroke-width:8.64"/>
	<circle cx="1808.36" cy="2085.01" r="14.97" style="fill:none;stroke:#606060;stroke-width:8.64"/>
	<circle cx="1808.36" cy="780.89" r="14.97" style="fill:none;stroke:#606060;stroke-width:8.64"/>
	<circle cx="1824.32" cy="766.66" r="14.97" style="fill:none;stroke:#606060;stroke-width:8.64"/>
	<circle cx="1824.32" cy="849.32" r="14.97" style="fill:none;stroke:#606060;stroke-width:8.64"/>
	<circle cx="1840.41" cy="716.16" r="14.97" style="fill:none;stroke:#606060;stroke-width:8.64"/>
	<circle cx="1840.41" cy="876.92" r="14.97" style="fill:none;stroke:#606060;stroke-width:8.64"/>
	<circle cx="1840.41" cy="909.10" r="14.97" style="fill:none;stroke:#606060;stroke-width:8.64"/>
	<circle cx="1904.51" cy="850.07" r="14.97" style="fill:none;stroke:#606060;stroke-width:8.64"/>
	<circle cx="1904.51" cy="2095.77" r="14.97" style="fill:none;stroke:#606060;stroke-width:8.64"/>
	<circle cx="1904.51" cy="1700.13" r="14.97" style="fill:none;stroke:#606060;stroke-width:8.64"/>
	<circle cx="1920.60" cy="994.98" r="14.97" style="fill:none;stroke:#606060;stroke-width:8.64"/>
	<circle cx="1920.60" cy="912.56" r="14.97" style="fill:none;stroke:#606060;stroke-width:8.64"/>
	<circle cx="1936.56" cy="620.87" r="14.97" style="fill:none;stroke:#606060;stroke-width:8.64"/>
	<circle cx="1968.62" cy="927.04" r="14.97" style="fill:none;stroke:#606060;stroke-width:8.64"/>
	<circle cx="1984.70" cy="1905.44" r="14.97" style="fill:none;stroke:#606060;stroke-width:8.64"/>
	<circle cx="2016.75" cy="954.76" r="14.97" style="fill:none;stroke:#606060;stroke-width:8.64"/>
	<circle cx="2032.72" cy="2158.02" r="14.97" style="fill:none;stroke:#606060;stroke-width:8.64"/>
	<circle cx="2048.80" cy="859.72" r="14.97" style="fill:none;stroke:#606060;stroke-width:8.64"/>
	<circle cx="2064.77" cy="961.44" r="14.97" style="fill:none;stroke:#606060;stroke-width:8.64"/>
	<circle cx="2080.86" cy="1010.82" r="14.97" style="fill:none;stroke:#606060;stroke-width:8.64"/>
	<circle cx="2080.86" cy="1418.34" r="14.97" style="fill:none;stroke:#606060;stroke-width:8.64"/>
	<circle cx="2128.87" cy="950.43" r="14.97" style="fill:none;stroke:#606060;stroke-width:8.64"/>
	<circle cx="2144.96" cy="1016.89" r="14.97" style="fill:none;stroke:#606060;stroke-width:8.64"/>
	<circle cx="2160.92" cy="977.53" r="14.97" style="fill:none;stroke:#606060;stroke-width:8.64"/>
	<circle cx="2160.92" cy="1924.74" r="14.97" style="fill:none;stroke:#606060;stroke-width:8.64"/>
	<circle cx="2177.01" cy="956.25" r="14.97" style="fill:none;stroke:#606060;stroke-width:8.64"/>
	<circle cx="2177.01" cy="1305.36" r="14.97" style="fill:none;stroke:#606060;stroke-width:8.64"/>
	<circle cx="2192.97" cy="2092.80" r="14.97" style="fill:none;stroke:#606060;stroke-width:8.64"/>
	<circle cx="2192.97" cy="1100.54" r="14.97" style="fill:none;stroke:#606060;stroke-width:8.64"/>
	<circle cx="2225.03" cy="956.25" r="14.97" style="fill:none;stroke:#606060;stroke-width:8.64"/>
	<circle cx="2241.11" cy="712.20" r="14.97" style="fill:none;stroke:#606060;stroke-width:8.64"/>
	<circle cx="2305.22" cy="1886.75" r="14.97" style="fill:none;stroke:#606060;stroke-width:8.64"/>
	<circle cx="2337.27" cy="1830.44" r="14.97" style="fill:none;stroke:#606060;stroke-width:8.64"/>
	<circle cx="2353.23" cy="922.83" r="14.97" style="fill:none;stroke:#606060;stroke-width:8.64"/>
	<circle cx="2385.28" cy="2032.66" r="14.97" style="fill:none;stroke:#606060;stroke-width:8.64"/>
	<circle cx="2401.37" cy="982.85" r="14.97" style="fill:none;stroke:#606060;stroke-width:8.64"/>
	<circle cx="2449.38" cy="908.35" r="14.97" style="fill:none;stroke:#606060;stroke-width:8.64"/>
	<circle cx="2481.43" cy="843.14" r="14.97" style="fill:none;stroke:#606060;stroke-width:8.64"/>
	<circle cx="2641.69" cy="812.07" r="14.97" style="fill:none;stroke:#606060;stroke-width:8.64"/>
	<circle cx="2689.83" cy="1137.92" r="14.97" style="fill:none;stroke:#606060;stroke-width:8.64"/>
	<circle cx="2753.93" cy="810.71" r="14.97" style="fill:none;stroke:#606060;stroke-width:8.64"/>
	<circle cx="2818.03" cy="2046.15" r="14.97" style="fill:none;stroke:#606060;stroke-width:8.64"/>
	<circle cx="2930.28" cy="1020.72" r="14.97" style="fill:none;stroke:#606060;stroke-width:8.64"/>
	<circle cx="2962.33" cy="999.68" r="14.97" style="fill:none;stroke:#606060;stroke-width:8.64"/>
	<circle cx="2994.38" cy="984.09" r="14.97" style="fill:none;stroke:#606060;stroke-width:8.64"/>
	<circle cx="3010.34" cy="1539.99" r="14.97" style="fill:none;stroke:#606060;stroke-width:8.64"/>
	<circle cx="3154.64" cy="716.53" r="14.97" style="fill:none;stroke:#606060;stroke-width:8.64"/>
	<circle cx="3186.69" cy="1142.25" r="14.97" style="fill:none;stroke:#606060;stroke-width:8.64"/>
	<circle cx="3218.74" cy="806.13" r="14.97" style="fill:none;stroke:#606060;stroke-width:8.64"/>
	<circle cx="3250.79" cy="968.37" r="14.97" style="fill:none;stroke:#606060;stroke-width:8.64"/>
	<circle cx="3266.75" cy="298.74" r="14.97" style="fill:none;stroke:#606060;stroke-width:8.64"/>
	<circle cx="3330.86" cy="868.88" r="14.97" style="fill:none;stroke:#606060;stroke-width:8.64"/>
	<circle cx="3346.94" cy="1561.03" r="14.97" style="fill:none;stroke:#606060;stroke-width:8.64"/>
	<circle cx="3362.91" cy="2064.34" r="14.97" style="fill:none;stroke:#606060;stroke-width:8.64"/>
	<circle cx="3362.91" cy="1034.33" r="14.97" style="fill:none;stroke:#606060;stroke-width:8.64"/>
	<circle cx="3411.05" cy="1938.85" r="14.97" style="fill:none;stroke:#606060;stroke-width:8.64"/>
	<circle cx="3427.01" cy="1984.76" r="14.97" style="fill:none;stroke:#606060;stroke-width:8.64"/>
	<circle cx="3443.10" cy="891.89" r="14.97" style="fill:none;stroke:#606060;stroke-width:8.64"/>
	<circle cx="3443.10" cy="810.71" r="14.97" style="fill:none;stroke:#606060;stroke-width:8.64"/>
	<circle cx="3459.06" cy="1992.56" r="14.97" style="fill:none;stroke:#606060;stroke-width:8.64"/>
	<circle cx="3459.06" cy="683.99" r="14.97" style="fill:none;stroke:#606060;stroke-width:8.64"/>
	<circle cx="3475.15" cy="985.08" r="14.97" style="fill:none;stroke:#606060;stroke-width:8.64"/>
	<circle cx="3491.11" cy="930.01" r="14.97" style="fill:none;stroke:#606060;stroke-width:8.64"/>
	<circle cx="3491.11" cy="1000.55" r="14.97" style="fill:none;stroke:#606060;stroke-width:8.64"/>
	<circle cx="3491.11" cy="873.83" r="14.97" style="fill:none;stroke:#606060;stroke-width:8.64"/>
	<circle cx="3507.20" cy="1591.23" r="14.97" style="fill:none;stroke:#606060;stroke-width:8.64"/>
	<circle cx="3523.16" cy="1518.34" r="14.97" style="fill:none;stroke:#606060;stroke-width:8.64"/>
	<circle cx="3587.26" cy="2045.28" r="14.97" style="fill:none;stroke:#606060;stroke-width:8.64"/>
	<circle cx="3587.26" cy="966.89" r="14.97" style="fill:none;stroke:#606060;stroke-width:8.64"/>
	<circle cx="3603.35" cy="1470.57" r="14.97" style="fill:none;stroke:#606060;stroke-width:8.64"/>
	<circle cx="3603.35" cy="1892.69" r="14.97" style="fill:none;stroke:#606060;stroke-width:8.64"/>
	<circle cx="3603.35" cy="1117.74" r="14.97" style="fill:none;stroke:#606060;stroke-width:8.64"/>
	<circle cx="3619.32" cy="1840.72" r="14.97" style="fill:none;stroke:#606060;stroke-width:8.64"/>
	<circle cx="3619.32" cy="978.77" r="14.97" style="fill:none;stroke:#606060;stroke-width:8.64"/>
	<circle cx="3635.40" cy="848.58" r="14.97" style="fill:none;stroke:#606060;stroke-width:8.64"/>
	<circle cx="3651.37" cy="1750.25" r="14.97" style="fill:none;stroke:#606060;stroke-width:8.64"/>
	<circle cx="3667.45" cy="2147.13" r="14.97" style="fill:none;stroke:#606060;stroke-width:8.64"/>
	<circle cx="3683.42" cy="2098.12" r="14.97" style="fill:none;stroke:#606060;stroke-width:8.64"/>
	<circle cx="3683.42" cy="883.85" r="14.97" style="fill:none;stroke:#606060;stroke-width:8.64"/>
	<circle cx="3683.42" cy="727.55" r="14.97" style="fill:none;stroke:#606060;stroke-width:8.64"/>
	<circle cx="3699.51" cy="848.95" r="14.97" style="fill:none;stroke:#606060;stroke-width:8.64"/>
	<circle cx="3699.51" cy="739.68" r="14.97" style="fill:none;stroke:#606060;stroke-width:8.64"/>
	<circle cx="3715.47" cy="1092.87" r="14.97" style="fill:none;stroke:#606060;stroke-width:8.64"/>
	<circle cx="3715.47" cy="1805.57" r="14.97" style="fill:none;stroke:#606060;stroke-width:8.64"/>
	<circle cx="3731.56" cy="844.87" r="14.97" style="fill:none;stroke:#606060;stroke-width:8.64"/>
	<circle cx="3731.56" cy="2075.60" r="14.97" style="fill:none;stroke:#606060;stroke-width:8.64"/>
	<circle cx="3747.52" cy="730.27" r="14.97" style="fill:none;stroke:#606060;stroke-width:8.64"/>
	<circle cx="3747.52" cy="2031.05" r="14.97" style="fill:none;stroke:#606060;stroke-width:8.64"/>
	<circle cx="3747.52" cy="1048.57" r="14.97" style="fill:none;stroke:#606060;stroke-width:8.64"/>
	<circle cx="3747.52" cy="996.59" r="14.97" style="fill:none;stroke:#606060;stroke-width:8.64"/>
	<circle cx="3747.52" cy="882.12" r="14.97" style="fill:none;stroke:#606060;stroke-width:8.64"/>
	<circle cx="3763.61" cy="964.04" r="14.97" style="fill:none;stroke:#606060;stroke-width:8.64"/>
	<circle cx="3779.57" cy="783.11" r="14.97" style="fill:none;stroke:#606060;stroke-width:8.64"/>
	<circle cx="3795.66" cy="545.63" r="14.97" style="fill:none;stroke:#606060;stroke-width:8.64"/>
	<circle cx="3795.66" cy="1123.44" r="14.97" style="fill:none;stroke:#606060;stroke-width:8.64"/>
	<circle cx="3795.66" cy="908.23" r="14.97" style="fill:none;stroke:#606060;stroke-width:8.64"/>
	<circle cx="3795.66" cy="794.38" r="14.97" style="fill:none;stroke:#606060;stroke-width:8.64"/>
	<path d=" M590.29 1217.12 L638.43 1216.25 L654.39 1220.58 L670.48 1219.59 L686.44 1221.82 L686.44 1219.72 L686.44 1225.66 L686.44 1223.55 L702.53 1227.89 L702.53 1232.34 L702.53 1230.73 L718.49 1225.66 L718.49 1230.73 L734.58 1232.59 L750.54 1230.24 L750.54 1228.38 L750.54 1226.65 L750.54 1224.92 L750.54 1222.69 L766.63 1226.52 L766.63 1224.05 L766.63 1221.08 L766.63 1225.04 L782.60 1223.06 L782.60 1221.08 L798.68 1225.41 L798.68 1222.19 L798.68 1218.73 L798.68 1221.20 L798.68 1220.09 L798.68 1217.37 L814.65 1221.70 L814.65 1220.46 L814.65 1218.48 L814.65 1216.87 L814.65 1215.26 L814.65 1214.27 L830.73 1211.80 L830.73 1210.56 L830.73 1206.72 L846.70 1204.62 L846.70 1203.26 L846.70 1201.65 L862.78 1205.36 L862.78 1209.69 L862.78 1207.84 L862.78 1212.29 L878.75 1210.56 L878.75 1214.64 L878.75 1212.42 L878.75 1209.82 L894.84 1213.28 L894.84 1212.05 L894.84 1210.81 L894.84 1208.09 L894.84 1205.86 L894.84 1208.58 L894.84 1207.22 L894.84 1205.73 L894.84 1204.74 L910.80 1203.14 L910.80 1202.02 L910.80 1201.90 L910.80 1200.04 L910.80 1197.81 L910.80 1195.96 L910.80 1194.84 L910.80 1192.99 L910.80 1192.00 L910.80 1190.51 L926.89 1194.47 L926.89 1195.96 L926.89 1195.09 L926.89 1194.22 L926.89 1198.31 L926.89 1202.39 L942.98 1201.03 L942.98 1200.54 L942.98 1204.00 L942.98 1203.14 L942.98 1202.15 L942.98 1204.62 L942.98 1202.52 L942.98 1203.88 L942.98 1203.26 L958.94 1202.02 L958.94 1200.17 L958.94 1200.78 L975.03 1199.67 L975.03 1198.18 L975.03 1200.54 L990.99 1197.94 L990.99 1196.45 L990.99 1194.72 L990.99 1197.69 L990.99 1196.82 L990.99 1195.83 L990.99 1196.33 L990.99 1192.86 L1007.08 1192.37 L1007.08 1190.88 L1007.08 1190.76 L1007.08 1193.85 L1023.04 1193.11 L1023.04 1191.38 L1023.04 1190.88 L1023.04 1193.73 L1023.04 1192.74 L1023.04 1192.24 L1039.13 1190.64 L1039.13 1189.65 L1039.13 1191.13 L1039.13 1193.85 L1039.13 1197.19 L1039.13 1195.96 L1039.13 1194.97 L1039.13 1193.98 L1055.09 1196.95 L1055.09 1200.41 L1055.09 1198.80 L1071.18 1197.19 L1071.18 1195.83 L1071.18 1193.98 L1087.14 1192.86 L1087.14 1191.75 L1087.14 1190.51 L1087.14 1193.85 L1103.23 1195.71 L1103.23 1194.97 L1103.23 1193.98 L1103.23 1191.87 L1119.19 1190.88 L1119.19 1193.48 L1135.28 1192.62 L1135.28 1196.08 L1135.28 1194.84 L1135.28 1194.10 L1135.28 1193.36 L1151.25 1194.22 L1151.25 1193.36 L1151.25 1192.74 L1151.25 1192.00 L1151.25 1194.47 L1167.33 1194.60 L1167.33 1191.75 L1167.33 1196.58 L1167.33 1197.32 L1167.33 1197.32 L1167.33 1195.71 L1167.33 1199.30 L1183.30 1202.64 L1183.30 1202.76 L1183.30 1206.60 L1183.30 1206.60 L1199.38 1206.85 L1199.38 1206.72 L1199.38 1206.11 L1215.35 1206.35 L1215.35 1202.64 L1215.35 1204.74 L1215.35 1204.99 L1231.44 1201.40 L1231.44 1201.90 L1231.44 1203.88 L1231.44 1203.01 L1231.44 1201.90 L1247.40 1201.65 L1247.40 1197.69 L1247.40 1195.09 L1247.40 1193.98 L1263.49 1196.33 L1263.49 1200.54 L1279.45 1200.91 L1279.45 1200.41 L1279.45 1204.13 L1279.45 1204.25 L1279.45 1203.51 L1295.54 1203.14 L1311.50 1198.68 L1311.50 1198.06 L1311.50 1198.18 L1327.59 1198.56 L1327.59 1197.94 L1327.59 1196.33 L1327.59 1198.31 L1327.59 1202.02 L1327.59 1199.79 L1327.59 1202.02 L1343.55 1205.36 L1343.55 1202.15 L1343.55 1205.98 L1343.55 1203.63 L1343.55 1203.38 L1343.55 1203.01 L1343.55 1207.22 L1359.64 1209.08 L1359.64 1208.46 L1359.64 1208.09 L1359.64 1207.34 L1375.61 1205.98 L1375.61 1206.60 L1391.69 1210.19 L1391.69 1209.20 L1391.69 1213.41 L1391.69 1209.32 L1391.69 1212.91 L1391.69 1213.41 L1391.69 1213.65 L1407.66 1212.91 L1407.66 1208.95 L1407.66 1208.21 L1423.74 1202.76 L1423.74 1199.92 L1455.80 1199.92 L1455.80 1199.30 L1455.80 1196.70 L1471.76 1197.32 L1471.76 1198.31 L1471.76 1199.79 L1487.85 1200.41 L1487.85 1200.66 L1503.81 1201.65 L1503.81 1200.29 L1519.90 1197.07 L1519.90 1197.57 L1519.90 1198.31 L1519.90 1199.17 L1535.86 1197.57 L1551.95 1194.84 L1551.95 1193.11 L1567.91 1193.73 L1567.91 1194.84 L1567.91 1192.37 L1567.91 1192.99 L1584.00 1189.65 L1584.00 1190.14 L1616.05 1187.17 L1616.05 1188.04 L1648.10 1186.30 L1664.07 1186.68 L1664.07 1187.54 L1664.07 1188.66 L1664.07 1189.77 L1680.15 1191.01 L1680.15 1193.11 L1680.15 1194.22 L1696.12 1192.00 L1696.12 1192.74 L1712.20 1193.73 L1712.20 1194.47 L1712.20 1196.33 L1712.20 1196.82 L1728.17 1198.06 L1728.17 1199.17 L1744.26 1196.95 L1760.22 1197.69 L1760.22 1199.42 L1776.31 1200.66 L1792.27 1198.31 L1792.27 1194.84 L1808.36 1196.95 L1808.36 1197.81 L1824.32 1198.68 L1824.32 1199.92 L1840.41 1196.58 L1840.41 1197.69 L1840.41 1197.94 L1904.51 1198.80 L1904.51 1199.67 L1904.51 1196.58 L1920.60 1193.48 L1920.60 1190.14 L1936.56 1186.30 L1968.62 1189.15 L1984.70 1190.39 L2016.75 1192.12 L2032.72 1187.91 L2048.80 1188.41 L2064.77 1189.89 L2080.86 1192.37 L2080.86 1190.76 L2128.87 1192.24 L2144.96 1187.42 L2160.92 1188.66 L2160.92 1185.44 L2177.01 1186.55 L2177.01 1187.05 L2192.97 1183.83 L2192.97 1184.45 L2225.03 1182.72 L2241.11 1183.95 L2305.22 1179.50 L2337.27 1180.86 L2353.23 1177.39 L2385.28 1173.93 L2401.37 1174.80 L2449.38 1178.38 L2481.43 1174.30 L2641.69 1172.57 L2689.83 1174.05 L2753.93 1175.29 L2818.03 1176.40 L2930.28 1177.52 L2962.33 1179.13 L2994.38 1175.79 L3010.34 1177.52 L3154.64 1179.87 L3186.69 1176.16 L3218.74 1177.77 L3250.79 1179.25 L3266.75 1175.17 L3330.86 1177.77 L3346.94 1180.61 L3362.91 1178.14 L3362.91 1179.00 L3411.05 1181.35 L3427.01 1177.02 L3443.10 1177.89 L3443.10 1179.62 L3459.06 1180.98 L3459.06 1182.47 L3475.15 1183.33 L3491.11 1185.56 L3491.11 1186.68 L3491.11 1190.64 L3507.20 1192.62 L3523.16 1193.98 L3587.26 1195.71 L3587.26 1191.63 L3603.35 1186.80 L3603.35 1188.78 L3603.35 1183.71 L3619.32 1185.44 L3619.32 1180.61 L3635.40 1182.96 L3651.37 1185.81 L3667.45 1181.48 L3683.42 1182.84 L3683.42 1184.20 L3683.42 1187.42 L3699.51 1190.02 L3699.51 1186.43 L3715.47 1188.04 L3715.47 1189.89 L3731.56 1191.13 L3731.56 1192.99 L3747.52 1194.60 L3747.52 1194.60 L3747.52 1197.19 L3747.52 1200.17 L3747.52 1202.64 L3763.61 1204.25 L3779.57 1207.10 L3795.66 1208.70 L3795.66 1210.81 L3795.66 1205.24 L3795.66 1203.01" stroke-linejoin="round" style="fill:none;stroke:#000000;stroke-width:8.64"/>
	<line x1="350.71" y1="2414.69" x2="350.71" y2="235.38" style="stroke:#000000;stroke-width:5.76"/>
	<line x1="350.71" y1="2351.32" x2="310.74" y2="2351.32" style="stroke:#000000;stroke-width:5.76"/>
	<text x="266.64" y="2351.32" style="font-family:'Helvetica';font-size:79.94px;fill:#000000" transform="rotate(-90 266.64,2351.32)" text-anchor="middle">-6</text>
	<line x1="350.71" y1="1952.22" x2="310.74" y2="1952.22" style="stroke:#000000;stroke-width:5.76"/>
	<text x="266.64" y="1952.22" style="font-family:'Helvetica';font-size:79.94px;fill:#000000" transform="rotate(-90 266.64,1952.22)" text-anchor="middle">-4</text>
	<line x1="350.71" y1="1553.11" x2="310.74" y2="1553.11" style="stroke:#000000;stroke-width:5.76"/>
	<text x="266.64" y="1553.11" style="font-family:'Helvetica';font-size:79.94px;fill:#000000" transform="rotate(-90 266.64,1553.11)" text-anchor="middle">-2</text>
	<line x1="350.71" y1="1154.00" x2="310.74" y2="1154.00" style="stroke:#000000;stroke-width:5.76"/>
	<text x="266.64" y="1154.00" style="font-family:'Helvetica';font-size:79.94px;fill:#000000" transform="rotate(-90 266.64,1154.00)" text-anchor="middle">0</text>
	<line x1="350.71" y1="754.90" x2="310.74" y2="754.90" style="stroke:#000000;stroke-width:5.76"/>
	<text x="266.64" y="754.90" style="font-family:'Helvetica';font-size:79.94px;fill:#000000" transform="rotate(-90 266.64,754.90)" text-anchor="middle">2</text>
	<line x1="350.71" y1="355.79" x2="310.74" y2="355.79" style="stroke:#000000;stroke-width:5.76"/>
	<text x="266.64" y="355.79" style="font-family:'Helvetica';font-size:79.94px;fill:#000000" transform="rotate(-90 266.64,355.79)" text-anchor="middle">4</text>
	<text x="176.68" y="1325.03" style="font-family:'Helvetica';font-size:79.94px;fill:#000000" transform="rotate(-90 176.68,1325.03)" text-anchor="middle">Scaled Schoenfeld Residuals</text>
	<line x1="350.71" y1="2414.69" x2="3859.02" y2="2414.69" style="stroke:#000000;stroke-width:5.76"/>
	<line x1="414.07" y1="2414.69" x2="414.07" y2="2454.66" style="stroke:#000000;stroke-width:5.76"/>
	<text x="414.07" y="2530.61" style="font-family:'Helvetica';font-size:79.94px;fill:#000000" text-anchor="middle">0</text>
	<line x1="1215.47" y1="2414.69" x2="1215.47" y2="2454.66" style="stroke:#000000;stroke-width:5.76"/>
	<text x="1215.47" y="2530.61" style="font-family:'Helvetica';font-size:79.94px;fill:#000000" text-anchor="middle">50</text>
	<line x1="2016.75" y1="2414.69" x2="2016.75" y2="2454.66" style="stroke:#000000;stroke-width:5.76"/>
	<text x="2016.75" y="2530.61" style="font-family:'Helvetica';font-size:79.94px;fill:#000000" text-anchor="middle">100</text>
	<line x1="2818.03" y1="2414.69" x2="2818.03" y2="2454.66" style="stroke:#000000;stroke-width:5.76"/>
	<text x="2818.03" y="2530.61" style="font-family:'Helvetica';font-size:79.94px;fill:#000000" text-anchor="middle">150</text>
	<line x1="3619.44" y1="2414.69" x2="3619.44" y2="2454.66" style="stroke:#000000;stroke-width:5.76"/>
	<text x="3619.44" y="2530.61" style="font-family:'Helvetica';font-size:79.94px;fill:#000000" text-anchor="middle">200</text>
	<text x="2104.86" y="2620.57" style="font-family:'Helvetica';font-size:79.94px;fill:#000000" text-anchor="middle">Time</text>
	<text x="368.03" y="2737.89" style="font-family:'Helvetica';font-size:79.94px;fill:#000000">bandwidth = .8</text>
	<text x="368.03" y="187.99" style="font-family:'Helvetica';font-size:99.99px;fill:#000000">Schoenfeld residuals against time, DAG adjusted</text>
</svg>
